<svg width="270" height="274" viewBox="0 0 270 274" fill="none" xmlns="http://www.w3.org/2000/svg">
<path d="M258.328 16.2896H53.4321C47.6943 16.2896 43.043 20.9418 43.043 26.6807V186.174C43.043 191.913 47.6943 196.565 53.4321 196.565H258.328C264.066 196.565 268.717 191.913 268.717 186.174V26.6807C268.717 20.9418 264.066 16.2896 258.328 16.2896Z" fill="#1A1A3E"/>
<path d="M258.329 196.896H53.4313C47.5206 196.896 42.7109 192.086 42.7109 186.174V26.6792C42.7109 20.7674 47.5206 15.9568 53.4313 15.9568H258.329C264.239 15.9568 269.049 20.7674 269.049 26.6792V186.174C269.049 192.086 264.239 196.896 258.329 196.896ZM53.4313 16.6208C47.8861 16.6208 43.3748 21.133 43.3748 26.6792V186.174C43.3748 191.72 47.8861 196.232 53.4313 196.232H258.329C263.874 196.232 268.387 191.72 268.387 186.174V26.6792C268.387 21.133 263.875 16.6208 258.329 16.6208H53.4313Z" fill="#6A6A8A"/>
<path d="M268.769 38.8325H43.0949C42.9114 38.8325 42.7637 38.6833 42.7637 38.5013V26.706C42.7637 20.7793 47.5838 15.9568 53.5093 15.9568H258.354C264.28 15.9568 269.1 20.7778 269.1 26.706V38.5013C269.1 38.6848 268.952 38.8325 268.769 38.8325ZM43.426 38.1686H268.436V26.7046C268.436 21.1434 263.913 16.6193 258.353 16.6193H53.5108C47.9508 16.6193 43.4275 21.1434 43.4275 26.7046V38.1686H43.426Z" fill="#6A6A8A"/>
<path d="M243.08 180.18H68.6817C63.7542 180.18 59.7441 176.169 59.7441 171.241V62.8901C59.7441 57.9616 63.7542 53.9507 68.6817 53.9507H243.08C248.009 53.9507 252.018 57.9616 252.018 62.8901V171.239C252.018 176.168 248.008 180.179 243.08 180.179V180.18ZM68.6817 54.6147C64.1197 54.6147 60.408 58.3271 60.408 62.8901V171.239C60.408 175.802 64.1197 179.515 68.6817 179.515H243.08C247.642 179.515 251.355 175.802 251.355 171.239V62.8901C251.355 58.3271 247.644 54.6147 243.08 54.6147H68.6817Z" fill="#6A6A8A"/>
<path d="M235.096 30.4708C236.576 28.9901 236.576 26.5895 235.096 25.1088C233.616 23.6281 231.216 23.6281 229.735 25.1088C228.255 26.5895 228.255 28.9901 229.735 30.4708C231.216 31.9514 233.616 31.9514 235.096 30.4708Z" fill="#FFA305"/>
<path d="M248.49 28.6581C248.971 26.6201 247.709 24.5781 245.671 24.0971C243.634 23.616 241.592 24.8782 241.111 26.9162C240.63 28.9542 241.892 30.9963 243.93 31.4773C245.967 31.9583 248.009 30.6961 248.49 28.6581Z" fill="#FF4626"/>
<path d="M260.884 28.6569C261.365 26.6189 260.103 24.5769 258.066 24.0959C256.028 23.6148 253.986 24.877 253.506 26.915C253.025 28.953 254.287 30.995 256.324 31.476C258.362 31.9571 260.403 30.6949 260.884 28.6569Z" fill="#5B43CB"/>
<path d="M130.21 0.331238H7.29442C3.4492 0.331238 0.332031 3.44901 0.332031 7.29498V95.2885C0.332031 99.1345 3.4492 102.252 7.29442 102.252H130.21C134.055 102.252 137.172 99.1345 137.172 95.2885V7.29498C137.172 3.44901 134.055 0.331238 130.21 0.331238Z" fill="#1A1A3E"/>
<path d="M130.207 102.584H7.29507C3.27308 102.584 0 99.3113 0 95.2871V7.29649C0 3.27372 3.27308 0 7.29507 0H130.209C134.231 0 137.504 3.27372 137.504 7.29649V95.2886C137.504 99.3113 134.231 102.585 130.209 102.585L130.207 102.584ZM7.29507 0.663995C3.63858 0.663995 0.663866 3.63929 0.663866 7.29649V95.2886C0.663866 98.9458 3.63858 101.921 7.29507 101.921H130.209C133.865 101.921 136.84 98.9458 136.84 95.2886V7.29649C136.84 3.63929 133.865 0.663995 130.209 0.663995H7.29507Z" fill="#6A6A8A"/>
<path d="M123.938 13.1949H100.631C99.6669 13.1949 98.8867 12.4145 98.8867 11.4506C98.8867 10.4867 99.6669 9.70628 100.631 9.70628H123.938C124.901 9.70628 125.682 10.4867 125.682 11.4506C125.682 12.4145 124.901 13.1949 123.938 13.1949Z" fill="#151541"/>
<path d="M128.943 20.6644H95.5643C94.6005 20.6644 93.8203 19.8841 93.8203 18.9201C93.8203 17.9562 94.6005 17.1758 95.5643 17.1758H128.943C129.906 17.1758 130.687 17.9562 130.687 18.9201C130.687 19.8841 129.906 20.6644 128.943 20.6644Z" fill="#151541"/>
<path d="M129.029 34.7053H95.6756C94.7119 34.7053 93.9316 33.9249 93.9316 32.961C93.9316 31.9971 94.7119 31.2167 95.6756 31.2167H129.029C129.992 31.2167 130.772 31.9971 130.772 32.961C130.772 33.9249 129.992 34.7053 129.029 34.7053Z" fill="#151541"/>
<path d="M128.917 41.4497H96.2908C95.3271 41.4497 94.5469 40.6693 94.5469 39.7054C94.5469 38.7415 95.3271 37.9611 96.2908 37.9611H128.917C129.881 37.9611 130.661 38.7415 130.661 39.7054C130.661 40.6693 129.881 41.4497 128.917 41.4497Z" fill="#151541"/>
<path d="M129.138 48.3061H96.5115C95.5478 48.3061 94.7676 47.5257 94.7676 46.5618C94.7676 45.5979 95.5478 44.8175 96.5115 44.8175H129.138C130.102 44.8175 130.882 45.5979 130.882 46.5618C130.882 47.5257 130.102 48.3061 129.138 48.3061Z" fill="#151541"/>
<path d="M129.027 55.0505H95.6756C94.7119 55.0505 93.9316 54.2701 93.9316 53.3062C93.9316 52.3422 94.7119 51.5619 95.6756 51.5619H129.027C129.991 51.5619 130.771 52.3422 130.771 53.3062C130.771 54.2701 129.991 55.0505 129.027 55.0505Z" fill="#151541"/>
<path d="M128.918 62.0172H95.5662C94.6025 62.0172 93.8223 61.2368 93.8223 60.2729C93.8223 59.309 94.6025 58.5286 95.5662 58.5286H128.918C129.881 58.5286 130.662 59.309 130.662 60.2729C130.662 61.2368 129.881 62.0172 128.918 62.0172Z" fill="#151541"/>
<path d="M107.775 27.9848H95.6268C94.663 27.9848 93.8828 27.2044 93.8828 26.2405C93.8828 25.2766 94.663 24.4962 95.6268 24.4962H107.775C108.738 24.4962 109.519 25.2766 109.519 26.2405C109.519 27.2044 108.738 27.9848 107.775 27.9848Z" fill="#151541"/>
<path d="M129.109 27.9848H116.291C115.327 27.9848 114.547 27.2044 114.547 26.2405C114.547 25.2766 115.327 24.4962 116.291 24.4962H129.109C130.072 24.4962 130.853 25.2766 130.853 26.2405C130.853 27.2044 130.072 27.9848 129.109 27.9848Z" fill="#151541"/>
<path d="M42.2962 67.5738H9.42364C8.45992 67.5738 7.67969 66.7935 7.67969 65.8295C7.67969 64.8656 8.45992 64.0853 9.42364 64.0853H42.2977C43.2614 64.0853 44.0416 64.8656 44.0416 65.8295C44.0416 66.7935 43.2614 67.5738 42.2977 67.5738H42.2962Z" fill="#151541"/>
<path d="M73.5049 67.4619H48.3377C47.374 67.4619 46.5938 66.6815 46.5938 65.7176C46.5938 64.7537 47.374 63.9733 48.3377 63.9733H73.5049C74.4687 63.9733 75.2489 64.7537 75.2489 65.7176C75.2489 66.6815 74.4687 67.4619 73.5049 67.4619Z" fill="#151541"/>
<path d="M32.4835 60.2982H9.31231C8.34859 60.2982 7.56836 59.5179 7.56836 58.5539C7.56836 57.59 8.34859 56.8096 9.31231 56.8096H32.482C33.4457 56.8096 34.2259 57.59 34.2259 58.5539C34.2259 59.5179 33.4457 60.2982 32.482 60.2982H32.4835Z" fill="#151541"/>
<path d="M73.5902 97.5969H9.9128C8.38815 97.5969 7.14844 96.3569 7.14844 94.832V74.7077C7.14844 73.1842 8.38815 71.9428 9.9128 71.9428H73.5902C75.1149 71.9428 76.3546 73.1827 76.3546 74.7077V94.832C76.3546 96.3554 75.1149 97.5969 73.5902 97.5969ZM9.9128 72.6083C8.75514 72.6083 7.8123 73.5513 7.8123 74.7092V94.8335C7.8123 95.9913 8.75514 96.9344 9.9128 96.9344H73.5902C74.7479 96.9344 75.6907 95.9913 75.6907 94.8335V74.7092C75.6907 73.5513 74.7479 72.6083 73.5902 72.6083H9.9128Z" fill="#493B94"/>
<path d="M129.528 97.5969H83.9812C82.4565 97.5969 81.2168 96.3569 81.2168 94.832V74.7077C81.2168 73.1827 82.4565 71.9428 83.9812 71.9428H129.528C131.052 71.9428 132.291 73.1827 132.291 74.7077V94.832C132.291 96.3569 131.052 97.5969 129.528 97.5969ZM83.9812 72.6083C82.8235 72.6083 81.8807 73.5513 81.8807 74.7092V94.8335C81.8807 95.9913 82.8235 96.9344 83.9812 96.9344H129.528C130.686 96.9344 131.629 95.9913 131.629 94.8335V74.7092C131.629 73.5513 130.686 72.6083 129.528 72.6083H83.9812Z" fill="#493B94"/>
<path d="M86.7435 9.5824H10.1364C8.67065 9.5824 7.48242 10.7709 7.48242 12.2369V45.5217C7.48242 46.9877 8.67065 48.1762 10.1364 48.1762H86.7435C88.2093 48.1762 89.3975 46.9877 89.3975 45.5217V12.2369C89.3975 10.7709 88.2093 9.5824 86.7435 9.5824Z" fill="#A696E7"/>
<path d="M243.83 179.783C243.512 178.124 243.209 176.893 242.936 175.726C240.912 167.094 238.74 160.056 237.154 155.311L232.852 139.633L179.781 149.284C179.781 149.284 178.062 160.875 174.557 179.783H243.828H243.83Z" fill="#121212"/>
<path d="M259.555 106.735C259.555 84.4512 255.229 74.163 224.921 65.8295C217.221 63.7122 205.876 62.8244 194.878 64.0613C164.254 64.4388 152.55 78.1067 141.83 77.768C130.025 77.395 120.221 62.0664 120.221 62.0664C116.314 57.8243 112.171 59.9714 109.953 61.2323C107.297 62.7438 106.162 66.2786 105.683 68.76C105.374 70.3626 105.646 72.0248 106.435 73.4379C110.348 80.4479 124.098 103.48 136.822 105.377C146.917 106.881 167.151 101.26 176.369 99.4784C182.869 122.177 172.547 165.851 172.547 165.851C180.255 160.33 206.069 167.449 222.613 173.737C230.885 176.881 238.312 175.126 243.733 172.023C249.156 168.919 239.551 136.862 239.551 136.862C239.551 136.862 259.555 126.161 259.555 106.733V106.735Z" fill="#BEAFFD"/>
<path d="M231.436 175.744C228.683 175.744 225.686 175.26 222.495 174.049C207.736 168.438 180.651 160.457 172.741 166.123C172.629 166.203 172.478 166.205 172.363 166.129C172.249 166.051 172.193 165.911 172.225 165.776C172.328 165.342 182.365 122.302 176.133 99.8634C174.173 100.25 171.776 100.79 169.023 101.411C158.767 103.724 144.72 106.89 136.774 105.705C123.913 103.789 110.079 80.6478 106.145 73.6005C105.314 72.1114 105.034 70.3715 105.358 68.6989C105.875 66.0175 107.064 62.4961 109.788 60.9458C111.722 59.8461 116.251 57.2677 120.466 61.8426C120.479 61.8575 120.491 61.8724 120.501 61.8888C120.598 62.041 130.349 77.0757 141.842 77.4382C145.873 77.5666 150.098 75.6522 155.449 73.229C164.084 69.3196 175.908 63.9658 194.875 63.7316C205.215 62.5662 216.775 63.2466 225.01 65.5117C240.039 69.6434 248.939 74.3749 253.868 80.8522C258.864 87.4161 259.888 95.948 259.888 106.738C259.888 116.886 254.398 124.619 249.791 129.319C245.426 133.775 241.003 136.423 239.945 137.026C240.367 138.463 242.465 145.728 244 153.216C246.318 164.522 246.284 170.948 243.897 172.313C240.822 174.073 236.553 175.745 231.434 175.745L231.436 175.744ZM181.371 163.553C193.191 163.553 211.508 169.162 222.732 173.428C231.615 176.803 238.966 174.371 243.57 171.736C247.831 169.298 241.886 145.806 239.236 136.959C239.192 136.808 239.259 136.646 239.397 136.571C239.596 136.465 259.225 125.735 259.225 106.735C259.225 85.5748 255.833 74.6733 224.836 66.1503C216.677 63.9077 205.214 63.2332 194.918 64.3926C176.057 64.6269 164.305 69.9478 155.723 73.8318C150.293 76.2893 146.013 78.232 141.823 78.0992C130.104 77.7292 120.554 63.1914 119.96 62.2693C116.567 58.6061 113.082 59.8342 110.118 61.5203C107.613 62.9452 106.502 66.2786 106.01 68.8227C105.716 70.3417 105.971 71.9233 106.726 73.2752C110.622 80.2554 124.311 103.176 136.873 105.047C144.696 106.212 158.673 103.062 168.878 100.762C171.78 100.108 174.285 99.5426 176.309 99.1516C176.475 99.1203 176.643 99.2203 176.691 99.3859C182.662 120.235 174.394 159.135 173.051 165.142C175.053 164.026 177.94 163.552 181.373 163.552L181.371 163.553Z" fill="#5B43CB"/>
<path d="M113.855 76.4803C110.442 76.4803 108.228 72.7008 108.134 72.5381C108.043 72.3799 108.097 72.177 108.256 72.086C108.415 71.995 108.617 72.0487 108.708 72.2083C108.729 72.2442 110.869 75.8685 113.915 75.8178C116.262 75.782 118.584 73.6542 120.819 69.4927C120.906 69.3315 121.107 69.2704 121.268 69.3569C121.429 69.4434 121.49 69.6449 121.404 69.806C119.045 74.1974 116.529 76.443 113.922 76.4818C113.9 76.4818 113.878 76.4818 113.855 76.4818V76.4803Z" fill="#251F47"/>
<path d="M212.026 127.226C211.9 127.226 211.781 127.154 211.724 127.033C211.647 126.868 211.72 126.669 211.886 126.593C223.129 121.39 228.579 113.757 231.17 108.269C233.981 102.316 234.133 97.5297 234.135 97.4819C234.139 97.3014 234.287 97.1582 234.466 97.1582C234.469 97.1582 234.472 97.1582 234.475 97.1582C234.658 97.1626 234.803 97.3148 234.799 97.4984C234.794 97.6983 234.646 102.448 231.785 108.522C229.149 114.119 223.604 121.904 212.164 127.196C212.12 127.217 212.072 127.227 212.026 127.227V127.226Z" fill="#251F47"/>
<path d="M216.995 142.856C216.813 142.856 216.666 142.71 216.664 142.528C216.661 142.344 216.809 142.193 216.992 142.192C230.78 142.028 239.874 136.902 239.964 136.85C240.122 136.759 240.325 136.814 240.416 136.973C240.507 137.131 240.451 137.334 240.293 137.425C240.202 137.477 230.957 142.687 217 142.854H216.995V142.856Z" fill="#251F47"/>
<path d="M204.229 141.646C204.229 141.646 207.055 141.949 212.643 140.549C216.868 139.491 215.621 125.774 210.481 129.49C206.191 132.592 203.68 132.995 203.68 132.995L199.543 130.932C197.919 130.124 196.178 129.592 194.386 129.381C187.255 128.541 187.683 130.188 187.683 130.188C187.377 131.853 187.973 132.105 189.282 132.656L194.86 135.001C195.635 135.327 195.811 136.38 195.187 136.958C194.219 137.853 193.1 138.559 191.887 139.038C189.688 139.906 185.854 141.303 181.905 142.195C180.048 142.616 179.459 144.917 181.171 145.769L193.486 146.676C196.607 146.906 199.685 145.822 202.024 143.671L204.226 141.644L204.229 141.646Z" fill="white"/>
<path d="M194.299 147.038C194.021 147.038 193.742 147.028 193.465 147.007L181.15 146.1C181.106 146.097 181.064 146.085 181.026 146.066C180.177 145.643 179.734 144.858 179.84 143.968C179.961 142.956 180.763 142.114 181.833 141.871C185.85 140.962 189.781 139.512 191.767 138.729C192.944 138.265 194.018 137.587 194.962 136.714C195.176 136.516 195.273 136.225 195.22 135.933C195.17 135.645 194.992 135.416 194.733 135.307L189.155 132.962C187.87 132.422 187.018 132.063 187.348 130.177C187.341 130.052 187.363 129.83 187.566 129.595C188.276 128.781 190.582 128.597 194.424 129.051C196.238 129.264 198.01 129.798 199.69 130.635L203.725 132.647C204.224 132.533 206.593 131.892 210.287 129.221C211.655 128.232 212.676 128.473 213.294 128.849C215.157 129.988 215.832 133.838 215.387 136.752C215.039 139.033 214.068 140.534 212.724 140.871C207.797 142.105 205.013 142.032 204.348 141.989L202.251 143.917C200.067 145.925 197.209 147.038 194.299 147.038ZM181.266 145.443L193.512 146.346C196.523 146.568 199.544 145.504 201.802 143.427L204.004 141.401C204.075 141.337 204.17 141.306 204.264 141.316C204.292 141.319 207.112 141.592 212.563 140.227C213.636 139.958 214.426 138.654 214.732 136.65C215.147 133.935 214.529 130.379 212.949 129.415C212.302 129.02 211.538 129.134 210.677 129.757C206.372 132.869 203.84 133.303 203.734 133.321C203.666 133.332 203.596 133.321 203.534 133.29L199.398 131.228C197.786 130.425 196.087 129.913 194.349 129.709C189.299 129.114 188.266 129.804 188.069 130.031C188.066 130.034 188.007 130.103 188.007 130.103C188.019 130.149 188.021 130.198 188.012 130.246C187.754 131.65 188.106 131.798 189.414 132.348L194.992 134.694C195.456 134.89 195.787 135.309 195.877 135.816C195.968 136.332 195.796 136.849 195.416 137.199C194.41 138.129 193.266 138.85 192.013 139.345C189.566 140.31 185.838 141.646 181.982 142.517C181.06 142.726 180.574 143.435 180.501 144.045C180.429 144.635 180.708 145.14 181.267 145.442L181.266 145.443Z" fill="#251F47"/>
<path d="M86.0636 40.9707C86.3336 40.1545 87.1421 39.677 87.9522 39.8546C90.2138 40.353 101.856 42.9179 104.028 43.4118C106.2 43.9057 106.287 46.3244 107.524 48.5388C108.599 50.4636 112.3 57.5199 116.334 62.4364C117.55 63.9181 117.719 66.0414 116.774 67.7245C116.231 68.6899 115.542 69.6389 114.723 70.1984C112.618 71.6368 111.037 73.3513 106.81 63.2377C106.552 62.6199 106.12 62.0902 105.56 61.7232C104.774 61.2054 103.536 60.2639 102.328 58.8299C102.328 58.8299 95.2473 67.4768 93.4377 49.9205C93.2766 48.3597 93.9718 46.8392 95.2861 46.0723C95.3905 46.0111 95.5009 45.9499 95.6158 45.8887L87.1332 43.1686C86.2456 42.8836 85.7622 41.8898 86.065 40.9752L86.0636 40.9707Z" fill="white"/>
<path d="M112.45 71.6249C112.268 71.6249 112.081 71.5996 111.889 71.5444C110.319 71.0878 108.708 68.6407 106.503 63.3645C106.267 62.802 105.878 62.329 105.377 61.9992C104.6 61.4874 103.461 60.6205 102.321 59.3313C101.644 60.046 99.7555 61.7665 97.7535 61.1651C95.3636 60.4474 93.7986 56.6738 93.1064 49.9518C92.9423 48.3642 93.6062 46.8437 94.8161 45.9783L87.0317 43.482C86.5275 43.3208 86.1157 42.9657 85.8695 42.4822C85.6174 41.9869 85.5727 41.3975 85.7487 40.8678C86.0724 39.8919 87.0511 39.3174 88.0238 39.5323C91.819 40.3679 102.105 42.6359 104.101 43.0895C105.787 43.473 106.345 44.901 106.936 46.4125C107.188 47.0586 107.449 47.7271 107.813 48.3776C107.931 48.588 108.08 48.8611 108.257 49.1849C109.682 51.7841 113.016 57.8705 116.591 62.226C117.887 63.8062 118.077 66.0817 117.062 67.8857C116.388 69.0853 115.664 69.9552 114.91 70.47L114.632 70.6625C113.95 71.137 113.251 71.6249 112.451 71.6249H112.45ZM102.326 58.4972C102.423 58.4972 102.517 58.5405 102.58 58.6151C103.749 60.0028 104.944 60.9189 105.742 61.4442C106.354 61.847 106.83 62.423 107.116 63.1079C109.179 68.0438 110.755 70.5222 112.075 70.9072C112.814 71.1221 113.48 70.6565 114.253 70.1179L114.535 69.9224C115.205 69.4643 115.86 68.6705 116.483 67.5604C117.365 65.9922 117.201 64.0166 116.076 62.6453C112.463 58.2421 109.108 52.1169 107.674 49.5027C107.497 49.1804 107.349 48.9088 107.231 48.6999C106.846 48.0106 106.576 47.3197 106.315 46.6527C105.745 45.1934 105.295 44.04 103.952 43.7356C101.959 43.282 91.6743 41.0155 87.8791 40.1799C87.2376 40.0381 86.5916 40.4246 86.3768 41.0767C86.2544 41.4452 86.2843 41.8376 86.4588 42.1823C86.6229 42.5061 86.8974 42.7434 87.2316 42.8508L95.7142 45.5709C95.841 45.6112 95.932 45.7246 95.9439 45.8574C95.9558 45.9902 95.8857 46.1171 95.7679 46.1797C95.6575 46.2379 95.5516 46.2976 95.4501 46.3558C94.276 47.0422 93.6137 48.4269 93.7643 49.8847C94.5893 57.8944 96.4914 60.0938 97.943 60.5295C99.9748 61.1398 102.048 58.6434 102.068 58.6181C102.131 58.542 102.223 58.4972 102.321 58.4972H102.324H102.326Z" fill="#251F47"/>
<path d="M103.947 55.1966C103.89 55.1966 103.832 55.1817 103.78 55.1519C103.217 54.8236 102.183 54.0895 101.764 53.7896C99.4728 52.1467 98.1943 50.5129 97.6348 49.6847C97.244 49.1058 97.047 48.4567 97.0634 47.8091C97.0963 46.5871 97.8705 46.3155 98.2435 46.1857C99.607 45.7097 101.793 47.0228 102.037 47.1735C102.192 47.269 102.242 47.4734 102.145 47.6301C102.048 47.7853 101.843 47.8345 101.688 47.7375C101.097 47.3734 99.3653 46.4961 98.4613 46.8109C98.1092 46.9333 97.7452 47.0601 97.7258 47.8255C97.7124 48.3359 97.8705 48.8491 98.1838 49.3132C98.7179 50.104 99.9427 51.6678 102.149 53.2494C102.47 53.4792 103.56 54.2551 104.112 54.5789C104.27 54.6714 104.324 54.8743 104.232 55.0325C104.171 55.1385 104.059 55.1966 103.945 55.1966H103.947Z" fill="#251F47"/>
<path d="M102.422 59.2612C102.334 59.2612 102.246 59.2268 102.18 59.1567C100.305 57.1617 100.415 55.0399 100.421 54.9519C100.433 54.7699 100.59 54.6311 100.773 54.6416C100.955 54.6535 101.094 54.8102 101.083 54.9922C101.082 55.0235 101 56.932 102.665 58.7016C102.79 58.8344 102.784 59.0448 102.65 59.1701C102.586 59.2298 102.504 59.2597 102.423 59.2597L102.422 59.2612Z" fill="#251F47"/>
<path d="M213.911 65.3088L213.143 44.5429L198.578 52.193L198.738 65.3178C198.844 68.2438 201.247 69.8762 201.247 69.8762C204.223 72.1397 208.393 71.7294 211.427 69.5479L212.13 69.0436C213.306 68.1991 213.978 66.789 213.911 65.3088Z" fill="white"/>
<path d="M205.901 71.7324C204.144 71.7324 202.448 71.2042 201.047 70.1388C200.957 70.0791 198.52 68.387 198.408 65.3282L198.248 52.196C198.247 52.0707 198.315 51.9558 198.426 51.8976L212.99 44.2474C213.092 44.1937 213.213 44.1967 213.311 44.2534C213.41 44.3101 213.472 44.4146 213.477 44.528L214.245 65.2924C214.317 66.8919 213.601 68.3945 212.327 69.3107L211.624 69.815C209.852 71.0893 207.839 71.7309 205.903 71.7309L205.901 71.7324ZM198.913 52.3915L199.072 65.3133C199.17 68.02 201.412 69.5852 201.435 69.6016C204.157 71.6712 208.091 71.5384 211.234 69.2778L211.937 68.7735C213.028 67.9886 213.642 66.6994 213.58 65.3237V65.3207L212.831 45.0815L198.912 52.393L198.913 52.3915Z" fill="#251F47"/>
<path d="M191.968 20.7599C195.856 20.5287 190.969 24.6454 205.346 20.3242C211.071 18.6038 208.176 25.4795 209.661 25.0379C215.151 23.404 214.962 23.4532 217.641 24.1784C219.415 24.6574 220.571 28.0236 220.237 30.5378C219.797 33.8563 217.134 34.7143 214.778 41.7288C213.123 46.6543 213.53 49.646 211.611 50.3652C209.672 51.0918 208.238 48.4135 206.062 49.0431C203.245 49.8578 203.802 54.8759 201.06 56.9574C199.331 58.2704 195.307 58.8792 188.859 55.6533C187.815 55.131 187.278 53.909 187.587 52.7511C187.982 51.2679 188.492 49.3968 189.125 47.651C192.138 39.3309 195.016 37.4493 193.973 35.2947C192.376 31.9926 186.304 33.8876 185.298 31.175C184.254 28.3578 186.647 21.0792 191.97 20.7614L191.968 20.7599Z" fill="#090926"/>
<path d="M205.535 35.0828L204.422 37.2195C203.898 38.2267 203.443 39.2667 203.058 40.3396C202.336 42.3495 200.968 45.7485 200.219 47.6704C197.815 53.8463 190.433 47.0616 190.433 47.0616L189.92 45.3621L188.928 44.9458C188.735 44.8652 188.558 44.7443 188.431 44.5742C188.113 44.1519 188.112 43.5924 188.382 43.1806C189.865 40.926 192.957 35.8647 194.069 31.3212C194.069 31.3212 200.403 29.6366 205.535 35.0813V35.0828Z" fill="white"/>
<path d="M196.883 50.5979C193.831 50.5979 190.371 47.454 190.212 47.3063C190.168 47.266 190.136 47.2153 190.119 47.1586L189.651 45.6083L188.802 45.2532C188.539 45.1427 188.321 44.9786 188.168 44.7757C187.775 44.2549 187.75 43.5417 188.107 43C189.431 40.9872 192.631 35.8095 193.749 31.2451C193.777 31.1272 193.868 31.0347 193.986 31.0034C194.052 30.9855 200.572 29.3337 205.779 34.8575C205.876 34.9605 205.897 35.1127 205.831 35.238L204.718 37.3747C204.204 38.364 203.75 39.401 203.373 40.453C202.849 41.9138 201.97 44.1385 201.265 45.9261C200.992 46.6199 200.738 47.2616 200.532 47.7913C199.944 49.2998 199.016 50.2115 197.774 50.501C197.484 50.5681 197.186 50.5994 196.885 50.5994L196.883 50.5979ZM190.726 46.8766C191.263 47.3496 194.939 50.4771 197.623 49.8534C198.639 49.6176 199.409 48.8417 199.913 47.5495C200.119 47.0198 200.373 46.3767 200.647 45.6814C201.351 43.8983 202.227 41.678 202.748 40.2277C203.135 39.1474 203.601 38.0835 204.13 37.0674L205.133 35.141C200.711 30.6035 195.397 31.3898 194.343 31.6017C193.204 36.0453 190.304 40.8648 188.66 43.3641C188.459 43.6715 188.472 44.0789 188.697 44.3758C188.779 44.4847 188.905 44.5757 189.058 44.6414L190.051 45.0577C190.142 45.0965 190.212 45.1726 190.24 45.2681L190.728 46.8796L190.726 46.8766Z" fill="#251F47"/>
<path d="M203.967 42.5419C203.967 42.5419 206.634 37.4001 208.639 39.1518C210.644 40.9021 207.568 46.4871 203.967 42.5419Z" fill="white"/>
<path d="M194.088 43.4193C193.524 43.4193 193.051 43.2373 192.677 42.8762C191.983 42.2062 191.684 40.9305 191.787 39.0817C191.866 37.6612 192.265 36.8122 193.003 36.4854C193.548 36.2437 194.125 36.2273 194.628 36.4377C195.044 36.6123 195.362 36.9241 195.501 37.2927C196.387 39.6472 196.017 41.581 195.375 42.6046C195.072 43.0896 194.705 43.3746 194.344 43.4074C194.256 43.4149 194.17 43.4193 194.086 43.4193H194.088ZM193.891 36.954C193.689 36.954 193.479 37.0002 193.273 37.0912C192.784 37.3076 192.515 37.9716 192.45 39.119C192.359 40.7425 192.596 41.878 193.138 42.4002C193.425 42.6778 193.803 42.7926 194.285 42.7479C194.397 42.7374 194.61 42.5778 194.814 42.254C195.347 41.405 195.683 39.6577 194.881 37.5269C194.808 37.3315 194.617 37.1539 194.373 37.051C194.222 36.9883 194.059 36.9569 193.891 36.9569V36.954Z" fill="#251F47"/>
<path d="M206.377 38.5431C206.363 38.5431 206.349 38.5431 206.334 38.5401L194.179 36.9524C193.997 36.9286 193.868 36.7629 193.894 36.5809C193.918 36.3989 194.082 36.2705 194.265 36.2944L206.421 37.882C206.603 37.9059 206.731 38.0715 206.706 38.2536C206.683 38.4207 206.542 38.5431 206.377 38.5431Z" fill="#251F47"/>
<path d="M188.778 42.1182C188.727 42.1182 188.677 42.1078 188.63 42.0854C188.281 41.9183 188.032 41.2677 187.914 40.8947C187.544 39.7189 187.419 37.9835 188.178 36.6376C188.433 36.1855 188.797 35.911 189.261 35.8244C190.412 35.6066 191.759 36.6884 191.815 36.7346C191.957 36.8495 191.978 37.0584 191.863 37.2016C191.748 37.3434 191.539 37.3658 191.396 37.2494C191.075 36.9898 190.083 36.3437 189.384 36.4765C189.118 36.5272 188.912 36.6869 188.756 36.9644C187.738 38.7684 188.612 41.2558 188.93 41.496C189.096 41.5751 189.158 41.769 189.079 41.9347C189.023 42.0525 188.902 42.1197 188.778 42.1197V42.1182Z" fill="#251F47"/>
<path d="M112.522 173.407C117.603 173.407 121.723 169.287 121.723 164.205C121.723 159.123 117.603 155.003 112.522 155.003C107.441 155.003 103.322 159.123 103.322 164.205C103.322 169.287 107.441 173.407 112.522 173.407Z" fill="white"/>
<path d="M142.604 173.407C147.686 173.407 151.805 169.287 151.805 164.205C151.805 159.123 147.686 155.003 142.604 155.003C137.523 155.003 133.404 159.123 133.404 164.205C133.404 169.287 137.523 173.407 142.604 173.407Z" fill="white"/>
<path d="M142.605 173.74C137.349 173.74 133.072 169.464 133.072 164.205C133.072 158.947 137.348 154.671 142.605 154.671C147.862 154.671 152.138 158.947 152.138 164.205C152.138 169.464 147.861 173.74 142.605 173.74ZM142.605 155.335C137.715 155.335 133.736 159.314 133.736 164.205C133.736 169.097 137.715 173.076 142.605 173.076C147.495 173.076 151.474 169.097 151.474 164.205C151.474 159.314 147.495 155.335 142.605 155.335Z" fill="#9C84F4"/>
<path d="M139.549 167.767V160.644C139.549 160.28 139.931 160.044 140.256 160.203L147.378 163.72C147.74 163.899 147.743 164.416 147.382 164.598L140.26 168.204C139.934 168.37 139.549 168.133 139.549 167.767Z" fill="#9C84F4"/>
<path d="M172.688 173.407C177.77 173.407 181.889 169.287 181.889 164.205C181.889 159.123 177.77 155.003 172.688 155.003C167.607 155.003 163.488 159.123 163.488 164.205C163.488 169.287 167.607 173.407 172.688 173.407Z" fill="white"/>
<path d="M172.689 173.74C167.433 173.74 163.156 169.464 163.156 164.205C163.156 158.947 167.433 154.671 172.689 154.671C177.945 154.671 182.222 158.947 182.222 164.205C182.222 169.464 177.946 173.74 172.689 173.74ZM172.689 155.335C167.799 155.335 163.82 159.314 163.82 164.205C163.82 169.097 167.799 173.076 172.689 173.076C177.579 173.076 181.558 169.097 181.558 164.205C181.558 159.314 177.579 155.335 172.689 155.335Z" fill="#9C84F4"/>
<path d="M175.707 167.545C175.622 167.545 175.537 167.512 175.473 167.448L169.334 161.308C169.204 161.178 169.204 160.967 169.334 160.839C169.463 160.709 169.674 160.709 169.802 160.839L175.941 166.979C176.071 167.109 176.071 167.319 175.941 167.448C175.877 167.512 175.792 167.545 175.707 167.545Z" fill="#9C84F4"/>
<path d="M169.568 167.545C169.483 167.545 169.398 167.512 169.334 167.448C169.204 167.318 169.204 167.108 169.334 166.979L175.473 160.839C175.602 160.709 175.813 160.709 175.941 160.839C176.071 160.969 176.071 161.179 175.941 161.308L169.802 167.448C169.738 167.512 169.653 167.545 169.568 167.545Z" fill="#9C84F4"/>
<path d="M128.691 127.695C128.582 127.695 128.474 127.641 128.412 127.542C128.313 127.389 128.358 127.183 128.512 127.084L144.795 116.615C144.95 116.517 145.154 116.562 145.253 116.715C145.351 116.869 145.307 117.075 145.153 117.174L128.87 127.642C128.814 127.678 128.752 127.695 128.691 127.695Z" fill="#251F47"/>
<path d="M107.058 141.603C106.949 141.603 106.841 141.549 106.779 141.45C106.68 141.297 106.725 141.091 106.879 140.992L121.621 131.514C121.775 131.416 121.981 131.461 122.079 131.614C122.178 131.768 122.133 131.974 121.979 132.072L107.237 141.55C107.182 141.586 107.119 141.603 107.058 141.603Z" fill="#251F47"/>
<path d="M121.155 143.987C121.047 143.987 120.939 143.933 120.876 143.835C120.778 143.681 120.823 143.475 120.976 143.377L158.891 119C159.047 118.901 159.251 118.946 159.349 119.1C159.448 119.254 159.403 119.459 159.249 119.558L121.333 143.935C121.278 143.971 121.215 143.987 121.154 143.987H121.155Z" fill="#251F47"/>
<path d="M76.408 212.704L29.9404 212.241C21.5369 212.241 14.3507 206.755 12.8783 198.402L4.92381 153.259C3.9765 147.881 8.07307 142.945 13.4825 142.945H43.8025L76.4095 212.704H76.408Z" fill="white"/>
<path d="M76.4083 213.035H76.4054L29.9377 212.573C21.1672 212.573 14.0169 206.768 12.5519 198.458L4.59744 153.316C4.12602 150.637 4.85404 147.911 6.59501 145.834C8.3136 143.787 10.8229 142.611 13.4828 142.611H43.8028C43.9311 142.611 44.049 142.686 44.1027 142.802L76.7097 212.561C76.7574 212.664 76.75 212.784 76.6888 212.88C76.6276 212.975 76.5232 213.032 76.4098 213.032L76.4083 213.035ZM13.4828 143.277C11.0198 143.277 8.69551 144.365 7.10372 146.262C5.48807 148.189 4.81227 150.718 5.25087 153.202L13.2053 198.345C14.6121 206.332 21.4939 211.91 29.9407 211.91L75.8847 212.367L43.591 143.277H13.4828Z" fill="#251F47"/>
<path d="M48.6852 267.899H41.041V212.161L48.6852 212.452V267.899Z" fill="#251F47"/>
<path d="M62.9175 258.575H28.5278C23.1631 258.575 18.8145 262.924 18.8145 268.29H72.6324C72.6324 262.924 68.2837 258.575 62.919 258.575H62.9175Z" fill="#251F47"/>
<path d="M17.4928 178.131C17.3346 178.131 17.1944 178.018 17.1661 177.857L13.3097 155.943C13.2783 155.763 13.3977 155.591 13.5782 155.56C13.7602 155.529 13.9303 155.649 13.9616 155.829L17.818 177.742C17.8493 177.922 17.73 178.094 17.5495 178.125C17.5301 178.128 17.5107 178.13 17.4913 178.13L17.4928 178.131Z" fill="#251F47"/>
<path d="M61.2537 107.055L61.2537 107.055C57.4872 107.388 55.1657 107.168 53.4142 107.001C53.1297 106.974 52.8602 106.948 52.6021 106.927C51.6844 106.85 50.9349 106.827 50.1503 106.957C49.3689 107.086 48.526 107.371 47.441 107.945L61.2537 107.055ZM61.2537 107.055C62.591 106.937 63.746 107.476 64.7979 108.584C65.863 109.707 66.7955 111.389 67.6415 113.476C68.9789 116.776 68.4242 119.417 66.714 121.131C65.1473 122.701 63.5662 124.989 61.9463 127.586C61.0136 129.082 60.0539 130.703 59.071 132.364C58.3501 133.582 57.6167 134.821 56.8723 136.047C55.1029 138.961 53.2514 141.835 51.2849 144.31C49.3161 146.789 47.2521 148.842 45.0667 150.137C41.584 152.201 36.1285 153.07 30.6579 152.309C25.1938 151.549 19.8118 149.178 16.4284 144.878C13.1737 140.74 11.3062 135.683 11.1666 131.006C11.0271 126.333 12.6094 122.086 16.195 119.462L16.195 119.462C19.3506 117.151 22.3744 117.947 25.7026 118.876C25.7482 118.889 25.7938 118.902 25.8395 118.915C29.0863 119.822 32.617 120.81 36.3556 118.412L36.3556 118.412C39.9493 116.107 41.7262 113.99 43.1229 112.183C43.2485 112.021 43.3705 111.862 43.49 111.706C44.6975 110.131 45.6456 108.895 47.441 107.945L61.2537 107.055Z" fill="#9C84F4" stroke="#5B43CB"/>
<path d="M104.725 240.705C104.661 240.971 107.771 255.207 107.771 255.207L100.621 254.01L98.4668 241.973L104.724 240.705H104.725Z" fill="white"/>
<path d="M107.771 255.54C107.753 255.54 107.735 255.54 107.716 255.535L100.566 254.339C100.427 254.315 100.318 254.207 100.294 254.07L98.1399 242.033C98.1086 241.855 98.2235 241.685 98.401 241.65L104.658 240.381C104.77 240.359 104.884 240.395 104.962 240.477C105.026 240.544 105.059 240.633 105.055 240.723C105.102 241.314 106.894 249.646 108.093 255.138C108.117 255.246 108.086 255.358 108.01 255.438C107.947 255.504 107.859 255.541 107.77 255.541L107.771 255.54ZM100.907 253.722L107.343 254.8C105.217 245.064 104.616 242.057 104.455 241.099L98.8515 242.234L100.907 253.722Z" fill="#251F47"/>
<path d="M103.975 250.538C104.412 250.17 105.037 249.811 105.834 249.777C107.032 249.726 108.125 250.477 108.62 251.578C109.86 254.334 113.13 262.013 114.054 268.288C114.38 270.506 112.707 272.31 110.1 270.856C105.828 268.475 99.9007 263.008 96.7977 254.932C96.4411 254.006 96.5694 252.957 97.1542 252.157C97.6316 251.504 98.2806 250.713 99.0325 250.038C99.7515 249.394 100.833 249.385 101.579 249.998L102.25 250.55C102.755 250.965 103.477 250.957 103.976 250.538H103.975Z" fill="white"/>
<path d="M111.86 271.713C111.337 271.713 110.695 271.568 109.937 271.146C105.466 268.654 99.5856 263.118 96.4855 255.05C96.0842 254.006 96.2334 252.849 96.8838 251.96C97.5119 251.102 98.1594 250.373 98.8083 249.791C99.6512 249.036 100.904 249.015 101.788 249.741L102.459 250.293C102.836 250.604 103.384 250.599 103.761 250.283C104.376 249.765 105.087 249.476 105.818 249.444C107.121 249.388 108.361 250.192 108.923 251.441C110.257 254.407 113.46 261.98 114.382 268.238C114.57 269.516 114.146 270.685 113.275 271.288C112.99 271.485 112.517 271.713 111.862 271.713H111.86ZM100.321 249.874C99.9376 249.874 99.5557 250.011 99.2514 250.284C98.6367 250.835 98.0191 251.532 97.4194 252.353C96.9032 253.06 96.7854 253.979 97.1061 254.813C100.142 262.714 105.892 268.132 110.261 270.567C111.292 271.141 112.229 271.204 112.897 270.743C113.56 270.286 113.877 269.364 113.725 268.336C112.817 262.16 109.641 254.655 108.317 251.714C107.865 250.71 106.875 250.064 105.847 250.107C105.255 250.132 104.697 250.362 104.188 250.79C103.567 251.313 102.663 251.319 102.038 250.805L101.367 250.253C101.059 250.001 100.69 249.874 100.321 249.874Z" fill="#251F47"/>
<path d="M112.427 269.214C111.864 269.214 105.836 268.861 98.5259 254.41C98.4438 254.246 98.508 254.048 98.6721 253.964C98.8362 253.882 99.0346 253.946 99.1181 254.11C106.445 268.594 112.378 268.548 112.439 268.55C112.628 268.542 112.776 268.687 112.782 268.869C112.788 269.052 112.645 269.206 112.463 269.212C112.455 269.212 112.445 269.212 112.428 269.212L112.427 269.214Z" fill="#251F47"/>
<path d="M107.85 261.258C107.717 261.258 107.593 261.178 107.541 261.047C107.474 260.877 107.557 260.685 107.727 260.617L111.117 259.28C111.288 259.213 111.479 259.297 111.546 259.467C111.613 259.637 111.53 259.83 111.36 259.897L107.97 261.234C107.93 261.25 107.89 261.258 107.848 261.258H107.85Z" fill="#251F47"/>
<path d="M106.662 258.661C106.529 258.661 106.404 258.581 106.353 258.449C106.286 258.279 106.371 258.087 106.543 258.02L110.518 256.472C110.688 256.407 110.881 256.49 110.948 256.662C111.014 256.832 110.93 257.024 110.758 257.092L106.783 258.639C106.744 258.654 106.702 258.661 106.662 258.661Z" fill="#251F47"/>
<path d="M74.2156 240.666C74.1634 240.774 73.7665 242.445 73.4562 245.262C72.9401 249.955 78.1913 254.3 78.1913 254.3L65.7539 252.623L66.2298 241.763L74.2156 240.666Z" fill="white"/>
<path d="M78.1908 254.631C78.1759 254.631 78.161 254.631 78.146 254.628L65.7086 252.951C65.5386 252.928 65.4147 252.779 65.4222 252.608L65.8981 241.748C65.9055 241.588 66.0249 241.456 66.1845 241.433L74.1703 240.336C74.2926 240.32 74.412 240.371 74.4836 240.469C74.5522 240.563 74.5656 240.687 74.5209 240.795C74.4478 241.008 74.0718 242.7 73.7869 245.298C73.2961 249.761 78.3519 254.001 78.4041 254.043C78.5175 254.137 78.5563 254.297 78.4966 254.431C78.4429 254.553 78.3236 254.63 78.1923 254.63L78.1908 254.631ZM66.098 252.335L77.1868 253.83C75.7054 252.376 72.7173 248.946 73.126 245.226C73.3423 243.258 73.6064 241.805 73.772 241.063L66.547 242.055L66.0965 252.335H66.098Z" fill="#251F47"/>
<path d="M68.6225 249.471C69.352 249.231 69.185 248.103 69.7817 247.572C70.6813 246.771 71.8076 246.787 72.8802 247.327C75.5625 248.68 82.8904 252.569 87.5211 256.857C89.1576 258.373 88.9831 260.838 86.0501 261.365C81.2449 262.23 73.2308 261.75 65.7836 257.448C64.9288 256.954 64.3738 256.059 64.329 255.065C64.2932 254.254 64.329 251.565 64.4946 250.562C64.6513 249.604 65.4867 248.909 66.4474 248.912H67.3142C67.9646 248.916 68.0019 249.674 68.6196 249.471H68.6225Z" fill="white"/>
<path d="M81.6976 262.06C76.9938 262.06 71.1459 260.928 65.6201 257.735C64.6549 257.178 64.0507 256.184 64.0015 255.08C63.9642 254.251 64.0015 251.544 64.1715 250.508C64.355 249.391 65.3113 248.58 66.4466 248.58H67.3193C67.7609 248.583 68.007 248.827 68.1861 249.004C68.3681 249.185 68.3964 249.197 68.5202 249.156C68.7515 249.08 68.844 248.822 68.9767 248.409C69.0946 248.04 69.2289 247.623 69.563 247.324C70.5059 246.483 71.7381 246.38 73.0315 247.032C75.9182 248.488 83.1298 252.338 87.7485 256.614C88.6898 257.485 89.0896 258.661 88.7928 259.679C88.6167 260.282 88.0334 261.346 86.1119 261.692C84.8185 261.925 83.3282 262.06 81.6991 262.06H81.6976ZM66.4451 249.244C65.6365 249.244 64.9548 249.82 64.825 250.617C64.6653 251.595 64.628 254.265 64.6638 255.052C64.7026 255.929 65.1845 256.718 65.9528 257.162C73.2374 261.371 81.0815 261.925 85.9941 261.04C87.1577 260.831 87.926 260.282 88.1557 259.494C88.3825 258.718 88.0543 257.802 87.2979 257.102C82.7419 252.882 75.5945 249.07 72.7332 247.626C72.0022 247.257 70.9355 246.991 70.0046 247.821C69.8047 247.999 69.7092 248.297 69.6093 248.613C69.4601 249.077 69.293 249.603 68.7291 249.789C68.2084 249.961 67.916 249.671 67.7206 249.479C67.5684 249.328 67.4804 249.249 67.3178 249.249H66.4511C66.4511 249.249 66.4481 249.247 66.4466 249.247L66.4451 249.244Z" fill="#251F47"/>
<path d="M81.58 259.888C78.4472 259.888 73.7061 259.033 66.8034 255.941C66.6363 255.867 66.5618 255.67 66.6363 255.502C66.7109 255.335 66.9079 255.261 67.0749 255.335C81.7964 261.931 86.3808 258.127 86.427 258.087C86.5643 257.966 86.7746 257.979 86.8954 258.117C87.0163 258.254 87.0029 258.464 86.8656 258.585C86.7597 258.678 85.3066 259.886 81.5815 259.886L81.58 259.888Z" fill="#251F47"/>
<path d="M78.1131 255.411C78.0579 255.411 78.0027 255.398 77.9505 255.368C77.7909 255.279 77.7342 255.076 77.8237 254.916L79.6228 251.723C79.7123 251.563 79.9152 251.507 80.0749 251.598C80.2345 251.687 80.2912 251.89 80.2017 252.05L78.4025 255.243C78.3414 255.35 78.2295 255.411 78.1131 255.411Z" fill="#251F47"/>
<path d="M75.5685 254.148C75.5103 254.148 75.4506 254.131 75.3954 254.098C75.2388 254.003 75.1895 253.798 75.285 253.642L77.3109 250.316C77.4064 250.159 77.6093 250.11 77.7674 250.205C77.9241 250.301 77.9733 250.505 77.8778 250.662L75.8519 253.988C75.7892 254.091 75.6803 254.148 75.5685 254.148Z" fill="#251F47"/>
<path d="M40.5151 185.925C40.5151 185.925 84.0543 184.034 88.8132 188.455C95.2699 194.452 106.362 244.374 106.362 244.374L95.6518 247.378C95.6518 247.378 79.5161 206.407 75.518 206.407C71.5199 206.407 33.8242 205.061 33.8242 205.061L40.5151 185.925Z" fill="#251F47"/>
<path d="M31.9482 184.549C31.9482 184.549 26.2062 201.41 30.7756 204.485C35.3451 207.56 68.2818 207.299 67.1406 206.914C65.9978 206.529 64.1957 234.522 64.1957 245.286L74.5669 245.686C74.5669 245.686 91.0934 202.396 89.3122 197.563C86.1256 188.916 62.0967 185.996 54.2452 184.841C52.628 184.603 31.9497 184.55 31.9497 184.55L31.9482 184.549Z" fill="#251F47"/>
<path d="M83.8339 221.379C83.8011 221.379 83.7668 221.375 83.7325 221.363C83.558 221.307 83.4625 221.119 83.5177 220.945C83.8906 219.781 84.2606 218.635 84.6246 217.513C87.5262 208.544 90.034 200.797 88.9957 197.665C86.7922 191.014 70.3164 188.464 64.9026 187.627C64.7221 187.599 64.5968 187.43 64.6251 187.248C64.6534 187.068 64.825 186.942 65.004 186.971C74.5726 188.451 87.5367 191.149 89.6267 197.456C90.7322 200.794 88.3169 208.262 85.2572 217.717C84.8946 218.838 84.5232 219.982 84.1517 221.148C84.107 221.288 83.9757 221.379 83.8354 221.379H83.8339Z" fill="white"/>
<path d="M37.1103 133.426C37.1103 133.426 37.264 130.646 35.5469 159.624C35.5469 159.624 36.7284 182.048 36.8761 184.576C37.0238 187.105 58.9463 186.005 58.9463 186.005C61.5391 174.634 61.2556 161.584 59.4475 147.646L63.204 147.31L63.465 138.548C62.7848 135.968 59.9145 134.114 57.9855 133.424C52.8507 131.116 43.7445 131.858 37.1088 133.426H37.1103Z" fill="white"/>
<path d="M49.1038 186.574C48.7249 186.574 48.343 186.574 47.9626 186.569C36.653 186.484 36.5769 185.159 36.5441 184.594C36.3979 182.093 35.2268 159.865 35.2148 159.641C35.2148 159.629 35.2148 159.616 35.2148 159.604C35.9354 147.446 36.3263 140.879 36.5366 137.35C36.6425 135.586 36.7022 134.581 36.738 134.018C36.7529 133.776 36.7634 133.593 36.7783 133.453C36.7783 133.438 36.7783 133.423 36.7783 133.406L36.7813 133.345H36.7917C36.835 133.039 36.9111 133.009 37.1318 133.021C37.1587 133.023 37.2035 133.029 37.2527 133.05C43.6109 131.577 52.8006 130.727 58.122 133.12C60.3716 133.923 63.1226 135.944 63.7864 138.462C63.7939 138.493 63.7984 138.524 63.7969 138.556L63.5358 147.317C63.5313 147.486 63.4015 147.623 63.2345 147.638L59.8211 147.944C61.7919 163.335 61.6128 175.811 59.2707 186.078C59.2378 186.223 59.1125 186.329 58.9633 186.336C58.9126 186.339 54.1522 186.575 49.1053 186.575L49.1038 186.574ZM35.8772 159.624C35.9175 160.381 37.0617 182.088 37.2049 184.555C37.2124 184.685 37.5794 185.828 47.967 185.905C52.7349 185.943 57.5401 185.737 58.6769 185.684C60.9654 175.465 61.1086 163.032 59.117 147.686C59.1051 147.596 59.1304 147.505 59.1871 147.435C59.2438 147.365 59.3259 147.32 59.4169 147.313L62.8809 147.003L63.1315 138.584C62.5079 136.32 59.9748 134.485 57.8743 133.733C52.6842 131.401 43.6795 132.244 37.4228 133.69C37.3541 134.794 37.0632 139.62 35.8787 159.621L35.8772 159.624Z" fill="#251F47"/>
<path d="M50.2091 157.659C50.0898 157.659 49.9749 157.595 49.9152 157.482C49.8302 157.319 49.8914 157.119 50.054 157.034C55.2694 154.286 55.617 146.55 55.6185 146.471C55.626 146.288 55.7752 146.146 55.9616 146.152C56.1451 146.16 56.2883 146.313 56.2809 146.495C56.2689 146.828 55.9139 154.693 50.3613 157.619C50.3121 157.644 50.2598 157.658 50.2076 157.658L50.2091 157.659Z" fill="#251F47"/>
<path d="M40.8129 133.039C40.8129 133.039 35.5333 132.429 32.1334 137.074C28.7574 141.686 28.3457 146.944 28.9827 151.172C30.0642 158.347 34.5726 166.517 34.3652 168.746C34.2638 169.828 33.1165 177.521 28.7753 184.41C25.1994 190.083 25.353 202.593 26.0512 203.001C30.7579 205.743 38.4752 211.31 47.6679 211.976C49.3656 212.098 50.753 211.219 50.9991 209.845C51.9808 204.352 54.6109 188.422 55.0062 173.467C55.3493 160.515 46.1283 140.851 45.721 139.163C44.7364 135.07 40.8114 133.039 40.8114 133.039H40.8129Z" fill="#D6D6D6"/>
<path d="M47.99 212.319C47.8767 212.319 47.7618 212.314 47.6439 212.307C39.6969 211.732 32.9926 207.625 28.0979 204.624C27.3073 204.139 26.5598 203.682 25.8855 203.289C25.7364 203.202 25.6409 203.03 25.5633 202.714C25.0591 200.653 25.1411 189.558 28.4962 184.236C33.0926 176.942 34.0295 168.797 34.0369 168.717C34.122 167.809 33.2627 165.587 32.2676 163.016C30.9294 159.56 29.266 155.259 28.6574 151.224C28.0905 147.456 28.1859 141.91 31.8678 136.882C35.3408 132.137 40.7979 132.708 40.8516 132.714C40.8919 132.718 40.9307 132.73 40.9665 132.748C41.1321 132.833 45.0377 134.897 46.0462 139.088C46.1148 139.372 46.4952 140.31 47.0218 141.609C49.5953 147.956 55.6223 162.821 55.3403 173.479C54.9494 188.275 52.4044 203.882 51.3273 209.906C51.0677 211.362 49.7176 212.322 47.9915 212.322L47.99 212.319ZM26.263 202.739C26.9328 203.13 27.6683 203.581 28.444 204.057C33.2806 207.022 39.9058 211.082 47.6917 211.644C49.2298 211.755 50.4575 210.991 50.6724 209.787C51.7465 203.778 54.2856 188.211 54.6749 173.459C54.9524 162.94 48.7434 147.622 46.4057 141.856C45.8284 140.433 45.4808 139.573 45.4002 139.241C44.526 135.607 41.1828 133.626 40.7144 133.365C40.1296 133.32 35.4497 133.106 32.4019 137.271C28.8543 142.119 28.7633 147.48 29.3123 151.124C29.909 155.085 31.559 159.35 32.8852 162.776C33.9951 165.642 34.7963 167.715 34.6963 168.779C34.5009 170.869 33.0463 178.26 29.0572 184.589C25.5633 190.134 25.7856 201.793 26.2645 202.742L26.263 202.739Z" fill="#251F47"/>
<path d="M84.3671 173.307C78.2595 170.935 67.4706 161.063 64.5436 153.181L64.2616 139.488C63.9379 137.328 63.1771 136.456 61.3719 135.251C60.6648 134.778 59.446 134.245 58.4569 134.048C58.4569 134.048 57.9452 133.757 57.8333 136.559C57.7781 137.923 59.5146 153.095 59.8249 166.099C60.0427 175.199 58.6852 183.149 58.7762 184.898C58.7836 185.028 64.7718 186.226 65.1746 185.823L65.2149 185.702L64.8703 168.952C68.2374 171.89 74.6716 176.953 79.7812 176.767L84.3686 173.306L84.3671 173.307Z" fill="#D6D6D6"/>
<path d="M64.6058 186.22C62.7977 186.22 58.7533 185.256 58.7086 185.238C58.4997 185.158 58.4505 185.019 58.4445 184.916C58.4132 184.319 58.54 183.072 58.7145 181.344C59.083 177.709 59.6395 172.215 59.4933 166.106C59.2799 157.188 58.4028 147.334 57.8791 141.446C57.6315 138.671 57.4823 136.995 57.5017 136.546C57.5897 134.372 57.9134 133.92 58.1849 133.769C58.3162 133.696 58.4475 133.696 58.546 133.727C59.6246 133.947 60.8732 134.518 61.5565 134.975C63.3735 136.189 64.2433 137.122 64.5909 139.439C64.5924 139.452 64.5939 139.467 64.5939 139.481L64.8743 153.119C67.7282 160.723 78.2024 170.559 84.4875 172.998C84.5994 173.042 84.6799 173.143 84.6963 173.263C84.7127 173.382 84.6635 173.5 84.568 173.573L79.9806 177.035C79.9269 177.075 79.8613 177.099 79.7927 177.102C75.1754 177.267 69.4199 173.276 65.216 169.692L65.5457 185.698C65.5457 185.735 65.5412 185.774 65.5292 185.81L65.489 185.931C65.4726 185.98 65.4457 186.025 65.4084 186.06C65.2935 186.175 65.0041 186.222 64.6058 186.222V186.22ZM59.1024 184.673C60.0706 184.959 64.0195 185.658 64.8788 185.574L64.5372 168.961C64.5342 168.829 64.6103 168.709 64.7281 168.653C64.8475 168.598 64.9877 168.618 65.0862 168.704C70.9834 173.847 76.0243 176.518 79.6644 176.441L83.7043 173.392C77.2386 170.566 67.0345 160.841 64.2328 153.296C64.2194 153.262 64.2134 153.225 64.212 153.187L63.93 139.515C63.6212 137.478 62.9409 136.696 61.1865 135.525C60.5734 135.115 59.462 134.603 58.4863 134.393C58.4072 134.54 58.2252 135.04 58.1626 136.573C58.1462 136.979 58.3103 138.827 58.5385 141.388C59.0636 147.283 59.9408 157.151 60.1542 166.091C60.3019 172.24 59.7424 177.76 59.3724 181.411C59.2203 182.918 59.1039 184.055 59.1009 184.673H59.1024Z" fill="#251F47"/>
<path d="M76.5759 174.329C76.749 173.991 77.0399 173.722 77.3979 173.594C77.6545 173.501 77.9067 173.38 78.1468 173.252L81.4781 171.484C82.1017 171.178 82.9938 171.891 83.6413 172.103C85.5956 172.745 89.6429 174.258 89.3087 175.678C88.9492 177.211 85.4702 176.486 84.2365 176.177C83.9545 176.107 81.399 177.032 80.5905 177.093C79.4746 177.178 79.2165 176.893 78.6705 176.606C78.4213 176.475 78.1439 176.417 77.844 176.415C77.3845 176.412 76.9459 176.22 76.658 175.86L76.6505 175.851C76.3328 175.454 76.2776 174.908 76.5088 174.456L76.5744 174.328L76.5759 174.329Z" fill="white"/>
<path d="M80.224 177.442C79.4647 177.442 79.1156 177.242 78.7486 177.032C78.6755 176.99 78.5994 176.947 78.5174 176.903C78.3234 176.802 78.1026 176.751 77.8431 176.75C77.2687 176.745 76.7436 176.497 76.4005 176.069C75.9962 175.563 75.9261 174.875 76.2155 174.307L76.2811 174.179C76.4974 173.755 76.854 173.437 77.2851 173.282C77.4925 173.207 77.7163 173.104 77.9908 172.96L81.322 171.191C81.9173 170.899 82.5767 171.232 83.157 171.523C83.3718 171.63 83.5747 171.732 83.7448 171.788C87.9458 173.168 89.9269 174.502 89.633 175.754C89.551 176.106 89.3406 176.388 89.0109 176.588C87.8801 177.278 85.5126 176.836 84.1834 176.505C84.0058 176.517 83.3062 176.726 82.7915 176.878C81.9456 177.129 81.0714 177.39 80.6179 177.424C80.4762 177.434 80.3449 177.44 80.2255 177.44L80.224 177.442ZM81.8218 171.742C81.7487 171.742 81.6816 171.754 81.6234 171.784L78.3026 173.546C77.9997 173.707 77.7491 173.821 77.5104 173.907C77.2389 174.006 77.0121 174.208 76.8719 174.482L76.8062 174.61C76.6347 174.946 76.6765 175.351 76.9122 175.647C77.1359 175.927 77.4746 176.084 77.8475 176.087C78.2116 176.09 78.5413 176.166 78.8262 176.317C78.9157 176.365 78.9992 176.411 79.0783 176.457C79.4557 176.673 79.7273 176.829 80.5657 176.766C80.9491 176.738 81.8651 176.465 82.6005 176.247C83.7895 175.893 84.1132 175.81 84.3161 175.859C86.3674 176.372 87.9935 176.435 88.6633 176.026C88.8409 175.917 88.9423 175.784 88.9841 175.607C89.1691 174.82 87.0298 173.57 83.5359 172.422C83.3196 172.351 83.0943 172.239 82.8586 172.12C82.505 171.942 82.1127 171.745 81.8218 171.745V171.742Z" fill="#251F47"/>
<path d="M45.632 167.673C49.9314 177.511 57.6218 179.849 70.2353 181.529L68.8897 185.25C50.0433 187.603 46.4957 183.874 38.877 173.892L45.632 167.671V167.673Z" fill="white"/>
<path d="M36.2763 192.011C34.9426 192.011 33.4731 191.744 31.8679 191.095C31.6978 191.026 31.6158 190.832 31.6844 190.664C31.753 190.494 31.9455 190.411 32.1155 190.48C40.6533 193.928 45.1213 185.913 45.1646 185.832C45.2526 185.671 45.4525 185.611 45.6136 185.699C45.7748 185.787 45.8344 185.987 45.7464 186.148C45.7076 186.22 42.4793 192.011 36.2733 192.011H36.2763Z" fill="#251F47"/>
<path d="M64.8771 168.355C64.6996 168.355 64.5519 168.215 64.546 168.036L64.0939 155.421C64.088 155.238 64.2312 155.084 64.4132 155.078C64.6041 155.069 64.7503 155.215 64.7563 155.397L65.2083 168.012C65.2143 168.195 65.0711 168.349 64.8891 168.355C64.8846 168.355 64.8816 168.355 64.8771 168.355Z" fill="#251F47"/>
<path d="M58.4019 186.287C53.7668 186.287 51.5096 185.299 48.4707 183.968C47.7204 183.64 46.9446 183.3 46.0689 182.948C43.5462 181.933 41.7187 180.366 40.1433 177.867C39.4153 176.712 38.7932 175.48 38.192 174.289C37.6624 173.24 37.1134 172.154 36.4988 171.135C36.4048 170.978 36.454 170.774 36.6107 170.68C36.7673 170.586 36.9717 170.635 37.0657 170.793C37.6937 171.833 38.2472 172.93 38.7828 173.991C39.3765 175.168 39.9912 176.386 40.7028 177.514C42.1976 179.886 43.9296 181.372 46.315 182.332C47.2012 182.688 47.9814 183.03 48.7363 183.36C52.6509 185.074 55.2377 186.205 63.6188 185.301C64.2857 185.229 66.974 185.253 67.6333 185.28C67.8168 185.288 67.9586 185.443 67.9511 185.625C67.9436 185.808 67.793 185.949 67.6065 185.943C66.9784 185.917 64.317 185.892 63.6904 185.959C61.6153 186.183 59.8863 186.284 58.4019 186.284V186.287Z" fill="#251F47"/>
<path d="M69.9567 181.706C69.9463 181.706 69.9373 181.706 69.9269 181.706C69.8105 181.696 58.204 180.616 51.5863 175.996C49.6141 174.62 48.6309 171.572 47.5911 168.344C47.3838 167.703 47.1749 167.055 46.9556 166.414C46.8959 166.241 46.9884 166.051 47.163 165.993C47.336 165.933 47.524 166.026 47.5837 166.2C47.8045 166.845 48.0148 167.497 48.2222 168.142C49.2277 171.26 50.178 174.204 51.9667 175.453C58.4412 179.973 69.8717 181.036 69.9865 181.047C70.1685 181.063 70.3043 181.224 70.2879 181.407C70.273 181.58 70.1283 181.709 69.9582 181.709L69.9567 181.706Z" fill="#251F47"/>
<path d="M67.24 183.264C67.4131 182.925 67.704 182.657 68.062 182.529C68.3186 182.436 68.5707 182.315 68.8109 182.187L72.1422 180.419C72.7657 180.113 73.6579 180.826 74.3053 181.038C76.2596 181.68 80.307 183.193 79.9728 184.613C79.6133 186.146 76.1343 185.42 74.9006 185.111C74.6186 185.041 72.0631 185.966 71.2545 186.028C70.1386 186.113 69.8805 185.828 69.3345 185.541C69.0854 185.41 68.8079 185.352 68.5081 185.35C68.0486 185.347 67.61 185.155 67.322 184.795L67.3146 184.786C66.9968 184.389 66.9416 183.843 67.1729 183.391L67.2385 183.263L67.24 183.264Z" fill="white"/>
<path d="M70.8881 186.377C70.1288 186.377 69.7797 186.177 69.4127 185.966C69.3396 185.925 69.2635 185.881 69.1814 185.838C68.9875 185.737 68.7667 185.686 68.5071 185.684C67.9328 185.68 67.4077 185.432 67.0645 185.004C66.6602 184.498 66.5901 183.81 66.8795 183.242L66.9452 183.114C67.1615 182.69 67.5181 182.372 67.9492 182.217C68.1566 182.142 68.3803 182.039 68.6548 181.894L71.9861 180.126C72.5798 179.835 73.2392 180.167 73.821 180.458C74.0359 180.565 74.2388 180.666 74.4088 180.723C78.6098 182.103 80.591 183.437 80.2971 184.689C80.215 185.041 80.0047 185.323 79.675 185.523C78.5442 186.213 76.1767 185.771 74.8474 185.44C74.6699 185.452 73.9702 185.661 73.4556 185.813C72.6097 186.063 71.7355 186.325 71.2819 186.359C71.1402 186.369 71.0089 186.375 70.8896 186.375L70.8881 186.377ZM67.536 183.416L67.4703 183.545C67.2987 183.88 67.3405 184.288 67.5747 184.582C67.7985 184.862 68.1372 185.019 68.5101 185.022C68.8741 185.025 69.2038 185.101 69.4888 185.252C69.5783 185.299 69.6618 185.346 69.7409 185.392C70.1183 185.608 70.3898 185.764 71.2282 185.701C71.6116 185.673 72.5276 185.399 73.2631 185.18C74.4536 184.826 74.7773 184.743 74.9787 184.792C77.03 185.305 78.6561 185.368 79.3259 184.959C79.5034 184.85 79.6049 184.718 79.6467 184.54C79.8316 183.754 77.6924 182.503 74.1985 181.356C73.9822 181.284 73.7569 181.172 73.5212 181.053C73.0766 180.831 72.5739 180.577 72.2845 180.719L68.9636 182.481C68.6608 182.641 68.4102 182.755 68.1715 182.842C67.9 182.939 67.6732 183.143 67.533 183.416H67.536Z" fill="#251F47"/>
<path d="M65.0383 127.399C65.5007 127.333 65.817 126.89 65.7156 126.434C65.083 123.596 65.3262 118.736 65.2322 118.873C64.2207 120.358 62.1143 118.494 59.1142 118.376C57.327 118.306 56.6393 119.364 56.3737 120.231C56.2887 120.511 55.9097 120.564 55.7516 120.317C55.3145 119.64 54.5701 119.066 53.4602 120.176C52.2264 121.41 53.2588 124.272 54.3746 125.21C54.1031 125.519 49.841 130.116 46.5694 133.57C45.9219 134.254 46.0129 135.349 46.7633 135.919L49.6709 138.126C51.4879 139.505 53.9719 139.602 55.8904 138.368L56.3394 138.08C56.8048 137.78 56.8839 137.132 56.5035 136.729L55.6218 135.795C54.9087 134.948 55.04 133.873 55.495 132.978L57.2927 129.931C57.7059 130.431 58.2266 131.001 58.7069 131.337C59.6647 132.005 60.8552 131.902 61.6996 131.095C62.8572 129.989 63.6673 128.748 64.0343 127.541L65.0368 127.401L65.0383 127.399Z" fill="white"/>
<path d="M52.956 139.557C51.7237 139.557 50.493 139.164 49.4711 138.389L46.5635 136.182C46.1309 135.853 45.8564 135.354 45.8131 134.812C45.7683 134.272 45.9578 133.735 46.3308 133.341C49.2503 130.258 52.9709 126.252 53.9152 125.224C53.1932 124.448 52.6248 123.076 52.5756 121.926C52.5398 121.089 52.765 120.402 53.229 119.938C53.7556 119.41 54.2778 119.17 54.7775 119.224C55.2519 119.274 55.6756 119.58 56.0336 120.135C56.3096 119.316 57.0436 117.961 59.1307 118.042C60.3809 118.091 61.4938 118.437 62.3874 118.715C63.7718 119.145 64.5147 119.339 64.9608 118.684C65.0428 118.563 65.198 118.507 65.3367 118.551C65.5918 118.63 65.5918 118.651 65.5918 119.761C65.5918 121.249 65.5918 124.345 66.0409 126.361C66.1095 126.665 66.0453 126.987 65.8663 127.245C65.6858 127.507 65.4009 127.683 65.0861 127.727L64.2895 127.839C63.8762 129.048 63.0647 130.252 61.9309 131.334C60.9701 132.251 59.5991 132.362 58.5205 131.607C58.1774 131.368 57.7836 130.995 57.345 130.498L55.7845 133.145C55.516 133.675 55.1565 134.722 55.8785 135.58L56.7467 136.501C56.9959 136.765 57.1137 137.123 57.069 137.483C57.0257 137.842 56.8243 138.162 56.52 138.357L56.0709 138.645C55.1236 139.255 54.0391 139.557 52.956 139.557ZM54.6388 119.88C54.3628 119.88 54.045 120.058 53.6945 120.408C53.2797 120.823 53.2156 121.448 53.235 121.898C53.2887 123.127 53.9794 124.442 54.5881 124.953C54.6567 125.01 54.6985 125.094 54.7059 125.182C54.7134 125.271 54.6835 125.359 54.6239 125.425C54.3583 125.726 50.1633 130.253 46.8096 133.794C46.5665 134.051 46.4427 134.402 46.471 134.755C46.4993 135.109 46.6784 135.436 46.9618 135.651L49.8694 137.857C51.5686 139.147 53.9152 139.239 55.7099 138.084L56.159 137.796C56.2977 137.707 56.3887 137.562 56.4081 137.399C56.4275 137.235 56.3753 137.073 56.2619 136.953L55.3802 136.019C54.6597 135.166 54.5985 134.005 55.1997 132.823L57.0063 129.758C57.0615 129.666 57.1585 129.604 57.2659 129.595C57.3718 129.587 57.4792 129.631 57.5479 129.715C58.0715 130.348 58.525 130.801 58.8965 131.059C59.723 131.635 60.7329 131.553 61.4699 130.85C62.5843 129.786 63.3615 128.606 63.7166 127.439C63.7539 127.316 63.8598 127.226 63.9881 127.208L64.9906 127.068C65.1234 127.05 65.2427 126.975 65.3188 126.866C65.3934 126.759 65.4188 126.629 65.3904 126.504C64.925 124.418 64.925 121.272 64.925 119.759V119.594C64.2044 119.974 63.2511 119.679 62.186 119.348C61.2834 119.067 60.2615 118.751 59.0994 118.704C57.8462 118.655 57.0332 119.2 56.6901 120.325C56.6125 120.579 56.4006 120.761 56.1351 120.796C55.8695 120.834 55.6159 120.717 55.4712 120.494C55.2266 120.116 54.9685 119.91 54.7029 119.882C54.6806 119.879 54.6597 119.879 54.6373 119.879L54.6388 119.88Z" fill="#251F47"/>
<path d="M57.2937 130.261C57.1908 130.261 57.0878 130.213 57.0237 130.122L56.4493 129.321C56.3419 129.172 56.3762 128.964 56.5254 128.858C56.6746 128.751 56.882 128.785 56.9879 128.934L57.5622 129.736C57.6696 129.885 57.6353 130.092 57.4861 130.198C57.428 130.24 57.3608 130.261 57.2937 130.261Z" fill="#251F47"/>
<path d="M85.3472 184.718L95.4395 154.971C96.0452 154.038 97.0984 153.472 98.2322 153.472H125.131C126.352 153.472 127.138 154.659 126.74 155.705C126.582 156.121 126.41 156.533 126.271 156.955L117.15 184.77H117.147C117.117 186.396 115.794 187.706 114.163 187.706H64.5242C62.8743 187.706 61.5391 186.368 61.5391 184.716H85.3487L85.3472 184.718Z" fill="#251F47"/>
<path d="M105.341 168.72C104.962 169.98 105.541 171.271 106.636 171.6C107.729 171.932 108.924 171.178 109.303 169.917C109.682 168.658 109.103 167.367 108.008 167.037C106.915 166.706 105.72 167.46 105.341 168.72Z" fill="white"/>
<path d="M163.875 187.211H44.4459C42.2216 187.211 40.4911 189.303 40.7432 191.69L48.9901 269.878H54.9454L49.7837 196.496C49.6927 195.203 50.64 194.1 51.8409 194.1H154.36C156.156 194.1 157.573 195.75 157.437 197.686L152.326 270.337H158.282L166.669 190.589C166.858 188.788 165.554 187.211 163.876 187.211H163.875Z" fill="white"/>
<path d="M158.281 270.667H152.326C152.233 270.667 152.147 270.628 152.083 270.561C152.02 270.494 151.989 270.403 151.995 270.312L157.106 197.66C157.167 196.777 156.871 195.914 156.291 195.292C155.772 194.736 155.086 194.43 154.359 194.43H51.8403C51.3853 194.43 50.9542 194.622 50.629 194.971C50.262 195.365 50.074 195.911 50.1143 196.471L55.276 269.852C55.282 269.945 55.2507 270.034 55.188 270.101C55.1253 270.169 55.0373 270.207 54.9448 270.207H48.9894C48.8194 270.207 48.6776 270.079 48.6597 269.91L40.4129 191.723C40.2756 190.426 40.6829 189.145 41.5273 188.206C42.2986 187.35 43.3339 186.878 44.4453 186.878H163.874C164.735 186.878 165.539 187.244 166.136 187.906C166.788 188.631 167.102 189.621 166.996 190.622L158.609 270.37C158.591 270.539 158.45 270.667 158.28 270.667H158.281ZM152.682 270.003H157.983L166.34 190.552C166.425 189.737 166.173 188.934 165.645 188.349C165.175 187.827 164.547 187.541 163.876 187.541H44.4468C43.5263 187.541 42.6656 187.935 42.0211 188.649C41.302 189.449 40.9574 190.543 41.0738 191.653L49.2893 269.543H54.5898L49.4519 196.517C49.3997 195.774 49.6518 195.046 50.1441 194.519C50.5961 194.034 51.1988 193.767 51.8403 193.767H154.359C155.274 193.767 156.131 194.149 156.777 194.842C157.482 195.598 157.843 196.643 157.768 197.708L152.682 270.004V270.003Z" fill="#795DED"/>
<path d="M95.6342 127.991C95.5596 127.991 95.4835 127.966 95.4209 127.914C95.2807 127.796 95.2627 127.587 95.3806 127.447L97.0365 125.477C97.1544 125.337 97.3633 125.319 97.5035 125.437C97.6437 125.555 97.6616 125.764 97.5438 125.904L95.8878 127.874C95.8222 127.951 95.7282 127.991 95.6342 127.991Z" fill="#251F47"/>
<path d="M91.7768 132.58C91.7022 132.58 91.6261 132.554 91.5635 132.502C91.4232 132.384 91.4053 132.175 91.5232 132.035L93.1791 130.065C93.297 129.925 93.5058 129.907 93.6461 130.025C93.7863 130.143 93.8042 130.352 93.6863 130.492L92.0304 132.462C91.9648 132.539 91.8708 132.58 91.7768 132.58Z" fill="#251F47"/>
<path d="M93.2245 128.2C93.1499 128.2 93.0738 128.175 93.0112 128.123L91.042 126.466C90.9017 126.349 90.8838 126.14 91.0017 125.999C91.1196 125.859 91.3284 125.841 91.4686 125.959L93.4379 127.615C93.5781 127.733 93.596 127.942 93.4781 128.082C93.4125 128.16 93.3185 128.2 93.2245 128.2Z" fill="#251F47"/>
<path d="M97.8124 132.057C97.7378 132.057 97.6617 132.032 97.5991 131.98L95.6299 130.324C95.4896 130.206 95.4717 129.997 95.5896 129.857C95.7074 129.716 95.9163 129.698 96.0565 129.816L98.0258 131.473C98.166 131.59 98.1839 131.799 98.066 131.94C98.0004 132.017 97.9064 132.057 97.8124 132.057Z" fill="#251F47"/>
<path d="M86.5413 120.038C86.2996 120.038 86.0579 120.004 85.8192 119.934C85.1449 119.737 84.587 119.283 84.2498 118.655C83.5606 117.376 84.0216 115.766 85.2747 115.067C85.8789 114.729 86.5771 114.65 87.2409 114.844C87.9152 115.041 88.4732 115.495 88.8103 116.123C89.4996 117.402 89.0386 119.012 87.7855 119.712C87.3976 119.928 86.9724 120.037 86.5413 120.037V120.038ZM85.5984 115.647C84.6601 116.171 84.3169 117.379 84.8346 118.342C85.0867 118.812 85.503 119.151 86.0057 119.297C86.498 119.44 87.0157 119.382 87.4632 119.133C88.4016 118.609 88.7447 117.4 88.227 116.438C87.9749 115.969 87.5587 115.629 87.056 115.483C86.5651 115.34 86.046 115.398 85.5984 115.647Z" fill="#251F47"/>
<path d="M115.179 124.039C116.302 123.941 117.135 122.962 117.039 121.851C116.942 120.74 115.953 119.919 114.83 120.016C113.706 120.114 112.873 121.093 112.969 122.204C113.066 123.315 114.055 124.136 115.179 124.039Z" fill="#251F47"/>
<path d="M219.308 246.715C219.208 246.715 219.108 246.671 219.044 246.584C218.934 246.438 218.962 246.23 219.107 246.118C232.726 235.757 244.102 223.032 252.923 208.302C253.017 208.145 253.222 208.093 253.378 208.187C253.535 208.281 253.587 208.486 253.493 208.642C244.629 223.447 233.195 236.233 219.509 246.647C219.45 246.693 219.38 246.714 219.309 246.714L219.308 246.715Z" fill="#251F47"/>
<path d="M242.444 236.432C242.363 236.432 242.281 236.402 242.217 236.342C242.083 236.217 242.075 236.008 242.201 235.874C247.712 229.966 252.717 223.519 257.079 216.709C257.177 216.555 257.382 216.51 257.537 216.609C257.692 216.707 257.737 216.913 257.637 217.067C253.254 223.91 248.222 230.39 242.686 236.326C242.62 236.396 242.532 236.432 242.442 236.432H242.444Z" fill="#251F47"/>
<path d="M133.148 252.344C134.77 248.971 134.924 245.574 133.148 242.14L134.422 240.596L176.528 241.755L175.327 252.946L134.337 253.339L133.148 252.344Z" fill="white"/>
<path d="M134.338 253.67C134.26 253.67 134.184 253.643 134.125 253.593L132.936 252.597C132.819 252.5 132.784 252.336 132.849 252.199C134.511 248.74 134.513 245.501 132.854 242.293C132.793 242.175 132.807 242.032 132.892 241.929L134.166 240.384C134.232 240.305 134.332 240.26 134.432 240.263L176.538 241.421C176.63 241.424 176.717 241.465 176.778 241.535C176.839 241.605 176.867 241.696 176.858 241.788L175.657 252.979C175.639 253.146 175.499 253.275 175.331 253.276L134.341 253.669H134.338V253.67ZM133.558 252.253L134.457 253.005L175.029 252.615L176.162 242.075L134.578 240.93L133.544 242.182C135.145 245.41 135.151 248.795 133.559 252.251L133.558 252.253Z" fill="#251F47"/>
<path d="M203.966 239.364H132.022C131.265 239.364 130.652 239.983 130.652 240.747C130.652 241.511 131.265 242.13 132.022 242.13H169.013C171.191 242.13 172.956 243.915 172.956 246.116V248.357C172.956 250.558 171.19 252.342 169.013 252.342H132.022C131.265 252.342 130.652 252.961 130.652 253.725C130.652 254.489 131.265 255.109 132.022 255.109H203.966C207.982 255.109 211.237 251.818 211.237 247.76V246.711C211.237 242.652 207.982 239.362 203.966 239.362V239.364Z" fill="#715FB6"/>
<path d="M136.762 271.683H202.447V256.729H136.762C138.486 261.617 138.534 266.926 136.762 271.683Z" fill="white"/>
<path d="M202.447 272.014H136.762C136.653 272.014 136.551 271.961 136.489 271.873C136.428 271.783 136.413 271.67 136.45 271.568C138.172 266.95 138.17 261.719 136.448 256.839C136.413 256.738 136.429 256.625 136.49 256.538C136.553 256.45 136.653 256.398 136.76 256.398H202.446C202.629 256.398 202.777 256.547 202.777 256.729V271.683C202.777 271.867 202.629 272.014 202.446 272.014H202.447ZM137.233 271.35H202.116V257.059H137.226C138.795 261.799 138.798 266.838 137.233 271.35Z" fill="#251F47"/>
<path d="M192.339 262.302H142.616C142.433 262.302 142.285 262.153 142.285 261.971C142.285 261.789 142.433 261.64 142.616 261.64H192.339C192.523 261.64 192.67 261.789 192.67 261.971C192.67 262.153 192.523 262.302 192.339 262.302Z" fill="#251F47"/>
<path d="M192.339 266.482H151.485C151.302 266.482 151.154 266.332 151.154 266.15C151.154 265.968 151.302 265.819 151.485 265.819H192.339C192.523 265.819 192.671 265.968 192.671 266.15C192.671 266.332 192.523 266.482 192.339 266.482Z" fill="#251F47"/>
<path d="M194.931 257.442H135.878C135.254 257.442 134.75 256.932 134.75 256.302C134.75 255.673 135.256 255.162 135.878 255.162H210.35C213.088 255.162 215.308 257.405 215.308 260.173V268.048C215.308 270.815 213.088 273.059 210.35 273.059H135.878C135.254 273.059 134.75 272.548 134.75 271.919C134.75 271.289 135.256 270.779 135.878 270.779H194.931C196.864 270.779 198.432 269.194 198.432 267.24V260.983C198.432 259.028 196.864 257.444 194.931 257.444V257.442Z" fill="#715FB6"/>
<path d="M168.175 245.684H137.823C137.64 245.684 137.492 245.535 137.492 245.353C137.492 245.171 137.64 245.022 137.823 245.022H168.175C168.358 245.022 168.506 245.171 168.506 245.353C168.506 245.535 168.358 245.684 168.175 245.684Z" fill="#251F47"/>
</svg>
