<svg width="250" height="191" viewBox="0 0 250 191" fill="none" xmlns="http://www.w3.org/2000/svg">
<path d="M29.5337 110.173L18.7746 99.3751C15.9287 96.5142 11.2954 96.5142 8.44943 99.3751L3.79297 104.05V126.717L8.44943 131.398C11.2954 134.259 15.9287 134.259 18.7746 131.398L29.5337 120.582C32.4027 117.715 32.4027 113.075 29.5337 110.173Z" fill="#5B43CB"/>
<path d="M127.816 161.885L116.907 172.852C114.02 175.753 109.323 175.753 106.437 172.852L95.5274 161.885C92.6237 158.983 92.6237 154.279 95.5274 151.343L106.437 140.393C109.323 137.492 114.02 137.492 116.907 140.393L127.816 151.343C130.72 154.279 130.72 158.983 127.816 161.885Z" fill="#5B43CB"/>
<path d="M192.552 13.7976C192.268 13.7976 192.031 13.565 192.031 13.2743V5.06368C192.031 4.77875 192.263 4.54034 192.552 4.54034C192.841 4.54034 193.072 4.77294 193.072 5.06368V13.2801C193.072 13.565 192.841 13.7976 192.552 13.7976Z" fill="white"/>
<path d="M161.548 26.4043L155.769 20.5952C155.567 20.3917 155.567 20.0603 155.769 19.8567C155.971 19.6532 156.301 19.6532 156.504 19.8567L162.282 25.6658C162.485 25.8693 162.485 26.2008 162.282 26.4043C162.08 26.6078 161.756 26.6078 161.548 26.4043Z" fill="white"/>
<path d="M244.049 52.9144H235.876C235.593 52.9144 235.355 52.6818 235.355 52.391C235.355 52.1061 235.587 51.8677 235.876 51.8677H244.049C244.333 51.8677 244.57 52.1003 244.57 52.391C244.57 52.6818 244.333 52.9144 244.049 52.9144Z" fill="white"/>
<path d="M147.975 52.9143H139.802C139.518 52.9143 139.281 52.6817 139.281 52.391C139.281 52.106 139.513 51.8676 139.802 51.8676H147.975C148.259 51.8676 148.496 52.1002 148.496 52.391C148.496 52.6817 148.264 52.9143 147.975 52.9143Z" fill="white"/>
<path d="M222.824 25.6657L228.602 19.8567C228.805 19.6532 229.134 19.6532 229.337 19.8567C229.539 20.0602 229.539 20.3916 229.337 20.5952L223.558 26.4042C223.072 26.8927 222.338 26.1542 222.824 25.6657Z" fill="white"/>
<path d="M248.694 189.953H244.546C243.222 181.406 235.558 175.544 227.575 176.038C224.648 167.688 215.856 163.368 207.804 165.583C205.369 159.332 199.312 155.163 192.573 155.163C185.823 155.163 179.749 159.332 177.314 165.589C169.436 163.408 160.487 167.554 157.514 176.038C149.607 175.544 141.896 181.365 140.566 189.953H101.232C100.711 178.155 98.7732 133.817 98.2642 122.105L99.6756 122.803C100.37 123.21 114.866 131.566 124.121 131.566C125.434 131.566 126.643 131.398 127.69 131.014C140.942 126.164 160.499 91.1122 163.368 85.8672C163.998 86.5301 164.629 87.193 165.306 87.8152C168.805 91.0599 172.825 93.5835 177.141 95.3803V106.167C177.141 110.999 179.934 115.29 184.267 117.256C184.053 117.994 183.92 118.744 183.92 119.564C183.92 122.158 185.083 124.466 186.887 126.06C186.315 127.327 185.956 128.769 185.956 130.328C185.956 134.59 188.767 145.109 193.013 145.109C197.259 145.109 200.07 134.59 200.07 130.328C200.07 128.519 199.625 126.833 198.867 125.432C200.77 123.367 201.649 120.489 200.938 117.605C205.71 115.837 208.897 111.319 208.897 106.167V94.9733C223.028 88.6525 232.92 74.4294 232.92 57.9093C232.92 35.4174 214.959 17.339 192.562 17.339C171.836 17.339 154.257 33.4927 152.389 54.1646C148.618 55.845 142.538 60.4446 142.18 67.0619C141.792 74.1968 141.913 79.9302 141.937 81.0002L124.167 102.794C121.043 100.62 100.231 86.5068 83.3057 85.0764C83.0627 84.995 79.8466 85.0124 78.227 84.995C76.7172 84.995 75.4909 83.7622 75.4909 82.2445V79.2964C84.2717 75.2958 84.1791 61.0377 83.2189 52.3038C86.7127 48.2741 88.8009 42.2848 86.9036 36.9584C84.4741 30.1666 67.6472 29.3118 66.93 29.2769C66.5193 29.2595 66.0334 29.2304 65.4897 29.1955C60.8506 28.9048 52.2086 28.3523 47.8992 32.8065C46.2391 34.5219 45.4408 36.8479 45.4177 39.6739L42.1784 35.7605C41.9933 35.5395 41.6636 35.5105 41.4496 35.6907C41.2298 35.8768 41.2009 36.2024 41.3802 36.4234L44.7467 40.488L38.5053 39.8774C38.1872 39.8483 37.9674 40.0577 37.9384 40.3426C37.9095 40.6275 38.1178 40.8834 38.4012 40.9125L44.7872 41.5405C43.0924 43.3315 39.3556 48.0531 39.1185 55.2229C38.8466 63.3695 43.1849 71.8825 51.9888 80.5234L51.983 82.2445C51.983 83.6169 50.965 84.7042 49.6635 84.9136C47.7546 85.0648 39.4019 83.9134 30.6906 87.8036L20.6141 65.0558H30.9162C31.1996 65.0558 31.4368 64.8232 31.4368 64.5325C31.4368 64.2475 31.2054 64.0091 30.9162 64.0091H6.18774C3.61367 64.0091 1.51971 61.9041 1.51971 59.3165V36.9584C1.51971 36.6734 1.28833 36.435 0.999114 36.435C0.709893 36.435 0.478516 36.6676 0.478516 36.9584V59.3223C0.478516 62.4798 3.03523 65.0558 6.18196 65.0558H19.4688L29.7477 88.2571C8.29327 98.7704 7.55287 131.456 5.18125 155.367C4.80526 159.1 3.74672 169.52 3.66573 170.305C3.44592 176.637 9.21878 181.516 15.385 180.126C18.4854 179.44 22.1238 178.649 26.011 177.824V189.953H3.78721C3.50377 189.953 3.26661 190.186 3.26661 190.477C3.26661 190.767 3.49798 191 3.78721 191C86.7358 191 159.434 191 248.694 191C248.977 191 249.215 190.767 249.215 190.477C249.215 190.186 248.983 189.953 248.694 189.953ZM193.013 144.057C190.028 144.057 186.991 135.241 186.991 130.316C186.991 129.019 187.269 127.81 187.709 126.734C190.786 128.833 194.968 128.781 198.069 126.158C198.67 127.362 199.029 128.781 199.029 130.316C199.035 135.241 196.004 144.057 193.013 144.057ZM207.862 106.161C207.862 111.022 204.773 115.29 200.18 116.791C197.45 117.651 196.009 117.204 189.265 117.326C187.049 117.326 185.725 116.692 185.065 116.488C180.877 114.773 178.176 110.72 178.176 106.155V95.8048C187.784 99.4856 198.381 99.3403 207.862 95.421V106.161ZM186.095 63.637C189.959 65.0907 194.199 60.5086 191.451 54.6704C190.786 53.2516 190.08 51.856 189.282 50.6291C192.712 47.8554 197.617 48.0124 200.192 49.879C197.091 52.6469 197.056 55.3101 196.86 57.1011C196.692 58.6885 196.53 60.1888 197.461 61.1482C198.15 61.8576 199.283 62.1309 201.007 61.9972C202.823 61.8576 204.09 60.3806 204.403 58.0489C204.761 55.3508 203.795 52.0421 201.8 49.9255C203.547 48.6811 205.513 48.0648 206.89 48.3671C209.614 48.9602 209.938 52.9783 209.95 53.083C211.5 60.5144 200.834 93.2754 199.688 96.741C195.101 97.59 190.803 97.6772 185.881 96.8282C185.14 94.1185 178.384 69.3879 176.84 64.8639C175.162 59.9562 175.359 49.2742 180.374 47.7449C183.7 46.7331 185.945 47.8263 187.894 50.4721C184.776 53.5249 182.387 62.2356 186.095 63.637ZM188.49 51.3502C189.178 52.4201 189.843 53.6877 190.514 55.1182C192.845 60.0666 189.456 63.7998 186.459 62.6601C183.984 61.7297 185.586 54.3041 188.49 51.3502ZM200.978 50.571C202.806 52.4375 203.691 55.4554 203.367 57.9151C203.251 58.7816 202.783 60.8168 200.92 60.9621C197.068 61.2354 197.739 59.6189 197.993 56.0428C198.138 54.0599 199.214 52.1003 200.978 50.571ZM192.562 18.374C214.41 18.374 231.884 36.0105 231.884 57.9035C231.884 76.8425 218.563 92.6939 200.845 96.5317C202.69 90.9029 212.518 60.3748 210.962 52.9492C210.951 52.7515 210.58 48.1171 207.092 47.3553C205.386 46.9716 203.055 47.6926 201.007 49.2103C198.231 46.989 192.683 46.582 188.681 49.7743C186.696 47.1169 184.076 45.5178 180.068 46.7506C174.289 48.5125 174.011 59.7992 175.856 65.207C177.32 69.4984 183.538 92.2112 184.741 96.6247C177.777 95.2117 171.298 91.9437 166.006 87.0418C159.232 80.8025 154.842 72.3535 153.615 63.2474C154.911 60.8168 156.392 59.6538 156.432 59.6189C159.041 57.2755 157.867 52.2689 153.488 53.7168C155.565 33.8358 172.554 18.374 192.562 18.374ZM143.215 67.1143C143.626 59.5084 152.528 54.5774 154.784 54.4902C155.68 54.4437 156.288 54.8158 156.577 55.5369C156.993 56.5719 156.623 58.0605 155.779 58.8164C155.559 58.9793 150.428 62.945 150.642 72.0278C150.648 72.3128 150.85 72.5279 151.174 72.5337C151.458 72.5279 151.689 72.2895 151.678 71.9988C151.608 69.0971 152.135 66.7596 152.852 64.9162C154.159 72.4174 157.537 79.4185 162.61 85.0764C160.591 88.7688 140.357 125.269 127.331 130.031C120.899 132.386 107.369 125.757 102.215 123.013L108.734 107.807L117.081 111.982L115.843 113.598C115.67 113.825 115.71 114.151 115.936 114.331C116.155 114.5 116.479 114.471 116.664 114.238C116.826 114.023 124.815 103.62 124.653 103.829L142.851 81.5119C142.891 81.4595 142.885 81.3956 142.903 81.3374C142.926 81.2793 142.966 81.2328 142.966 81.1688C142.978 81.099 142.787 74.9527 143.215 67.1143ZM53.0184 82.2387C53.0184 63.2881 53.0127 83.4831 53.0589 71.0567C53.0589 70.9172 53.0069 70.7834 52.9085 70.6846C51.8211 69.3937 44.4517 62.4275 48.3735 59.2991C49.7792 58.1128 51.7459 58.8571 53.3597 59.4677C53.5506 59.5433 53.7704 59.4968 53.915 59.3514C54.1117 59.1537 58.4674 54.6123 56.9461 47.5414C64.1824 48.9661 73.8829 49.5475 81.4778 47.5123C83.2305 57.5081 84.1676 74.4294 74.8431 78.4242H67.4795C67.1961 78.4242 66.9589 78.6568 66.9589 78.9475C66.9589 79.2383 67.1903 79.4709 67.4795 79.4709H74.4497V82.2445C74.4497 84.3379 76.1446 86.0358 78.2212 86.0358H81.9868C81.7092 95.6536 73.8424 103.393 64.2113 103.393C54.5687 103.393 46.6903 95.6536 46.4126 86.0358H49.247C51.3236 86.03 53.0184 84.3321 53.0184 82.2387ZM15.1594 179.103C9.68153 180.341 4.50447 175.998 4.70115 170.369L6.99756 147.906L21.2735 146.958L20.3191 161.961L19.2895 162.176C19.006 162.234 18.8267 162.507 18.8846 162.792C18.9366 163.054 19.1853 163.251 19.4977 163.199C34.4215 160.187 78.9789 151.203 79.1987 151.162C80.4077 150.924 81.2349 151.058 81.634 151.564C82.305 152.401 81.8711 154.186 81.5009 155.233C80.6506 154.82 78.8401 154 76.59 153.291C76.3181 153.203 76.0289 153.36 75.9421 153.634C75.8553 153.907 76.0115 154.198 76.2834 154.285C78.95 155.122 82.2124 156.431 84.2948 158.309C84.4626 158.605 87.939 161.961 92.2889 166.304C93.2433 167.31 92.85 168.799 92.0228 168.619L80.2399 165.589C79.9623 165.525 79.6788 165.688 79.6094 165.967C79.54 166.246 79.7078 166.531 79.9854 166.601L82.4901 167.246L80.2457 169.438L77.4056 168.415C77.1337 168.322 76.8387 168.456 76.7404 168.729C76.642 169.002 76.7808 169.299 77.0527 169.398L79.4185 170.253L76.7519 172.852C75.4909 173.416 74.4902 172.666 72.9863 171.392C71.9393 170.503 70.7477 169.502 69.2611 169.177C64.7724 168.177 17.1839 178.655 15.1594 179.103ZM69.0355 170.183C70.2734 170.456 71.3088 171.334 72.3153 172.183C73.7787 173.422 75.2943 174.707 77.2667 173.753C77.3188 173.73 77.3651 173.695 77.3998 173.66L83.6585 167.549L91.7683 169.636C93.6598 170.096 94.7126 167.368 93.0177 165.583L86.1574 158.78C86.1574 158.78 86.1574 158.78 86.1574 158.774C85.284 157.64 83.9998 156.593 82.4264 155.727C83.7974 152.046 82.8429 149.371 78.9963 150.145L30.8062 159.821C33.8257 129.019 30.2857 165.135 32.2061 145.603L33.3919 126.06C33.4092 125.769 33.1894 125.525 32.906 125.507C32.5474 125.496 32.3738 125.711 32.3565 125.996L31.1996 145.086C-1.95094 147.528 9.48486 146.685 7.00913 146.865C9.10888 123.507 11.7639 98.0261 30.1584 89.1526L36.7931 104.12C36.9088 104.382 37.2154 104.498 37.4757 104.382C37.736 104.265 37.8517 103.957 37.736 103.696L31.0839 88.6991C38.0773 85.6346 45.1805 85.9544 45.3888 85.9312C45.6144 96.1654 53.9613 104.428 64.2113 104.428C74.3861 104.428 82.681 96.2642 83.0049 86.1114C83.2652 86.187 93.2954 86.0126 112.384 96.6887L101.307 122.513C100.624 122.14 96.6446 120.146 95.0828 119.367C94.8283 119.245 94.5159 119.349 94.3886 119.605C94.2614 119.861 94.3713 120.175 94.6258 120.303L97.2057 121.576C97.8709 136.904 99.7797 180.493 100.196 189.948H27.0464V177.597C44.4054 173.916 66.2937 169.578 69.0355 170.183ZM141.601 189.953C142.845 182.411 149.445 177.114 156.351 177.114C161.002 177.114 163.518 179.085 163.964 179.085C164.496 179.085 164.681 178.37 164.212 178.108C162.471 177.137 160.557 176.509 158.578 176.236C160.794 170.136 166.497 166.06 172.982 166.054C178.76 166.136 181.485 169.084 182.04 169.084C182.532 169.084 182.752 168.444 182.347 168.142C181.091 167.217 179.726 166.519 178.292 165.996C183.313 153.041 201.667 152.918 206.786 165.921C205.288 166.45 203.859 167.177 202.557 168.136C202.002 168.543 202.627 169.386 203.171 168.973C210.979 163.217 222.866 166.2 226.511 176.224C223.792 176.568 221.218 177.562 218.985 179.207C218.436 179.615 219.049 180.458 219.598 180.045C228.957 173.125 241.706 178.992 243.511 189.936H141.601V189.953Z" fill="white"/>
<path d="M183.306 101.538C182.624 101.381 182.392 102.376 183.046 102.55C189.663 104.277 196.483 104.765 203.014 102.538C203.285 102.445 203.43 102.155 203.338 101.881C203.245 101.608 202.956 101.457 202.684 101.556C197.038 103.469 190.699 103.469 183.306 101.538Z" fill="white"/>
<path d="M202.684 108.324C197.038 110.243 190.699 110.237 183.306 108.313C182.624 108.156 182.392 109.15 183.046 109.324C189.663 111.051 196.483 111.54 203.014 109.313C203.285 109.22 203.43 108.929 203.338 108.656C203.251 108.382 202.956 108.231 202.684 108.324Z" fill="white"/>
<path d="M102.204 49.7627C102.407 49.9662 102.736 49.9662 102.939 49.7568L118.84 33.3182L128.703 40.1507C128.928 40.3077 129.241 40.2554 129.408 40.0402L151.418 11.181L154.154 13.8384C154.467 14.1408 154.976 13.9489 155.028 13.5302L156.659 0.586318C156.699 0.254871 156.416 -0.0416875 156.063 0.00483145L142.493 2.07492C142.07 2.13889 141.903 2.66804 142.215 2.97041L145.263 5.88366L127.534 26.0264L118.927 20.2406C118.725 20.1068 118.458 20.1301 118.279 20.2987L95.4191 42.2906C95.2109 42.4883 95.1993 42.8255 95.4133 43.0349L102.204 49.7627ZM118.701 21.3396L127.343 27.1428C127.557 27.2882 127.847 27.2475 128.02 27.0556L146.38 6.19185C146.565 5.98252 146.548 5.6627 146.345 5.46499L143.702 2.94134L155.548 1.1271L154.131 12.3556L151.725 10.018C151.621 9.91918 151.464 9.84359 151.326 9.87266C151.175 9.88429 151.042 9.95407 150.955 10.0762L128.888 39.011L119.066 32.2076C118.858 32.068 118.58 32.0855 118.401 32.2774L102.557 48.6578L96.5239 42.6743L118.701 21.3396Z" fill="white"/>
<path d="M67.0797 68.0214C66.9004 68.2423 66.9351 68.5738 67.1549 68.754C69.0638 70.3066 71.3082 71.3359 73.6913 70.8067C73.969 70.7485 74.1483 70.4694 74.0847 70.1845C74.0268 69.9054 73.7608 69.7309 73.4657 69.7891C71.6957 70.1787 69.7869 69.5565 67.8028 67.9458C67.5888 67.7713 67.2591 67.8004 67.0797 68.0214Z" fill="white"/>
<path d="M78.6589 56.4963C78.1151 56.4788 77.635 56.9324 77.6177 57.479C77.6003 58.0256 78.0515 58.4791 78.601 58.4966C79.1448 58.514 79.6249 58.0895 79.6422 57.5371C79.6596 56.9905 79.2084 56.5137 78.6589 56.4963Z" fill="white"/>
<path d="M68.024 59.4851C68.5619 59.3804 68.9321 58.8571 68.828 58.3163C68.7239 57.7755 68.1744 57.4092 67.6422 57.5138C67.1043 57.6185 66.7398 58.1709 66.844 58.7059C66.9481 59.2467 67.4918 59.5898 68.024 59.4851Z" fill="white"/>
<path d="M74.8365 54.147C75.7794 53.0713 78.1105 52.5538 80.2218 53.5714C80.4705 53.6993 80.7887 53.5888 80.9101 53.3271C81.0374 53.0713 80.9275 52.7573 80.6672 52.6352C78.3534 51.5071 75.4496 51.8676 74.0556 53.4551C73.8647 53.6702 73.8878 54.0017 74.1019 54.1935C74.3159 54.3738 74.6456 54.3622 74.8365 54.147Z" fill="white"/>
<path d="M63.2622 55.752C64.1472 54.5658 66.7849 53.5889 68.4855 54.7111C68.7284 54.8681 69.0466 54.8042 69.2028 54.5599C69.3589 54.3215 69.2953 53.9959 69.0524 53.8389C66.9526 52.455 63.7134 53.4086 62.4292 55.124C62.2557 55.3566 62.3019 55.6822 62.5333 55.8567C62.7647 56.0253 63.0886 55.9788 63.2622 55.752Z" fill="white"/>
<path d="M71.1248 64.0788C71.3331 64.0614 73.132 63.887 72.9238 63.9044C73.7336 63.823 74.2774 63.0264 74.046 62.2297L72.2759 56.2055C72.195 55.9264 71.9057 55.7694 71.6339 55.8508C71.3562 55.9322 71.2 56.223 71.281 56.4963L73.0511 62.5205C73.1031 62.6891 72.9874 62.8519 72.8197 62.8635L71.067 63.0322C70.7836 63.0612 70.5753 63.3171 70.6042 63.602C70.6332 63.8753 70.8588 64.0788 71.1248 64.0788Z" fill="white"/>
<path d="M50.635 60.1771C49.3219 60.369 48.3617 61.7471 48.5931 63.3404C48.6914 64.0207 49.7211 63.8754 49.6169 63.1892C49.4897 62.2995 49.9467 61.3343 50.7854 61.2063C51.0688 61.1656 51.2655 60.904 51.225 60.619C51.1787 60.3341 50.9358 60.1248 50.635 60.1771Z" fill="white"/>
<path d="M218.349 144.644C218.065 144.644 217.828 144.876 217.828 145.167V152.54C217.828 152.825 218.06 153.064 218.349 153.064C218.632 153.064 218.869 152.831 218.869 152.54V145.167C218.869 144.876 218.638 144.644 218.349 144.644Z" fill="white"/>
<path d="M218.869 132.997C218.869 132.712 218.638 132.473 218.349 132.473C218.065 132.473 217.828 132.706 217.828 132.997V138.509C217.828 138.794 218.06 139.033 218.349 139.033C218.632 139.033 218.869 138.8 218.869 138.509V132.997Z" fill="white"/>
<path d="M208.372 139.131C208.089 139.131 207.852 139.364 207.852 139.655V152.535C207.852 152.82 208.083 153.058 208.372 153.058C208.661 153.058 208.893 152.825 208.893 152.535V139.655C208.893 139.37 208.661 139.131 208.372 139.131Z" fill="white"/>
<path d="M208.893 127.484C208.893 127.199 208.661 126.961 208.372 126.961C208.083 126.961 207.852 127.193 207.852 127.484V132.997C207.852 133.282 208.083 133.52 208.372 133.52C208.661 133.52 208.893 133.287 208.893 132.997V127.484Z" fill="white"/>
<path d="M163.962 144.644C163.679 144.644 163.441 144.876 163.441 145.167V152.54C163.441 152.825 163.673 153.064 163.962 153.064C164.245 153.064 164.483 152.831 164.483 152.54V145.167C164.477 144.876 164.245 144.644 163.962 144.644Z" fill="white"/>
<path d="M164.479 132.997C164.479 132.712 164.247 132.473 163.958 132.473C163.675 132.473 163.438 132.706 163.438 132.997V138.509C163.438 138.794 163.669 139.033 163.958 139.033C164.242 139.033 164.479 138.8 164.479 138.509V132.997Z" fill="white"/>
<path d="M173.937 139.131C173.653 139.131 173.416 139.364 173.416 139.655V152.535C173.416 152.82 173.647 153.058 173.937 153.058C174.226 153.058 174.457 152.825 174.457 152.535V139.655C174.457 139.37 174.22 139.131 173.937 139.131Z" fill="white"/>
<path d="M174.457 127.484C174.457 127.199 174.226 126.961 173.937 126.961C173.647 126.961 173.416 127.193 173.416 127.484V132.997C173.416 133.282 173.647 133.52 173.937 133.52C174.226 133.52 174.457 133.287 174.457 132.997V127.484Z" fill="white"/>
<path d="M12.3897 46.0004H13.5293C13.7144 46.0004 13.8821 45.8783 13.8821 45.6341V45.3724C13.8821 42.8837 16.4851 41.6044 18.608 42.3952C20.7656 43.1977 21.3151 45.6864 19.9963 47.2216C19.1517 48.2159 17.7692 48.8148 16.9363 49.8034C16.4273 50.4023 16.2537 51.0012 16.2537 51.6118V53.3795C16.2537 53.5772 16.3868 53.7691 16.6181 53.7691H17.7808C17.9659 53.7691 18.1337 53.6295 18.1337 53.3795V51.8153C18.1337 51.4432 18.2494 51.0477 18.6485 50.6058C19.412 49.7452 20.6557 49.3033 21.6275 47.9659C23.3917 45.5411 22.634 41.9533 19.3368 40.7671C15.924 39.5343 12.0195 41.5346 12.0195 45.4771V45.6399C12.0253 45.8144 12.1526 46.0004 12.3897 46.0004Z" fill="white"/>
<path d="M17.26 55.1065C16.5253 55.1065 15.918 55.7229 15.918 56.4672C15.918 57.2173 16.5427 57.8162 17.26 57.8162C17.9888 57.8162 18.6135 57.2406 18.6135 56.4672C18.6135 55.6996 18.0119 55.1065 17.26 55.1065Z" fill="white"/>
</svg>
