<svg width="389" height="388" viewBox="0 0 389 388" fill="none" xmlns="http://www.w3.org/2000/svg">
<path d="M343.35 314.531L342.121 303.512L335.243 304.277C334.366 301.821 333.105 299.567 331.54 297.573L335.863 292.172L327.191 285.248L322.868 290.649C320.574 289.564 318.094 288.833 315.504 288.52L314.737 281.651L303.702 282.88L304.468 289.749C302.011 290.626 299.752 291.884 297.756 293.446L292.348 289.128L285.415 297.789L290.823 302.107C289.736 304.398 289.006 306.874 288.689 309.461L281.631 310.548L283.041 321.248L289.919 320.483C290.796 322.936 292.057 325.193 293.622 327.187L289.299 332.587L297.971 339.511L302.294 334.111C304.587 335.195 307.067 335.926 309.658 336.24L310.424 343.109L321.46 341.88L320.693 335.011C323.15 334.134 325.409 332.875 327.405 331.314L332.814 335.632L339.747 326.971L334.338 322.653C335.426 320.362 336.156 317.885 336.472 315.298L343.35 314.534V314.531ZM314.132 326.273C306.447 327.129 299.523 321.602 298.667 313.925C297.811 306.251 303.345 299.336 311.03 298.48C318.714 297.624 325.639 303.152 326.495 310.826C327.35 318.5 321.817 325.415 314.132 326.271V326.273Z" fill="#9C84F4"/>
<path d="M310.425 343.573C310.319 343.573 310.217 343.537 310.132 343.471C310.034 343.393 309.972 343.281 309.958 343.158L309.231 336.653C306.879 336.331 304.594 335.67 302.43 334.685L298.336 339.797C298.258 339.895 298.145 339.956 298.022 339.971C297.903 339.984 297.776 339.95 297.678 339.872L289.006 332.948C288.804 332.787 288.772 332.492 288.934 332.291L293.028 327.176C291.588 325.284 290.439 323.204 289.607 320.981L283.094 321.706C282.839 321.733 282.61 321.555 282.578 321.303L281.168 310.603C281.134 310.351 281.311 310.12 281.561 310.08L288.271 309.046C288.592 306.692 289.254 304.404 290.244 302.237L285.122 298.15C284.92 297.989 284.888 297.694 285.05 297.493L291.983 288.831C292.059 288.734 292.174 288.672 292.297 288.658C292.418 288.647 292.543 288.679 292.641 288.757L297.761 292.844C299.657 291.406 301.74 290.259 303.963 289.429L303.237 282.924C303.209 282.668 303.394 282.437 303.651 282.407L314.686 281.179C314.81 281.166 314.933 281.2 315.03 281.278C315.128 281.356 315.19 281.469 315.205 281.592L315.931 288.096C318.281 288.418 320.566 289.079 322.732 290.064L326.826 284.952C326.903 284.855 327.017 284.793 327.14 284.778C327.259 284.766 327.387 284.799 327.484 284.878L336.156 291.802C336.358 291.963 336.39 292.257 336.229 292.459L332.135 297.573C333.574 299.465 334.723 301.546 335.555 303.766L342.068 303.042C342.191 303.029 342.314 303.063 342.412 303.141C342.51 303.22 342.571 303.332 342.586 303.455L343.816 314.474C343.843 314.731 343.658 314.962 343.402 314.991L336.889 315.716C336.566 318.066 335.904 320.348 334.918 322.509L340.04 326.598C340.242 326.759 340.274 327.053 340.112 327.255L333.179 335.916C333.103 336.013 332.988 336.075 332.865 336.09C332.746 336.102 332.619 336.069 332.521 335.99L327.402 331.903C325.505 333.342 323.422 334.488 321.199 335.318L321.925 341.823C321.953 342.079 321.768 342.31 321.511 342.34L310.476 343.569C310.459 343.569 310.442 343.571 310.423 343.571L310.425 343.573ZM302.294 333.64C302.362 333.64 302.43 333.655 302.496 333.685C304.781 334.768 307.21 335.469 309.716 335.774C309.93 335.799 310.1 335.971 310.123 336.187L310.839 342.592L320.944 341.467L320.229 335.062C320.205 334.848 320.333 334.643 320.537 334.571C322.913 333.723 325.127 332.503 327.119 330.945C327.291 330.812 327.531 330.814 327.701 330.948L332.742 334.973L339.091 327.043L334.048 323.017C333.878 322.882 333.825 322.648 333.918 322.451C335.001 320.167 335.706 317.741 336.01 315.241C336.035 315.027 336.207 314.858 336.422 314.832L342.835 314.118L341.709 304.027L335.296 304.741C335.078 304.76 334.876 304.637 334.804 304.434C333.957 302.061 332.733 299.851 331.173 297.861C331.039 297.692 331.041 297.45 331.175 297.283L335.205 292.247L327.263 285.908L323.233 290.942C323.097 291.111 322.862 291.164 322.666 291.073C320.379 289.99 317.95 289.287 315.447 288.984C315.232 288.958 315.062 288.787 315.039 288.571L314.323 282.166L304.218 283.291L304.934 289.696C304.957 289.91 304.83 290.115 304.626 290.187C302.252 291.035 300.037 292.253 298.043 293.813C297.871 293.946 297.631 293.946 297.461 293.81L292.42 289.785L286.071 297.715L291.114 301.741C291.284 301.876 291.337 302.109 291.244 302.306C290.161 304.59 289.456 307.016 289.152 309.517C289.127 309.724 288.965 309.889 288.759 309.921L282.154 310.938L283.445 320.731L289.866 320.015C290.084 319.989 290.286 320.119 290.358 320.322C291.208 322.695 292.429 324.907 293.989 326.894C294.123 327.064 294.121 327.305 293.987 327.473L289.957 332.509L297.899 338.848L301.929 333.814C302.02 333.7 302.156 333.638 302.294 333.638V333.64ZM312.552 326.831C309.284 326.831 306.135 325.733 303.545 323.665C300.525 321.254 298.627 317.816 298.2 313.981C297.317 306.063 303.048 298.904 310.977 298.02C314.816 297.592 318.596 298.683 321.615 301.095C324.635 303.504 326.533 306.944 326.96 310.779C327.843 318.697 322.112 325.856 314.183 326.74C313.638 326.801 313.094 326.831 312.552 326.831ZM312.608 298.864C312.102 298.864 311.593 298.891 311.081 298.948C303.664 299.775 298.304 306.47 299.13 313.877C299.529 317.464 301.307 320.682 304.129 322.937C306.951 325.191 310.486 326.214 314.077 325.812C321.494 324.985 326.854 318.288 326.028 310.883C325.626 307.296 323.851 304.078 321.029 301.823C318.606 299.889 315.661 298.864 312.606 298.864H312.608Z" fill="#251F47"/>
<path d="M381.335 285.687L381.345 279.138L377.258 279.132C376.905 277.634 376.317 276.227 375.531 274.952L378.428 272.07L373.799 267.432L370.902 270.314C369.628 269.526 368.222 268.932 366.723 268.574L366.73 264.494L360.173 264.483L360.166 268.564C358.665 268.916 357.257 269.505 355.981 270.288L353.095 267.396L348.451 272.019L351.337 274.912C350.547 276.183 349.953 277.587 349.596 279.085L345.381 279.255L345.498 285.626L349.585 285.632C349.938 287.13 350.526 288.537 351.312 289.813L348.415 292.694L353.044 297.332L355.941 294.45C357.215 295.239 358.62 295.832 360.12 296.19L360.113 300.271L366.67 300.281L366.677 296.201C368.178 295.849 369.586 295.26 370.862 294.476L373.748 297.368L378.392 292.745L375.506 289.853C376.296 288.582 376.89 287.177 377.247 285.679L381.335 285.685V285.687ZM363.407 290.641C358.839 290.633 355.144 286.931 355.151 282.369C355.159 277.81 358.867 274.117 363.434 274.125C368.002 274.134 371.696 277.835 371.69 282.397C371.682 286.959 367.974 290.649 363.407 290.641Z" fill="#9C84F4"/>
<path d="M103.342 82.1688L101.787 68.2382L93.0918 69.2064C91.9834 66.1025 90.3887 63.2528 88.4118 60.7315L93.8775 53.9049L82.9142 45.1525L77.4485 51.979C74.5501 50.6082 71.4138 49.6823 68.1395 49.2861L67.1712 40.6035L53.2203 42.1566L54.1886 50.8391C51.082 51.9472 48.226 53.5384 45.7013 55.5131L38.866 50.0552L30.1005 61.0048L36.9358 66.4627C35.5619 69.3569 34.6361 72.4883 34.239 75.7597L25.3164 77.1347L27.1001 90.6607L35.7955 89.6924C36.9039 92.7964 38.4986 95.6461 40.4755 98.1674L35.0098 104.994L45.9731 113.746L51.4387 106.92C54.3372 108.291 57.4714 109.217 60.7478 109.613L61.7161 118.295L75.667 116.742L74.6987 108.06C77.8053 106.952 80.6613 105.36 83.186 103.386L90.0213 108.844L98.7868 97.8941L91.9515 92.4362C93.3254 89.542 94.2512 86.4105 94.6483 83.1392L103.344 82.1709L103.342 82.1688ZM66.4046 97.0148C56.69 98.0953 47.9351 91.1078 46.8522 81.4061C45.7692 71.7044 52.7659 62.9625 62.4827 61.8799C72.1973 60.7993 80.9522 67.7869 82.0351 77.4886C83.1181 87.1902 76.1214 95.9321 66.4046 97.0148Z" fill="#9C84F4"/>
<path d="M61.7185 118.759C61.6124 118.759 61.5104 118.723 61.4255 118.657C61.3278 118.579 61.2662 118.467 61.2535 118.344L60.3256 110.026C57.2997 109.621 54.3609 108.771 51.5771 107.496L46.3428 114.034C46.2664 114.132 46.1517 114.193 46.0286 114.208C45.9033 114.221 45.7801 114.185 45.6846 114.108L34.7213 105.356C34.5196 105.195 34.4856 104.9 34.647 104.699L39.8813 98.1587C38.0211 95.7285 36.5432 93.0525 35.4815 90.1944L27.1535 91.1224C26.8987 91.1541 26.6715 90.9719 26.6375 90.7198L24.8538 77.1959C24.8198 76.9438 24.9961 76.7129 25.2466 76.6726L33.821 75.3526C34.2245 72.325 35.0781 69.3842 36.3585 66.6002L29.8099 61.3733C29.6081 61.2122 29.5742 60.9177 29.7356 60.7165L38.501 49.7668C38.5775 49.6694 38.6921 49.6079 38.8153 49.5931C38.9385 49.5804 39.0616 49.6143 39.1593 49.6927L45.7079 54.9217C48.1392 53.0657 50.819 51.589 53.6835 50.5275L52.7556 42.2093C52.7258 41.953 52.9127 41.722 53.1696 41.6924L67.1205 40.1393C67.2458 40.1266 67.3668 40.1605 67.4645 40.2389C67.5622 40.3173 67.6238 40.4296 67.6365 40.5525L68.5644 48.8706C71.5903 49.2753 74.5313 50.1249 77.3129 51.4025L82.5472 44.862C82.6236 44.7645 82.7383 44.7031 82.8615 44.6882C82.9846 44.6755 83.1099 44.7094 83.2054 44.7878L94.1687 53.5403C94.3704 53.7013 94.4022 53.9958 94.2409 54.1971L89.0066 60.7376C90.8668 63.1678 92.3447 65.8438 93.4064 68.7041L101.734 67.7761C101.858 67.7612 101.981 67.7972 102.078 67.8756C102.176 67.954 102.238 68.0663 102.25 68.1892L103.805 82.1199C103.834 82.3762 103.648 82.6072 103.391 82.6368L95.0626 83.5627C94.6571 86.5862 93.8056 89.5206 92.5273 92.3004L99.0759 97.5273C99.2776 97.6883 99.3116 97.9828 99.1502 98.1841L90.3847 109.134C90.3083 109.231 90.1936 109.293 90.0705 109.307C89.9452 109.318 89.822 109.286 89.7265 109.208L83.1778 103.981C80.7444 105.839 78.0646 107.314 75.2023 108.373L76.1302 116.691C76.1599 116.948 75.9731 117.179 75.7161 117.208L61.7652 118.761C61.7483 118.761 61.7313 118.763 61.7143 118.763L61.7185 118.759ZM51.4412 106.449C51.5091 106.449 51.5771 106.464 51.6408 106.494C54.5435 107.867 57.6267 108.759 60.8055 109.144C61.0221 109.17 61.1898 109.341 61.2153 109.557L62.1326 117.776L75.1513 116.327L74.234 108.108C74.2106 107.894 74.338 107.689 74.5419 107.617C77.5571 106.54 80.3685 104.994 82.8975 103.015C83.0695 102.881 83.3095 102.883 83.4794 103.017L89.9494 108.182L98.1289 97.9638L91.6588 92.7983C91.4889 92.6627 91.4358 92.4296 91.5271 92.2326C92.9031 89.3342 93.795 86.2535 94.1814 83.0797C94.2069 82.8636 94.3789 82.6962 94.5934 82.6707L102.824 81.7555L101.371 68.7528L93.1409 69.6702C92.9265 69.6935 92.7205 69.5664 92.6483 69.363C91.5717 66.3523 90.0216 63.545 88.0405 61.0194C87.9067 60.8478 87.9088 60.6084 88.0426 60.441L93.2152 53.9789L82.9825 45.8112L77.8098 52.2733C77.6739 52.4428 77.4403 52.4979 77.2429 52.4047C74.3401 51.0317 71.2569 50.1397 68.0782 49.7541C67.8616 49.7287 67.6938 49.5571 67.6684 49.341L66.751 41.1224L53.7323 42.5716L54.6497 50.7902C54.673 51.0042 54.5456 51.2076 54.3418 51.2817C51.3244 52.3581 48.5151 53.9068 45.9861 55.8836C45.8162 56.0171 45.5742 56.0171 45.4043 55.8815L38.9342 50.716L30.7548 60.9347L37.2249 66.1001C37.3947 66.2357 37.4478 66.4688 37.3565 66.6658C35.9805 69.5643 35.0866 72.6449 34.7022 75.8188C34.6768 76.0264 34.5154 76.1917 34.3094 76.2234L25.8391 77.5286L27.5017 90.1456L35.7406 89.2282C35.9551 89.2049 36.161 89.332 36.2332 89.5354C37.3098 92.5483 38.8599 95.3556 40.841 97.879C40.9748 98.0485 40.9727 98.29 40.8389 98.4574L35.6663 104.92L45.899 113.087L51.0717 106.625C51.163 106.511 51.2989 106.449 51.4369 106.449H51.4412ZM64.4089 97.593C60.3065 97.593 56.3526 96.2158 53.0996 93.6182C49.3093 90.5927 46.9247 86.2726 46.3874 81.4567C45.2769 71.5135 52.4732 62.5237 62.4299 61.4156C67.2522 60.8796 71.9959 62.2483 75.7862 65.276C79.5765 68.3015 81.9611 72.6216 82.4983 77.4375C83.6089 87.3786 76.4105 96.3705 66.4559 97.4786C65.77 97.5548 65.0863 97.593 64.4068 97.593H64.4089ZM64.479 62.2377C63.8335 62.2377 63.1858 62.2737 62.536 62.3458C53.0932 63.3966 46.2664 71.9245 47.3196 81.355C47.8292 85.923 50.0907 90.0206 53.6856 92.8894C57.2806 95.7603 61.7822 97.0612 66.354 96.5506C75.7968 95.4997 82.6236 86.9718 81.5704 77.5413C81.0608 72.9733 78.7993 68.8757 75.2044 66.0069C72.1191 63.545 68.3712 62.2377 64.479 62.2377Z" fill="#9C84F4"/>
<path d="M388.904 210.524L388.819 202.299L82.0377 211.017L0.568359 262.176V270.261H316.417L388.904 210.524Z" fill="#251F47"/>
<path d="M388.222 0.466431H82.0391V202.932H388.222V0.466431Z" fill="#1A1A3E"/>
<path d="M107.072 22.6134H363.19C369.541 22.6134 374.69 27.7621 374.69 34.1134V170.383C374.69 176.734 369.541 181.883 363.19 181.883H107.072C100.721 181.883 95.5723 176.734 95.5723 170.383V34.1134C95.5723 27.7621 100.721 22.6134 107.072 22.6134Z" stroke="#6A6A8A"/>
<path d="M66.3477 214.344L0.568359 262.176H316.417L388.222 202.932H82.0377L76.1218 207.235L66.3477 214.344Z" fill="#282858"/>
<path d="M316.417 262.642H0.568855C0.36713 262.642 0.186639 262.513 0.122937 262.32C0.0592338 262.127 0.129307 261.917 0.29281 261.797L66.0722 213.964C66.2824 213.814 66.5733 213.858 66.7262 214.066C66.8791 214.274 66.8324 214.566 66.6243 214.718L2.00641 261.708H316.25L386.923 203.398H82.1911L76.3984 207.61C76.1882 207.761 75.8973 207.716 75.7444 207.508C75.5915 207.301 75.6382 207.008 75.8463 206.856L81.7622 202.553C81.8428 202.495 81.9384 202.464 82.0382 202.464H388.223C388.42 202.464 388.597 202.587 388.663 202.773C388.73 202.959 388.673 203.165 388.52 203.292L316.715 262.536C316.632 262.606 316.526 262.644 316.417 262.644V262.642Z" fill="#251F47"/>
<path d="M228.598 250.822H106.662L146.519 220.683H268.454L228.598 250.822Z" fill="#A696E7"/>
<path d="M339.971 0.466431L324.572 11.7783L310.513 22.1114L294.967 33.525L285.902 40.1821L265.513 55.1594L256.448 61.8228L248.01 68.0201H248.006L244.663 70.4778L238.217 75.2153L236.221 76.6772L235.07 77.5289L227.156 83.3343L206.813 98.2798L199.233 103.85L197.749 104.937L195.627 106.498L195.612 106.507L186.286 113.361H186.282L177.357 119.914L168.292 126.578L147.944 141.523L138.881 148.18L118.685 163.011L109.622 169.67L95.0747 180.359L89.2778 184.62L82.0391 189.936V133.637L86.6702 130.235L95.0747 124.063V124.058L107.019 115.289V115.285L109.639 113.361L116.082 108.628L136.278 93.7944L145.34 87.1374L158.423 77.5289L165.685 72.1919L171.365 68.0201L174.75 65.5348V65.5306L195.141 50.5575V50.5532L204.204 43.8962L224.553 28.9507L233.617 22.2936L233.862 22.1114H233.866L253.841 7.43706L262.904 0.780003V0.775766L263.326 0.466431H339.971Z" fill="#282858"/>
<path d="M86.6706 130.232L107.017 115.287L105.645 128.101L85.2988 143.046L86.6706 130.232Z" fill="#151541"/>
<path d="M116.081 108.63L136.275 93.7944L134.903 106.606L114.707 121.442L116.081 108.63Z" fill="#151541"/>
<path d="M145.34 87.135L165.685 72.1894L164.313 85.0035L143.969 99.949L145.34 87.135Z" fill="#151541"/>
<path d="M174.751 65.5324L195.142 50.5529L193.77 63.367L173.379 78.3444L174.751 65.5324Z" fill="#151541"/>
<path d="M204.206 43.8962L224.552 28.9507L223.179 41.7626L202.834 56.7082L204.206 43.8962Z" fill="#151541"/>
<path d="M233.616 22.2914L253.841 7.43488L252.47 20.249L232.244 35.1055L233.616 22.2914Z" fill="#151541"/>
<path d="M262.903 0.775827L263.326 0.466492H279.4L261.531 13.5899L262.903 0.780064V0.775827Z" fill="#151541"/>
<path d="M90.6492 171.804L110.994 156.858L109.622 169.672L89.2754 184.616L90.6492 171.804Z" fill="#151541"/>
<path d="M120.059 150.199L140.253 135.366L138.881 148.178L118.688 163.013L120.059 150.199Z" fill="#151541"/>
<path d="M149.317 128.707L169.664 113.761L168.292 126.575L147.945 141.521L149.317 128.707Z" fill="#151541"/>
<path d="M178.729 107.104L199.12 92.1246L197.747 104.939L177.357 119.916L178.729 107.104Z" fill="#151541"/>
<path d="M208.182 85.4678L228.529 70.5223L227.157 83.3343L206.811 98.2798L208.182 85.4678Z" fill="#151541"/>
<path d="M237.594 63.8628L257.82 49.0063L256.446 61.8204L236.223 76.6769L237.594 63.8628Z" fill="#151541"/>
<path d="M266.883 42.3471L287.275 27.3698L285.903 40.1818L265.512 55.1612L266.883 42.3471Z" fill="#151541"/>
<path d="M296.339 20.7106L316.685 5.76508L315.313 18.5792L294.967 33.5247L296.339 20.7106Z" fill="#151541"/>
<path d="M339.971 0.466492L324.572 11.7784L325.785 0.466492H339.971Z" fill="#151541"/>
<path d="M388.428 68.0201H82.0391V113.359H388.428V68.0201Z" fill="#282858"/>
<path d="M98.8629 68.0201L95.0747 72.1516L90.1442 77.529H82.0391V68.0201H98.8629Z" fill="#151541"/>
<path d="M110.119 68.0201H135.197L126.478 77.5268H101.4L110.119 68.0201Z" fill="#151541"/>
<path d="M146.453 68.0201H171.718L162.999 77.5268H137.734L146.453 68.0201Z" fill="#151541"/>
<path d="M182.973 68.0201H208.294L199.576 77.5268H174.256L182.973 68.0201Z" fill="#151541"/>
<path d="M219.549 68.0201H244.813L236.095 77.5268H210.83L219.549 68.0201Z" fill="#151541"/>
<path d="M256.07 68.0201H281.184L272.467 77.5268H247.352L256.07 68.0201Z" fill="#151541"/>
<path d="M292.439 68.0201H317.761L309.043 77.5268H283.721L292.439 68.0201Z" fill="#151541"/>
<path d="M329.015 68.0201H354.282L345.563 77.5268H320.299L329.015 68.0201Z" fill="#151541"/>
<path d="M388.427 68.0201V77.5268H356.82L365.537 68.0201H388.427Z" fill="#151541"/>
<path d="M113.699 103.85L104.981 113.357H82.0391V111.03L88.6217 103.85H113.699Z" fill="#151541"/>
<path d="M124.955 103.85H150.22L141.501 113.359H116.236L124.955 103.85Z" fill="#151541"/>
<path d="M161.477 103.85H186.796L178.08 113.359H152.758L161.477 103.85Z" fill="#151541"/>
<path d="M198.053 103.85H223.317L214.598 113.359H189.334L198.053 103.85Z" fill="#151541"/>
<path d="M234.572 103.85H259.688L250.969 113.359H225.854L234.572 103.85Z" fill="#151541"/>
<path d="M270.943 103.85H296.265L287.546 113.359H262.227L270.943 103.85Z" fill="#151541"/>
<path d="M307.522 103.85H332.786L324.067 113.359H298.803L307.522 103.85Z" fill="#151541"/>
<path d="M344.285 103.85H369.605L360.888 113.359H335.566L344.285 103.85Z" fill="#151541"/>
<path d="M388.429 103.852V113.359H372.146L380.863 103.852H388.429Z" fill="#151541"/>
<path d="M388.22 203.4H82.0375C81.7784 203.4 81.5703 203.191 81.5703 202.934V0.466121C81.5703 0.207636 81.7805 0 82.0375 0H388.22C388.479 0 388.687 0.209754 388.687 0.466121V202.932C388.687 203.191 388.477 203.398 388.22 203.398V203.4ZM82.5067 202.466H387.753V0.934361H82.5067V202.466Z" fill="#251F47"/>
<path d="M48.6826 300.551L25.0684 330.558L47.4073 348.06L71.0216 318.054L48.6826 300.551Z" fill="#DFE3E8"/>
<path d="M47.4045 348.536C47.3026 348.536 47.2007 348.504 47.1157 348.436L24.7773 330.933C24.6796 330.857 24.6159 330.745 24.6011 330.622C24.5862 330.499 24.6202 330.374 24.6966 330.279L48.3112 300.271C48.4705 300.068 48.7656 300.032 48.9695 300.193L71.3079 317.696C71.4055 317.772 71.4692 317.884 71.4841 318.007C71.499 318.13 71.465 318.255 71.3886 318.35L47.774 348.358C47.6805 348.476 47.5446 348.536 47.4045 348.536ZM25.7222 330.486L47.3259 347.413L70.3629 318.14L48.7592 301.214L25.7222 330.486Z" fill="#251F47"/>
<path d="M36.9017 315.525L25.0703 330.559L47.4093 348.062L59.2407 333.028L36.9017 315.525Z" fill="#251F47"/>
<path d="M47.4055 348.535C47.3015 348.535 47.1995 348.502 47.1167 348.436L24.7783 330.933C24.5745 330.774 24.5405 330.48 24.6997 330.278L36.5315 315.244C36.6079 315.146 36.7204 315.083 36.8436 315.068C36.9689 315.053 37.092 315.087 37.1897 315.165L59.5281 332.668C59.732 332.827 59.7659 333.122 59.6067 333.323L47.775 348.358C47.6985 348.455 47.586 348.519 47.4628 348.533C47.4437 348.535 47.4246 348.538 47.4076 348.538L47.4055 348.535ZM25.7232 330.486L47.3269 347.413L58.5811 333.113L36.9774 316.187L25.7232 330.486Z" fill="#251F47"/>
<path d="M66.9472 335.217L66.0171 329.276L61.7172 325.221L58.7232 328.38C55.8544 331.405 51.5991 332.696 47.5285 331.77L42.0925 330.535C38.9647 329.823 36.7712 327.015 36.8456 323.816L36.9581 318.845C37.0069 316.712 34.6712 315.373 32.8471 316.487L23.761 322.043L18.1191 321.418L13.6833 326.981L1.12109 331.704L3.32733 337.346C5.41465 342.685 8.66349 347.495 12.836 351.432L24.2282 362.18C25.8929 361.383 29.214 362.716 32.1273 365.464C35.0406 368.212 36.5589 371.445 35.856 373.149L51.03 387.264H67.3506C87.3172 387.264 98.6286 379.702 100.285 379.032L98.2847 367.572L93.0101 364.553C88.7186 362.095 84.6013 359.296 80.7431 356.182C72.88 349.834 68.5058 345.192 66.9472 335.221V335.217Z" fill="white"/>
<path d="M67.3528 387.728H51.0322C50.9133 387.728 50.8007 387.684 50.7137 387.603L35.5397 373.488C35.3974 373.355 35.3507 373.149 35.425 372.969C35.9665 371.66 34.8814 368.702 31.8088 365.802C28.7341 362.901 25.7146 361.986 24.4342 362.6C24.2601 362.683 24.052 362.651 23.9097 362.518L12.5175 351.769C8.32165 347.811 4.99425 342.881 2.89418 337.512L0.687947 331.87C0.643355 331.754 0.645478 331.624 0.69644 331.51C0.747402 331.395 0.842956 331.306 0.959745 331.262L13.4009 326.586L17.756 321.124C17.8558 320.999 18.013 320.933 18.1743 320.95L23.657 321.558L32.6051 316.088C33.6095 315.473 34.8198 315.456 35.8412 316.043C36.8626 316.63 37.455 317.681 37.4295 318.857L37.317 323.827C37.249 326.791 39.3024 329.421 42.2009 330.082L47.6368 331.317C51.5248 332.201 55.6464 330.955 58.3877 328.061L61.3817 324.899C61.5601 324.713 61.8553 324.705 62.0442 324.88L66.3442 328.936C66.4206 329.008 66.4694 329.101 66.4843 329.203L67.4144 335.144C68.8944 344.612 72.8164 349.172 81.0425 355.814C84.8349 358.873 88.9416 361.676 93.2479 364.143L98.5225 367.162C98.6435 367.232 98.7264 367.35 98.7518 367.486L100.752 378.946C100.79 379.162 100.671 379.376 100.468 379.459C100.285 379.533 99.9155 379.73 99.4504 379.98C95.8661 381.895 84.9602 387.726 67.357 387.726L67.3528 387.728ZM51.2169 386.794H67.3528C84.7203 386.794 95.4711 381.048 99.0024 379.158C99.3145 378.991 99.5651 378.857 99.7647 378.758L97.8621 367.865L92.7786 364.956C88.4278 362.467 84.2786 359.636 80.4501 356.545C72.0286 349.748 68.0132 345.066 66.4843 335.292L65.5797 329.51L61.7363 325.885L59.063 328.705C56.0944 331.836 51.6352 333.19 47.4245 332.228L41.9885 330.993C38.659 330.237 36.2999 327.213 36.3763 323.808L36.4888 318.838C36.508 318.009 36.0896 317.27 35.3698 316.857C34.65 316.444 33.7985 316.456 33.0892 316.889L24.0031 322.444C23.9139 322.499 23.8099 322.52 23.7058 322.51L18.3208 321.912L14.0464 327.272C13.9933 327.338 13.9232 327.389 13.8447 327.419L1.7263 331.974L3.76054 337.175C5.80964 342.415 9.05848 347.227 13.1546 351.091L24.3301 361.634C26.2773 360.998 29.5431 362.384 32.4459 365.121C35.3486 367.859 36.9178 371.033 36.3912 373.009L51.2105 386.794H51.2169Z" fill="#251F47"/>
<path d="M67.3528 387.728H51.0322C50.9133 387.728 50.8007 387.684 50.7137 387.603L35.5397 373.488C35.3974 373.355 35.3507 373.149 35.425 372.969C35.9665 371.66 34.8814 368.702 31.8088 365.802C28.7341 362.901 25.7146 361.986 24.4342 362.6C24.2601 362.683 24.052 362.651 23.9097 362.518L12.5175 351.769C8.32165 347.811 4.99425 342.881 2.89418 337.512L0.687947 331.87C0.643355 331.754 0.645478 331.624 0.69644 331.51C0.747402 331.395 0.842956 331.306 0.959745 331.262L13.4009 326.586L17.756 321.124C17.8558 320.999 18.013 320.933 18.1743 320.95L23.657 321.558L32.6051 316.088C33.6095 315.473 34.8198 315.456 35.8412 316.043C36.8626 316.63 37.455 317.681 37.4295 318.857L37.317 323.827C37.249 326.791 39.3024 329.421 42.2009 330.082L47.6368 331.317C51.5248 332.201 55.6464 330.955 58.3877 328.061L61.3817 324.899C61.5601 324.713 61.8553 324.705 62.0442 324.88L66.3442 328.936C66.4206 329.008 66.4694 329.101 66.4843 329.203L67.4144 335.144C68.8944 344.612 72.8164 349.172 81.0425 355.814C84.8349 358.873 88.9416 361.676 93.2479 364.143L98.5225 367.162C98.6435 367.232 98.7264 367.35 98.7518 367.486L100.752 378.946C100.79 379.162 100.671 379.376 100.468 379.459C100.285 379.533 99.9155 379.73 99.4504 379.98C95.8661 381.895 84.9602 387.726 67.357 387.726L67.3528 387.728ZM51.2169 386.794H67.3528C84.7203 386.794 95.4711 381.048 99.0024 379.158C99.3145 378.991 99.5651 378.857 99.7647 378.758L97.8621 367.865L92.7786 364.956C88.4278 362.467 84.2786 359.636 80.4501 356.545C72.0286 349.748 68.0132 345.066 66.4843 335.292L65.5797 329.51L61.7363 325.885L59.063 328.705C56.0944 331.836 51.6352 333.19 47.4245 332.228L41.9885 330.993C38.659 330.237 36.2999 327.213 36.3763 323.808L36.4888 318.838C36.508 318.009 36.0896 317.27 35.3698 316.857C34.65 316.444 33.7985 316.456 33.0892 316.889L24.0031 322.444C23.9139 322.499 23.8099 322.52 23.7058 322.51L18.3208 321.912L14.0464 327.272C13.9933 327.338 13.9232 327.389 13.8447 327.419L1.7263 331.974L3.76054 337.175C5.80964 342.415 9.05848 347.227 13.1546 351.091L24.3301 361.634C26.2773 360.998 29.5431 362.384 32.4459 365.121C35.3486 367.859 36.9178 371.033 36.3912 373.009L51.2105 386.794H51.2169Z" fill="#251F47"/>
<path d="M69.0883 343.858H57.0591C56.8001 343.858 56.5898 343.648 56.5898 343.392C56.5898 343.135 56.8001 342.923 57.0591 342.923H69.0883C69.3474 342.923 69.5555 343.133 69.5555 343.392C69.5555 343.65 69.3452 343.858 69.0883 343.858Z" fill="#251F47"/>
<path d="M72.5727 349.298H60.1761C59.9171 349.298 59.709 349.088 59.709 348.832C59.709 348.576 59.9192 348.366 60.1761 348.366H72.5727C72.8317 348.366 73.0398 348.576 73.0398 348.832C73.0398 349.088 72.8296 349.298 72.5727 349.298Z" fill="#251F47"/>
<path d="M78.2045 354.739H65.4066C65.1475 354.739 64.9395 354.529 64.9395 354.273C64.9395 354.017 65.1497 353.807 65.4066 353.807H78.2045C78.4635 353.807 78.6716 354.017 78.6716 354.273C78.6716 354.529 78.4614 354.739 78.2045 354.739Z" fill="#251F47"/>
<path d="M51.0316 387.26H67.3522C87.3188 387.26 98.6302 379.698 100.287 379.029L99.1123 372.461C91.0921 376.49 76.4299 377.991 65.2161 376.938C58.8416 376.34 53.0361 372.992 49.2628 367.833C43.3194 359.708 40.0153 353.43 40.0153 353.43L38.858 352.92C33.1524 350.405 28.982 345.335 27.623 339.262L23.7669 322.041L18.1249 321.416L13.6891 326.98L1.12695 331.703L3.33319 337.345C5.42051 342.684 8.66935 347.494 12.8419 351.432L24.234 362.178C25.9009 361.382 29.2198 362.715 32.1332 365.463C35.0465 368.211 36.5647 371.444 35.8619 373.147L51.0359 387.262L51.0316 387.26Z" fill="#251F47"/>
<path d="M33.0176 317.121C32.8754 317.121 32.7374 317.055 32.6482 316.941C32.0918 316.223 27.1889 309.877 26.7175 307.873C26.4669 306.803 26.6474 305.699 27.2271 304.765C27.8068 303.83 28.7177 303.178 29.7922 302.928C32.0069 302.409 34.2301 303.786 34.7504 305.996C35.2218 308 33.6568 315.858 33.4763 316.748C33.4402 316.926 33.3022 317.068 33.1238 317.11C33.0877 317.119 33.0516 317.123 33.0176 317.123V317.121ZM30.735 303.752C30.495 303.752 30.2508 303.779 30.0066 303.837C29.1764 304.032 28.4735 304.536 28.0255 305.258C27.5774 305.981 27.4373 306.835 27.6305 307.661C27.9469 309.006 31.0153 313.248 32.7586 315.547C33.2958 312.714 34.1558 307.553 33.8394 306.208C33.4954 304.743 32.181 303.752 30.735 303.752Z" fill="#251F47"/>
<path d="M237.884 321.208H208.625V359.36H237.884V321.208Z" fill="#DFE3E8"/>
<path d="M237.886 359.828H208.627C208.368 359.828 208.16 359.619 208.16 359.362V321.21C208.16 320.952 208.37 320.744 208.627 320.744H237.886C238.145 320.744 238.353 320.954 238.353 321.21V359.362C238.353 359.621 238.143 359.828 237.886 359.828ZM209.094 358.894H237.417V321.676H209.094V358.894Z" fill="#251F47"/>
<path d="M237.884 340.285H208.625V359.362H237.884V340.285Z" fill="#251F47"/>
<path d="M237.886 359.828H208.627C208.368 359.828 208.16 359.619 208.16 359.362V340.285C208.16 340.027 208.37 339.819 208.627 339.819H237.886C238.145 339.819 238.353 340.029 238.353 340.285V359.362C238.353 359.621 238.143 359.828 237.886 359.828ZM209.094 358.894H237.417V340.751H209.094V358.894Z" fill="#251F47"/>
<path d="M300.512 367.725L294.248 365.775C283.09 362.305 272.666 356.822 263.49 349.597L239.067 330.367H232.684V335.59C232.684 339.755 230.478 343.609 226.883 345.728L221.245 349.048C218.266 350.802 214.458 350.224 212.14 347.662L208.536 343.681C206.99 341.974 204.162 342.649 203.561 344.872L200.565 355.947L195.677 359.629L196.167 367.337L189.99 380.265L195.912 383.056C201.516 385.698 207.636 387.067 213.832 387.067H230.747C231.463 385.211 235.053 383.799 239.379 383.799C243.704 383.799 247.297 385.211 248.011 387.067H274.394C284.567 387.067 294.488 383.897 302.769 377.998L303.969 377.145L300.512 367.723V367.725Z" fill="white"/>
<path d="M274.397 387.535H248.013C247.82 387.535 247.646 387.416 247.576 387.236C246.924 385.545 243.401 384.268 239.381 384.268C235.362 384.268 231.837 385.543 231.185 387.236C231.115 387.416 230.941 387.535 230.748 387.535H213.832C207.607 387.535 201.34 386.132 195.713 383.479L189.791 380.687C189.679 380.634 189.591 380.539 189.551 380.422C189.509 380.306 189.515 380.176 189.57 380.064L195.694 367.246L195.21 359.659C195.199 359.502 195.27 359.351 195.395 359.256L200.156 355.671L203.109 344.751C203.436 343.539 204.362 342.643 205.585 342.348C206.808 342.056 208.042 342.437 208.883 343.368L212.486 347.349C214.648 349.734 218.23 350.281 221.005 348.645L226.643 345.325C230.079 343.302 232.213 339.571 232.213 335.59V330.367C232.213 330.109 232.423 329.901 232.68 329.901H239.063C239.169 329.901 239.271 329.937 239.354 330.001L263.777 349.23C272.942 356.447 283.241 361.862 294.385 365.33L300.646 367.28C300.784 367.322 300.897 367.428 300.946 367.566L304.405 376.988C304.477 377.185 304.409 377.407 304.237 377.528L303.037 378.382C294.627 384.369 284.721 387.535 274.39 387.535H274.397ZM248.313 386.6H274.397C284.532 386.6 294.251 383.494 302.5 377.619L303.409 376.973L300.154 368.102L294.113 366.222C282.859 362.722 272.458 357.252 263.204 349.963L238.908 330.835H233.156V335.59C233.156 339.899 230.845 343.938 227.125 346.13L221.487 349.45C218.328 351.311 214.253 350.69 211.796 347.974L208.193 343.993C207.583 343.319 206.694 343.043 205.808 343.255C204.925 343.467 204.256 344.116 204.018 344.993L201.022 356.067C200.994 356.167 200.935 356.256 200.852 356.317L196.166 359.847L196.641 367.303C196.645 367.381 196.631 367.462 196.597 367.534L190.621 380.039L196.117 382.63C201.621 385.225 207.749 386.596 213.837 386.596H230.452C231.487 384.657 235.073 383.329 239.384 383.329C243.694 383.329 247.283 384.657 248.315 386.596L248.313 386.6Z" fill="#251F47"/>
<path d="M196.167 367.338L189.99 380.266L195.912 383.056C201.516 385.698 207.636 387.067 213.832 387.067H230.747C231.463 385.211 235.053 383.8 239.379 383.8C243.704 383.8 247.297 385.211 248.011 387.067H274.394C284.567 387.067 294.488 383.898 302.769 377.999L303.969 377.145L302.279 372.537C271.029 380.908 236.623 368.535 236.623 368.535L235.336 368.99C228.993 371.238 221.958 370.348 216.38 366.592L200.563 355.943L195.675 359.625L196.165 367.333L196.167 367.338Z" fill="#251F47"/>
<path d="M203.878 346.035C203.759 346.035 203.64 345.988 203.551 345.904C203.271 345.63 196.678 339.211 195.864 337.113C194.985 334.848 196.117 332.293 198.387 331.416C199.487 330.992 200.687 331.02 201.763 331.494C202.842 331.969 203.67 332.835 204.095 333.933C204.908 336.033 204.367 345.207 204.343 345.596C204.333 345.779 204.216 345.938 204.046 346.005C203.991 346.027 203.933 346.037 203.876 346.037L203.878 346.035ZM199.982 332.049C199.557 332.049 199.132 332.128 198.725 332.284C196.937 332.975 196.045 334.988 196.737 336.772C197.283 338.179 201.269 342.321 203.466 344.505C203.617 341.416 203.77 335.674 203.224 334.268C202.889 333.403 202.237 332.721 201.387 332.346C200.937 332.147 200.462 332.047 199.984 332.047L199.982 332.049Z" fill="#251F47"/>
<path d="M242.077 345.757C241.912 345.757 241.75 345.67 241.665 345.513C241.54 345.287 241.625 345.003 241.85 344.88L251.174 339.78C251.401 339.655 251.686 339.74 251.809 339.964C251.934 340.191 251.849 340.475 251.624 340.598L242.3 345.698C242.228 345.738 242.152 345.755 242.075 345.755L242.077 345.757Z" fill="#251F47"/>
<path d="M247.064 350.118C246.898 350.118 246.737 350.031 246.652 349.874C246.526 349.648 246.611 349.364 246.836 349.241L256.532 343.938C256.759 343.813 257.044 343.895 257.167 344.122C257.292 344.349 257.207 344.633 256.982 344.755L247.287 350.059C247.214 350.099 247.138 350.116 247.062 350.116L247.064 350.118Z" fill="#251F47"/>
<path d="M252.05 354.481C251.884 354.481 251.723 354.394 251.638 354.237C251.513 354.01 251.598 353.727 251.823 353.604L261.799 348.148C262.026 348.023 262.31 348.108 262.434 348.332C262.559 348.559 262.474 348.843 262.249 348.966L252.273 354.422C252.201 354.462 252.124 354.479 252.048 354.479L252.05 354.481Z" fill="#251F47"/>
<path d="M147.994 154.587L38.8652 303.2L78.7081 332.328L187.837 183.715L147.994 154.587Z" fill="#251F47"/>
<path d="M234.717 217.272L185.972 181.631C183.061 179.501 181.341 176.116 181.341 172.514V168.891H144.604V212.64L190.032 245.856C196.245 250.398 199.917 257.623 199.917 265.31V325.137H249.42L249.416 246.197C249.416 234.769 243.956 224.027 234.717 217.272Z" fill="#251F47"/>
<path opacity="0.3" d="M78.6983 332.804C78.5985 332.804 78.503 332.773 78.4223 332.713L38.5827 303.583C38.3746 303.43 38.3278 303.138 38.4807 302.93L140.755 163.666C140.908 163.458 141.201 163.412 141.409 163.564C141.617 163.717 141.664 164.009 141.511 164.217L39.5127 303.104L78.5985 331.681L164.548 214.645C167.863 210.13 173.191 207.435 178.801 207.435H180.268C180.527 207.435 180.735 207.645 180.735 207.901C180.735 208.157 180.525 208.367 180.268 208.367H178.801C173.49 208.367 168.445 210.92 165.304 215.194L79.0763 332.607C79.002 332.707 78.8937 332.775 78.7705 332.794C78.7472 332.798 78.7238 332.8 78.6983 332.8V332.804Z" fill="white"/>
<path d="M160.327 102.066L142.263 110.941C133.466 115.263 136.549 128.478 146.355 128.478H170.186V108.647L160.327 102.068V102.066Z" fill="#795DED"/>
<path d="M164.178 108.562H156.652V125.925H164.178V108.562Z" fill="white"/>
<path d="M163.248 115.742C166.892 115.742 169.845 112.515 169.845 108.534C169.845 104.553 166.892 101.326 163.248 101.326C159.604 101.326 156.65 104.553 156.65 108.534C156.65 112.515 159.604 115.742 163.248 115.742Z" fill="white"/>
<path d="M161.816 112.632C162.29 113.064 162.899 113.356 163.587 113.426C165.12 113.581 166.503 112.589 166.883 111.147L161.819 112.632H161.816Z" fill="#251F47"/>
<path d="M163.247 116.21C162.527 116.21 161.816 116.094 161.134 115.861C160.89 115.778 160.759 115.513 160.841 115.268C160.924 115.024 161.19 114.89 161.436 114.975C162.02 115.172 162.629 115.274 163.247 115.274C166.626 115.274 169.375 112.25 169.375 108.532C169.375 104.814 166.626 101.79 163.247 101.79C160.092 101.79 157.472 104.39 157.151 107.837C157.128 108.094 156.896 108.282 156.641 108.259C156.384 108.235 156.195 108.007 156.219 107.75C156.584 103.82 159.606 100.854 163.247 100.854C167.144 100.854 170.312 104.297 170.312 108.53C170.312 112.763 167.142 116.206 163.247 116.206V116.21Z" fill="#795DED"/>
<path d="M163.502 105.987L169.819 109.091C169.832 108.907 169.845 108.722 169.845 108.534C169.845 104.553 166.891 101.326 163.247 101.326C159.603 101.326 156.416 104.714 156.416 108.695C156.416 108.964 156.433 109.231 156.458 109.494L163.502 105.991V105.987Z" fill="#795DED"/>
<path d="M158.83 102.947C161.518 102.947 163.697 100.773 163.697 98.0908C163.697 95.4089 161.518 93.2347 158.83 93.2347C156.142 93.2347 153.963 95.4089 153.963 98.0908C153.963 100.773 156.142 102.947 158.83 102.947Z" fill="#795DED"/>
<path d="M74.8814 188.944H52.8678C49.7783 188.94 46.969 190.736 45.6779 193.537L42.7221 199.949C41.9726 201.576 41.584 203.345 41.584 205.138V209.271C41.584 211.036 43.0194 212.468 44.7882 212.468H45.2341C47.003 212.468 48.4384 211.036 48.4384 209.271V206.572C48.4384 204.824 48.8185 203.095 49.5511 201.506L51.0842 198.18C51.7573 196.72 53.2203 195.783 54.832 195.783H74.8835V188.946L74.8814 188.944Z" fill="#BEAFFD"/>
<path d="M64.3104 188.929L43.0379 188.982C41.5324 188.999 40.0503 189.342 38.6913 189.984L35.555 191.469C34.2151 192.103 33.6439 193.702 34.2788 195.039L34.4381 195.376C35.073 196.713 36.6761 197.283 38.016 196.65L40.0651 195.679C41.3923 195.052 42.8404 194.717 44.3098 194.7L62.6647 194.679L64.3104 188.929Z" fill="#BEAFFD"/>
<path d="M36.8675 197.376C36.5107 197.376 36.1519 197.315 35.8058 197.192C35.0116 196.91 34.3767 196.336 34.0157 195.578L33.8565 195.241C33.4955 194.48 33.453 193.626 33.7354 192.836C34.0178 192.044 34.5933 191.41 35.3535 191.05L38.4898 189.567C39.921 188.889 41.4498 188.537 43.0318 188.518L54.3666 188.503C54.6257 188.503 54.8338 188.713 54.8338 188.969C54.8338 189.226 54.6257 189.435 54.3666 189.437L43.0381 189.452C41.5963 189.469 40.1991 189.791 38.8911 190.41L35.7548 191.893C35.2197 192.147 34.8163 192.592 34.6167 193.149C34.4171 193.707 34.4468 194.306 34.7016 194.84L34.8608 195.177C35.1157 195.711 35.5616 196.114 36.12 196.313C36.6785 196.512 37.2815 196.482 37.8145 196.228L39.8636 195.258C41.263 194.597 42.7557 194.251 44.3037 194.234H44.979C45.238 194.234 45.4461 194.442 45.4482 194.7C45.4482 194.959 45.2401 195.169 44.9811 195.169H44.3101C42.9022 195.186 41.5411 195.501 40.265 196.105L38.2159 197.075C37.7869 197.279 37.3283 197.381 36.8675 197.381V197.376Z" fill="#251F47"/>
<path d="M68.9072 194.048H56.1667C53.0771 194.044 50.2678 195.841 48.9768 198.642L46.021 205.053C45.2714 206.68 44.8828 208.449 44.8828 210.242V214.375C44.8828 216.14 46.3182 217.572 48.0871 217.572H48.533C50.3018 217.572 51.7372 216.14 51.7372 214.375V211.676C51.7372 209.928 52.1173 208.199 52.8499 206.61L54.383 203.284C55.0561 201.824 56.5192 200.887 58.1308 200.887H68.9115V194.05L68.9072 194.048Z" fill="#BEAFFD"/>
<path d="M72.5088 198.423H59.7682C56.6787 198.419 53.8694 200.216 52.5783 203.017L49.6225 209.428C48.873 211.055 48.4844 212.824 48.4844 214.617V218.75C48.4844 220.515 49.9198 221.948 51.6886 221.948H52.1345C53.9033 221.948 55.3388 220.515 55.3388 218.75V216.051C55.3388 214.303 55.7189 212.574 56.4515 210.985L57.9846 207.659C58.6577 206.199 60.1207 205.263 61.7324 205.263H72.513V198.425L72.5088 198.423Z" fill="#BEAFFD"/>
<path d="M76.0989 209.678L103.55 175.999L90.1198 159.267L68.119 187.078C67.2399 188.188 65.9001 188.836 64.4837 188.836H57.9648V205.303H70.1172L76.101 209.68L76.0989 209.678Z" fill="#BEAFFD"/>
<path d="M67.8477 187.381L81.0299 203.629L103.551 175.999L90.1202 159.267L68.1195 187.078C68.0345 187.184 67.9432 187.283 67.8498 187.381H67.8477Z" fill="#251F47"/>
<path d="M52.1329 222.411H51.687C49.6613 222.411 48.0156 220.767 48.0156 218.746V214.612C48.0156 212.767 48.4233 210.904 49.1963 209.229L52.1521 202.819C53.5153 199.862 56.5051 197.953 59.7645 197.953H61.8179C62.0769 197.953 62.285 198.162 62.285 198.419C62.285 198.675 62.0748 198.885 61.8179 198.885H59.7645C56.8682 198.885 54.2139 200.582 53.0014 203.209L50.0456 209.618C49.3279 211.174 48.9499 212.9 48.9499 214.612V218.746C48.9499 220.252 50.1773 221.477 51.6849 221.477H52.1308C53.6384 221.477 54.8658 220.252 54.8658 218.746V216.047C54.8658 214.244 55.265 212.424 56.0209 210.786L57.554 207.459C58.3015 205.839 59.9386 204.792 61.7266 204.792H69.9676C70.2266 204.792 70.4347 205.002 70.4347 205.26C70.4347 205.519 70.2245 205.726 69.9676 205.726H61.7266C60.3039 205.726 59.0001 206.559 58.4055 207.849L56.8724 211.176C56.1738 212.693 55.8043 214.377 55.8043 216.047V218.746C55.8043 220.767 54.1566 222.411 52.1329 222.411Z" fill="#251F47"/>
<path d="M48.3785 218.038H48.0855C46.0597 218.038 44.4141 216.394 44.4141 214.375V210.242C44.4141 208.371 44.8111 206.557 45.5947 204.858L48.5505 198.447C49.9137 195.489 52.9035 193.58 56.1651 193.58H59.9299C60.189 193.58 60.3971 193.79 60.3971 194.048C60.3971 194.307 60.1868 194.516 59.9299 194.516H56.1651C53.2666 194.516 50.6123 196.213 49.3999 198.841L46.4441 205.252C45.7178 206.828 45.3484 208.508 45.3484 210.246V214.379C45.3484 215.884 46.5757 217.108 48.0833 217.108H48.3764C48.6354 217.108 48.8435 217.318 48.8435 217.577C48.8435 217.835 48.6333 218.043 48.3764 218.043L48.3785 218.038Z" fill="#251F47"/>
<path d="M68.2588 214.81H61.7908C59.901 214.81 58.3615 213.276 58.3615 211.388V211.127C58.3615 209.242 59.8989 207.705 61.7908 207.705H65.6703C66.8743 207.705 67.9976 207.169 68.7535 206.237L71.3929 202.841C71.5522 202.635 71.8452 202.599 72.0491 202.758C72.2529 202.917 72.2912 203.209 72.1319 203.413L69.4861 206.818C68.5454 207.979 67.1567 208.64 65.6682 208.64H61.7887C60.4149 208.64 59.2958 209.754 59.2958 211.127V211.388C59.2958 212.759 60.4127 213.875 61.7887 213.875H68.2566C70.6646 213.875 72.9154 212.803 74.4294 210.934L102.949 175.996L90.1237 160.017L68.4074 187.474C67.4349 188.705 65.974 189.41 64.4026 189.41H52.8703C49.9719 189.41 47.3176 191.107 46.1051 193.735L43.1493 200.146C42.421 201.724 42.0536 203.402 42.0536 205.14V209.273C42.0536 210.778 43.281 212.002 44.7886 212.002C45.0476 212.002 45.2557 212.212 45.2557 212.47C45.2557 212.729 45.0455 212.937 44.7886 212.937C42.7628 212.937 41.1172 211.292 41.1172 209.273V205.14C41.1172 203.269 41.5143 201.457 42.2999 199.756L45.2557 193.345C46.619 190.387 49.6088 188.478 52.8703 188.478H64.4048C65.6873 188.478 66.8807 187.904 67.6748 186.899L89.7563 158.983C89.8455 158.871 89.9793 158.805 90.1215 158.805C90.2638 158.805 90.3976 158.869 90.4868 158.981L103.917 175.713C104.055 175.884 104.053 176.13 103.915 176.299L75.1578 211.53C73.4654 213.619 70.9513 214.816 68.2588 214.816V214.81Z" fill="#251F47"/>
<path d="M261.235 179.217C263.592 179.217 265.503 173.484 265.503 166.411C265.503 159.339 263.592 153.606 261.235 153.606C258.878 153.606 256.967 159.339 256.967 166.411C256.967 173.484 258.878 179.217 261.235 179.217Z" fill="#251F47"/>
<path d="M186.625 133.276V133.281L177.273 126.446L186.625 133.276Z" fill="#BEAFFD"/>
<path d="M186.624 133.749C186.526 133.749 186.429 133.719 186.348 133.658L176.999 126.823C176.791 126.67 176.744 126.378 176.897 126.17C177.05 125.963 177.343 125.916 177.551 126.069L186.9 132.899C187.021 132.988 187.091 133.128 187.091 133.276V133.281C187.091 133.457 186.991 133.618 186.834 133.698C186.769 133.732 186.694 133.749 186.622 133.749H186.624Z" fill="#251F47"/>
<path d="M152.32 147.021L140.8 124.143L107.267 140.616C101.498 143.451 96.4141 147.502 92.3669 152.489L66.6777 184.147L86.6252 200.262L110.805 170.467C113.51 167.134 116.907 164.426 120.763 162.53L152.32 147.019V147.021Z" fill="#BEAFFD"/>
<path d="M86.6253 200.73C86.5192 200.73 86.4151 200.694 86.3302 200.627L66.3827 184.512C66.181 184.348 66.1513 184.054 66.3127 183.855L92.0018 152.197C96.0639 147.192 101.268 143.044 107.059 140.198L140.762 123.24C140.993 123.123 141.274 123.217 141.391 123.448C141.507 123.679 141.414 123.958 141.182 124.075L107.475 141.035C101.804 143.823 96.7052 147.885 92.7302 152.786L67.3362 184.079L86.5553 199.605L110.44 170.172C113.168 166.81 116.665 164.021 120.556 162.11L140.573 152.271C140.807 152.158 141.085 152.252 141.199 152.483C141.314 152.714 141.219 152.995 140.987 153.108L120.97 162.947C117.2 164.799 113.812 167.5 111.168 170.757L86.9884 200.552C86.9099 200.648 86.7973 200.709 86.6742 200.724C86.6572 200.724 86.6423 200.726 86.6253 200.726V200.73Z" fill="#251F47"/>
<path d="M261.426 168.56L289.803 180.84L280.887 182.666L270.401 178.251C266.276 176.513 263.067 173.136 261.557 168.928L261.426 168.56Z" fill="#BEAFFD"/>
<path d="M270.47 156.589L279.123 151.983L297.69 159.534L286.412 180.187L271.548 178.734L261.299 174.471H255.48L256.094 158.343L268.758 157.061C269.351 156.998 269.928 156.837 270.47 156.587V156.589Z" fill="#BEAFFD"/>
<path d="M287.939 154.237L271.73 178.819L281.15 182.736L297.129 158.424L287.939 154.237Z" fill="#BEAFFD"/>
<path d="M325.592 156.036C316.128 156.036 306.564 153.388 298.07 147.843C286.801 140.487 279.076 129.192 276.32 116.041C273.564 102.888 276.106 89.4528 283.478 78.2065C290.851 66.9624 302.171 59.2545 315.351 56.5044C328.531 53.7542 341.998 56.2904 353.269 63.6466C376.533 78.8316 383.079 110.07 367.861 133.283C358.199 148.021 342.049 156.036 325.59 156.036H325.592ZM325.77 56.3582C322.371 56.3582 318.948 56.7099 315.544 57.4197C302.606 60.1189 291.498 67.6828 284.262 78.7193C277.027 89.7557 274.532 102.943 277.235 115.85C279.941 128.759 287.521 139.843 298.582 147.063C309.643 154.282 322.859 156.771 335.795 154.074C348.733 151.375 359.841 143.811 367.077 132.774C374.312 121.738 376.807 108.551 374.104 95.6437C371.398 82.7343 363.818 71.6512 352.757 64.4305C344.607 59.1104 335.285 56.3603 325.77 56.3603V56.3582Z" fill="#BEAFFD"/>
<path d="M325.588 147.205C317.6 147.205 309.775 144.896 302.933 140.429C293.647 134.368 287.283 125.062 285.014 114.225C282.744 103.388 284.837 92.3173 290.912 83.0521C296.985 73.7869 306.314 67.437 317.173 65.1721C328.034 62.9072 339.129 64.9963 348.415 71.0579C367.583 83.5691 372.976 109.307 360.437 128.433C354.365 137.698 345.036 144.048 334.175 146.313C331.317 146.909 328.442 147.203 325.59 147.203L325.588 147.205ZM325.756 65.2166C322.965 65.2166 320.158 65.5048 317.364 66.0874C306.749 68.3015 297.633 74.5094 291.696 83.5648C285.759 92.6203 283.712 103.441 285.931 114.034C288.15 124.626 294.371 133.724 303.447 139.648C312.522 145.572 323.369 147.616 333.984 145.4C344.601 143.186 353.717 136.978 359.654 127.923C371.91 109.229 366.638 84.0691 347.903 71.8398C341.216 67.4752 333.568 65.2166 325.758 65.2166H325.756Z" fill="#BEAFFD"/>
<path d="M362.683 72.2593C377.604 88.6583 380.191 113.628 367.471 133.027C352.369 156.061 321.414 162.519 298.328 147.451C296.063 145.972 293.958 144.339 292.018 142.576C294.814 145.648 298.042 148.421 301.686 150.799C324.771 165.867 355.727 159.409 370.828 136.374C384.448 115.602 380.518 88.4422 362.683 72.2593Z" fill="#BEAFFD"/>
<path d="M288.222 154.326C288.135 154.326 288.046 154.301 287.966 154.25C287.749 154.108 287.69 153.82 287.83 153.604L293.89 144.36C294.032 144.143 294.321 144.084 294.538 144.224C294.754 144.366 294.814 144.654 294.673 144.87L288.613 154.114C288.524 154.252 288.373 154.326 288.22 154.326H288.222Z" fill="#BEAFFD"/>
<path d="M267.864 203.385C267.777 203.385 267.688 203.36 267.607 203.309L259.34 197.915C259.236 197.847 259.164 197.741 259.139 197.62C259.113 197.499 259.139 197.372 259.204 197.268L284.172 159.186C284.314 158.97 284.603 158.911 284.819 159.051C285.036 159.193 285.097 159.481 284.955 159.697L260.245 197.389L267.726 202.273L283.318 178.49C283.46 178.274 283.749 178.215 283.966 178.355C284.182 178.497 284.242 178.785 284.102 179.001L268.254 203.173C268.165 203.311 268.015 203.385 267.862 203.385H267.864Z" fill="#BEAFFD"/>
<path d="M297.099 158.792C297.012 158.792 296.923 158.767 296.843 158.716C296.626 158.574 296.566 158.286 296.707 158.07L302.16 149.754C302.302 149.538 302.591 149.478 302.807 149.618C303.024 149.76 303.083 150.048 302.943 150.265L297.49 158.581C297.401 158.718 297.25 158.792 297.097 158.792H297.099Z" fill="#BEAFFD"/>
<path d="M267.97 203.413C268.505 202.601 266.956 200.643 264.512 199.039C262.067 197.435 259.652 196.792 259.117 197.604C258.582 198.415 260.13 200.373 262.575 201.978C265.02 203.582 267.435 204.224 267.97 203.413Z" fill="#BEAFFD"/>
<path d="M293.307 159.928C292.664 161.449 293.377 163.206 294.904 163.848L298.32 165.286L299.189 168.782L301.051 167.678C303.992 165.932 304.058 161.21 300.535 159.727L297.235 158.337C295.711 157.695 293.95 158.407 293.307 159.93V159.928Z" fill="#BEAFFD"/>
<path d="M301.715 167.655C301.586 167.655 301.458 167.602 301.365 167.498C301.193 167.305 301.21 167.011 301.403 166.839C302.431 165.924 302.926 164.485 302.692 163.085C302.471 161.756 301.618 160.687 300.35 160.153L297.05 158.763C296.428 158.5 295.74 158.496 295.113 158.75C294.487 159.004 293.999 159.485 293.735 160.106C293.472 160.727 293.468 161.413 293.723 162.038C293.977 162.663 294.459 163.151 295.084 163.413L296.337 163.941C296.574 164.041 296.687 164.316 296.585 164.553C296.485 164.791 296.209 164.903 295.971 164.801L294.719 164.274C293.865 163.915 293.202 163.246 292.854 162.39C292.506 161.534 292.512 160.593 292.873 159.744C293.232 158.892 293.903 158.233 294.761 157.886C295.619 157.536 296.562 157.544 297.413 157.903L300.713 159.292C302.282 159.953 303.34 161.28 303.616 162.93C303.9 164.644 303.291 166.407 302.025 167.534C301.936 167.613 301.823 167.653 301.713 167.653L301.715 167.655Z" fill="#251F47"/>
<path d="M290.285 165.148C289.642 166.67 290.356 168.426 291.882 169.068L292.972 169.528L291.447 173.132L293.547 174.017C296.902 175.431 299.767 173.795 299.722 173.806C302.807 172.333 303.686 167.549 300.185 166.076L294.212 163.562C292.687 162.92 290.927 163.631 290.283 165.155L290.285 165.148Z" fill="#BEAFFD"/>
<path d="M297.573 174.963C297.346 174.963 297.149 174.799 297.113 174.569C297.072 174.314 297.246 174.075 297.501 174.035C298.633 173.855 299.368 173.467 299.461 173.416C299.48 173.403 299.501 173.393 299.523 173.382C301.009 172.672 302.02 171.026 301.982 169.38C301.963 168.609 301.682 167.208 300.007 166.503L294.034 163.985C293.412 163.723 292.724 163.718 292.097 163.973C291.471 164.227 290.982 164.708 290.719 165.329C290.178 166.611 290.781 168.096 292.065 168.636L292.832 168.958C293.07 169.058 293.182 169.333 293.08 169.57C292.98 169.808 292.704 169.918 292.467 169.818L291.7 169.496C289.94 168.755 289.112 166.723 289.855 164.964C290.214 164.113 290.885 163.454 291.742 163.106C292.6 162.759 293.543 162.763 294.395 163.123L300.368 165.64C301.948 166.305 302.876 167.659 302.916 169.356C302.963 171.359 301.733 173.359 299.924 174.223L299.92 174.213C299.389 174.564 298.174 174.874 297.648 174.956C297.622 174.96 297.599 174.963 297.573 174.963Z" fill="#251F47"/>
<path d="M286.633 170.028C285.99 171.549 286.703 173.306 288.23 173.948L288.565 174.09L286.654 178.607C286.701 178.615 290.173 180.304 294.008 178.533C294.339 178.319 296.214 177.874 297.106 175.768L297.399 175.077C298.144 173.314 297.316 171.28 295.549 170.537L290.561 168.435C289.037 167.793 287.277 168.505 286.633 170.028Z" fill="#BEAFFD"/>
<path d="M293.4 179.253C293.211 179.253 293.033 179.136 292.96 178.95C292.869 178.709 292.992 178.439 293.234 178.348C293.417 178.281 293.602 178.204 293.786 178.12C293.871 178.071 293.975 178.026 294.116 177.967C294.731 177.704 296.01 177.16 296.674 175.588L296.967 174.895C297.28 174.157 297.284 173.344 296.982 172.602C296.681 171.861 296.107 171.282 295.368 170.971L290.376 168.869C289.754 168.606 289.066 168.602 288.44 168.856C287.813 169.111 287.325 169.592 287.062 170.215C286.798 170.835 286.794 171.522 287.049 172.147C287.304 172.772 287.786 173.259 288.408 173.522L288.743 173.664C288.981 173.763 289.094 174.039 288.994 174.276C288.894 174.513 288.618 174.624 288.38 174.526L288.045 174.384C287.191 174.024 286.531 173.354 286.183 172.501C285.834 171.645 285.841 170.704 286.2 169.854C286.558 169.003 287.229 168.342 288.087 167.994C288.945 167.647 289.888 167.653 290.739 168.013L295.732 170.115C296.702 170.522 297.452 171.282 297.849 172.255C298.244 173.227 298.237 174.295 297.827 175.263L297.534 175.956C296.721 177.878 295.152 178.545 294.481 178.831C294.381 178.874 294.305 178.903 294.258 178.931C294.243 178.939 294.218 178.954 294.203 178.961C293.988 179.06 293.774 179.149 293.561 179.228C293.508 179.247 293.451 179.257 293.398 179.257L293.4 179.253Z" fill="#251F47"/>
<path d="M282.29 174.7C281.647 176.221 282.36 177.978 283.887 178.62L285.794 179.423L283.003 180.505L281.402 182.863L281.727 183.018C285.505 184.609 291.276 183.959 292.767 180.438L293.245 179.31C293.888 177.789 293.175 176.033 291.648 175.391L286.223 173.105C284.698 172.463 282.938 173.174 282.294 174.698L282.29 174.7Z" fill="#BEAFFD"/>
<path d="M272.921 153.468L267.547 159.282L271.484 160.941C274.021 162.009 276.941 161.602 279.088 159.88C279.68 159.543 280.861 157.854 282.755 158.653C283.078 158.75 284.999 159.896 288.325 159.674C288.393 159.651 291.486 159.767 292.754 156.767L292.786 156.689C293.317 155.432 292.331 154.057 290.97 154.153C289.359 154.267 288.193 154.447 286.518 153.742L281.479 151.619C278.521 150.373 275.098 151.112 272.921 153.466V153.468Z" fill="#BEAFFD"/>
<path d="M308.15 83.174L302.592 88.7202L342.838 128.877L348.396 123.331L308.15 83.174Z" fill="#BEAFFD"/>
<path d="M348.396 88.7202L342.838 83.174L302.592 123.331L308.151 128.877L348.396 88.7202Z" fill="#BEAFFD"/>
<path d="M286.007 184.306C284.451 184.306 282.879 184.012 281.541 183.448L261.428 174.977H255.583C255.457 174.977 255.336 174.927 255.247 174.835C255.16 174.746 255.111 174.624 255.113 174.499L255.504 158.33C255.51 158.095 255.691 157.9 255.927 157.877L267.557 156.746C268.769 156.616 269.897 156.051 270.725 155.152L272.574 153.15C274.878 150.659 278.528 149.87 281.658 151.188L286.697 153.309C288.105 153.902 289.097 153.826 290.473 153.72L290.935 153.686C291.734 153.633 292.496 153.985 292.965 154.64C293.435 155.294 293.528 156.129 293.216 156.871L293.182 156.949C292.018 159.697 289.453 160.093 288.404 160.136C288.387 160.138 288.368 160.138 288.351 160.14C285.387 160.335 283.501 159.494 282.794 159.178C282.711 159.14 282.65 159.112 282.612 159.1C282.601 159.095 282.578 159.089 282.567 159.083C281.344 158.568 280.48 159.32 279.849 159.869C279.664 160.03 279.505 160.167 279.35 160.263C277.07 162.079 273.986 162.502 271.298 161.369L270.965 161.229C270.727 161.129 270.614 160.854 270.716 160.617C270.816 160.379 271.092 160.267 271.33 160.369L271.663 160.509C274.048 161.513 276.779 161.131 278.792 159.513C278.811 159.498 278.832 159.483 278.853 159.47C278.938 159.422 279.083 159.297 279.235 159.163C279.911 158.576 281.166 157.485 282.917 158.212C282.977 158.233 283.064 158.271 283.179 158.322C283.826 158.612 285.55 159.383 288.273 159.206C288.302 159.201 288.332 159.201 288.366 159.199C289.447 159.155 291.398 158.756 292.32 156.583L292.352 156.504C292.537 156.066 292.481 155.57 292.203 155.182C291.925 154.794 291.471 154.585 290.999 154.616L290.543 154.65C289.15 154.758 287.948 154.849 286.33 154.169L281.291 152.046C278.522 150.881 275.296 151.578 273.26 153.782L271.411 155.784C270.427 156.847 269.09 157.519 267.648 157.672L256.428 158.765L256.058 174.041H261.52C261.583 174.041 261.645 174.054 261.702 174.077L281.902 182.586C283.712 183.348 285.994 183.569 288.009 183.183C290.171 182.768 291.704 181.728 292.328 180.253L292.806 179.126C293.348 177.844 292.745 176.359 291.46 175.818L286.035 173.532C284.748 172.99 283.261 173.594 282.72 174.876C282.457 175.496 282.452 176.183 282.707 176.808C282.962 177.433 283.444 177.92 284.066 178.183L287.842 179.772C288.079 179.872 288.192 180.147 288.09 180.384C287.99 180.622 287.714 180.734 287.476 180.632L283.701 179.043C281.941 178.302 281.113 176.27 281.856 174.511C282.599 172.753 284.637 171.928 286.398 172.67L291.823 174.956C293.583 175.698 294.412 177.732 293.668 179.488L293.191 180.615C292.441 182.387 290.666 183.624 288.188 184.101C287.483 184.236 286.744 184.302 286.005 184.302L286.007 184.306Z" fill="#251F47"/>
<path d="M294.837 158.839C294.777 158.839 294.716 158.828 294.656 158.803L292.291 157.813C292.053 157.714 291.941 157.44 292.04 157.201C292.14 156.964 292.416 156.849 292.654 156.951L295.019 157.94C295.257 158.04 295.37 158.313 295.27 158.553C295.196 158.731 295.022 158.839 294.839 158.839H294.837Z" fill="#251F47"/>
<path d="M140.801 124.142C142.351 123.534 147.299 120.045 155.321 120.045H159.695C165.435 120.045 171.026 121.871 175.657 125.259L177.277 126.445L186.626 133.28L209.358 149.902C212.649 152.307 216.628 153.605 220.712 153.605H261.203C258.863 153.661 256.971 159.371 256.971 166.411C256.971 173.452 258.872 179.183 261.222 179.217H215.69C209.349 179.217 203.179 177.198 198.072 173.452L183.913 163.08L186.072 172.844H126.918L131.328 157.379L140.805 124.14L140.801 124.142Z" fill="#BEAFFD"/>
<path d="M261.22 179.685H215.687C209.202 179.685 203.015 177.659 197.791 173.829L184.634 164.193L186.526 172.746C186.556 172.884 186.522 173.03 186.435 173.14C186.346 173.25 186.212 173.314 186.07 173.314H126.916C126.769 173.314 126.631 173.244 126.542 173.128C126.453 173.011 126.425 172.858 126.465 172.719L130.876 157.254C130.946 157.006 131.207 156.86 131.453 156.932C131.702 157.002 131.846 157.26 131.776 157.508L127.536 172.377H185.486L183.454 163.182C183.411 162.992 183.492 162.797 183.656 162.691C183.819 162.585 184.031 162.589 184.189 162.705L198.347 173.077C203.408 176.789 209.406 178.751 215.689 178.751H259.406C257.51 176.662 256.504 171.407 256.504 166.413C256.504 161.419 257.51 156.165 259.404 154.076H220.713C216.562 154.076 212.43 152.728 209.084 150.281L175.381 125.636C170.798 122.284 165.375 120.513 159.697 120.513H155.323C148.857 120.513 144.347 122.861 142.181 123.988C141.675 124.251 141.276 124.458 140.975 124.577C140.735 124.672 140.463 124.553 140.367 124.312C140.272 124.073 140.391 123.801 140.633 123.706C140.888 123.606 141.268 123.409 141.748 123.157C143.982 121.994 148.628 119.577 155.323 119.577H159.697C165.577 119.577 171.191 121.411 175.935 124.88L186.904 132.901L209.636 149.523C212.825 151.853 216.76 153.137 220.713 153.137H261.205C261.462 153.137 261.67 153.343 261.672 153.599C261.676 153.856 261.47 154.065 261.216 154.072C259.43 154.114 257.44 159.193 257.44 166.409C257.44 173.625 259.438 178.723 261.23 178.746C261.487 178.751 261.693 178.96 261.691 179.217C261.691 179.473 261.481 179.681 261.224 179.681L261.22 179.685Z" fill="#251F47"/>
<path d="M185.877 172.418C185.663 172.418 185.472 172.272 185.421 172.056L181.97 157.013C181.274 153.972 181.985 150.786 183.877 148.489C185.206 146.875 185.909 144.834 185.856 142.745C185.775 139.489 183.903 136.571 180.968 135.133C178.091 133.719 176.054 131.232 175.383 128.306L175.109 127.113C175.052 126.861 175.209 126.611 175.462 126.554C175.717 126.497 175.965 126.654 176.023 126.906L176.296 128.098C176.904 130.749 178.757 133.008 181.38 134.294C184.627 135.887 186.699 139.116 186.79 142.722C186.848 145.036 186.071 147.294 184.599 149.082C182.89 151.159 182.248 154.047 182.881 156.805L186.332 171.848C186.389 172.1 186.232 172.35 185.979 172.408C185.943 172.416 185.909 172.42 185.875 172.42L185.877 172.418Z" fill="#251F47"/>
<path d="M163.513 150.995C163.364 150.995 163.217 150.925 163.126 150.794C162.98 150.582 163.033 150.29 163.245 150.143C165.691 148.461 167.107 145.694 167.033 142.741C166.914 137.976 163.075 134.24 158.295 134.234C158.036 134.234 157.828 134.024 157.828 133.766C157.828 133.507 158.038 133.3 158.295 133.3C163.587 133.306 167.836 137.442 167.97 142.715C168.052 145.984 166.483 149.05 163.778 150.91C163.697 150.966 163.604 150.993 163.513 150.993V150.995Z" fill="#251F47"/>
<path d="M261.235 179.685C258.158 179.685 256.5 172.846 256.5 166.411C256.5 159.977 258.161 153.137 261.235 153.137C262.618 153.137 263.817 154.553 264.705 157.231C264.786 157.477 264.654 157.741 264.408 157.822C264.159 157.903 263.896 157.769 263.815 157.525C263.097 155.364 262.133 154.072 261.235 154.072C259.439 154.072 257.436 159.14 257.436 166.411C257.436 173.683 259.439 178.751 261.235 178.751C262.038 178.751 262.891 177.732 263.579 175.956C263.673 175.715 263.945 175.596 264.185 175.689C264.427 175.782 264.546 176.054 264.452 176.293C263.592 178.511 262.48 179.685 261.235 179.685Z" fill="#251F47"/>
</svg>
