<svg width="389" height="388" viewBox="0 0 389 388" fill="none" xmlns="http://www.w3.org/2000/svg">
<path d="M343.251 314.531L342.022 303.512L335.144 304.277C334.267 301.821 333.006 299.567 331.441 297.573L335.764 292.172L327.092 285.248L322.769 290.649C320.476 289.564 317.995 288.833 315.405 288.52L314.638 281.651L303.603 282.88L304.369 289.748C301.913 290.626 299.653 291.884 297.657 293.446L292.249 289.128L285.316 297.789L290.724 302.107C289.637 304.397 288.907 306.874 288.59 309.461L281.532 310.548L282.942 321.248L289.82 320.483C290.697 322.936 291.958 325.193 293.523 327.186L289.2 332.587L297.872 339.511L302.195 334.11C304.488 335.195 306.968 335.926 309.559 336.24L310.326 343.109L321.361 341.88L320.594 335.011C323.051 334.134 325.311 332.875 327.307 331.314L332.715 335.632L339.648 326.97L334.24 322.652C335.327 320.362 336.057 317.885 336.374 315.298L343.251 314.533V314.531ZM314.033 326.273C306.348 327.129 299.424 321.601 298.568 313.925C297.712 306.251 303.246 299.336 310.931 298.48C318.615 297.624 325.54 303.152 326.396 310.826C327.251 318.5 321.718 325.415 314.033 326.271V326.273Z" fill="white"/>
<path d="M310.326 343.573C310.219 343.573 310.118 343.537 310.033 343.471C309.935 343.393 309.873 343.281 309.858 343.158L309.132 336.653C306.78 336.331 304.495 335.67 302.331 334.685L298.237 339.797C298.158 339.895 298.046 339.956 297.923 339.971C297.804 339.984 297.676 339.95 297.579 339.872L288.907 332.947C288.705 332.786 288.673 332.492 288.834 332.291L292.928 327.176C291.489 325.284 290.34 323.203 289.508 320.981L282.995 321.705C282.74 321.733 282.511 321.555 282.479 321.303L281.069 310.603C281.035 310.351 281.211 310.12 281.462 310.08L288.172 309.046C288.493 306.692 289.155 304.404 290.145 302.236L285.023 298.149C284.821 297.988 284.789 297.694 284.951 297.493L291.884 288.831C291.96 288.734 292.075 288.672 292.198 288.658C292.319 288.647 292.444 288.679 292.542 288.757L297.662 292.844C299.558 291.406 301.641 290.259 303.864 289.429L303.138 282.924C303.11 282.668 303.295 282.437 303.552 282.407L314.587 281.178C314.711 281.166 314.834 281.2 314.931 281.278C315.029 281.356 315.091 281.469 315.105 281.592L315.832 288.096C318.182 288.418 320.467 289.079 322.633 290.064L326.727 284.952C326.803 284.854 326.918 284.793 327.041 284.778C327.16 284.765 327.288 284.799 327.385 284.878L336.057 291.802C336.259 291.963 336.291 292.257 336.129 292.459L332.036 297.573C333.475 299.465 334.624 301.546 335.456 303.766L341.969 303.042C342.092 303.029 342.215 303.063 342.313 303.141C342.411 303.22 342.472 303.332 342.487 303.455L343.716 314.474C343.744 314.731 343.559 314.962 343.302 314.991L336.79 315.716C336.467 318.066 335.805 320.347 334.819 322.509L339.941 326.598C340.143 326.759 340.175 327.053 340.013 327.254L333.08 335.916C333.004 336.013 332.889 336.075 332.766 336.09C332.647 336.102 332.52 336.068 332.422 335.99L327.302 331.903C325.406 333.342 323.323 334.488 321.1 335.318L321.826 341.823C321.854 342.079 321.669 342.31 321.412 342.34L310.377 343.569C310.36 343.569 310.343 343.571 310.324 343.571L310.326 343.573ZM302.195 333.64C302.263 333.64 302.331 333.655 302.397 333.685C304.682 334.767 307.111 335.469 309.616 335.774C309.831 335.799 310.001 335.971 310.024 336.187L310.74 342.592L320.845 341.467L320.129 335.062C320.106 334.848 320.234 334.642 320.437 334.57C322.813 333.723 325.028 332.503 327.02 330.945C327.192 330.812 327.432 330.814 327.602 330.947L332.643 334.973L338.992 327.043L333.949 323.017C333.779 322.881 333.726 322.648 333.819 322.451C334.902 320.167 335.607 317.741 335.911 315.241C335.936 315.027 336.108 314.858 336.323 314.832L342.735 314.118L341.61 304.027L335.197 304.741C334.979 304.76 334.777 304.637 334.705 304.434C333.857 302.061 332.634 299.851 331.074 297.861C330.94 297.692 330.942 297.45 331.076 297.283L335.106 292.247L327.164 285.907L323.134 290.941C322.998 291.111 322.763 291.164 322.567 291.073C320.28 289.99 317.851 289.287 315.348 288.984C315.133 288.958 314.963 288.787 314.94 288.571L314.224 282.166L304.119 283.291L304.834 289.696C304.858 289.91 304.73 290.115 304.527 290.187C302.153 291.035 299.938 292.253 297.944 293.812C297.772 293.946 297.532 293.946 297.362 293.81L292.321 289.785L285.972 297.715L291.015 301.741C291.185 301.876 291.238 302.109 291.145 302.306C290.062 304.59 289.357 307.016 289.053 309.516C289.028 309.724 288.866 309.889 288.66 309.921L282.054 310.938L283.345 320.731L289.767 320.015C289.985 319.989 290.187 320.119 290.259 320.322C291.109 322.695 292.33 324.907 293.89 326.894C294.024 327.064 294.022 327.305 293.888 327.473L289.858 332.509L297.8 338.848L301.83 333.814C301.921 333.7 302.057 333.638 302.195 333.638V333.64ZM312.453 326.831C309.185 326.831 306.036 325.733 303.446 323.665C300.426 321.254 298.528 317.816 298.101 313.981C297.218 306.063 302.949 298.904 310.878 298.02C314.717 297.592 318.497 298.683 321.516 301.094C324.536 303.503 326.434 306.944 326.861 310.779C327.744 318.697 322.013 325.856 314.084 326.74C313.538 326.801 312.995 326.831 312.453 326.831ZM312.509 298.863C312.003 298.863 311.494 298.891 310.982 298.948C303.565 299.774 298.205 306.47 299.031 313.877C299.43 317.464 301.208 320.682 304.03 322.936C306.852 325.191 310.387 326.214 313.978 325.812C321.395 324.985 326.755 318.288 325.929 310.883C325.527 307.296 323.752 304.078 320.93 301.823C318.507 299.889 315.562 298.863 312.506 298.863H312.509Z" fill="#251F47"/>
<path d="M381.236 285.687L381.246 279.138L377.159 279.132C376.806 277.634 376.218 276.227 375.432 274.952L378.329 272.07L373.699 267.432L370.803 270.314C369.529 269.526 368.123 268.932 366.624 268.574L366.631 264.494L360.073 264.483L360.067 268.564C358.566 268.916 357.158 269.505 355.882 270.288L352.996 267.396L348.352 272.019L351.238 274.912C350.448 276.183 349.853 277.587 349.497 279.085L345.282 279.255L345.399 285.626L349.486 285.632C349.839 287.13 350.427 288.537 351.212 289.813L348.316 292.694L352.945 297.332L355.842 294.45C357.116 295.239 358.521 295.832 360.02 296.19L360.014 300.271L366.571 300.281L366.578 296.201C368.079 295.849 369.487 295.26 370.763 294.476L373.649 297.368L378.292 292.745L375.407 289.853C376.197 288.582 376.791 287.177 377.148 285.679L381.236 285.685V285.687ZM363.307 290.641C358.74 290.633 355.045 286.931 355.052 282.369C355.06 277.81 358.768 274.117 363.335 274.125C367.903 274.134 371.597 277.835 371.591 282.397C371.582 286.959 367.875 290.649 363.307 290.641Z" fill="#B9BEC6"/>
<path d="M103.243 82.1688L101.689 68.2381L92.9932 69.2064C91.8847 66.1025 90.29 63.2528 88.3131 60.7315L93.7788 53.9049L82.8156 45.1524L77.3499 51.979C74.4514 50.6082 71.3151 49.6823 68.0408 49.2861L67.0725 40.6035L53.1217 42.1565L54.0899 50.8391C50.9834 51.9472 48.1274 53.5384 45.6026 55.513L38.7673 50.0552L30.0018 61.0048L36.8371 66.4626C35.4633 69.3568 34.5375 72.4883 34.1404 75.7596L25.2178 77.1347L27.0014 90.6607L35.6969 89.6924C36.8053 92.7964 38.4 95.6461 40.3769 98.1673L34.9112 104.994L45.8744 113.746L51.3401 106.92C54.2386 108.291 57.3728 109.217 60.6492 109.613L61.6175 118.295L75.5684 116.742L74.6001 108.06C77.7066 106.952 80.5627 105.36 83.0874 103.386L89.9227 108.844L98.6882 97.894L91.8529 92.4362C93.2267 89.542 94.1525 86.4105 94.5496 83.1392L103.245 82.1709L103.243 82.1688ZM66.306 97.0148C56.5913 98.0953 47.8365 91.1077 46.7535 81.4061C45.6706 71.7044 52.6673 62.9625 62.384 61.8798C72.0987 60.7993 80.8536 67.7868 81.9365 77.4885C83.0195 87.1902 76.0228 95.9321 66.306 97.0148Z" fill="white"/>
<path d="M61.6197 118.759C61.5135 118.759 61.4116 118.723 61.3266 118.657C61.2289 118.579 61.1674 118.467 61.1546 118.344L60.2267 110.026C57.2008 109.621 54.262 108.771 51.4782 107.496L46.244 114.034C46.1675 114.132 46.0528 114.193 45.9297 114.208C45.8044 114.221 45.6812 114.185 45.5857 114.108L34.6225 105.356C34.4207 105.195 34.3868 104.9 34.5481 104.699L39.7824 98.1587C37.9223 95.7285 36.4444 93.0525 35.3827 90.1944L27.0546 91.1224C26.7998 91.1541 26.5726 90.9719 26.5386 90.7198L24.7549 77.1959C24.721 76.9438 24.8972 76.7129 25.1478 76.6726L33.7221 75.3526C34.1256 72.325 34.9792 69.3842 36.2596 66.6002L29.711 61.3733C29.5093 61.2122 29.4753 60.9177 29.6367 60.7165L38.4022 49.7668C38.4786 49.6694 38.5933 49.6079 38.7164 49.5931C38.8396 49.5804 38.9627 49.6143 39.0604 49.6927L45.6091 54.9217C48.0404 53.0657 50.7201 51.589 53.5846 50.5275L52.6567 42.2093C52.627 41.953 52.8138 41.722 53.0708 41.6924L67.0216 40.1393C67.1469 40.1266 67.268 40.1605 67.3656 40.2389C67.4633 40.3173 67.5249 40.4296 67.5376 40.5525L68.4656 48.8706C71.4914 49.2753 74.4324 50.1249 77.2141 51.4025L82.4483 44.862C82.5247 44.7645 82.6394 44.7031 82.7626 44.6882C82.8857 44.6755 83.011 44.7094 83.1066 44.7878L94.0698 53.5403C94.2715 53.7013 94.3034 53.9958 94.142 54.1971L88.9078 60.7376C90.7679 63.1678 92.2458 65.8438 93.3075 68.7041L101.636 67.7761C101.759 67.7612 101.882 67.7972 101.98 67.8756C102.077 67.954 102.139 68.0663 102.152 68.1892L103.706 82.1199C103.736 82.3762 103.549 82.6072 103.292 82.6368L94.9638 83.5627C94.5582 86.5862 93.7067 89.5206 92.4284 92.3004L98.977 97.5273C99.1787 97.6883 99.2127 97.9828 99.0513 98.1841L90.2859 109.134C90.2094 109.231 90.0947 109.293 89.9716 109.307C89.8463 109.318 89.7231 109.286 89.6276 109.208L83.079 103.981C80.6455 105.839 77.9658 107.314 75.1034 108.373L76.0313 116.691C76.061 116.948 75.8742 117.179 75.6172 117.208L61.6664 118.761C61.6494 118.761 61.6324 118.763 61.6154 118.763L61.6197 118.759ZM51.3423 106.449C51.4102 106.449 51.4782 106.464 51.5419 106.494C54.4446 107.867 57.5278 108.759 60.7066 109.144C60.9232 109.17 61.0909 109.341 61.1164 109.557L62.0337 117.776L75.0524 116.327L74.1351 108.108C74.1117 107.894 74.2391 107.689 74.443 107.617C77.4583 106.54 80.2697 104.994 82.7987 103.015C82.9707 102.881 83.2106 102.883 83.3805 103.017L89.8506 108.182L98.03 97.9638L91.5599 92.7983C91.39 92.6627 91.337 92.4296 91.4283 92.2326C92.8042 89.3342 93.6961 86.2535 94.0825 83.0797C94.108 82.8636 94.28 82.6962 94.4945 82.6707L102.725 81.7555L101.272 68.7528L93.0421 69.6702C92.8276 69.6935 92.6216 69.5664 92.5494 69.363C91.4728 66.3523 89.9228 63.545 87.9416 61.0194C87.8078 60.8478 87.8099 60.6084 87.9437 60.441L93.1164 53.9789L82.8836 45.8112L77.7109 52.2733C77.575 52.4428 77.3415 52.4979 77.144 52.4047C74.2413 51.0317 71.1581 50.1397 67.9793 49.7541C67.7627 49.7287 67.595 49.5571 67.5695 49.341L66.6522 41.1224L53.6335 42.5716L54.5508 50.7902C54.5741 51.0042 54.4467 51.2076 54.2429 51.2817C51.2255 52.3581 48.4162 53.9068 45.8872 55.8836C45.7173 56.0171 45.4753 56.0171 45.3054 55.8815L38.8353 50.716L30.6559 60.9347L37.126 66.1001C37.2959 66.2357 37.3489 66.4688 37.2576 66.6658C35.8817 69.5643 34.9877 72.6449 34.6034 75.8188C34.5779 76.0264 34.4165 76.1917 34.2105 76.2234L25.7402 77.5286L27.4028 90.1456L35.6417 89.2282C35.8562 89.2049 36.0621 89.332 36.1343 89.5354C37.2109 92.5483 38.761 95.3556 40.7422 97.879C40.8759 98.0485 40.8738 98.29 40.74 98.4574L35.5674 104.92L45.8002 113.087L50.9728 106.625C51.0641 106.511 51.2 106.449 51.338 106.449H51.3423ZM64.31 97.593C60.2076 97.593 56.2538 96.2158 53.0007 93.6182C49.2104 90.5927 46.8258 86.2726 46.2885 81.4567C45.178 71.5135 52.3743 62.5237 62.331 61.4156C67.1533 60.8796 71.897 62.2483 75.6873 65.276C79.4776 68.3015 81.8622 72.6216 82.3995 77.4375C83.51 87.3786 76.3116 96.3705 66.357 97.4786C65.6711 97.5548 64.9874 97.593 64.3079 97.593H64.31ZM64.3801 62.2377C63.7346 62.2377 63.0869 62.2737 62.4372 62.3458C52.9943 63.3966 46.1675 71.9245 47.2207 81.355C47.7304 85.923 49.9918 90.0206 53.5868 92.8894C57.1817 95.7603 61.6834 97.0612 66.2551 96.5506C75.6979 95.4997 82.5247 86.9718 81.4715 77.5413C80.9619 72.9733 78.7005 68.8757 75.1055 66.0069C72.0202 63.545 68.2723 62.2377 64.3801 62.2377Z" fill="#251F47"/>
<path d="M388.805 210.524L388.72 202.299L81.9388 211.017L0.469482 262.176V270.261H316.318L388.805 210.524Z" fill="#251F47"/>
<path d="M388.121 0.466431H81.9385V202.932H388.121V0.466431Z" fill="white"/>
<path d="M375.09 22.1134H94.9722V182.383H375.09V22.1134Z" fill="white"/>
<path d="M375.09 182.849H94.9723C94.7132 182.849 94.5051 182.639 94.5051 182.383V22.1133C94.5051 21.8549 94.7153 21.6472 94.9723 21.6472H375.09C375.349 21.6472 375.557 21.857 375.557 22.1133V182.383C375.557 182.641 375.347 182.849 375.09 182.849ZM95.4416 181.914H374.623V22.5795H95.4416V181.914Z" fill="#251F47"/>
<path d="M66.2489 214.344L0.469482 262.176H316.318L388.124 202.932H81.9388L76.023 207.236L66.2489 214.344Z" fill="white"/>
<path d="M316.318 262.642H0.469246C0.267521 262.642 0.0870298 262.513 0.0233271 262.32C-0.0403755 262.127 0.0296974 261.918 0.193201 261.797L65.9726 213.964C66.1828 213.814 66.4737 213.858 66.6266 214.066C66.7795 214.274 66.7328 214.566 66.5247 214.719L1.9068 261.708H316.15L386.824 203.398H82.0915L76.2988 207.61C76.0886 207.761 75.7976 207.716 75.6448 207.509C75.4919 207.301 75.5386 207.009 75.7467 206.856L81.6625 202.553C81.7432 202.496 81.8388 202.464 81.9386 202.464H388.123C388.321 202.464 388.497 202.587 388.563 202.773C388.631 202.96 388.574 203.165 388.421 203.292L316.615 262.536C316.532 262.606 316.426 262.644 316.318 262.644V262.642Z" fill="#251F47"/>
<path d="M228.497 250.822H106.562L146.418 220.683H268.354L228.497 250.822Z" fill="#B9BEC6"/>
<path d="M339.871 0.466431L324.472 11.7783L310.412 22.1114L294.867 33.525L285.802 40.1821L265.413 55.1594L256.348 61.8228L247.909 68.0201H247.905L244.563 70.4778L238.116 75.2153L236.12 76.6772L234.969 77.5289L227.055 83.3343L206.713 98.2798L199.132 103.85L197.648 104.937L195.527 106.498L195.512 106.507L186.186 113.361H186.182L177.257 119.914L168.192 126.578L147.843 141.523L138.78 148.18L118.585 163.011L109.522 169.67L94.9742 180.359L89.1772 184.62L81.9385 189.936V133.637L86.5697 130.235L94.9742 124.063V124.058L106.918 115.289V115.285L109.539 113.361L115.981 108.628L136.177 93.7944L145.24 87.1374L158.322 77.5289L165.584 72.1919L171.264 68.0201L174.649 65.5348V65.5306L195.04 50.5575V50.5532L204.103 43.8962L224.452 28.9507L233.517 22.2936L233.761 22.1114H233.765L253.74 7.43706L262.803 0.780003V0.775766L263.226 0.466431H339.871Z" fill="#DFE3E8"/>
<path d="M86.5697 130.232L106.916 115.287L105.545 128.101L85.198 143.046L86.5697 130.232Z" fill="#B9BEC6"/>
<path d="M115.981 108.63L136.175 93.7944L134.803 106.606L114.607 121.442L115.981 108.63Z" fill="#B9BEC6"/>
<path d="M145.24 87.135L165.584 72.1895L164.213 85.0035L143.868 99.9491L145.24 87.135Z" fill="#B9BEC6"/>
<path d="M174.649 65.5324L195.041 50.553L193.669 63.3671L173.278 78.3444L174.649 65.5324Z" fill="#B9BEC6"/>
<path d="M204.105 43.8962L224.452 28.9507L223.078 41.7627L202.734 56.7082L204.105 43.8962Z" fill="#B9BEC6"/>
<path d="M233.515 22.2914L253.74 7.43481L252.369 20.2489L232.143 35.1055L233.515 22.2914Z" fill="#B9BEC6"/>
<path d="M262.803 0.775766L263.226 0.466431H279.3L261.431 13.5899L262.803 0.780003V0.775766Z" fill="#B9BEC6"/>
<path d="M90.5489 171.804L110.893 156.858L109.522 169.672L89.175 184.616L90.5489 171.804Z" fill="#B9BEC6"/>
<path d="M119.958 150.199L140.152 135.366L138.78 148.178L118.587 163.013L119.958 150.199Z" fill="#B9BEC6"/>
<path d="M149.217 128.707L169.564 113.761L168.192 126.575L147.845 141.521L149.217 128.707Z" fill="#B9BEC6"/>
<path d="M178.629 107.104L199.02 92.1246L197.646 104.939L177.257 119.916L178.629 107.104Z" fill="#B9BEC6"/>
<path d="M208.083 85.4679L228.429 70.5223L227.058 83.3343L206.711 98.2798L208.083 85.4679Z" fill="#B9BEC6"/>
<path d="M237.494 63.8628L257.72 49.0062L256.346 61.8203L236.122 76.6769L237.494 63.8628Z" fill="#B9BEC6"/>
<path d="M266.782 42.3472L287.174 27.3699L285.802 40.1818L265.411 55.1613L266.782 42.3472Z" fill="#B9BEC6"/>
<path d="M296.238 20.7106L316.585 5.76501L315.213 18.5791L294.867 33.5246L296.238 20.7106Z" fill="#B9BEC6"/>
<path d="M339.87 0.466431L324.471 11.7783L325.684 0.466431H339.87Z" fill="#B9BEC6"/>
<path d="M388.327 68.0201H81.9385V113.359H388.327V68.0201Z" fill="#DFE3E8"/>
<path d="M98.7623 68.0201L94.9742 72.1517L90.0436 77.529H81.9385V68.0201H98.7623Z" fill="#B9BEC6"/>
<path d="M110.019 68.0201H135.096L126.378 77.5269H101.3L110.019 68.0201Z" fill="#B9BEC6"/>
<path d="M146.353 68.0201H171.617L162.898 77.5269H137.634L146.353 68.0201Z" fill="#B9BEC6"/>
<path d="M182.871 68.0201H208.193L199.474 77.5269H174.155L182.871 68.0201Z" fill="#B9BEC6"/>
<path d="M219.449 68.0201H244.714L235.995 77.5269H210.73L219.449 68.0201Z" fill="#B9BEC6"/>
<path d="M255.97 68.0201H281.084L272.367 77.5269H247.251L255.97 68.0201Z" fill="#B9BEC6"/>
<path d="M292.34 68.0201H317.662L308.943 77.5269H283.621L292.34 68.0201Z" fill="#B9BEC6"/>
<path d="M328.916 68.0201H354.182L345.464 77.5269H320.199L328.916 68.0201Z" fill="#B9BEC6"/>
<path d="M388.327 68.0201V77.5269H356.72L365.437 68.0201H388.327Z" fill="#B9BEC6"/>
<path d="M113.599 103.85L104.88 113.357H81.9385V111.03L88.5211 103.85H113.599Z" fill="#B9BEC6"/>
<path d="M124.855 103.85H150.119L141.401 113.359H116.136L124.855 103.85Z" fill="#B9BEC6"/>
<path d="M161.376 103.85H186.696L177.979 113.359H152.657L161.376 103.85Z" fill="#B9BEC6"/>
<path d="M197.952 103.85H223.216L214.497 113.359H189.233L197.952 103.85Z" fill="#B9BEC6"/>
<path d="M234.472 103.85H259.588L250.869 113.359H225.753L234.472 103.85Z" fill="#B9BEC6"/>
<path d="M270.842 103.85H296.164L287.445 113.359H262.126L270.842 103.85Z" fill="#B9BEC6"/>
<path d="M307.42 103.85H332.685L323.966 113.359H298.702L307.42 103.85Z" fill="#B9BEC6"/>
<path d="M344.186 103.85H369.505L360.789 113.359H335.467L344.186 103.85Z" fill="#B9BEC6"/>
<path d="M388.327 103.852V113.359H372.045L380.762 103.852H388.327Z" fill="#B9BEC6"/>
<path d="M388.121 203.401H81.9383C81.6793 203.401 81.4712 203.191 81.4712 202.934V0.466243C81.4712 0.207758 81.6814 0.00012207 81.9383 0.00012207H388.121C388.38 0.00012207 388.588 0.209877 388.588 0.466243V202.932C388.588 203.191 388.378 203.398 388.121 203.398V203.401ZM82.4076 202.466H387.654V0.934483H82.4076V202.466Z" fill="#251F47"/>
<path d="M48.584 300.551L24.9697 330.558L47.3087 348.06L70.923 318.054L48.584 300.551Z" fill="#DFE3E8"/>
<path d="M47.3059 348.536C47.2039 348.536 47.102 348.504 47.0171 348.436L24.6787 330.933C24.581 330.857 24.5173 330.745 24.5024 330.622C24.4876 330.499 24.5215 330.374 24.598 330.279L48.2126 300.271C48.3718 300.068 48.667 300.032 48.8708 300.193L71.2092 317.695C71.3069 317.772 71.3706 317.884 71.3855 318.007C71.4003 318.13 71.3664 318.255 71.2899 318.35L47.6753 348.358C47.5819 348.476 47.446 348.536 47.3059 348.536ZM25.6236 330.486L47.2273 347.413L70.2643 318.14L48.6606 301.214L25.6236 330.486Z" fill="#251F47"/>
<path d="M36.8023 315.525L24.9709 330.559L47.3099 348.062L59.1413 333.028L36.8023 315.525Z" fill="#251F47"/>
<path d="M47.3064 348.535C47.2023 348.535 47.1004 348.501 47.0176 348.436L24.6792 330.933C24.4753 330.774 24.4414 330.479 24.6006 330.278L36.4323 315.244C36.5088 315.146 36.6213 315.083 36.7445 315.068C36.8698 315.053 36.9929 315.087 37.0906 315.165L59.429 332.668C59.6328 332.827 59.6668 333.122 59.5076 333.323L47.6759 348.357C47.5994 348.455 47.4869 348.518 47.3637 348.533C47.3446 348.535 47.3255 348.537 47.3085 348.537L47.3064 348.535ZM25.6241 330.486L47.2278 347.412L58.4819 333.113L36.8783 316.187L25.6241 330.486Z" fill="#251F47"/>
<path d="M66.8483 335.217L65.9182 329.276L61.6183 325.221L58.6243 328.38C55.7555 331.405 51.5002 332.696 47.4296 331.77L41.9936 330.534C38.8658 329.823 36.6724 327.015 36.7467 323.816L36.8592 318.845C36.9081 316.712 34.5723 315.373 32.7483 316.487L23.6621 322.043L18.0202 321.418L13.5844 326.981L1.02222 331.704L3.22845 337.346C5.31578 342.685 8.56461 347.495 12.7371 351.431L24.1293 362.18C25.7941 361.383 29.1151 362.716 32.0284 365.464C34.9418 368.212 36.46 371.445 35.7572 373.148L50.9311 387.263H67.2518C87.2183 387.263 98.5298 379.702 100.186 379.032L98.1858 367.572L92.9112 364.553C88.6198 362.095 84.5024 359.296 80.6442 356.182C72.7811 349.834 68.4069 345.192 66.8483 335.221V335.217Z" fill="white"/>
<path d="M67.2537 387.728H50.933C50.8141 387.728 50.7016 387.684 50.6145 387.603L35.4406 373.488C35.2983 373.355 35.2516 373.149 35.3259 372.969C35.8674 371.66 34.7823 368.702 31.7097 365.801C28.635 362.901 25.6155 361.986 24.3351 362.6C24.1609 362.683 23.9528 362.651 23.8106 362.517L12.4184 351.769C8.22253 347.811 4.89513 342.881 2.79506 337.512L0.588825 331.87C0.544234 331.753 0.546357 331.624 0.597319 331.51C0.648281 331.395 0.743835 331.306 0.860624 331.262L13.3018 326.586L17.6569 321.124C17.7567 320.999 17.9138 320.933 18.0752 320.95L23.5579 321.558L32.506 316.088C33.5104 315.473 34.7207 315.456 35.7421 316.043C36.7635 316.63 37.3559 317.681 37.3304 318.857L37.2179 323.827C37.1499 326.791 39.2033 329.421 42.1017 330.082L47.5377 331.317C51.4257 332.2 55.5472 330.955 58.2886 328.06L61.2826 324.899C61.461 324.713 61.7561 324.704 61.9451 324.88L66.245 328.936C66.3215 329.008 66.3703 329.101 66.3852 329.202L67.3153 335.143C68.7953 344.612 72.7172 349.172 80.9434 355.814C84.7358 358.873 88.8425 361.676 93.1488 364.143L98.4234 367.162C98.5444 367.232 98.6272 367.35 98.6527 367.486L100.653 378.946C100.691 379.162 100.572 379.376 100.368 379.459C100.186 379.533 99.8164 379.73 99.3513 379.98C95.767 381.895 84.8611 387.726 67.2579 387.726L67.2537 387.728ZM51.1178 386.794H67.2537C84.6211 386.794 95.372 381.048 98.9033 379.158C99.2154 378.991 99.466 378.857 99.6656 378.758L97.763 367.865L92.6795 364.956C88.3286 362.467 84.1795 359.636 80.3509 356.545C71.9294 349.748 67.9141 345.065 66.3852 335.292L65.4806 329.51L61.6372 325.885L58.9638 328.705C55.9953 331.836 51.5361 333.19 47.3254 332.228L41.8894 330.993C38.5599 330.236 36.2007 327.213 36.2772 323.808L36.3897 318.838C36.4088 318.009 35.9905 317.27 35.2707 316.857C34.5508 316.443 33.6993 316.456 32.9901 316.888L23.904 322.444C23.8148 322.499 23.7108 322.52 23.6067 322.509L18.2217 321.912L13.9473 327.272C13.8942 327.338 13.8241 327.389 13.7456 327.419L1.62718 331.974L3.66142 337.175C5.71052 342.415 8.95936 347.227 13.0554 351.091L24.231 361.634C26.1782 360.998 29.444 362.384 32.3467 365.121C35.2494 367.859 36.8187 371.033 36.292 373.009L51.1114 386.794H51.1178Z" fill="#251F47"/>
<path d="M67.2537 387.728H50.933C50.8141 387.728 50.7016 387.684 50.6145 387.603L35.4406 373.488C35.2983 373.355 35.2516 373.149 35.3259 372.969C35.8674 371.66 34.7823 368.702 31.7097 365.801C28.635 362.901 25.6155 361.986 24.3351 362.6C24.1609 362.683 23.9528 362.651 23.8106 362.517L12.4184 351.769C8.22253 347.811 4.89513 342.881 2.79506 337.512L0.588825 331.87C0.544234 331.753 0.546357 331.624 0.597319 331.51C0.648281 331.395 0.743835 331.306 0.860624 331.262L13.3018 326.586L17.6569 321.124C17.7567 320.999 17.9138 320.933 18.0752 320.95L23.5579 321.558L32.506 316.088C33.5104 315.473 34.7207 315.456 35.7421 316.043C36.7635 316.63 37.3559 317.681 37.3304 318.857L37.2179 323.827C37.1499 326.791 39.2033 329.421 42.1017 330.082L47.5377 331.317C51.4257 332.2 55.5472 330.955 58.2886 328.06L61.2826 324.899C61.461 324.713 61.7561 324.704 61.9451 324.88L66.245 328.936C66.3215 329.008 66.3703 329.101 66.3852 329.202L67.3153 335.143C68.7953 344.612 72.7172 349.172 80.9434 355.814C84.7358 358.873 88.8425 361.676 93.1488 364.143L98.4234 367.162C98.5444 367.232 98.6272 367.35 98.6527 367.486L100.653 378.946C100.691 379.162 100.572 379.376 100.368 379.459C100.186 379.533 99.8164 379.73 99.3513 379.98C95.767 381.895 84.8611 387.726 67.2579 387.726L67.2537 387.728ZM51.1178 386.794H67.2537C84.6211 386.794 95.372 381.048 98.9033 379.158C99.2154 378.991 99.466 378.857 99.6656 378.758L97.763 367.865L92.6795 364.956C88.3286 362.467 84.1795 359.636 80.3509 356.545C71.9294 349.748 67.9141 345.065 66.3852 335.292L65.4806 329.51L61.6372 325.885L58.9638 328.705C55.9953 331.836 51.5361 333.19 47.3254 332.228L41.8894 330.993C38.5599 330.236 36.2007 327.213 36.2772 323.808L36.3897 318.838C36.4088 318.009 35.9905 317.27 35.2707 316.857C34.5508 316.443 33.6993 316.456 32.9901 316.888L23.904 322.444C23.8148 322.499 23.7108 322.52 23.6067 322.509L18.2217 321.912L13.9473 327.272C13.8942 327.338 13.8241 327.389 13.7456 327.419L1.62718 331.974L3.66142 337.175C5.71052 342.415 8.95936 347.227 13.0554 351.091L24.231 361.634C26.1782 360.998 29.444 362.384 32.3467 365.121C35.2494 367.859 36.8187 371.033 36.292 373.009L51.1114 386.794H51.1178Z" fill="#251F47"/>
<path d="M68.9885 343.857H56.9593C56.7002 343.857 56.49 343.648 56.49 343.391C56.49 343.135 56.7002 342.923 56.9593 342.923H68.9885C69.2475 342.923 69.4556 343.133 69.4556 343.391C69.4556 343.65 69.2454 343.857 68.9885 343.857Z" fill="#251F47"/>
<path d="M72.4731 349.298H60.0765C59.8175 349.298 59.6094 349.088 59.6094 348.832C59.6094 348.575 59.8196 348.366 60.0765 348.366H72.4731C72.7321 348.366 72.9402 348.575 72.9402 348.832C72.9402 349.088 72.73 349.298 72.4731 349.298Z" fill="#251F47"/>
<path d="M78.1041 354.739H65.3063C65.0472 354.739 64.8391 354.529 64.8391 354.273C64.8391 354.016 65.0493 353.807 65.3063 353.807H78.1041C78.3632 353.807 78.5713 354.016 78.5713 354.273C78.5713 354.529 78.3611 354.739 78.1041 354.739Z" fill="#251F47"/>
<path d="M50.933 387.26H67.2536C87.2201 387.26 98.5316 379.698 100.188 379.029L99.0136 372.46C90.9935 376.49 76.3312 377.99 65.1174 376.937C58.7429 376.34 52.9375 372.992 49.1642 367.833C43.2207 359.708 39.9167 353.43 39.9167 353.43L38.7594 352.919C33.0538 350.404 28.8834 345.334 27.5244 339.262L23.6682 322.041L18.0263 321.416L13.5905 326.98L1.02832 331.702L3.23456 337.345C5.32188 342.684 8.57071 347.493 12.7432 351.432L24.1354 362.178C25.8023 361.382 29.1212 362.714 32.0345 365.462C34.9479 368.21 36.4661 371.444 35.7633 373.147L50.9372 387.262L50.933 387.26Z" fill="#251F47"/>
<path d="M32.918 317.121C32.7758 317.121 32.6377 317.055 32.5486 316.941C31.9922 316.223 27.0892 309.877 26.6178 307.873C26.3673 306.803 26.5478 305.699 27.1275 304.765C27.7072 303.83 28.6181 303.178 29.6926 302.928C31.9073 302.408 34.1305 303.786 34.6507 305.996C35.1221 308 33.5572 315.858 33.3767 316.748C33.3406 316.926 33.2026 317.068 33.0242 317.11C32.9881 317.119 32.952 317.123 32.918 317.123V317.121ZM30.6354 303.752C30.3954 303.752 30.1512 303.779 29.907 303.837C29.0768 304.031 28.3739 304.536 27.9259 305.258C27.4778 305.981 27.3377 306.835 27.5309 307.661C27.8473 309.006 30.9157 313.248 32.659 315.547C33.1962 312.714 34.0562 307.553 33.7398 306.207C33.3958 304.743 32.0814 303.752 30.6354 303.752Z" fill="#251F47"/>
<path d="M237.785 321.208H208.527V359.36H237.785V321.208Z" fill="#DFE3E8"/>
<path d="M237.788 359.828H208.529C208.27 359.828 208.062 359.618 208.062 359.362V321.21C208.062 320.952 208.272 320.744 208.529 320.744H237.788C238.047 320.744 238.255 320.954 238.255 321.21V359.362C238.255 359.621 238.044 359.828 237.788 359.828ZM208.996 358.894H237.318V321.676H208.996V358.894Z" fill="#251F47"/>
<path d="M237.785 340.285H208.527V359.362H237.785V340.285Z" fill="#251F47"/>
<path d="M237.788 359.828H208.529C208.27 359.828 208.062 359.618 208.062 359.362V340.285C208.062 340.026 208.272 339.819 208.529 339.819H237.788C238.047 339.819 238.255 340.029 238.255 340.285V359.362C238.255 359.621 238.044 359.828 237.788 359.828ZM208.996 358.894H237.318V340.751H208.996V358.894Z" fill="#251F47"/>
<path d="M300.414 367.725L294.15 365.775C282.991 362.305 272.567 356.822 263.392 349.597L238.968 330.367H232.585V335.59C232.585 339.755 230.379 343.609 226.784 345.728L221.146 349.048C218.167 350.802 214.36 350.224 212.041 347.662L208.438 343.681C206.892 341.974 204.064 342.649 203.463 344.872L200.466 355.947L195.578 359.629L196.069 367.337L189.892 380.265L195.814 383.056C201.418 385.698 207.537 387.067 213.734 387.067H230.649C231.364 385.211 234.955 383.799 239.281 383.799C243.606 383.799 247.199 385.211 247.912 387.067H274.296C284.469 387.067 294.39 383.897 302.671 377.998L303.871 377.145L300.414 367.723V367.725Z" fill="white"/>
<path d="M274.298 387.535H247.914C247.721 387.535 247.547 387.416 247.477 387.236C246.825 385.545 243.302 384.268 239.283 384.268C235.263 384.268 231.738 385.543 231.086 387.236C231.016 387.416 230.842 387.535 230.649 387.535H213.734C207.508 387.535 201.241 386.132 195.614 383.479L189.692 380.687C189.58 380.634 189.493 380.539 189.452 380.422C189.41 380.306 189.416 380.176 189.471 380.064L195.595 367.246L195.111 359.658C195.101 359.502 195.171 359.351 195.296 359.256L200.057 355.671L203.01 344.751C203.337 343.539 204.263 342.643 205.486 342.348C206.709 342.056 207.943 342.437 208.784 343.368L212.387 347.349C214.549 349.734 218.131 350.281 220.907 348.645L226.544 345.325C229.98 343.302 232.114 339.571 232.114 335.59V330.367C232.114 330.109 232.324 329.901 232.581 329.901H238.964C239.07 329.901 239.172 329.937 239.255 330L263.679 349.23C272.843 356.446 283.142 361.862 294.286 365.33L300.548 367.28C300.686 367.322 300.798 367.428 300.847 367.566L304.306 376.988C304.378 377.185 304.31 377.407 304.138 377.528L302.939 378.382C294.528 384.369 284.622 387.535 274.291 387.535H274.298ZM248.214 386.6H274.298C284.433 386.6 294.152 383.494 302.401 377.619L303.31 376.973L300.055 368.102L294.014 366.222C282.76 362.722 272.359 357.252 263.105 349.963L238.809 330.835H233.057V335.59C233.057 339.899 230.746 343.938 227.026 346.13L221.389 349.45C218.229 351.311 214.154 350.69 211.697 347.974L208.094 343.993C207.484 343.319 206.595 343.043 205.709 343.255C204.826 343.467 204.157 344.115 203.919 344.993L200.923 356.067C200.895 356.167 200.836 356.256 200.753 356.317L196.067 359.847L196.542 367.303C196.547 367.381 196.532 367.462 196.498 367.534L190.522 380.039L196.018 382.63C201.522 385.225 207.65 386.596 213.738 386.596H230.354C231.388 384.657 234.974 383.329 239.285 383.329C243.595 383.329 247.184 384.657 248.216 386.596L248.214 386.6Z" fill="#251F47"/>
<path d="M196.069 367.337L189.892 380.266L195.814 383.056C201.418 385.698 207.537 387.067 213.734 387.067H230.649C231.364 385.211 234.955 383.8 239.281 383.8C243.606 383.8 247.199 385.211 247.912 387.067H274.296C284.469 387.067 294.39 383.897 302.671 377.999L303.871 377.145L302.181 372.537C270.93 380.908 236.524 368.535 236.524 368.535L235.238 368.99C228.895 371.238 221.86 370.348 216.282 366.592L200.464 355.943L195.576 359.625L196.067 367.333L196.069 367.337Z" fill="#251F47"/>
<path d="M203.779 346.035C203.66 346.035 203.541 345.988 203.452 345.904C203.171 345.63 196.578 339.211 195.765 337.113C194.886 334.848 196.018 332.293 198.287 331.416C199.387 330.992 200.587 331.02 201.664 331.494C202.742 331.969 203.571 332.835 203.995 333.933C204.809 336.033 204.267 345.207 204.244 345.596C204.233 345.779 204.116 345.938 203.946 346.005C203.891 346.027 203.834 346.037 203.777 346.037L203.779 346.035ZM199.882 332.049C199.457 332.049 199.033 332.128 198.625 332.284C196.837 332.975 195.945 334.988 196.638 336.772C197.183 338.179 201.169 342.321 203.367 344.505C203.517 341.416 203.67 335.674 203.125 334.268C202.789 333.403 202.137 332.721 201.288 332.346C200.838 332.147 200.362 332.047 199.884 332.047L199.882 332.049Z" fill="#251F47"/>
<path d="M241.979 345.757C241.814 345.757 241.652 345.67 241.567 345.513C241.442 345.287 241.527 345.003 241.752 344.88L251.076 339.78C251.303 339.655 251.588 339.74 251.711 339.964C251.836 340.191 251.751 340.475 251.526 340.598L242.202 345.698C242.13 345.738 242.054 345.755 241.977 345.755L241.979 345.757Z" fill="#251F47"/>
<path d="M246.965 350.118C246.799 350.118 246.638 350.031 246.553 349.874C246.428 349.648 246.513 349.364 246.738 349.241L256.433 343.938C256.661 343.813 256.945 343.895 257.068 344.122C257.194 344.349 257.109 344.633 256.884 344.756L247.188 350.059C247.116 350.099 247.039 350.116 246.963 350.116L246.965 350.118Z" fill="#251F47"/>
<path d="M251.951 354.481C251.786 354.481 251.624 354.394 251.539 354.237C251.414 354.011 251.499 353.727 251.724 353.604L261.7 348.148C261.927 348.023 262.212 348.108 262.335 348.332C262.46 348.559 262.375 348.843 262.15 348.966L252.174 354.422C252.102 354.462 252.025 354.479 251.949 354.479L251.951 354.481Z" fill="#251F47"/>
<path d="M147.895 154.587L38.7659 303.199L78.6087 332.328L187.737 183.715L147.895 154.587Z" fill="#251F47"/>
<path d="M234.617 217.272L185.872 181.631C182.96 179.501 181.241 176.115 181.241 172.514V168.891H144.503V212.64L189.932 245.856C196.145 250.398 199.816 257.623 199.816 265.31V325.137H249.32L249.315 246.197C249.315 234.768 243.856 224.026 234.617 217.272Z" fill="#251F47"/>
<path d="M78.5987 332.804C78.4989 332.804 78.4034 332.773 78.3227 332.713L38.483 303.583C38.2749 303.43 38.2282 303.138 38.3811 302.93L140.656 163.666C140.809 163.458 141.102 163.412 141.31 163.564C141.518 163.717 141.565 164.009 141.412 164.217L39.4131 303.104L78.4989 331.681L164.449 214.645C167.763 210.13 173.091 207.435 178.701 207.435H180.168C180.427 207.435 180.636 207.644 180.636 207.901C180.636 208.157 180.425 208.367 180.168 208.367H178.701C173.39 208.367 168.345 210.92 165.205 215.194L78.9767 332.607C78.9024 332.707 78.7941 332.775 78.6709 332.794C78.6476 332.798 78.6242 332.8 78.5987 332.8V332.804Z" fill="white"/>
<path d="M160.227 102.066L142.163 110.941C133.366 115.263 136.449 128.478 146.255 128.478H170.086V108.647L160.227 102.068V102.066Z" fill="#251F47"/>
<path d="M164.077 108.562H156.552V125.925H164.077V108.562Z" fill="white"/>
<path d="M163.147 115.742C166.791 115.742 169.745 112.515 169.745 108.534C169.745 104.553 166.791 101.326 163.147 101.326C159.503 101.326 156.55 104.553 156.55 108.534C156.55 112.515 159.503 115.742 163.147 115.742Z" fill="white"/>
<path d="M161.716 112.632C162.19 113.064 162.799 113.356 163.487 113.426C165.02 113.581 166.402 112.589 166.783 111.147L161.718 112.632H161.716Z" fill="#251F47"/>
<path d="M163.147 116.21C162.427 116.21 161.716 116.094 161.034 115.861C160.79 115.778 160.659 115.513 160.741 115.267C160.824 115.024 161.09 114.89 161.336 114.975C161.92 115.172 162.529 115.274 163.147 115.274C166.526 115.274 169.275 112.25 169.275 108.532C169.275 104.814 166.526 101.79 163.147 101.79C159.992 101.79 157.371 104.39 157.051 107.837C157.027 108.093 156.796 108.282 156.541 108.259C156.284 108.235 156.095 108.007 156.119 107.75C156.484 103.82 159.506 100.854 163.147 100.854C167.044 100.854 170.212 104.297 170.212 108.53C170.212 112.763 167.042 116.206 163.147 116.206V116.21Z" fill="#251F47"/>
<path d="M163.402 105.987L169.719 109.091C169.732 108.907 169.745 108.722 169.745 108.534C169.745 104.553 166.791 101.326 163.147 101.326C159.503 101.326 156.316 104.714 156.316 108.695C156.316 108.964 156.333 109.231 156.359 109.494L163.402 105.991V105.987Z" fill="#251F47"/>
<path d="M158.73 102.947C161.418 102.947 163.597 100.773 163.597 98.0908C163.597 95.4088 161.418 93.2346 158.73 93.2346C156.042 93.2346 153.863 95.4088 153.863 98.0908C153.863 100.773 156.042 102.947 158.73 102.947Z" fill="#251F47"/>
<path d="M74.7808 188.944H52.7673C49.6777 188.94 46.8684 190.736 45.5774 193.537L42.6216 199.949C41.872 201.576 41.4834 203.345 41.4834 205.137V209.271C41.4834 211.036 42.9188 212.468 44.6876 212.468H45.1336C46.9024 212.468 48.3378 211.036 48.3378 209.271V206.572C48.3378 204.824 48.7179 203.095 49.4505 201.506L50.9836 198.18C51.6567 196.72 53.1198 195.783 54.7314 195.783H74.7829V188.946L74.7808 188.944Z" fill="white"/>
<path d="M64.2103 188.929L42.9378 188.982C41.4323 188.999 39.9502 189.342 38.5912 189.984L35.4549 191.469C34.115 192.103 33.5438 193.702 34.1787 195.039L34.338 195.376C34.9729 196.713 36.576 197.283 37.9159 196.649L39.965 195.679C41.2922 195.052 42.7403 194.717 44.2098 194.7L62.5646 194.679L64.2103 188.929Z" fill="white"/>
<path d="M36.7674 197.376C36.4106 197.376 36.0518 197.315 35.7057 197.192C34.9115 196.91 34.2766 196.336 33.9156 195.578L33.7564 195.241C33.3954 194.48 33.3529 193.626 33.6353 192.836C33.9177 192.043 34.4932 191.41 35.2534 191.05L38.3897 189.567C39.8209 188.889 41.3497 188.537 42.9317 188.518L54.2665 188.503C54.5256 188.503 54.7337 188.713 54.7337 188.969C54.7337 189.226 54.5256 189.435 54.2665 189.437L42.938 189.452C41.4962 189.469 40.099 189.791 38.791 190.41L35.6547 191.893C35.1196 192.147 34.7162 192.592 34.5166 193.149C34.317 193.707 34.3467 194.306 34.6015 194.84L34.7607 195.177C35.0156 195.711 35.4615 196.114 36.0199 196.313C36.5784 196.512 37.1814 196.482 37.7144 196.228L39.7635 195.258C41.1629 194.597 42.6556 194.251 44.2036 194.234H44.8789C45.1379 194.234 45.346 194.442 45.3481 194.7C45.3481 194.959 45.14 195.169 44.881 195.169H44.21C42.8021 195.186 41.441 195.501 40.1649 196.105L38.1158 197.075C37.6868 197.279 37.2282 197.381 36.7674 197.381V197.376Z" fill="#251F47"/>
<path d="M68.8078 194.048H56.0673C52.9777 194.044 50.1684 195.841 48.8774 198.642L45.9216 205.053C45.172 206.68 44.7834 208.449 44.7834 210.242V214.375C44.7834 216.14 46.2189 217.573 47.9877 217.573H48.4336C50.2024 217.573 51.6379 216.14 51.6379 214.375V211.676C51.6379 209.928 52.0179 208.199 52.7505 206.61L54.2836 203.284C54.9568 201.824 56.4198 200.887 58.0315 200.887H68.8121V194.05L68.8078 194.048Z" fill="white"/>
<path d="M72.4092 198.423H59.6686C56.5791 198.419 53.7698 200.216 52.4787 203.017L49.5229 209.428C48.7734 211.055 48.3848 212.824 48.3848 214.617V218.75C48.3848 220.515 49.8202 221.948 51.589 221.948H52.0349C53.8037 221.948 55.2392 220.515 55.2392 218.75V216.051C55.2392 214.303 55.6193 212.574 56.3518 210.985L57.885 207.659C58.5581 206.199 60.0211 205.263 61.6328 205.263H72.4134V198.425L72.4092 198.423Z" fill="white"/>
<path d="M75.9995 209.678L103.451 175.999L90.0205 159.267L68.0197 187.078C67.1406 188.188 65.8007 188.836 64.3844 188.836H57.8655V205.303H70.0178L76.0016 209.68L75.9995 209.678Z" fill="white"/>
<path d="M67.748 187.381L80.9303 203.629L103.451 175.999L90.0206 159.267L68.0198 187.078C67.9349 187.184 67.8436 187.283 67.7502 187.381H67.748Z" fill="#251F47"/>
<path d="M52.0324 222.411H51.5864C49.5607 222.411 47.915 220.767 47.915 218.746V214.612C47.915 212.767 48.3227 210.904 49.0957 209.229L52.0515 202.819C53.4147 199.862 56.4045 197.953 59.6639 197.953H61.7173C61.9763 197.953 62.1844 198.162 62.1844 198.419C62.1844 198.675 61.9742 198.885 61.7173 198.885H59.6639C56.7676 198.885 54.1133 200.582 52.9008 203.209L49.945 209.618C49.2273 211.174 48.8493 212.9 48.8493 214.612V218.746C48.8493 220.252 50.0767 221.477 51.5843 221.477H52.0302C53.5379 221.477 54.7652 220.252 54.7652 218.746V216.047C54.7652 214.244 55.1644 212.424 55.9203 210.786L57.4535 207.459C58.2009 205.839 59.8381 204.792 61.626 204.792H69.867C70.126 204.792 70.3341 205.002 70.3341 205.26C70.3341 205.519 70.1239 205.726 69.867 205.726H61.626C60.2033 205.726 58.8995 206.559 58.3049 207.849L56.7718 211.176C56.0732 212.693 55.7038 214.377 55.7038 216.047V218.746C55.7038 220.767 54.056 222.411 52.0324 222.411Z" fill="#251F47"/>
<path d="M48.2784 218.038H47.9854C45.9596 218.038 44.314 216.394 44.314 214.375V210.242C44.314 208.371 44.711 206.557 45.4946 204.858L48.4504 198.447C49.8136 195.489 52.8034 193.58 56.065 193.58H59.8298C60.0889 193.58 60.297 193.79 60.297 194.048C60.297 194.307 60.0867 194.516 59.8298 194.516H56.065C53.1665 194.516 50.5122 196.213 49.2998 198.841L46.344 205.252C45.6177 206.828 45.2483 208.508 45.2483 210.246V214.379C45.2483 215.884 46.4756 217.108 47.9832 217.108H48.2763C48.5353 217.108 48.7434 217.318 48.7434 217.577C48.7434 217.835 48.5332 218.043 48.2763 218.043L48.2784 218.038Z" fill="#251F47"/>
<path d="M68.1579 214.809H61.69C59.8001 214.809 58.2607 213.276 58.2607 211.388V211.127C58.2607 209.241 59.798 207.705 61.69 207.705H65.5695C66.7735 207.705 67.8968 207.169 68.6527 206.237L71.2921 202.841C71.4514 202.635 71.7444 202.599 71.9482 202.758C72.1521 202.917 72.1903 203.209 72.0311 203.413L69.3853 206.818C68.4446 207.979 67.0559 208.64 65.5674 208.64H61.6879C60.314 208.64 59.195 209.754 59.195 211.127V211.388C59.195 212.759 60.3119 213.875 61.6879 213.875H68.1558C70.5638 213.875 72.8146 212.803 74.3286 210.934L102.848 175.996L90.0228 160.017L68.3066 187.474C67.3341 188.705 65.8731 189.41 64.3018 189.41H52.7695C49.871 189.41 47.2167 191.107 46.0043 193.734L43.0485 200.146C42.3201 201.724 41.9528 203.402 41.9528 205.14V209.273C41.9528 210.778 43.1801 212.002 44.6878 212.002C44.9468 212.002 45.1549 212.212 45.1549 212.47C45.1549 212.729 44.9447 212.937 44.6878 212.937C42.662 212.937 41.0164 211.292 41.0164 209.273V205.14C41.0164 203.269 41.4134 201.457 42.1991 199.756L45.1549 193.345C46.5181 190.387 49.5079 188.478 52.7695 188.478H64.3039C65.5865 188.478 66.7798 187.904 67.574 186.899L89.6555 158.983C89.7447 158.871 89.8784 158.805 90.0207 158.805C90.163 158.805 90.2967 158.869 90.3859 158.981L103.817 175.713C103.955 175.884 103.952 176.13 103.814 176.299L75.0569 211.53C73.3646 213.619 70.8504 214.816 68.1579 214.816V214.809Z" fill="#251F47"/>
<path d="M261.135 179.217C263.492 179.217 265.403 173.484 265.403 166.411C265.403 159.339 263.492 153.606 261.135 153.606C258.777 153.606 256.866 159.339 256.866 166.411C256.866 173.484 258.777 179.217 261.135 179.217Z" fill="#251F47"/>
<path d="M186.524 133.276V133.281L177.172 126.446L186.524 133.276Z" fill="white"/>
<path d="M186.524 133.749C186.426 133.749 186.328 133.719 186.248 133.658L176.898 126.823C176.69 126.67 176.643 126.378 176.796 126.17C176.949 125.962 177.242 125.916 177.45 126.068L186.8 132.899C186.921 132.988 186.991 133.128 186.991 133.276V133.281C186.991 133.456 186.891 133.617 186.734 133.698C186.668 133.732 186.594 133.749 186.521 133.749H186.524Z" fill="#251F47"/>
<path d="M152.22 147.021L140.7 124.143L107.167 140.616C101.398 143.451 96.3145 147.502 92.2673 152.489L66.5781 184.147L86.5256 200.262L110.705 170.467C113.41 167.134 116.808 164.426 120.664 162.53L152.22 147.019V147.021Z" fill="white"/>
<path d="M86.5257 200.73C86.4196 200.73 86.3155 200.694 86.2306 200.627L66.2831 184.512C66.0814 184.348 66.0517 184.054 66.2131 183.855L91.9022 152.197C95.9643 147.192 101.169 143.044 106.959 140.198L140.662 123.24C140.894 123.123 141.174 123.217 141.291 123.448C141.408 123.679 141.314 123.958 141.083 124.075L107.376 141.035C101.704 143.823 96.6056 147.885 92.6306 152.786L67.2366 184.079L86.4557 199.605L110.34 170.172C113.069 166.81 116.566 164.021 120.456 162.11L140.473 152.271C140.707 152.158 140.985 152.252 141.1 152.483C141.214 152.714 141.119 152.995 140.887 153.108L120.87 162.947C117.101 164.799 113.712 167.5 111.068 170.757L86.8888 200.552C86.8103 200.648 86.6977 200.709 86.5746 200.724C86.5576 200.724 86.5427 200.726 86.5257 200.726V200.73Z" fill="#251F47"/>
<path d="M261.326 168.56L289.703 180.84L280.787 182.666L270.301 178.251C266.176 176.513 262.967 173.136 261.457 168.928L261.326 168.56Z" fill="white"/>
<path d="M270.369 156.589L279.022 151.983L297.589 159.534L286.312 180.187L271.448 178.734L261.198 174.471H255.38L255.994 158.343L268.658 157.061C269.25 156.998 269.828 156.837 270.369 156.587V156.589Z" fill="white"/>
<path d="M287.839 154.237L271.631 178.819L281.05 182.736L297.029 158.424L287.839 154.237Z" fill="white"/>
<path d="M325.491 156.036C316.027 156.036 306.463 153.387 297.97 147.843C286.701 140.487 278.975 129.192 276.219 116.041C273.463 102.888 276.005 89.4526 283.377 78.2064C290.75 66.9623 302.07 59.2544 315.25 56.5042C328.43 53.7541 341.897 56.2902 353.168 63.6465C376.432 78.8314 382.979 110.07 367.76 133.283C358.098 148.021 341.948 156.036 325.489 156.036H325.491ZM325.67 56.358C322.27 56.358 318.847 56.7098 315.443 57.4195C302.505 60.1188 291.398 67.6827 284.161 78.7191C276.926 89.7556 274.431 102.943 277.134 115.85C279.84 128.759 287.42 139.842 298.481 147.063C309.542 154.282 322.758 156.771 335.694 154.074C348.632 151.375 359.74 143.811 366.976 132.774C374.211 121.738 376.706 108.551 374.003 95.6436C371.298 82.7341 363.717 71.6511 352.656 64.4304C344.506 59.1103 335.185 56.3602 325.67 56.3602V56.358Z" fill="#251F47"/>
<path d="M325.487 147.205C317.499 147.205 309.674 144.896 302.833 140.429C293.547 134.368 287.183 125.062 284.913 114.225C282.643 103.388 284.737 92.3172 290.812 83.0519C296.885 73.7867 306.213 67.4369 317.072 65.172C327.933 62.907 339.028 64.9961 348.314 71.0578C367.482 83.5689 372.876 109.307 360.337 128.433C354.264 137.698 344.936 144.048 334.074 146.313C331.216 146.908 328.341 147.203 325.489 147.203L325.487 147.205ZM325.655 65.2165C322.865 65.2165 320.058 65.5046 317.263 66.0873C306.648 68.3013 297.532 74.5092 291.595 83.5647C285.658 92.6201 283.611 103.44 285.83 114.034C288.049 124.626 294.271 133.724 303.346 139.648C312.422 145.571 323.268 147.616 333.883 145.4C344.5 143.186 353.616 136.978 359.553 127.922C371.81 109.229 366.537 84.0689 347.802 71.8396C341.116 67.475 333.467 65.2165 325.657 65.2165H325.655Z" fill="#251F47"/>
<path d="M362.581 72.2592C377.502 88.6581 380.089 113.627 367.369 133.027C352.268 156.061 321.312 162.519 298.227 147.451C295.961 145.972 293.857 144.338 291.916 142.576C294.712 145.648 297.94 148.421 301.584 150.798C324.67 165.867 355.625 159.409 370.727 136.374C384.346 115.602 380.416 88.442 362.581 72.2592Z" fill="#251F47"/>
<path d="M288.123 154.326C288.036 154.326 287.947 154.301 287.866 154.25C287.65 154.108 287.59 153.82 287.73 153.604L293.791 144.359C293.933 144.143 294.222 144.084 294.438 144.224C294.655 144.366 294.714 144.654 294.574 144.87L288.514 154.114C288.425 154.252 288.274 154.326 288.121 154.326H288.123Z" fill="#251F47"/>
<path d="M267.764 203.385C267.677 203.385 267.588 203.36 267.507 203.309L259.24 197.915C259.136 197.847 259.064 197.741 259.039 197.62C259.013 197.499 259.039 197.372 259.105 197.268L284.072 159.186C284.214 158.97 284.503 158.911 284.719 159.051C284.936 159.193 284.998 159.481 284.855 159.697L260.145 197.389L267.626 202.273L283.218 178.49C283.36 178.274 283.649 178.215 283.866 178.354C284.082 178.496 284.142 178.785 284.002 179.001L268.155 203.173C268.065 203.311 267.915 203.385 267.762 203.385H267.764Z" fill="#251F47"/>
<path d="M296.999 158.792C296.912 158.792 296.823 158.767 296.742 158.716C296.525 158.574 296.466 158.286 296.606 158.07L302.059 149.754C302.201 149.538 302.49 149.478 302.707 149.618C302.923 149.76 302.983 150.048 302.843 150.264L297.39 158.58C297.3 158.718 297.15 158.792 296.997 158.792H296.999Z" fill="#251F47"/>
<path d="M267.87 203.413C268.405 202.601 266.856 200.643 264.412 199.039C261.967 197.435 259.552 196.792 259.017 197.604C258.482 198.415 260.03 200.373 262.475 201.978C264.92 203.582 267.335 204.224 267.87 203.413Z" fill="#251F47"/>
<path d="M293.207 159.928C292.563 161.449 293.277 163.206 294.803 163.848L298.22 165.286L299.088 168.782L300.951 167.678C303.892 165.932 303.957 161.21 300.435 159.727L297.135 158.337C295.61 157.695 293.85 158.407 293.207 159.93V159.928Z" fill="white"/>
<path d="M301.616 167.655C301.486 167.655 301.359 167.602 301.265 167.498C301.093 167.305 301.11 167.011 301.303 166.839C302.331 165.924 302.826 164.485 302.592 163.085C302.372 161.756 301.518 160.686 300.25 160.153L296.95 158.763C296.328 158.5 295.64 158.496 295.014 158.75C294.387 159.004 293.899 159.485 293.636 160.106C293.372 160.727 293.368 161.413 293.623 162.038C293.878 162.663 294.36 163.151 294.984 163.413L296.237 163.941C296.475 164.04 296.587 164.316 296.485 164.553C296.386 164.79 296.11 164.903 295.872 164.801L294.619 164.274C293.765 163.915 293.103 163.246 292.755 162.39C292.406 161.534 292.413 160.593 292.774 159.744C293.133 158.892 293.804 158.233 294.661 157.886C295.519 157.536 296.462 157.544 297.314 157.902L300.613 159.292C302.183 159.953 303.24 161.28 303.516 162.93C303.801 164.644 303.191 166.407 301.926 167.534C301.836 167.613 301.724 167.653 301.613 167.653L301.616 167.655Z" fill="#251F47"/>
<path d="M290.185 165.148C289.542 166.67 290.255 168.426 291.782 169.068L292.871 169.528L291.347 173.132L293.447 174.017C296.802 175.431 299.666 173.795 299.622 173.806C302.707 172.333 303.586 167.549 300.085 166.076L294.112 163.561C292.587 162.919 290.827 163.631 290.183 165.155L290.185 165.148Z" fill="white"/>
<path d="M297.473 174.962C297.246 174.962 297.048 174.799 297.012 174.568C296.972 174.314 297.146 174.075 297.401 174.034C298.532 173.854 299.267 173.467 299.361 173.416C299.38 173.403 299.401 173.393 299.422 173.382C300.909 172.672 301.919 171.026 301.881 169.38C301.862 168.608 301.582 167.208 299.906 166.502L293.933 163.985C293.311 163.723 292.623 163.718 291.997 163.973C291.37 164.227 290.882 164.708 290.618 165.329C290.077 166.61 290.68 168.096 291.965 168.636L292.731 168.958C292.969 169.058 293.082 169.333 292.98 169.57C292.88 169.808 292.604 169.918 292.366 169.818L291.599 169.496C289.839 168.755 289.011 166.723 289.754 164.964C290.113 164.112 290.784 163.454 291.642 163.106C292.5 162.759 293.443 162.763 294.294 163.123L300.267 165.64C301.847 166.305 302.775 167.659 302.815 169.356C302.862 171.359 301.633 173.359 299.823 174.223L299.819 174.212C299.288 174.564 298.074 174.874 297.547 174.956C297.522 174.96 297.498 174.962 297.473 174.962Z" fill="#251F47"/>
<path d="M286.533 170.028C285.889 171.549 286.603 173.306 288.13 173.948L288.465 174.09L286.554 178.607C286.601 178.615 290.073 180.304 293.907 178.533C294.239 178.319 296.114 177.874 297.005 175.768L297.299 175.077C298.044 173.314 297.216 171.28 295.449 170.537L290.461 168.435C288.936 167.793 287.176 168.505 286.533 170.028Z" fill="white"/>
<path d="M293.3 179.253C293.111 179.253 292.933 179.136 292.86 178.95C292.769 178.708 292.892 178.439 293.134 178.348C293.317 178.28 293.502 178.204 293.686 178.119C293.771 178.071 293.875 178.026 294.016 177.967C294.631 177.704 295.91 177.16 296.574 175.587L296.867 174.895C297.179 174.157 297.184 173.344 296.882 172.602C296.581 171.861 296.007 171.282 295.268 170.971L290.276 168.869C289.654 168.606 288.966 168.602 288.34 168.856C287.713 169.111 287.225 169.591 286.962 170.214C286.698 170.835 286.694 171.522 286.949 172.147C287.204 172.772 287.686 173.259 288.308 173.522L288.643 173.664C288.881 173.763 288.994 174.039 288.894 174.276C288.794 174.513 288.518 174.623 288.28 174.526L287.945 174.384C287.091 174.024 286.431 173.354 286.082 172.5C285.734 171.645 285.741 170.704 286.099 169.854C286.458 169.002 287.129 168.341 287.987 167.994C288.845 167.646 289.788 167.653 290.639 168.013L295.631 170.115C296.602 170.522 297.351 171.282 297.748 172.255C298.143 173.227 298.137 174.295 297.727 175.263L297.434 175.956C296.621 177.878 295.052 178.545 294.381 178.831C294.281 178.874 294.205 178.903 294.158 178.931C294.143 178.939 294.117 178.954 294.103 178.961C293.888 179.06 293.674 179.149 293.461 179.227C293.408 179.247 293.351 179.257 293.298 179.257L293.3 179.253Z" fill="#251F47"/>
<path d="M282.188 174.7C281.545 176.221 282.258 177.978 283.785 178.62L285.692 179.423L282.902 180.505L281.301 182.863L281.626 183.018C285.403 184.609 291.175 183.959 292.665 180.437L293.143 179.31C293.787 177.789 293.073 176.033 291.546 175.391L286.121 173.105C284.596 172.463 282.836 173.174 282.193 174.698L282.188 174.7Z" fill="white"/>
<path d="M272.82 153.468L267.446 159.282L271.382 160.941C273.92 162.009 276.84 161.602 278.986 159.879C279.579 159.543 280.759 157.854 282.654 158.653C282.976 158.75 284.898 159.896 288.223 159.674C288.291 159.651 291.385 159.767 292.653 156.767L292.685 156.689C293.215 155.432 292.23 154.057 290.869 154.152C289.257 154.267 288.092 154.447 286.416 153.741L281.377 151.618C278.419 150.373 274.996 151.112 272.82 153.466V153.468Z" fill="white"/>
<path d="M308.05 83.1739L302.491 88.7201L342.737 128.877L348.296 123.331L308.05 83.1739Z" fill="#251F47"/>
<path d="M348.295 88.7202L342.737 83.174L302.491 123.331L308.049 128.877L348.295 88.7202Z" fill="#251F47"/>
<path d="M285.906 184.306C284.35 184.306 282.779 184.012 281.441 183.448L261.328 174.977H255.482C255.357 174.977 255.236 174.926 255.147 174.835C255.059 174.746 255.011 174.623 255.013 174.498L255.403 158.33C255.41 158.095 255.59 157.9 255.826 157.877L267.456 156.746C268.669 156.616 269.796 156.051 270.624 155.152L272.474 153.15C274.778 150.658 278.428 149.87 281.558 151.188L286.597 153.309C288.004 153.902 288.996 153.826 290.372 153.72L290.835 153.686C291.633 153.633 292.396 153.985 292.865 154.64C293.334 155.294 293.428 156.129 293.115 156.871L293.081 156.949C291.918 159.697 289.353 160.093 288.304 160.136C288.287 160.138 288.268 160.138 288.251 160.14C285.286 160.335 283.401 159.494 282.694 159.178C282.611 159.14 282.549 159.112 282.511 159.1C282.5 159.095 282.477 159.089 282.466 159.083C281.243 158.568 280.379 159.32 279.749 159.869C279.564 160.03 279.405 160.167 279.25 160.263C276.969 162.078 273.886 162.502 271.198 161.369L270.864 161.229C270.626 161.129 270.514 160.854 270.616 160.617C270.715 160.379 270.992 160.267 271.229 160.369L271.563 160.508C273.947 161.513 276.678 161.131 278.691 159.513C278.71 159.498 278.731 159.483 278.753 159.47C278.838 159.422 278.982 159.297 279.135 159.163C279.81 158.576 281.065 157.485 282.817 158.212C282.876 158.233 282.963 158.271 283.078 158.322C283.726 158.612 285.45 159.383 288.172 159.205C288.202 159.201 288.232 159.201 288.266 159.199C289.346 159.155 291.298 158.756 292.219 156.582L292.251 156.504C292.436 156.065 292.381 155.57 292.103 155.182C291.824 154.794 291.37 154.584 290.899 154.616L290.442 154.65C289.049 154.758 287.847 154.849 286.229 154.169L281.19 152.046C278.421 150.881 275.196 151.578 273.16 153.781L271.31 155.784C270.327 156.847 268.989 157.519 267.547 157.671L256.327 158.765L255.958 174.041H261.419C261.483 174.041 261.544 174.054 261.602 174.077L281.802 182.586C283.611 183.348 285.894 183.569 287.909 183.183C290.07 182.768 291.604 181.728 292.228 180.253L292.706 179.126C293.247 177.844 292.644 176.359 291.359 175.818L285.934 173.532C284.647 172.99 283.161 173.594 282.619 174.876C282.356 175.496 282.352 176.183 282.607 176.808C282.861 177.433 283.343 177.92 283.966 178.183L287.741 179.772C287.979 179.872 288.091 180.147 287.99 180.384C287.89 180.622 287.614 180.734 287.376 180.632L283.6 179.043C281.84 178.302 281.012 176.27 281.755 174.511C282.498 172.753 284.537 171.928 286.297 172.67L291.722 174.956C293.483 175.698 294.311 177.732 293.568 179.488L293.09 180.615C292.34 182.386 290.565 183.624 288.087 184.101C287.382 184.236 286.643 184.302 285.904 184.302L285.906 184.306Z" fill="#251F47"/>
<path d="M294.736 158.839C294.676 158.839 294.615 158.828 294.555 158.803L292.19 157.813C291.952 157.714 291.839 157.44 291.939 157.201C292.039 156.964 292.315 156.849 292.553 156.951L294.918 157.94C295.156 158.04 295.269 158.313 295.169 158.553C295.095 158.731 294.921 158.839 294.738 158.839H294.736Z" fill="#251F47"/>
<path d="M140.7 124.142C142.25 123.534 147.198 120.045 155.22 120.045H159.595C165.334 120.045 170.925 121.871 175.556 125.259L177.176 126.445L186.526 133.28L209.257 149.902C212.548 152.307 216.528 153.605 220.611 153.605H261.103C258.763 153.66 256.871 159.37 256.871 166.411C256.871 173.452 258.771 179.183 261.122 179.217H215.589C209.249 179.217 203.078 177.197 197.971 173.452L183.812 163.08L185.972 172.843H126.817L131.228 157.379L140.705 124.14L140.7 124.142Z" fill="white"/>
<path d="M261.12 179.685H215.587C209.102 179.685 202.914 177.659 197.691 173.829L184.534 164.193L186.426 172.746C186.456 172.884 186.422 173.03 186.335 173.14C186.246 173.25 186.112 173.314 185.97 173.314H126.815C126.669 173.314 126.531 173.244 126.442 173.127C126.352 173.011 126.325 172.858 126.365 172.719L130.775 157.254C130.845 157.006 131.107 156.86 131.353 156.932C131.601 157.002 131.746 157.26 131.676 157.508L127.435 172.377H185.386L183.353 163.182C183.311 162.991 183.392 162.797 183.555 162.691C183.719 162.585 183.931 162.589 184.088 162.705L198.247 173.077C203.307 176.789 209.306 178.751 215.589 178.751H259.306C257.41 176.662 256.403 171.407 256.403 166.413C256.403 161.419 257.41 156.165 259.304 154.076H220.613C216.462 154.076 212.33 152.728 208.983 150.281L175.28 125.636C170.698 122.284 165.275 120.513 159.597 120.513H155.222C148.757 120.513 144.246 122.861 142.081 123.988C141.575 124.25 141.176 124.458 140.874 124.577C140.634 124.672 140.363 124.553 140.267 124.312C140.172 124.072 140.29 123.801 140.533 123.706C140.787 123.606 141.167 123.409 141.647 123.157C143.881 121.994 148.527 119.577 155.222 119.577H159.597C165.476 119.577 171.091 121.411 175.834 124.88L186.804 132.901L209.535 149.523C212.725 151.853 216.659 153.137 220.613 153.137H261.105C261.362 153.137 261.57 153.343 261.572 153.599C261.576 153.856 261.37 154.065 261.115 154.072C259.329 154.114 257.34 159.193 257.34 166.409C257.34 173.625 259.338 178.723 261.13 178.746C261.387 178.751 261.593 178.96 261.591 179.217C261.591 179.473 261.381 179.681 261.124 179.681L261.12 179.685Z" fill="#251F47"/>
<path d="M185.776 172.418C185.562 172.418 185.371 172.272 185.32 172.056L181.869 157.013C181.173 153.972 181.884 150.786 183.776 148.489C185.105 146.875 185.808 144.834 185.755 142.745C185.674 139.489 183.801 136.571 180.867 135.133C177.99 133.719 175.953 131.232 175.282 128.306L175.008 127.113C174.951 126.861 175.108 126.611 175.361 126.554C175.616 126.497 175.864 126.653 175.921 126.906L176.195 128.098C176.803 130.749 178.656 133.008 181.279 134.294C184.526 135.887 186.598 139.116 186.689 142.722C186.747 145.036 185.969 147.294 184.498 149.082C182.789 151.159 182.147 154.047 182.78 156.805L186.231 171.848C186.288 172.1 186.131 172.35 185.878 172.407C185.842 172.416 185.808 172.42 185.774 172.42L185.776 172.418Z" fill="#251F47"/>
<path d="M163.413 150.995C163.264 150.995 163.118 150.925 163.026 150.794C162.88 150.582 162.933 150.29 163.145 150.143C165.591 148.461 167.008 145.694 166.933 142.741C166.814 137.976 162.975 134.24 158.195 134.234C157.936 134.234 157.728 134.024 157.728 133.766C157.728 133.507 157.938 133.3 158.195 133.3C163.487 133.306 167.736 137.442 167.87 142.715C167.953 145.984 166.383 149.05 163.678 150.91C163.597 150.966 163.504 150.993 163.413 150.993V150.995Z" fill="#251F47"/>
<path d="M261.135 179.685C258.058 179.685 256.399 172.846 256.399 166.411C256.399 159.977 258.06 153.137 261.135 153.137C262.517 153.137 263.717 154.553 264.604 157.231C264.685 157.477 264.553 157.741 264.307 157.822C264.059 157.902 263.795 157.769 263.715 157.525C262.997 155.364 262.033 154.072 261.135 154.072C259.338 154.072 257.336 159.14 257.336 166.411C257.336 173.683 259.338 178.751 261.135 178.751C261.937 178.751 262.791 177.732 263.479 175.956C263.572 175.715 263.844 175.596 264.084 175.689C264.326 175.782 264.445 176.054 264.352 176.293C263.492 178.511 262.379 179.685 261.135 179.685Z" fill="#251F47"/>
</svg>
