<svg width="403" height="303" viewBox="0 0 403 303" fill="none" xmlns="http://www.w3.org/2000/svg">
<mask id="mask0_678_7611" style="mask-type:luminance" maskUnits="userSpaceOnUse" x="258" y="229" width="74" height="74">
<path d="M258.335 229.026H331.55V302.242H258.335V229.026Z" fill="white"/>
</mask>
<g mask="url(#mask0_678_7611)">
<path d="M241.396 266.744L242.833 268.172L246.359 271.698L249.885 275.224L253.411 278.75L256.937 282.276L260.463 285.802L263.988 289.328L267.514 292.854L271.04 296.38L277.931 303.271L278.1 303.44L281.626 306.965L285.152 310.491L288.678 314.017L292.204 317.543L293.801 319.141C293.579 319.133 293.356 319.133 293.133 319.126L291.366 317.359L287.84 313.833L284.314 310.307L280.789 306.781L277.263 303.255L273.737 299.729L270.211 296.203L266.685 292.677L263.159 289.151L259.633 285.625L256.107 282.1L252.581 278.574L249.055 275.048L245.529 271.522L242.003 267.996L241.427 267.42C241.404 267.189 241.396 266.966 241.396 266.744Z" fill="#9C84F4"/>
<path d="M241.604 270.478L242.833 271.707L246.359 275.233L249.885 278.759L253.411 282.284L260.301 289.175L260.47 289.344L263.996 292.87L267.522 296.396L271.048 299.922L274.574 303.448L278.1 306.974L281.626 310.5L285.152 314.026L288.678 317.552L290.068 318.942C289.83 318.919 289.592 318.904 289.354 318.873L284.483 314.003L284.314 313.834L280.789 310.308L277.263 306.782L273.737 303.256L270.211 299.73L266.685 296.204L263.159 292.678L259.633 289.152L256.107 285.626L252.581 282.1L249.055 278.574L245.529 275.048L242.003 271.522L241.681 271.2C241.642 270.954 241.619 270.716 241.604 270.478Z" fill="#9C84F4"/>
<path d="M270.119 313.103C269.642 312.85 269.166 312.596 268.69 312.327L266.7 310.338L263.174 306.812L259.648 303.286L256.122 299.76L252.596 296.234L249.07 292.708L248.272 291.909C248.003 291.441 247.749 290.964 247.496 290.48L249.908 292.893L253.434 296.419L260.324 303.309L260.493 303.478L264.019 307.004L267.545 310.53L270.119 313.103Z" fill="#9C84F4"/>
<path d="M276.464 315.923C276.11 315.792 275.765 315.661 275.411 315.523L273.752 313.864L270.226 310.338L266.7 306.812L263.174 303.286L259.648 299.76L256.122 296.234L252.596 292.708L249.07 289.182L245.544 285.656L245.076 285.188C244.938 284.842 244.807 284.489 244.676 284.135L246.382 285.841L249.908 289.367L253.434 292.893L256.96 296.418L260.486 299.944L264.011 303.47L267.537 306.996L271.063 310.522L276.464 315.923Z" fill="#9C84F4"/>
<path d="M277.286 313.864L273.76 310.338L270.234 306.812L266.708 303.286L263.182 299.76L259.656 296.234L256.13 292.708L252.604 289.183L249.078 285.657L245.552 282.131L243.332 279.911C243.248 279.611 243.171 279.319 243.094 279.02L246.397 282.323L249.923 285.849L253.449 289.375L256.975 292.901L260.501 296.426L264.027 299.952L267.553 303.478L271.079 307.004L274.605 310.53L278.131 314.056L281.595 317.521C281.296 317.444 281.004 317.359 280.704 317.283L277.286 313.864Z" fill="#9C84F4"/>
<path d="M280.812 313.864L277.286 310.338L273.76 306.812L266.869 299.922L266.7 299.753L263.174 296.227L259.648 292.701L252.589 285.641L249.063 282.115L245.537 278.589L242.272 275.325C242.226 275.063 242.18 274.802 242.134 274.541L244.607 277.015L246.374 278.781L249.9 282.307L253.426 285.833L256.952 289.359L260.478 292.885L264.004 296.411L267.53 299.937L271.056 303.463L274.582 306.989L278.108 310.515L281.634 314.041L285.159 317.567L286.035 318.442C285.774 318.396 285.513 318.358 285.252 318.304L284.322 317.375L280.812 313.864Z" fill="#9C84F4"/>
<path d="M328.515 223.925C331.511 226.337 334.238 229.064 336.651 232.06L333.754 229.164L330.229 225.638L328.515 223.925Z" fill="#9C84F4"/>
<path d="M242.103 256.857L242.833 257.587L246.359 261.113L249.885 264.639L253.411 268.165L256.937 271.691L260.462 275.217L263.988 278.743L267.514 282.269L271.04 285.795L274.566 289.321L278.092 292.847L281.618 296.373L285.144 299.898L288.67 303.424L292.196 306.95L295.722 310.476L299.248 314.002L302.774 317.528L303.665 318.419C303.481 318.45 303.296 318.481 303.104 318.511L298.403 313.81L294.877 310.284L291.351 306.758L284.46 299.868L284.291 299.699L280.765 296.173L277.24 292.647L273.714 289.121L270.188 285.595L266.662 282.069L263.136 278.543L259.61 275.017L256.084 271.491L252.558 267.965L249.032 264.439L245.506 260.913L241.995 257.403C242.034 257.234 242.072 257.049 242.103 256.857Z" fill="#9C84F4"/>
<path d="M241.681 259.968L242.833 261.121L246.359 264.646L249.885 268.172L253.411 271.698L258.703 276.991L260.47 278.758L263.996 282.284L267.522 285.81L271.048 289.336L274.574 292.862L278.1 296.388L281.626 299.914L285.152 303.44L288.678 306.965L292.204 310.491L295.73 314.017L299.256 317.543L300.569 318.857C300.369 318.88 300.17 318.895 299.978 318.918L298.418 317.359L294.892 313.833L291.366 310.307L287.84 306.781L284.314 303.255L280.789 299.729L277.263 296.203L273.737 292.677L266.677 285.618L263.151 282.092L259.625 278.566L253.918 272.858L252.573 271.514L249.047 267.988L245.521 264.462L241.995 260.936L241.627 260.567C241.642 260.36 241.657 260.168 241.681 259.968Z" fill="#9C84F4"/>
<path d="M241.435 263.256L242.825 264.647L246.351 268.173L249.877 271.699L253.403 275.225L256.929 278.751L260.455 282.276L263.981 285.802L267.507 289.328L271.033 292.854L274.559 296.38L278.085 299.906L281.61 303.432L285.136 306.958L288.662 310.484L295.722 317.544L297.274 319.095C297.066 319.103 296.859 319.111 296.644 319.118L294.877 317.352L291.351 313.826L287.825 310.3L284.299 306.774L280.773 303.248L277.247 299.722L273.721 296.196L270.195 292.67L266.669 289.144L263.143 285.618L259.618 282.092L256.092 278.566L252.566 275.04L249.04 271.514L245.514 267.988L241.988 264.462L241.412 263.886C241.419 263.671 241.427 263.464 241.435 263.256Z" fill="#9C84F4"/>
<path d="M246.228 243.345L246.359 243.476L249.885 247.002L253.411 250.528L256.937 254.054L260.463 257.58L263.988 261.106L267.514 264.631L271.04 268.157L274.566 271.683L278.092 275.209L281.618 278.735L285.144 282.261L288.67 285.787L292.196 289.313L295.722 292.839L299.248 296.365L302.774 299.891L306.3 303.417L309.826 306.943L313.352 310.469L316.878 313.995L317.162 314.279C317.016 314.348 316.862 314.417 316.716 314.479L316.209 313.972L316.04 313.803L312.514 310.277L308.988 306.751L305.462 303.225L301.936 299.699L298.411 296.173L294.885 292.647L291.359 289.121L287.833 285.595L284.307 282.069L280.781 278.543L277.255 275.017L273.729 271.491L270.203 267.965L266.677 264.439L263.151 260.913L259.625 257.388L256.099 253.862L252.573 250.336L249.047 246.81L246.028 243.791C246.098 243.645 246.167 243.491 246.228 243.345Z" fill="#9C84F4"/>
<path d="M244.991 246.28C245.053 246.126 245.114 245.965 245.176 245.812L246.359 246.995L249.885 250.52L253.411 254.046L256.937 257.572L260.462 261.098L263.988 264.624L267.514 268.15L271.04 271.676L276.333 276.969L278.1 278.736L281.626 282.262L285.152 285.788L288.678 289.314L292.204 292.839L295.73 296.365L299.256 299.891L302.781 303.417L306.307 306.943L309.833 310.469L313.359 313.995L314.704 315.339C314.55 315.401 314.389 315.462 314.235 315.524L312.514 313.803L308.988 310.277L305.462 306.751L298.403 299.692L294.877 296.166L291.351 292.64L284.291 285.58L280.765 282.054L277.24 278.528L273.714 275.002L270.188 271.476L266.662 267.95L263.136 264.425L259.61 260.899L256.084 257.373L252.558 253.847L249.032 250.321L245.506 246.795L244.991 246.28Z" fill="#9C84F4"/>
<path d="M249.992 236.516L253.418 239.942L256.944 243.468L260.47 246.994L263.996 250.52L267.522 254.045L271.048 257.571L274.574 261.097L278.1 264.623L281.626 268.149L285.152 271.675L288.678 275.201L292.204 278.727L295.73 282.253L299.256 285.779L302.781 289.305L306.307 292.831L309.833 296.357L313.359 299.883L316.885 303.409L320.411 306.935L323.937 310.461L323.991 310.514C323.86 310.599 323.73 310.683 323.599 310.768L323.1 310.269L319.574 306.743L316.048 303.217L312.522 299.691L308.996 296.165L305.47 292.639L298.411 285.579L294.885 282.053L291.359 278.527L285.651 272.82L284.307 271.475L280.781 267.95L277.255 264.424L273.729 260.898L270.203 257.372L266.677 253.846L263.151 250.32L259.625 246.794L256.099 243.268L252.573 239.742L249.731 236.9C249.816 236.777 249.9 236.646 249.992 236.516Z" fill="#9C84F4"/>
<path d="M248.402 239.112C248.479 238.974 248.563 238.836 248.64 238.697L249.885 239.942L253.411 243.468L256.937 246.994L260.462 250.52L263.988 254.045L267.514 257.571L271.04 261.097L274.566 264.623L278.092 268.149L281.618 271.675L285.144 275.201L288.67 278.727L292.196 282.253L295.722 285.779L299.248 289.305L302.774 292.831L306.3 296.357L309.826 299.883L313.352 303.409L316.878 306.935L320.404 310.461L321.809 311.866C321.671 311.943 321.533 312.028 321.394 312.104L319.566 310.276L316.04 306.75L312.514 303.224L308.988 299.698L305.462 296.172L301.936 292.646L298.411 289.121L294.885 285.595L291.359 282.069L287.833 278.543L284.307 275.017L280.781 271.491L277.255 267.965L273.729 264.439L270.203 260.913L266.677 257.387L263.151 253.861L259.625 250.335L256.099 246.809L252.573 243.283L249.047 239.757L248.402 239.112Z" fill="#9C84F4"/>
<path d="M254.24 230.832C254.34 230.717 254.44 230.601 254.54 230.479L256.944 232.883L260.47 236.409L263.996 239.935L267.522 243.461L271.048 246.987L274.574 250.513L278.1 254.039L281.626 257.564L285.152 261.09L288.678 264.616L292.204 268.142L295.73 271.668L299.256 275.194L302.781 278.72L306.307 282.246L309.833 285.772L313.359 289.298L316.885 292.824L320.411 296.35L327.471 303.409L330.036 305.975C329.921 306.075 329.806 306.175 329.683 306.275L326.633 303.225L323.107 299.699L319.582 296.173L316.056 292.647L312.53 289.121L309.004 285.595L305.478 282.069L301.952 278.543L298.426 275.018L294.9 271.492L291.374 267.966L287.848 264.44L284.322 260.914L280.796 257.388L277.27 253.862L273.744 250.336L270.218 246.81L266.692 243.284L263.166 239.758L259.641 236.232L256.115 232.706L254.24 230.832Z" fill="#9C84F4"/>
<path d="M255.907 228.972C256.015 228.857 256.115 228.75 256.222 228.634L256.944 229.356L260.47 232.882L263.996 236.408L267.522 239.934L271.048 243.46L274.574 246.986L278.1 250.512L281.626 254.038L285.152 257.564L288.678 261.09L292.204 264.616L295.73 268.142L299.256 271.668L302.781 275.194L306.307 278.72L309.833 282.245L313.359 285.771L316.885 289.297L320.411 292.823L323.937 296.349L327.463 299.875L330.989 303.401L331.865 304.277C331.757 304.384 331.642 304.484 331.527 304.592L330.144 303.209L326.618 299.683L323.092 296.157L319.566 292.631L316.04 289.105L312.514 285.579L308.988 282.053L305.462 278.528L298.664 271.729L298.403 271.468L294.877 267.942L291.351 264.416L287.825 260.89L284.299 257.364L280.773 253.838L277.247 250.312L273.721 246.786L270.195 243.26L266.669 239.734L263.143 236.209L259.618 232.683L256.092 229.157L255.907 228.972Z" fill="#9C84F4"/>
<path d="M252.65 232.775C252.742 232.652 252.842 232.529 252.934 232.414L253.411 232.89L256.937 236.416L260.462 239.942L263.988 243.468L267.514 246.994L271.04 250.52L274.566 254.046L278.092 257.572L281.618 261.098L285.144 264.624L288.67 268.15L292.196 271.676L295.722 275.202L299.248 278.728L302.774 282.254L309.664 289.144L309.833 289.313L313.359 292.839L316.885 296.365L320.411 299.891L323.937 303.417L327.463 306.943L328.101 307.58C327.978 307.68 327.855 307.772 327.732 307.865L326.618 306.751L323.092 303.225L319.566 299.699L316.04 296.173L312.514 292.647L308.988 289.121L305.462 285.595L301.936 282.069L298.411 278.543L294.885 275.017L291.359 271.491L287.833 267.965L284.307 264.439L280.781 260.914L277.255 257.388L273.729 253.862L270.203 250.336L266.677 246.81L263.151 243.284L259.625 239.758L256.099 236.232L252.65 232.775Z" fill="#9C84F4"/>
<path d="M257.659 227.19C257.766 227.083 257.874 226.975 257.989 226.868L260.478 229.357L264.004 232.883L267.53 236.408L271.056 239.934L274.582 243.46L278.108 246.986L281.634 250.512L285.159 254.038L288.685 257.564L292.211 261.09L295.737 264.616L299.263 268.142L302.789 271.668L308.082 276.961L309.849 278.727L313.375 282.253L316.901 285.779L320.427 289.305L323.952 292.831L327.478 296.357L331.004 299.883L333.647 302.526C333.539 302.633 333.432 302.748 333.324 302.856L330.167 299.699L326.641 296.173L323.115 292.647L316.056 285.587L312.53 282.061L309.004 278.535L305.478 275.009L301.952 271.484L298.426 267.958L294.9 264.432L291.374 260.906L287.848 257.38L284.322 253.854L280.796 250.328L277.27 246.802L273.744 243.276L270.218 239.75L266.692 236.224L263.166 232.698L259.641 229.172L257.659 227.19Z" fill="#9C84F4"/>
<path d="M288.716 215.238L292.242 218.764L295.768 222.29L299.294 225.816L302.82 229.342L306.346 232.867L309.872 236.393L313.398 239.919L316.924 243.445L320.45 246.971L323.976 250.497L327.501 254.023L331.027 257.549L334.553 261.075L338.079 264.601L341.605 268.127L345.131 271.653L347.735 274.257C347.705 274.441 347.674 274.633 347.643 274.818L344.294 271.468L340.768 267.943L337.242 264.417L333.716 260.891L330.19 257.365L326.664 253.839L323.138 250.313L319.612 246.787L316.086 243.261L312.56 239.735L309.034 236.209L305.509 232.683L301.983 229.157L298.457 225.631L294.931 222.105L291.405 218.579L287.879 215.053L285.713 212.887C285.897 212.856 286.081 212.826 286.273 212.795L288.716 215.238Z" fill="#9C84F4"/>
<path d="M292.242 215.237L295.768 218.763L299.294 222.289L302.82 225.815L306.346 229.341L309.872 232.867L313.398 236.393L316.924 239.919L320.45 243.445L323.976 246.971L327.501 250.497L331.027 254.023L334.553 257.549L338.079 261.075L341.605 264.601L345.131 268.126L348.15 271.145C348.127 271.338 348.104 271.537 348.081 271.729L347.82 271.468L344.294 267.942L340.768 264.416L337.242 260.89L333.716 257.364L330.19 253.838L326.664 250.312L323.138 246.786L319.612 243.261L316.086 239.735L312.56 236.209L309.034 232.683L305.509 229.157L301.983 225.631L298.457 222.105L294.931 218.579L291.405 215.053L288.793 212.441C288.985 212.418 289.185 212.395 289.377 212.372L292.242 215.237Z" fill="#9C84F4"/>
<path d="M295.776 215.238L299.302 218.764L302.828 222.289L306.354 225.815L309.879 229.341L313.405 232.867L316.931 236.393L320.457 239.919L323.983 243.445L327.509 246.971L331.035 250.497L334.561 254.023L338.087 257.549L341.613 261.075L345.139 264.601L348.388 267.85C348.381 268.058 348.373 268.265 348.358 268.472L347.82 267.935L344.294 264.409L340.768 260.883L337.242 257.357L333.716 253.831L330.19 250.305L326.664 246.779L323.138 243.253L319.612 239.727L316.086 236.201L312.56 232.675L309.034 229.149L305.509 225.623L301.983 222.097L298.457 218.571L294.931 215.046L292.042 212.157C292.25 212.15 292.457 212.142 292.665 212.126L295.776 215.238Z" fill="#9C84F4"/>
<path d="M299.302 215.238L302.828 218.764L306.354 222.289L309.879 225.815L313.405 229.341L316.931 232.867L320.457 236.393L323.983 239.919L327.509 243.445L331.035 246.971L334.561 250.497L338.087 254.023L341.613 257.549L345.139 261.075L348.427 264.363C348.434 264.585 348.434 264.8 348.434 265.023L347.828 264.416L344.302 260.89L340.776 257.365L337.25 253.839L333.724 250.313L330.198 246.787L326.672 243.261L323.146 239.735L319.62 236.209L316.094 232.683L312.568 229.157L309.042 225.631L305.516 222.105L301.99 218.579L298.464 215.053L295.507 212.096C295.73 212.096 295.945 212.096 296.167 212.103L299.302 215.238Z" fill="#9C84F4"/>
<path d="M306.361 215.238L309.887 218.763L313.413 222.289L316.939 225.815L320.465 229.341L323.991 232.867L327.517 236.393L331.043 239.919L334.569 243.445L338.095 246.971L341.621 250.497L345.147 254.023L347.689 256.566C347.735 256.827 347.781 257.088 347.82 257.349L344.309 253.839L340.783 250.313L337.257 246.787L333.731 243.261L330.205 239.735L326.68 236.209L323.154 232.683L319.628 229.157L316.102 225.631L312.576 222.105L309.05 218.579L305.524 215.053L303.196 212.726C303.457 212.764 303.719 212.81 303.98 212.856L306.361 215.238Z" fill="#9C84F4"/>
<path d="M305.524 317.398L301.998 313.872L298.472 310.346L294.946 306.82L291.42 303.294L287.894 299.768L284.368 296.242L280.842 292.716L277.316 289.19L273.79 285.664L270.264 282.138L266.739 278.612L263.213 275.086L259.687 271.56L256.161 268.034L252.635 264.509L249.109 260.983L245.583 257.457L242.625 254.499C242.664 254.322 242.702 254.146 242.741 253.961L242.894 254.115L246.42 257.641L249.946 261.167L253.472 264.693L256.998 268.219L260.524 271.745L264.05 275.271L267.576 278.797L271.102 282.323L277.992 289.213L278.161 289.382L281.687 292.908L285.213 296.434L288.739 299.96L292.265 303.486L295.791 307.012L299.317 310.538L302.843 314.064L306.369 317.59L306.684 317.905C306.507 317.943 306.33 317.981 306.146 318.02L305.524 317.398Z" fill="#9C84F4"/>
<path d="M305.524 313.864L301.998 310.338L298.472 306.812L294.946 303.286L291.42 299.76L287.894 296.234L284.368 292.708L280.842 289.182L277.316 285.656L273.79 282.13L270.264 278.604L266.739 275.078L263.213 271.552L259.687 268.027L256.161 264.501L252.635 260.975L249.109 257.449L245.583 253.923L243.309 251.649C243.355 251.48 243.401 251.303 243.447 251.134L246.42 254.107L249.946 257.633L253.472 261.159L256.998 264.685L260.524 268.211L264.05 271.737L267.576 275.263L271.102 278.789L274.628 282.315L278.154 285.841L281.68 289.367L285.206 292.893L288.731 296.418L295.791 303.478L299.317 307.004L302.843 310.53L309.511 317.198C309.342 317.244 309.173 317.29 308.996 317.336L305.524 313.864Z" fill="#9C84F4"/>
<path d="M309.05 313.864L305.524 310.338L301.998 306.812L298.472 303.286L294.946 299.76L291.42 296.234L287.894 292.708L284.368 289.182L280.842 285.656L277.316 282.13L273.79 278.605L268.083 272.897L266.739 271.553L263.213 268.027L259.687 264.501L256.161 260.975L252.635 257.449L249.109 253.923L245.583 250.397L244.123 248.937C244.177 248.776 244.231 248.607 244.285 248.446L246.42 250.581L249.946 254.107L253.472 257.633L256.998 261.159L260.524 264.685L264.05 268.211L267.576 271.737L271.102 275.263L274.628 278.789L278.154 282.315L281.68 285.841L285.206 289.367L288.731 292.893L292.257 296.419L295.783 299.945L299.309 303.47L302.835 306.996L306.361 310.522L309.887 314.048L312.184 316.345C312.023 316.399 311.854 316.453 311.692 316.506L309.05 313.864Z" fill="#9C84F4"/>
<path d="M312.606 215.076C312.944 215.191 313.282 215.314 313.62 215.444L316.947 218.771L320.473 222.297L323.999 225.823L327.525 229.348L331.05 232.874L334.576 236.4L338.102 239.926L341.628 243.452L345.108 246.932C345.231 247.27 345.354 247.608 345.477 247.946L344.325 246.794L340.799 243.268L337.273 239.742L333.747 236.216L330.221 232.69L326.695 229.164L323.169 225.638L319.643 222.112L316.117 218.586L312.606 215.076Z" fill="#9C84F4"/>
<path d="M316.109 310.338L312.583 306.812L309.058 303.286L305.532 299.76L302.006 296.234L298.48 292.708L294.954 289.182L291.428 285.656L287.902 282.13L284.376 278.604L280.85 275.078L277.324 271.552L273.798 268.027L270.272 264.501L266.746 260.975L263.22 257.449L259.694 253.923L256.168 250.397L252.642 246.871L249.116 243.345L247.234 241.463C247.311 241.317 247.38 241.179 247.457 241.033L249.954 243.529L253.48 247.055L257.006 250.581L260.532 254.107L264.058 257.633L267.584 261.159L271.109 264.685L274.635 268.211L278.161 271.737L281.687 275.263L285.213 278.789L288.739 282.315L295.799 289.374L299.325 292.9L302.851 296.426L309.741 303.317L309.91 303.486L313.436 307.012L316.962 310.538L319.62 313.195C319.474 313.272 319.336 313.341 319.19 313.418L316.109 310.338Z" fill="#9C84F4"/>
<path d="M320.035 218.326L320.48 218.771L324.006 222.297L327.532 225.823L331.058 229.349L334.584 232.875L338.11 236.401L341.636 239.927L342.227 240.518C342.466 240.964 342.688 241.41 342.911 241.855L340.791 239.735L337.265 236.209L333.739 232.683L330.213 229.157L326.687 225.631L323.161 222.105L319.635 218.579L318.698 217.642C319.144 217.865 319.589 218.088 320.035 218.326Z" fill="#9C84F4"/>
<path d="M323.169 306.805L316.278 299.922L316.109 299.753L312.583 296.227L309.058 292.701L305.532 289.175L302.006 285.649L298.48 282.123L294.954 278.597L291.428 275.071L287.902 271.545L284.376 268.019L280.85 264.493L277.324 260.967L273.798 257.441L270.272 253.915L266.746 250.389L263.22 246.864L259.694 243.338L256.168 239.812L252.642 236.286L251.214 234.857C251.306 234.726 251.39 234.603 251.482 234.48L253.48 236.478L257.006 240.004L260.532 243.53L264.058 247.056L267.584 250.581L271.109 254.107L274.635 257.633L278.161 261.159L281.687 264.685L285.213 268.211L288.739 271.737L295.799 278.797L299.325 282.323L302.851 285.849L306.377 289.375L309.903 292.9L313.428 296.426L316.954 299.952L320.48 303.478L324.006 307.004L326.157 309.155C326.034 309.247 325.904 309.34 325.781 309.424L323.169 306.805Z" fill="#9C84F4"/>
<path d="M335.391 300.728C335.291 300.844 335.183 300.959 335.083 301.074L333.754 299.745L330.229 296.219L326.703 292.693L323.177 289.167L319.651 285.641L316.125 282.115L312.599 278.589L309.073 275.063L305.547 271.538L302.021 268.012L298.495 264.486L294.969 260.96L291.443 257.434L287.917 253.908L284.391 250.382L280.865 246.856L277.339 243.33L273.813 239.804L270.288 236.278L266.762 232.752L263.236 229.226L259.71 225.7L259.564 225.554C259.679 225.454 259.794 225.347 259.909 225.247L260.547 225.885L264.073 229.411L267.599 232.937L271.125 236.462L274.651 239.988L278.177 243.514L281.703 247.04L285.229 250.566L288.755 254.092L292.28 257.618L295.806 261.144L299.332 264.67L302.858 268.196L306.384 271.722L309.91 275.248L313.436 278.774L316.962 282.3L320.488 285.826L324.014 289.352L327.54 292.878L331.066 296.403L334.592 299.929L335.391 300.728Z" fill="#9C84F4"/>
<path d="M338.502 296.787C338.41 296.91 338.317 297.041 338.225 297.164L337.28 296.219L333.754 292.693L330.229 289.167L326.703 285.641L323.177 282.115L319.651 278.589L316.125 275.063L312.599 271.537L309.073 268.011L305.547 264.485L302.021 260.96L298.495 257.434L294.969 253.908L291.443 250.382L287.917 246.856L284.391 243.33L280.865 239.804L277.339 236.278L273.813 232.752L270.288 229.226L266.762 225.7L263.474 222.412C263.597 222.32 263.727 222.228 263.85 222.136L264.073 222.359L267.599 225.884L271.125 229.41L274.651 232.936L278.177 236.462L281.703 239.988L285.229 243.514L288.755 247.04L292.28 250.566L295.806 254.092L299.332 257.618L302.858 261.144L306.384 264.67L309.91 268.196L313.436 271.722L316.962 275.248L320.488 278.774L324.014 282.3L327.54 285.825L331.066 289.351L334.592 292.877L338.118 296.403L338.502 296.787Z" fill="#9C84F4"/>
<path d="M337.288 292.693L330.229 285.633L326.703 282.107L323.177 278.582L317.469 272.874L316.125 271.53L312.599 268.004L309.073 264.478L305.547 260.952L302.021 257.426L298.495 253.9L294.969 250.374L291.443 246.848L287.917 243.322L284.391 239.796L280.865 236.27L277.339 232.744L273.813 229.218L270.288 225.692L266.762 222.166L265.556 220.96C265.686 220.876 265.817 220.784 265.947 220.699L267.599 222.351L271.125 225.877L274.651 229.403L278.177 232.929L281.703 236.455L285.229 239.981L288.755 243.506L292.28 247.032L295.806 250.558L299.332 254.084L302.858 257.61L306.384 261.136L309.91 264.662L313.436 268.188L316.962 271.714L320.488 275.24L324.014 278.766L327.54 282.292L331.066 285.818L334.592 289.344L338.118 292.87L339.923 294.675C339.838 294.805 339.754 294.936 339.662 295.067L337.288 292.693Z" fill="#9C84F4"/>
<path d="M336.697 299.161L333.754 296.219L330.229 292.693L326.703 289.167L323.177 285.641L319.651 282.115L316.125 278.589L312.599 275.063L309.073 271.537L305.547 268.011L302.021 264.485L298.495 260.959L294.969 257.433L291.443 253.908L287.917 250.382L284.391 246.856L280.865 243.33L277.339 239.804L273.813 236.278L270.288 232.752L266.762 229.226L263.236 225.7L261.477 223.941C261.599 223.841 261.715 223.749 261.838 223.649L264.073 225.884L267.599 229.41L271.125 232.936L274.651 236.462L278.177 239.988L281.703 243.514L285.229 247.04L288.755 250.566L292.28 254.092L295.806 257.618L299.332 261.144L302.858 264.67L306.384 268.196L309.91 271.722L313.436 275.248L316.962 278.773L320.488 282.299L327.548 289.359L331.074 292.885L334.599 296.411L336.989 298.8C336.896 298.923 336.796 299.038 336.697 299.161Z" fill="#9C84F4"/>
<path d="M341.659 289.352L342.527 290.22C342.45 290.366 342.381 290.504 342.304 290.65L340.822 289.167L337.296 285.641L333.77 282.115L330.244 278.589L326.718 275.063L323.192 271.537L319.666 268.012L316.14 264.486L312.614 260.96L309.088 257.434L305.562 253.908L302.036 250.382L298.51 246.856L294.984 243.33L291.459 239.804L287.933 236.278L284.407 232.752L280.881 229.226L277.355 225.7L273.829 222.174L270.303 218.648L270.003 218.349C270.142 218.272 270.288 218.195 270.426 218.126L271.14 218.84L274.666 222.366L278.192 225.892L281.718 229.418L285.244 232.944L288.77 236.47L292.296 239.996L295.822 243.522L299.348 247.048L302.874 250.574L306.4 254.1L309.926 257.626L313.451 261.152L316.977 264.678L320.503 268.204L324.029 271.73L327.555 275.255L331.081 278.781L334.607 282.307L341.498 289.198L341.659 289.352Z" fill="#9C84F4"/>
<path d="M340.814 285.634L337.288 282.108L333.762 278.582L330.236 275.056L326.71 271.53L323.184 268.004L319.658 264.478L316.132 260.952L312.606 257.426L309.081 253.9L305.555 250.374L302.029 246.848L298.503 243.322L294.977 239.796L291.451 236.271L287.925 232.745L284.399 229.219L280.873 225.693L277.347 222.167L273.821 218.641L272.346 217.166C272.492 217.097 272.638 217.028 272.792 216.958L274.666 218.833L278.192 222.359L281.718 225.885L285.244 229.411L288.77 232.937L292.296 236.463L295.822 239.988L299.348 243.514L302.874 247.04L306.4 250.566L309.926 254.092L313.451 257.618L316.977 261.144L320.503 264.67L324.029 268.196L327.555 271.722L331.081 275.248L334.607 278.774L338.133 282.3L341.659 285.826L343.687 287.846C343.618 287.992 343.549 288.146 343.48 288.292L340.814 285.634Z" fill="#9C84F4"/>
<path d="M341.029 292.908L340.814 292.693L337.288 289.167L333.762 285.641L330.236 282.115L326.71 278.589L323.184 275.063L319.658 271.537L316.132 268.011L312.606 264.485L309.081 260.959L305.555 257.433L302.029 253.907L298.503 250.382L294.977 246.856L291.451 243.33L287.925 239.804L284.399 236.278L280.873 232.752L277.347 229.226L273.821 225.7L270.295 222.174L267.729 219.608C267.868 219.524 267.998 219.447 268.137 219.37L271.133 222.366L274.658 225.892L278.184 229.418L281.71 232.944L285.236 236.47L288.762 239.996L292.288 243.522L295.814 247.048L299.34 250.574L302.866 254.1L306.392 257.625L309.918 261.151L313.444 264.677L316.97 268.203L320.496 271.729L327.555 278.789L331.081 282.315L334.607 285.841L338.133 289.367L341.283 292.516C341.198 292.631 341.114 292.77 341.029 292.908Z" fill="#9C84F4"/>
<path d="M344.348 250.343L340.822 246.817L337.296 243.291L333.77 239.765L330.244 236.239L326.718 232.713L323.192 229.187L319.666 225.662L316.14 222.136L312.614 218.61L309.088 215.084L307.636 213.632C307.928 213.701 308.213 213.77 308.504 213.847L309.933 215.276L313.459 218.802L316.985 222.328L320.511 225.854L324.037 229.38L327.563 232.905L331.089 236.431L334.615 239.957L338.141 243.483L341.667 247.009L345.193 250.535L346.767 252.11C346.844 252.394 346.913 252.686 346.983 252.978L344.348 250.343Z" fill="#9C84F4"/>
<path d="M344.348 275.048L340.822 271.522L337.296 267.996L333.77 264.47L330.244 260.944L326.718 257.418L323.192 253.892L319.666 250.366L316.14 246.84L312.614 243.315L309.088 239.789L305.562 236.263L302.036 232.737L298.51 229.211L294.984 225.685L291.459 222.159L287.933 218.633L284.407 215.107L282.832 213.532C283.009 213.494 283.185 213.455 283.362 213.417L285.244 215.299L288.77 218.825L292.296 222.351L295.822 225.877L299.348 229.403L302.874 232.929L306.4 236.455L309.926 239.981L313.452 243.507L316.977 247.033L320.503 250.558L324.029 254.084L327.555 257.61L331.081 261.136L334.607 264.662L338.133 268.188L341.659 271.714L345.185 275.24L347.221 277.276C347.182 277.452 347.144 277.629 347.105 277.806L344.348 275.048Z" fill="#9C84F4"/>
<path d="M345.515 283.275L344.348 282.108L340.822 278.582L337.296 275.056L333.77 271.53L330.244 268.004L326.718 264.478L323.192 260.952L319.666 257.426L316.14 253.9L312.614 250.374L309.088 246.848L305.562 243.322L302.036 239.797L298.51 236.271L294.984 232.745L291.459 229.219L287.933 225.693L284.407 222.167L280.881 218.641L277.362 215.123C277.524 215.069 277.685 215.007 277.846 214.954L278.192 215.299L281.718 218.825L285.244 222.351L288.77 225.877L292.296 229.403L295.822 232.929L299.348 236.455L302.874 239.981L306.4 243.507L309.926 247.033L313.451 250.559L316.977 254.085L320.503 257.611L324.029 261.137L327.555 264.662L331.081 268.188L334.607 271.714L339.9 277.007L341.667 278.774L345.193 282.3L345.692 282.799C345.631 282.953 345.569 283.114 345.515 283.275Z" fill="#9C84F4"/>
<path d="M344.348 278.574L340.814 275.048L337.288 271.522L333.762 267.996L330.236 264.47L326.71 260.944L323.184 257.418L319.658 253.892L316.132 250.366L312.606 246.84L309.081 243.314L305.555 239.788L302.029 236.262L298.503 232.736L294.977 229.21L291.451 225.684L287.925 222.159L284.399 218.633L280.873 215.107L280.028 214.262C280.197 214.216 280.366 214.162 280.535 214.116L281.71 215.291L285.236 218.817L288.762 222.343L292.288 225.869L295.814 229.395L299.34 232.921L302.866 236.447L306.392 239.973L309.918 243.499L313.444 247.025L316.97 250.55L320.496 254.076L324.022 257.602L327.548 261.128L331.074 264.654L334.599 268.18L338.125 271.706L341.651 275.232L345.177 278.758L346.506 280.087C346.46 280.256 346.414 280.425 346.36 280.594L344.348 278.574Z" fill="#9C84F4"/>
<path d="M344.547 285.833L344.348 285.634L340.822 282.108L337.296 278.582L330.497 271.783L330.236 271.522L326.71 267.996L323.184 264.47L319.658 260.944L316.132 257.418L312.606 253.892L309.081 250.367L305.555 246.841L302.029 243.315L298.503 239.789L294.977 236.263L291.451 232.737L287.925 229.211L284.399 225.685L280.873 222.159L277.347 218.633L274.797 216.083C274.95 216.021 275.104 215.952 275.258 215.891L278.184 218.817L281.71 222.343L285.236 225.869L288.762 229.395L292.288 232.921L295.814 236.447L299.34 239.973L302.866 243.499L306.392 247.025L309.918 250.551L313.444 254.077L316.97 257.603L320.496 261.129L324.022 264.655L327.548 268.181L331.074 271.707L334.599 275.232L338.125 278.758L341.651 282.284L344.732 285.365C344.67 285.526 344.609 285.68 344.547 285.833Z" fill="#9C84F4"/>
<path d="M347.874 260.928L344.348 257.402L340.822 253.876L337.296 250.351L333.77 246.825L330.244 243.299L326.718 239.773L323.192 236.247L319.666 232.721L316.14 229.195L312.614 225.669L309.088 222.143L305.562 218.617L302.036 215.091L299.24 212.295C299.478 212.31 299.716 212.333 299.955 212.356L302.874 215.275L306.4 218.801L309.926 222.327L313.451 225.853L316.977 229.379L320.503 232.905L324.029 236.431L327.555 239.957L331.081 243.483L334.607 247.009L338.133 250.535L341.659 254.061L345.185 257.587L348.258 260.659C348.281 260.898 348.304 261.136 348.319 261.374L347.874 260.928Z" fill="#9C84F4"/>
</g>
<path d="M160.907 162.533H244.984V301.757H160.907V162.533Z" fill="white" stroke="#251F47" stroke-width="0.768179" stroke-miterlimit="10" stroke-linecap="round" stroke-linejoin="round"/>
<path d="M345.047 244.459H389.801V301.98H345.047V244.459Z" fill="white" stroke="#251F47" stroke-width="0.768179" stroke-miterlimit="10" stroke-linecap="round" stroke-linejoin="round"/>
<path d="M402.614 302.032L87.7017 302.032" stroke="#251F47" stroke-width="0.867527" stroke-miterlimit="10"/>
<path d="M302.904 137.544C302.904 138.85 303.957 139.903 305.263 139.903C306.569 139.903 307.621 138.85 307.621 137.544C307.621 136.238 306.569 135.186 305.263 135.186C303.964 135.186 302.904 136.246 302.904 137.544Z" stroke="#251F47" stroke-width="0.768179" stroke-miterlimit="10" stroke-linecap="round" stroke-linejoin="round"/>
<path d="M46.4555 5.71662C45.153 5.71662 44.0972 4.66077 44.0972 3.35831C44.0972 2.05585 45.153 1 46.4555 1C47.758 1 48.8138 2.05585 48.8138 3.35831C48.8138 4.66077 47.758 5.71662 46.4555 5.71662Z" stroke="#251F47" stroke-width="0.768179" stroke-miterlimit="10" stroke-linecap="round" stroke-linejoin="round"/>
<path d="M0.687422 135.186C0.687422 137.79 2.79988 139.902 5.40401 139.902C8.00813 139.902 10.1206 137.79 10.1206 135.186C10.1206 132.582 8.00813 130.469 5.40401 130.469C2.79988 130.469 0.687422 132.582 0.687422 135.186Z" stroke="#251F47" stroke-width="0.768179" stroke-miterlimit="10" stroke-linecap="round" stroke-linejoin="round"/>
<path d="M247.634 58.5677L259.748 44.1489H247.634V58.5677Z" stroke="#9C84F4" stroke-width="0.768179" stroke-miterlimit="10" stroke-linecap="round" stroke-linejoin="round"/>
<path d="M301.637 44.1408V6.26953H247.634V35.5064V44.1408V44.1484H259.748L259.756 44.1408H301.637Z" stroke="#251F47" stroke-width="0.768179" stroke-miterlimit="10" stroke-linecap="round" stroke-linejoin="round"/>
<path d="M260.747 19.6665H291.72" stroke="#251F47" stroke-width="0.768179" stroke-miterlimit="10" stroke-linecap="round" stroke-linejoin="round"/>
<path d="M260.747 31.0205H284.076" stroke="#251F47" stroke-width="0.768179" stroke-miterlimit="10" stroke-linecap="round" stroke-linejoin="round"/>
<path d="M114.555 152.869L96.0261 130.814H114.555V152.869Z" stroke="#9C84F4" stroke-width="0.768179" stroke-miterlimit="10" stroke-linecap="round" stroke-linejoin="round"/>
<path d="M31.9677 130.807V72.8936H114.555V117.602V130.807V130.814H96.0261L96.0184 130.807H31.9677Z" stroke="#251F47" stroke-width="0.768179" stroke-miterlimit="10" stroke-linecap="round" stroke-linejoin="round"/>
<path d="M94.5051 93.374H47.1238" stroke="#251F47" stroke-width="0.768179" stroke-miterlimit="10" stroke-linecap="round" stroke-linejoin="round"/>
<path d="M94.5051 110.742H58.8232" stroke="#251F47" stroke-width="0.768179" stroke-miterlimit="10" stroke-linecap="round" stroke-linejoin="round"/>
<path d="M213.243 113.193L264.449 124.339C265.594 124.585 266.762 124.039 267.315 123.002L290.644 71.0273C291.927 68.6153 294.923 67.7011 297.335 68.9763L298.871 69.7906L274.651 130.753L274.612 130.822C273.906 132.151 272.377 132.82 270.925 132.436L208.541 116.173C209.033 114.068 211.122 112.747 213.243 113.193Z" fill="#9C84F4"/>
<path d="M296.644 203.539C296.644 203.539 300.823 212.181 303.926 214.147L312.445 216.167C316.447 216.644 317.784 219.532 317.784 219.532L295.269 229.949L284.437 208.808L296.644 203.539Z" fill="#251F47"/>
<path d="M179.973 128.456C179.973 128.456 233.584 130.469 258.734 134.287C266.009 135.393 272.3 139.956 275.688 146.493L305.27 203.653L279.068 217.434L248.725 162.509L193.554 160.866L179.973 128.456Z" fill="white" stroke="#251F47" stroke-width="0.768179" stroke-miterlimit="10" stroke-linecap="round" stroke-linejoin="round"/>
<path d="M177.868 115.466C178.567 117.794 179.627 120.014 181.133 121.927C193.685 137.866 219.711 118.385 240.982 118.547C243.916 118.57 246.52 118.624 247.15 119.568C248.21 121.151 249.462 123.432 250.23 123.371C251.114 123.294 249.731 120.191 248.948 117.855C248.948 117.855 251.567 124.316 252.527 123.962C253.687 123.532 250.73 116.173 250.73 116.173C250.73 116.173 254.494 123.709 255.462 122.541C256.43 121.374 252.335 114.667 252.335 114.667C252.335 114.667 256.207 120.644 257.451 120.045C258.458 119.553 255.177 115.005 251.805 111.403C249.808 109.275 247.211 107.808 244.338 107.262C241.596 106.74 237.563 106.417 231.802 106.84C231.802 106.84 210.308 109.236 192.41 112.148L185.473 80.0533C184.62 76.1049 181.632 72.8709 177.691 71.9644C174.611 71.2577 171.146 71.5726 168.873 75.16C167.259 77.7104 166.991 80.883 167.897 83.7636L177.868 115.466Z" fill="white" stroke="#251F47" stroke-width="0.768179" stroke-miterlimit="10" stroke-linecap="round" stroke-linejoin="round"/>
<path d="M245.521 216.298C245.521 216.298 239.63 227.121 239.929 230.786L243.44 238.813C245.468 242.301 243.962 245.097 243.962 245.097L222.1 233.374L232.508 211.935L245.521 216.298Z" fill="#251F47"/>
<path d="M174.58 121.658C174.58 121.658 249.478 117.226 271.056 137.544C288.447 153.922 250.092 224.294 250.092 224.294L222.799 212.802L244.984 163.201L181.248 162.372C181.248 162.372 155.337 154.966 162.005 121.658H174.58Z" fill="white" stroke="#251F47" stroke-width="0.768179" stroke-miterlimit="10" stroke-linecap="round" stroke-linejoin="round"/>
<path d="M136.886 70.0283C136.886 70.0283 135.288 61.8318 144.529 58.4748C152.802 55.4713 153.57 46.9598 153.57 46.9598C153.57 46.9598 156.213 40.2997 163.672 40.7222C171.131 41.137 167.382 28.5005 180.088 25.9885C181.993 25.6121 183.752 26.3726 185.289 27.6555C190.005 31.5886 190.773 38.556 187.409 43.6874L170.117 70.0206H136.886V70.0283Z" fill="#251F47" stroke="#251F47" stroke-width="0.768179" stroke-miterlimit="10" stroke-linecap="round" stroke-linejoin="round"/>
<path d="M184.874 77.1032L193.024 56.7848L185.926 46.7217L168.427 72.5171L184.874 77.1032Z" fill="white" stroke="#251F47" stroke-width="0.768179" stroke-miterlimit="10" stroke-linecap="round" stroke-linejoin="round"/>
<path d="M189.867 63.3072L186.318 57.5996L191.603 59.0899L189.867 63.3072Z" fill="#251F47" stroke="#251F47" stroke-width="0.768179" stroke-miterlimit="10" stroke-linecap="round" stroke-linejoin="round"/>
<path d="M172.13 32.6794C167.759 41.1601 175.333 53.766 184.344 58.4134C193.354 63.0609 200.522 60.0343 203.925 51.1234C207.097 42.804 205.369 30.3903 196.366 25.7428C187.355 21.0953 176.508 24.1988 172.13 32.6794Z" fill="white" stroke="#251F47" stroke-width="0.768179" stroke-miterlimit="10" stroke-linecap="round" stroke-linejoin="round"/>
<path d="M171.239 35.061C174.096 26.0887 183.161 21.7101 192.932 24.4141C200.621 26.5419 205.576 34.0547 206.098 41.6366C205.991 41.6674 199.892 41.4753 197.287 34.7154C197.287 34.7154 196.565 45.5928 185.089 43.4803L179.988 55.4716C173.19 52.322 168.074 44.9936 171.239 35.061Z" fill="#251F47" stroke="#251F47" stroke-width="0.768179" stroke-miterlimit="10" stroke-linecap="round" stroke-linejoin="round"/>
<path d="M195.029 54.1269C195.029 54.1269 192.563 53.9426 192.171 51.1694L195.029 54.1269Z" fill="white"/>
<path d="M195.029 54.1269C195.029 54.1269 192.563 53.9426 192.171 51.1694" stroke="#251F47" stroke-width="0.768179" stroke-miterlimit="10" stroke-linecap="round" stroke-linejoin="round"/>
<path d="M183.829 51.6612C182.738 51.3462 181.709 50.6011 181.002 49.5026C179.581 47.3056 179.98 44.5325 181.886 43.2957C183.184 42.4584 184.536 42.758 185.711 43.7259" fill="white"/>
<path d="M183.829 51.6612C182.738 51.3462 181.709 50.6011 181.002 49.5026C179.581 47.3056 179.98 44.5325 181.886 43.2957C183.184 42.4584 184.536 42.758 185.711 43.7259" stroke="#251F47" stroke-width="0.768179" stroke-miterlimit="10" stroke-linecap="round" stroke-linejoin="round"/>
<path d="M185.289 48.8111C185.289 48.8111 184.758 46.6832 182.884 47.0827L185.289 48.8111Z" fill="white"/>
<path d="M185.289 48.8111C185.289 48.8111 184.758 46.6832 182.884 47.0827" stroke="#251F47" stroke-width="0.768179" stroke-miterlimit="10" stroke-linecap="round" stroke-linejoin="round"/>
<path d="M178.759 23.9455C178.575 27.1949 175.794 29.6761 172.552 29.4918C169.303 29.3074 166.822 26.5266 167.006 23.2849C167.19 20.0355 169.971 17.5543 173.213 17.7386C176.454 17.923 178.936 20.7038 178.759 23.9455Z" fill="#251F47" stroke="#251F47" stroke-width="0.768179" stroke-miterlimit="10" stroke-linecap="round" stroke-linejoin="round"/>
<path d="M188.96 70.8507L171.623 64.6592C171.623 64.6592 150.836 99.1658 150.091 122.111C150.091 122.111 174.58 121.658 195.667 121.42L188.96 70.8507Z" fill="#251F47"/>
<mask id="mask1_678_7611" style="mask-type:luminance" maskUnits="userSpaceOnUse" x="150" y="64" width="46" height="59">
<path d="M188.96 70.8507L171.623 64.6592C171.623 64.6592 150.836 99.1658 150.091 122.111C150.091 122.111 174.58 121.658 195.667 121.42L188.96 70.8507Z" fill="white"/>
</mask>
<g mask="url(#mask1_678_7611)">
<path d="M184.72 80.9678H177.737" stroke="white" stroke-width="0.768179" stroke-miterlimit="10" stroke-linecap="round" stroke-linejoin="round"/>
<path d="M181.225 73.9852L174.718 71.2812" stroke="white" stroke-width="0.768179" stroke-miterlimit="10" stroke-linecap="round" stroke-linejoin="round"/>
<path d="M170.271 73.3477V80.968" stroke="white" stroke-width="0.768179" stroke-miterlimit="10" stroke-linecap="round" stroke-linejoin="round"/>
<path d="M173.605 90.1709L169.003 85.4082" stroke="white" stroke-width="0.768179" stroke-miterlimit="10" stroke-linecap="round" stroke-linejoin="round"/>
<path d="M182.815 89.2178L183.606 94.933" stroke="white" stroke-width="0.768179" stroke-miterlimit="10" stroke-linecap="round" stroke-linejoin="round"/>
<path d="M176.938 97.1606L170.271 98.4281" stroke="white" stroke-width="0.768179" stroke-miterlimit="10" stroke-linecap="round" stroke-linejoin="round"/>
<path d="M164.717 97.7911L160.269 93.3511" stroke="white" stroke-width="0.768179" stroke-miterlimit="10" stroke-linecap="round" stroke-linejoin="round"/>
<path d="M173.605 103.667L169.003 107.316" stroke="white" stroke-width="0.768179" stroke-miterlimit="10" stroke-linecap="round" stroke-linejoin="round"/>
<path d="M169.003 115.044H162.02" stroke="white" stroke-width="0.768179" stroke-miterlimit="10" stroke-linecap="round" stroke-linejoin="round"/>
<path d="M165.508 108.061L159.001 105.357" stroke="white" stroke-width="0.768179" stroke-miterlimit="10" stroke-linecap="round" stroke-linejoin="round"/>
<path d="M154.561 107.424V115.044" stroke="white" stroke-width="0.768179" stroke-miterlimit="10" stroke-linecap="round" stroke-linejoin="round"/>
<path d="M157.895 124.247L153.286 119.484" stroke="white" stroke-width="0.768179" stroke-miterlimit="10" stroke-linecap="round" stroke-linejoin="round"/>
<path d="M200.406 100.572H193.424" stroke="white" stroke-width="0.768179" stroke-miterlimit="10" stroke-linecap="round" stroke-linejoin="round"/>
<path d="M196.919 93.5888L190.412 90.8848" stroke="white" stroke-width="0.768179" stroke-miterlimit="10" stroke-linecap="round" stroke-linejoin="round"/>
<path d="M189.298 109.782L184.697 105.02" stroke="white" stroke-width="0.768179" stroke-miterlimit="10" stroke-linecap="round" stroke-linejoin="round"/>
<path d="M192.632 116.765L185.965 118.033" stroke="white" stroke-width="0.768179" stroke-miterlimit="10" stroke-linecap="round" stroke-linejoin="round"/>
<path d="M180.411 117.402L175.963 112.955" stroke="white" stroke-width="0.768179" stroke-miterlimit="10" stroke-linecap="round" stroke-linejoin="round"/>
</g>
<path d="M197.549 125.114C198.947 127.104 200.644 128.886 202.672 130.222C219.595 141.407 238.193 114.751 258.435 108.222C261.231 107.323 263.72 106.555 264.611 107.254C266.116 108.429 268.021 110.204 268.728 109.896C269.542 109.551 267.253 107.031 265.778 105.065C265.778 105.065 270.295 110.373 271.094 109.743C272.062 108.967 266.946 102.914 266.946 102.914C266.946 102.914 272.884 108.882 273.437 107.469C273.99 106.056 267.998 100.97 267.998 100.97C267.998 100.97 273.552 105.426 274.543 104.465C275.35 103.682 270.802 100.394 266.47 98.0358C263.904 96.6377 260.977 96.0616 258.081 96.4457C255.316 96.8144 251.383 97.7669 246.044 99.9793C246.044 99.9793 226.386 109.005 210.316 117.386L193.646 89.0942C191.595 85.6066 187.739 83.4865 183.714 83.8629C180.564 84.1548 177.376 85.5452 176.339 89.6703C175.609 92.5971 176.355 95.6928 178.114 98.1433L197.549 125.114Z" fill="white" stroke="#251F47" stroke-width="0.768179" stroke-miterlimit="10" stroke-linecap="round" stroke-linejoin="round"/>
<path d="M209.64 109.766L190.389 123.371C190.389 123.371 159.67 84.6853 173.858 75.3442C187.247 66.5332 209.64 109.766 209.64 109.766Z" fill="#251F47" stroke="#251F47" stroke-width="0.768179" stroke-miterlimit="10" stroke-linecap="round" stroke-linejoin="round"/>
<mask id="mask2_678_7611" style="mask-type:luminance" maskUnits="userSpaceOnUse" x="170" y="74" width="40" height="50">
<path d="M209.64 109.766L190.389 123.371C190.389 123.371 159.67 84.6853 173.858 75.3442C187.247 66.5332 209.64 109.766 209.64 109.766Z" fill="white"/>
</mask>
<g mask="url(#mask2_678_7611)">
<path d="M184.72 80.9668H177.737" stroke="white" stroke-width="0.768179" stroke-miterlimit="10" stroke-linecap="round" stroke-linejoin="round"/>
<path d="M181.225 73.9843L174.718 71.2803" stroke="white" stroke-width="0.768179" stroke-miterlimit="10" stroke-linecap="round" stroke-linejoin="round"/>
<path d="M170.271 73.3467V80.967" stroke="white" stroke-width="0.768179" stroke-miterlimit="10" stroke-linecap="round" stroke-linejoin="round"/>
<path d="M173.605 90.1699L169.003 85.4072" stroke="white" stroke-width="0.768179" stroke-miterlimit="10" stroke-linecap="round" stroke-linejoin="round"/>
<path d="M182.815 89.2168L183.606 94.9321" stroke="white" stroke-width="0.768179" stroke-miterlimit="10" stroke-linecap="round" stroke-linejoin="round"/>
<path d="M176.938 97.1597L170.271 98.4272" stroke="white" stroke-width="0.768179" stroke-miterlimit="10" stroke-linecap="round" stroke-linejoin="round"/>
<path d="M173.605 103.667L169.003 107.316" stroke="white" stroke-width="0.768179" stroke-miterlimit="10" stroke-linecap="round" stroke-linejoin="round"/>
<path d="M200.406 100.571H193.424" stroke="white" stroke-width="0.768179" stroke-miterlimit="10" stroke-linecap="round" stroke-linejoin="round"/>
<path d="M196.919 93.5883L190.412 90.8843" stroke="white" stroke-width="0.768179" stroke-miterlimit="10" stroke-linecap="round" stroke-linejoin="round"/>
<path d="M189.298 109.781L184.697 105.019" stroke="white" stroke-width="0.768179" stroke-miterlimit="10" stroke-linecap="round" stroke-linejoin="round"/>
<path d="M198.501 108.829L199.3 114.544" stroke="white" stroke-width="0.768179" stroke-miterlimit="10" stroke-linecap="round" stroke-linejoin="round"/>
<path d="M192.632 116.764L185.965 118.032" stroke="white" stroke-width="0.768179" stroke-miterlimit="10" stroke-linecap="round" stroke-linejoin="round"/>
<path d="M180.411 117.401L175.963 112.954" stroke="white" stroke-width="0.768179" stroke-miterlimit="10" stroke-linecap="round" stroke-linejoin="round"/>
<path d="M189.298 123.271L184.697 126.92" stroke="white" stroke-width="0.768179" stroke-miterlimit="10" stroke-linecap="round" stroke-linejoin="round"/>
</g>
<path d="M333.977 42.336C333.824 45.1168 336.712 47.6364 339.447 47.1064C342.627 46.4842 344.171 42.9275 346.637 40.8304C347.735 39.8932 349.21 39.2095 350.608 39.5782C351.261 39.7472 351.837 40.1313 352.344 40.5615C354.257 42.1901 355.348 44.5637 356.677 46.6993C358.014 48.8348 359.865 50.9166 362.346 51.3237C364.758 51.7155 367.186 50.3558 368.745 48.4661C370.297 46.5764 371.142 44.218 371.964 41.9135" stroke="#251F47" stroke-width="0.768179" stroke-miterlimit="10" stroke-linecap="round" stroke-linejoin="round"/>
<path d="M360.802 226.069C366.026 225.008 370.566 221.037 372.309 215.99C374.053 210.951 372.932 205.02 369.475 200.965C368.323 199.605 366.809 198.406 365.042 198.237C363.268 198.068 361.294 199.313 361.209 201.087C361.178 201.779 361.417 202.462 361.762 203.062C364.351 207.625 371.848 206.833 375.067 202.693C378.278 198.552 378.194 192.745 377.203 187.598C374.161 171.912 363.69 157.831 349.533 150.411" stroke="#251F47" stroke-width="0.768179" stroke-miterlimit="10" stroke-linecap="round" stroke-linejoin="round"/>
<path d="M361.685 148.129C359.404 148.506 349.525 150.411 349.525 150.411V163.716" stroke="#251F47" stroke-width="0.768179" stroke-miterlimit="10" stroke-linecap="round" stroke-linejoin="round"/>
<path d="M143.446 162.064C134.535 180.37 111.09 190.111 91.8318 183.497C88.9204 182.498 86.0475 181.123 83.9811 178.849C81.9147 176.575 80.8008 173.241 81.8071 170.33C83.2743 166.082 88.9742 164.361 93.0609 166.22C97.1553 168.087 99.5597 172.581 100.059 177.052C101.188 187.245 93.5142 196.886 84.0732 200.873C74.6323 204.867 63.8855 204.276 53.7839 202.517" stroke="#251F47" stroke-width="0.768179" stroke-miterlimit="10" stroke-linecap="round" stroke-linejoin="round"/>
<path d="M67.2578 194.781L53.7839 202.524L63.463 214.408" stroke="#251F47" stroke-width="0.768179" stroke-miterlimit="10" stroke-linecap="round" stroke-linejoin="round"/>
<path d="M137.93 38.9481C135.088 43.6878 128.021 44.3177 123.181 41.6444C118.342 38.9712 115.307 33.9626 112.811 29.0309C108.901 21.303 120.162 24.2605 115.63 35.184C113.763 39.6856 110.406 44.31 105.552 44.7325C98.6379 45.3317 94.459 37.6576 90.403 32.0268C87.6299 28.1782 84.273 20.4196 79.7945 19.6668C73.0268 18.5299 72.7887 28.3549 72.0589 31.0512C71.3291 33.7475 69.57 36.5975 66.7969 36.9278C63.4553 37.3196 61.0509 34.0241 58.6388 31.6811C53.2616 26.4652 44.4506 25.2054 37.8289 28.7006" stroke="#251F47" stroke-width="0.768179" stroke-miterlimit="10" stroke-linecap="round" stroke-linejoin="round"/>
</svg>
