<svg width="506" height="377" viewBox="0 0 506 377" fill="none" xmlns="http://www.w3.org/2000/svg">
<path d="M379.685 92.1612C447.951 81.3021 497.697 120.698 504.529 244.193C509.616 336.104 461.713 426.816 385.165 469.217C283.457 525.554 131.831 508.043 81.8884 416.496C52.087 361.871 56.1769 276.638 97.6319 242.395C139.19 208.072 185.556 266.635 261.296 234.032C345.511 197.782 324.629 100.919 379.685 92.1612Z" fill="white"/>
<path d="M255.529 502.441C230.729 502.441 206.112 499.153 182.976 492.425C135.746 478.694 100.503 452.597 81.0585 416.95C66.4316 390.139 59.5181 355.43 62.0978 321.731C64.7545 286.992 77.4862 257.809 97.033 241.668C117.465 224.791 139.121 229.987 164.2 236.009C191.319 242.52 222.057 249.899 260.928 233.167C305.836 213.837 320.398 177.682 333.246 145.785C344.142 118.729 353.554 95.3675 379.543 91.2327C410.496 86.3104 436.263 91.9475 456.13 107.986C485.175 131.433 501.778 177.245 505.479 244.146C510.6 336.72 462.436 427.505 385.627 470.052C347.192 491.342 301.078 502.441 255.538 502.445L255.529 502.441ZM129.294 232.174C118.402 232.174 108.126 234.956 98.2309 243.128C79.082 258.943 66.5984 287.647 63.9802 321.876C61.4304 355.22 68.2583 389.544 82.7184 416.043C101.919 451.236 136.768 477.02 183.503 490.606C248.667 509.55 325.763 501.037 384.703 468.391C460.888 426.187 508.662 336.113 503.579 244.249C499.908 177.904 483.54 132.555 454.933 109.458C435.497 93.7709 410.226 88.2665 379.834 93.1032C354.901 97.071 345.678 119.971 334.995 146.491C322.011 178.73 307.294 215.267 261.668 234.909C222.215 251.894 191.156 244.433 163.75 237.854C151.511 234.918 140.101 232.179 129.299 232.179L129.294 232.174Z" fill="#251F47"/>
<path d="M259.208 253.925C259.208 253.925 129.286 238.794 90.6543 272.254C52.0229 305.713 151.639 449.595 151.639 449.595L183.143 426.22L153.26 324.524L273.36 290.402L259.208 253.925Z" fill="#251F47"/>
<path d="M330.713 320.15C311.842 326.143 278.075 333.89 230.878 333.248C217.471 333.064 205.09 340.478 198.998 352.432C185.017 379.861 154.762 429.247 105.474 461.259L81.9354 448.568L142.013 313.259C147.498 300.906 157.757 291.301 170.441 286.649L289.51 242.964C289.51 242.964 326.43 232.64 344.531 265.615C347.765 271.505 353.768 260.975 355.197 265.726C360.099 282.017 346.918 315.005 330.709 320.15H330.713Z" fill="#251F47"/>
<path d="M114.86 375.349C114.732 375.349 114.599 375.324 114.475 375.268C113.996 375.054 113.782 374.493 113.996 374.018L141.145 312.874C146.702 300.358 157.261 290.475 170.112 285.758L227.135 264.836C227.631 264.656 228.17 264.909 228.35 265.401C228.53 265.893 228.277 266.437 227.785 266.617L170.762 287.539C158.39 292.08 148.225 301.591 142.873 313.644L115.724 374.788C115.566 375.144 115.219 375.353 114.856 375.353L114.86 375.349Z" fill="white"/>
<path d="M229.689 148.935C229.689 148.935 218.262 252.75 141.53 259.543L229.689 260.797C229.689 260.797 262.331 194.615 263.657 168.847C264.984 143.08 229.689 148.935 229.689 148.935Z" fill="white"/>
<path d="M229.689 261.742H229.676L141.517 260.488C141.012 260.48 140.601 260.082 140.584 259.577C140.567 259.071 140.944 258.643 141.449 258.596C180.636 255.129 202.275 225.518 213.526 201.292C225.766 174.934 228.722 149.089 228.748 148.832C228.795 148.409 229.116 148.071 229.535 148.002C230.331 147.869 249.163 144.865 258.969 153.622C263.041 157.26 264.937 162.401 264.603 168.894C263.281 194.563 231.875 258.502 230.536 261.212C230.378 261.537 230.049 261.738 229.685 261.738L229.689 261.742ZM152.653 258.75L229.099 259.838C232.2 253.477 261.471 192.855 262.708 168.796C263.012 162.902 261.326 158.275 257.707 155.035C249.591 147.78 234.01 149.32 230.536 149.77C229.959 154.2 226.451 177.947 215.238 202.088C200.752 233.274 179.263 252.66 152.649 258.75H152.653Z" fill="#251F47"/>
<path d="M338.901 82.9589C324.013 79.4577 317.806 79.4106 263.696 81.371C250.472 81.8503 235.756 102.563 234.203 115.712C238.408 128.326 256.787 186.486 222.921 235.141C218.117 242.045 211.584 249.617 202.613 256.872C207.653 260.951 215.482 266.254 225.997 269.379C243.456 274.566 252.235 268.959 266.301 269.379C303.517 270.487 317.164 311.959 341.199 306.75C347.616 305.359 356.125 300.351 364.099 283.551C368.621 269.618 372.643 253.259 374.88 234.772C380.951 184.654 371.017 142.926 362.144 116.735C359.509 108.465 356.45 87.0852 338.901 82.9589Z" fill="white"/>
<path d="M336.993 308.158C327.115 308.158 318.909 300.831 309.596 292.51C298.255 282.378 285.403 270.898 266.276 270.329C261.287 270.179 256.885 270.813 252.633 271.429C244.992 272.529 237.09 273.668 225.728 270.291C217.3 267.787 209.321 263.519 202.018 257.612C201.796 257.433 201.667 257.163 201.667 256.876C201.667 256.589 201.796 256.32 202.018 256.14C209.821 249.827 216.589 242.58 222.142 234.602C253.078 190.159 240.252 136.865 233.3 116.016C233.257 115.883 233.24 115.742 233.257 115.605C234.78 102.713 249.621 80.9347 263.657 80.4296C318.657 78.435 324.3 78.5548 339.115 82.039C354.782 85.7243 359.235 102.405 361.896 112.369C362.32 113.953 362.683 115.323 363.043 116.448C376.301 155.566 380.6 195.42 375.817 234.888C373.815 251.41 370.174 267.881 364.993 283.846C364.981 283.885 364.968 283.923 364.946 283.962C358.409 297.732 350.486 305.71 341.391 307.683C339.881 308.009 338.413 308.163 336.98 308.163L336.993 308.158ZM264.783 268.407C265.292 268.407 265.809 268.416 266.331 268.429C286.148 269.019 299.273 280.747 310.858 291.093C321.138 300.274 330.011 308.201 341.002 305.821C349.481 303.985 356.955 296.37 363.218 283.196C368.352 267.367 371.958 251.034 373.943 234.653C378.692 195.467 374.418 155.895 361.25 117.035C360.874 115.849 360.501 114.462 360.074 112.853C357.52 103.295 353.246 87.3037 338.687 83.8752C324.103 80.4467 318.499 80.3268 263.734 82.3129C250.639 82.788 236.757 103.299 235.174 115.609C242.228 136.87 255.028 190.673 223.704 235.676C218.267 243.487 211.687 250.606 204.127 256.855C210.985 262.231 218.433 266.134 226.271 268.463C237.24 271.72 244.586 270.663 252.367 269.542C256.261 268.981 260.278 268.403 264.791 268.403L264.783 268.407Z" fill="#251F47"/>
<path d="M219.606 160.564C219.606 160.564 234.216 88.2702 259.431 82.2778L247.781 176.714L219.606 160.564Z" fill="white"/>
<path d="M247.786 177.665C247.623 177.665 247.461 177.622 247.315 177.541L219.139 161.391C218.784 161.19 218.6 160.779 218.682 160.381C219.285 157.406 233.706 87.4237 259.217 81.3585C259.73 81.2344 260.235 81.5511 260.359 82.0605C260.479 82.5698 260.167 83.0792 259.657 83.2033C236.586 88.6864 222.237 152.801 220.679 160.09L247.024 175.187L248.941 159.645C249.005 159.127 249.484 158.759 249.997 158.819C250.519 158.883 250.887 159.358 250.823 159.876L248.731 176.83C248.693 177.147 248.5 177.421 248.213 177.562C248.081 177.631 247.935 177.661 247.79 177.661L247.786 177.665Z" fill="#251F47"/>
<path d="M294.507 48.3613L292.71 73.3625C292.312 76.6155 289.972 79.295 286.802 80.121L278.023 82.411L283.718 86.7512C296.342 96.369 313.831 98.3423 326.478 88.7458L335.492 82.1927L324.587 79.4662C321.455 78.7642 319.046 74.2999 318.473 71.141L313.656 38.0586L294.503 48.3655L294.507 48.3613Z" fill="white"/>
<path d="M307.286 96.0267C299.089 96.0267 290.58 93.1632 283.149 87.5004L277.454 83.1602C277.168 82.9419 277.027 82.5738 277.099 82.2185C277.172 81.8632 277.437 81.5807 277.788 81.4866L286.567 79.1966C289.378 78.4647 291.423 76.1276 291.773 73.2427L293.566 48.2886C293.587 47.9633 293.775 47.6765 294.062 47.5224L313.215 37.2155C313.489 37.07 313.814 37.0657 314.088 37.2026C314.366 37.3396 314.554 37.605 314.601 37.9132L319.419 70.9956C319.915 73.7435 322.062 77.9211 324.8 78.5332L335.727 81.264C336.082 81.3539 336.356 81.6407 336.428 82.0045C336.501 82.3683 336.351 82.7364 336.056 82.9504L327.046 89.5036C321.301 93.8652 314.417 96.0224 307.294 96.0224L307.286 96.0267ZM280.15 82.8349L284.295 85.9937C297.502 96.0524 314.225 96.8528 325.908 87.9841L333.293 82.6123L324.36 80.378C320.646 79.5476 318.135 74.5696 317.545 71.2995L312.916 39.5268L295.414 48.9435L293.656 73.4268C293.206 77.1378 290.61 80.104 287.042 81.0329L280.15 82.8306V82.8349Z" fill="#251F47"/>
<path d="M266.113 13.5627C272.12 10.3825 267.285 20.2871 287.042 3.17875C294.909 -3.63548 295.192 9.08556 297.241 7.32208C304.796 0.816027 304.531 1.03004 309.301 0.199665C312.458 -0.348213 316.681 4.00913 317.934 8.13105C319.59 13.5756 315.975 16.8329 317.207 29.3699C318.075 38.1744 320.843 42.5018 318.306 45.0015C315.744 47.5312 311.568 44.4365 308.557 46.9876C304.663 50.2877 309.108 57.6327 306.229 62.8375C304.415 66.1205 298.46 69.9813 285.934 69.6817C283.902 69.6346 282.186 68.1365 281.852 66.1248C281.429 63.548 280.911 60.2864 280.676 57.1319C279.555 42.0995 282.789 37.1044 279.602 34.5362C274.721 30.5983 266.426 37.9305 262.905 34.4763C259.247 30.8851 257.882 17.9115 266.105 13.5585L266.113 13.5627Z" fill="#251F47"/>
<path d="M296 21.9904L295.752 26.0952C295.636 28.0299 295.649 29.9689 295.799 31.9036C296.081 35.529 296.518 41.7696 296.496 45.2795C296.466 50.4372 280.526 51.4474 280.526 51.4474L278.503 49.196L276.633 49.273C276.269 49.2901 275.901 49.2302 275.581 49.059C274.776 48.6395 274.374 47.7749 274.515 46.9445C275.268 42.386 276.59 32.3273 275.127 24.5072C275.127 24.5072 283.991 17.3078 296 21.9904Z" fill="white"/>
<path d="M280.522 52.3976C280.252 52.3976 279.996 52.282 279.816 52.0851L278.092 50.1676L276.667 50.2275C276.111 50.2532 275.581 50.1419 275.136 49.9108C273.989 49.3115 273.365 48.0617 273.57 46.799C274.242 42.7498 275.641 32.4857 274.186 24.6913C274.122 24.3488 274.25 24.0021 274.52 23.7796C274.896 23.4714 283.953 16.289 296.334 21.1129C296.719 21.2627 296.958 21.6437 296.937 22.0546L296.689 26.1594C296.573 28.047 296.591 29.956 296.736 31.8351C297.006 35.3321 297.455 41.7268 297.433 45.2923C297.399 51.045 283.384 52.2221 280.578 52.3976C280.556 52.3976 280.535 52.3976 280.518 52.3976H280.522ZM278.498 48.25C278.768 48.25 279.025 48.3656 279.204 48.5625L280.915 50.4715C287.132 50.0135 295.521 48.1516 295.542 45.2752C295.564 41.7782 295.119 35.4434 294.849 31.9763C294.695 30.0074 294.678 28.0128 294.802 26.0395L295.008 22.6324C285.322 19.174 278.002 23.6212 276.158 24.9181C277.45 32.6184 276.274 42.0735 275.444 47.0986C275.367 47.5523 275.598 48.0017 276.013 48.22C276.162 48.2971 276.359 48.3356 276.586 48.327L278.456 48.25C278.456 48.25 278.481 48.25 278.494 48.25H278.498Z" fill="#251F47"/>
<path d="M298.798 34.6469C298.798 34.6469 299.384 24.7723 303.812 26.0178C308.236 27.2677 307.316 38.1182 298.798 34.6469Z" fill="white"/>
<path d="M255.422 269.438H81.2298C77.0671 269.438 73.6874 266.057 73.6874 261.892V259.273H262.965V261.892C262.965 266.057 259.585 269.438 255.422 269.438Z" fill="white"/>
<path d="M255.422 270.389H81.2297C76.5494 270.389 72.7419 266.579 72.7419 261.893V259.273C72.7419 258.751 73.1654 258.323 73.6916 258.323H262.969C263.491 258.323 263.919 258.747 263.919 259.273V261.893C263.919 266.575 260.111 270.389 255.426 270.389H255.422ZM74.6371 260.223V261.897C74.6371 265.535 77.5976 268.497 81.2297 268.497H255.422C259.059 268.497 262.019 265.535 262.019 261.897V260.223H74.6371Z" fill="#251F47"/>
<path d="M73.6831 259.457H181.988L147.579 158.116C145.521 154.945 141.932 153.023 138.077 153.023H46.5212C42.3672 153.023 39.6933 157.055 41.0495 160.616C41.5886 162.033 42.1704 163.433 42.641 164.871L73.6831 259.457Z" fill="white"/>
<path d="M181.988 260.403H73.6831C73.2724 260.403 72.9088 260.142 72.7847 259.752L41.7426 165.162C41.4132 164.156 41.0154 163.142 40.6346 162.161C40.4763 161.759 40.318 161.352 40.164 160.95C39.4153 158.981 39.6934 156.751 40.9127 154.983C42.1876 153.134 44.2325 152.073 46.5213 152.073H138.073C142.274 152.073 146.125 154.14 148.371 157.599C148.413 157.663 148.448 157.736 148.473 157.808L182.882 259.149C182.981 259.44 182.934 259.756 182.754 260.005C182.574 260.253 182.288 260.403 181.984 260.403H181.988ZM74.3719 258.507H180.666L146.719 158.532C144.816 155.672 141.59 153.965 138.073 153.965H46.5213C44.8614 153.965 43.3854 154.727 42.4742 156.053C41.61 157.308 41.4089 158.887 41.9352 160.27C42.0849 160.668 42.2432 161.066 42.3972 161.468C42.7908 162.474 43.1972 163.514 43.5437 164.567L74.3719 258.502V258.507Z" fill="#251F47"/>
<path d="M113.876 204.871C115.168 209.155 113.196 213.538 109.47 214.664C105.748 215.79 101.683 213.226 100.391 208.941C99.0995 204.657 101.072 200.274 104.798 199.148C108.52 198.022 112.584 200.586 113.876 204.871Z" fill="#251F47"/>
<path d="M373.661 179.167C373.661 179.167 368.348 246.492 353.314 271.985C335.359 302.427 244.783 261.426 244.783 261.426L234.25 255.459C227.122 251.423 218.635 250.558 210.84 253.075L193.826 258.566C193.826 258.566 207.879 241.706 219.828 235.26C225.433 232.238 232.697 235.098 238.832 238.984C249.39 245.674 261.805 248.812 274.297 248.439L310.328 247.369C316.377 247.189 321.335 242.507 321.862 236.472L327.291 160.745L373.661 179.167Z" fill="white"/>
<path d="M325.862 284.226C293.369 284.226 247.08 263.505 244.393 262.29L233.784 256.285C226.909 252.389 218.652 251.546 211.131 253.977L194.112 259.469C193.715 259.598 193.274 259.448 193.034 259.097C192.799 258.746 192.82 258.283 193.094 257.958C193.672 257.265 207.4 240.884 219.375 234.425C224.406 231.711 231.123 232.978 239.337 238.183C249.54 244.651 261.608 247.861 274.267 247.493L310.298 246.423C315.868 246.256 320.428 241.946 320.916 236.394L326.345 160.68C326.366 160.38 326.529 160.106 326.786 159.944C327.042 159.781 327.359 159.755 327.637 159.867L374.008 178.289C374.393 178.443 374.637 178.828 374.602 179.244C374.384 182 369.101 247.082 354.127 272.468C349.041 281.093 338.491 284.226 325.857 284.226H325.862ZM219.811 250.716C224.988 250.716 230.139 252.038 234.716 254.632L245.249 260.599C246.07 260.967 335.175 300.868 352.497 271.501C366.435 247.869 372.035 186.999 372.656 179.787L328.138 162.101L322.803 236.54C322.234 243.067 316.882 248.122 310.353 248.315L274.323 249.385C261.279 249.774 248.847 246.453 238.323 239.784C233.103 236.475 225.732 233.15 220.277 236.094C211.4 240.88 201.197 251.67 196.782 256.614L210.549 252.171C213.565 251.195 216.692 250.716 219.811 250.716Z" fill="#251F47"/>
<path d="M382.085 183.927C382.085 183.927 387.757 140.542 381.503 125.266C366.91 89.6278 344.604 84.6327 341.036 83.5669L320.471 171.66L382.085 183.923V183.927Z" fill="white"/>
<path d="M382.085 184.873C382.025 184.873 381.961 184.869 381.901 184.856L320.287 172.593C320.035 172.542 319.817 172.392 319.675 172.178C319.538 171.964 319.491 171.698 319.551 171.45L323.748 153.464C323.868 152.955 324.377 152.638 324.886 152.758C325.395 152.878 325.712 153.387 325.592 153.897L321.618 170.928L381.272 182.801C382.063 176.218 386.196 139.219 380.626 125.629C374.316 110.212 362.367 90.5867 341.288 84.6328L340.762 84.483C340.262 84.3332 339.975 83.8067 340.125 83.3059C340.275 82.8051 340.796 82.5184 341.306 82.6682L341.806 82.8094C359.068 87.6847 373.101 102.242 382.38 124.91C388.66 140.247 383.257 182.275 383.026 184.056C382.992 184.317 382.85 184.552 382.641 184.702C382.478 184.817 382.286 184.877 382.089 184.877L382.085 184.873Z" fill="#251F47"/>
</svg>
