<svg width="403" height="303" viewBox="0 0 403 303" fill="none" xmlns="http://www.w3.org/2000/svg">
<g opacity="0.3">
<mask id="mask0_3068_12718" style="mask-type:luminance" maskUnits="userSpaceOnUse" x="258" y="229" width="74" height="74">
<path d="M258.646 229.026H331.861V302.241H258.646V229.026Z" fill="white"/>
</mask>
<g mask="url(#mask0_3068_12718)">
<path d="M241.708 266.743L243.145 268.172L246.671 271.698L250.196 275.224L253.722 278.75L257.248 282.276L260.774 285.802L264.3 289.328L267.826 292.854L271.352 296.38L278.243 303.27L278.412 303.439L281.938 306.965L285.464 310.491L288.99 314.017L292.515 317.543L294.113 319.141C293.891 319.133 293.668 319.133 293.445 319.126L291.678 317.359L288.152 313.833L284.626 310.307L281.1 306.781L277.574 303.255L274.048 299.729L270.522 296.203L266.997 292.677L263.471 289.151L259.945 285.625L256.419 282.099L252.893 278.573L249.367 275.047L245.841 271.521L242.315 267.996L241.739 267.419C241.716 267.189 241.708 266.966 241.708 266.743Z" fill="white"/>
<path d="M241.915 270.477L243.145 271.706L246.67 275.232L250.196 278.758L253.722 282.284L260.613 289.174L260.782 289.343L264.308 292.869L267.834 296.395L271.36 299.921L274.886 303.447L278.412 306.973L281.938 310.499L285.464 314.025L288.989 317.551L290.38 318.941C290.142 318.918 289.904 318.903 289.665 318.872L284.795 314.002L284.626 313.833L281.1 310.307L277.574 306.781L274.048 303.255L270.522 299.729L266.997 296.203L263.471 292.677L259.945 289.151L256.419 285.625L252.893 282.1L249.367 278.574L245.841 275.048L242.315 271.522L241.992 271.199C241.954 270.953 241.931 270.715 241.915 270.477Z" fill="white"/>
<path d="M270.431 313.103C269.954 312.849 269.478 312.596 269.002 312.327L267.012 310.338L263.486 306.812L259.96 303.286L256.434 299.76L252.909 296.234L249.383 292.708L248.584 291.909C248.315 291.44 248.061 290.964 247.808 290.48L250.22 292.892L253.746 296.418L260.636 303.309L260.805 303.478L264.331 307.004L267.857 310.53L270.431 313.103Z" fill="white"/>
<path d="M276.775 315.922C276.422 315.792 276.076 315.661 275.723 315.523L274.064 313.864L270.538 310.338L267.012 306.812L263.486 303.286L259.96 299.76L256.434 296.234L252.908 292.708L249.382 289.182L245.856 285.656L245.388 285.187C245.249 284.842 245.119 284.488 244.988 284.135L246.693 285.84L250.219 289.366L253.745 292.892L257.271 296.418L260.797 299.944L264.323 303.47L267.849 306.996L271.375 310.522L276.775 315.922Z" fill="white"/>
<path d="M277.598 313.864L274.072 310.338L270.546 306.812L267.02 303.286L263.494 299.76L259.968 296.234L256.442 292.708L252.916 289.182L249.39 285.656L245.864 282.13L243.644 279.91C243.56 279.611 243.483 279.319 243.406 279.019L246.709 282.322L250.235 285.848L253.761 289.374L257.287 292.9L260.813 296.426L264.339 299.952L267.865 303.478L271.391 307.004L274.917 310.53L278.443 314.056L281.907 317.52C281.608 317.444 281.316 317.359 281.016 317.282L277.598 313.864Z" fill="white"/>
<path d="M281.123 313.864L277.597 310.338L274.071 306.812L267.181 299.921L267.012 299.752L263.486 296.226L259.96 292.7L252.9 285.641L249.374 282.115L245.848 278.589L242.584 275.324C242.537 275.063 242.491 274.802 242.445 274.541L244.919 277.014L246.686 278.781L250.212 282.307L253.737 285.833L257.263 289.359L260.789 292.885L264.315 296.411L267.841 299.937L271.367 303.462L274.893 306.988L278.419 310.514L281.945 314.04L285.471 317.566L286.347 318.442C286.085 318.396 285.824 318.357 285.563 318.304L284.634 317.374L281.123 313.864Z" fill="white"/>
<path d="M328.827 223.925C331.823 226.337 334.55 229.064 336.962 232.06L334.066 229.164L330.54 225.638L328.827 223.925Z" fill="white"/>
<path d="M242.415 256.857L243.144 257.587L246.67 261.113L250.196 264.639L253.722 268.165L257.248 271.691L260.774 275.217L264.3 278.742L267.826 282.268L271.352 285.794L274.878 289.32L278.404 292.846L281.93 296.372L285.456 299.898L288.982 303.424L292.508 306.95L296.034 310.476L299.56 314.002L303.085 317.528L303.977 318.419C303.792 318.45 303.608 318.48 303.416 318.511L298.715 313.81L295.189 310.284L291.663 306.758L284.772 299.867L284.603 299.698L281.077 296.172L277.551 292.647L274.025 289.121L270.499 285.595L266.973 282.069L263.447 278.543L259.921 275.017L256.396 271.491L252.87 267.965L249.344 264.439L245.818 260.913L242.307 257.402C242.346 257.233 242.384 257.049 242.415 256.857Z" fill="white"/>
<path d="M241.992 259.968L243.145 261.12L246.67 264.646L250.196 268.172L253.722 271.698L259.015 276.991L260.782 278.758L264.308 282.284L267.834 285.81L271.36 289.335L274.886 292.861L278.412 296.387L281.938 299.913L285.464 303.439L288.989 306.965L292.515 310.491L296.041 314.017L299.567 317.543L300.881 318.857C300.681 318.88 300.481 318.895 300.289 318.918L298.73 317.359L295.204 313.833L291.678 310.307L288.152 306.781L284.626 303.255L281.1 299.729L277.574 296.203L274.048 292.677L266.989 285.617L263.463 282.092L259.937 278.566L254.229 272.858L252.885 271.514L249.359 267.988L245.833 264.462L242.307 260.936L241.938 260.567C241.954 260.36 241.969 260.168 241.992 259.968Z" fill="white"/>
<path d="M241.746 263.256L243.136 264.646L246.662 268.172L250.188 271.698L253.714 275.224L257.24 278.75L260.766 282.276L264.292 285.802L267.818 289.328L271.344 292.854L274.87 296.38L278.396 299.906L281.922 303.432L285.448 306.958L288.974 310.484L296.033 317.543L297.585 319.095C297.378 319.103 297.17 319.11 296.955 319.118L295.188 317.351L291.662 313.825L288.136 310.299L284.61 306.773L281.084 303.247L277.559 299.721L274.033 296.195L270.507 292.67L266.981 289.144L263.455 285.618L259.929 282.092L256.403 278.566L252.877 275.04L249.351 271.514L245.825 267.988L242.299 264.462L241.723 263.886C241.731 263.671 241.738 263.463 241.746 263.256Z" fill="white"/>
<path d="M246.54 243.345L246.671 243.475L250.197 247.001L253.722 250.527L257.248 254.053L260.774 257.579L264.3 261.105L267.826 264.631L271.352 268.157L274.878 271.683L278.404 275.209L281.93 278.735L285.456 282.261L288.982 285.787L292.508 289.313L296.034 292.838L299.56 296.364L303.086 299.89L306.612 303.416L310.138 306.942L313.663 310.468L317.189 313.994L317.474 314.278C317.328 314.348 317.174 314.417 317.028 314.478L316.521 313.971L316.352 313.802L312.826 310.276L309.3 306.75L305.774 303.224L302.248 299.698L298.722 296.172L295.196 292.646L291.67 289.121L288.145 285.595L284.619 282.069L281.093 278.543L277.567 275.017L274.041 271.491L270.515 267.965L266.989 264.439L263.463 260.913L259.937 257.387L256.411 253.861L252.885 250.335L249.359 246.809L246.34 243.79C246.409 243.644 246.479 243.491 246.54 243.345Z" fill="white"/>
<path d="M245.303 246.279C245.365 246.126 245.426 245.965 245.488 245.811L246.671 246.994L250.197 250.52L253.723 254.046L257.249 257.572L260.775 261.098L264.3 264.624L267.826 268.15L271.352 271.675L276.645 276.968L278.412 278.735L281.938 282.261L285.464 285.787L288.99 289.313L292.516 292.839L296.042 296.365L299.568 299.891L303.093 303.417L306.619 306.943L310.145 310.469L313.671 313.994L315.016 315.339C314.862 315.4 314.701 315.462 314.547 315.523L312.826 313.802L309.3 310.276L305.774 306.751L298.715 299.691L295.189 296.165L291.663 292.639L284.603 285.58L281.077 282.054L277.552 278.528L274.026 275.002L270.5 271.476L266.974 267.95L263.448 264.424L259.922 260.898L256.396 257.372L252.87 253.846L249.344 250.32L245.818 246.794L245.303 246.279Z" fill="white"/>
<path d="M250.304 236.516L253.73 239.942L257.256 243.468L260.782 246.993L264.308 250.519L267.834 254.045L271.36 257.571L274.886 261.097L278.412 264.623L281.938 268.149L285.464 271.675L288.99 275.201L292.515 278.727L296.041 282.253L299.567 285.779L303.093 289.305L306.619 292.831L310.145 296.357L313.671 299.883L317.197 303.409L320.723 306.934L324.249 310.46L324.303 310.514C324.172 310.599 324.042 310.683 323.911 310.768L323.412 310.268L319.886 306.742L316.36 303.217L312.834 299.691L309.308 296.165L305.782 292.639L298.722 285.579L295.196 282.053L291.67 278.527L285.963 272.82L284.619 271.475L281.093 267.949L277.567 264.423L274.041 260.897L270.515 257.372L266.989 253.846L263.463 250.32L259.937 246.794L256.411 243.268L252.885 239.742L250.043 236.9C250.127 236.777 250.212 236.646 250.304 236.516Z" fill="white"/>
<path d="M248.714 239.112C248.791 238.974 248.875 238.835 248.952 238.697L250.196 239.941L253.722 243.467L257.248 246.993L260.774 250.519L264.3 254.045L267.826 257.571L271.352 261.097L274.878 264.623L278.404 268.149L281.93 271.675L285.456 275.201L288.982 278.727L292.508 282.253L296.034 285.779L299.56 289.305L303.086 292.831L306.612 296.357L310.138 299.882L313.663 303.408L317.189 306.934L320.715 310.46L322.121 311.866C321.983 311.943 321.845 312.027 321.706 312.104L319.878 310.276L316.352 306.75L312.826 303.224L309.3 299.698L305.774 296.172L302.248 292.646L298.722 289.12L295.196 285.594L291.67 282.068L288.145 278.542L284.619 275.017L281.093 271.491L277.567 267.965L274.041 264.439L270.515 260.913L266.989 257.387L263.463 253.861L259.937 250.335L256.411 246.809L252.885 243.283L249.359 239.757L248.714 239.112Z" fill="white"/>
<path d="M254.552 230.831C254.652 230.716 254.752 230.601 254.852 230.478L257.256 232.882L260.782 236.408L264.308 239.934L267.834 243.46L271.36 246.986L274.886 250.512L278.412 254.038L281.938 257.564L285.464 261.09L288.99 264.616L292.516 268.142L296.042 271.668L299.568 275.194L303.094 278.72L306.62 282.246L310.146 285.771L313.671 289.297L317.197 292.823L320.723 296.349L327.783 303.409L330.349 305.975C330.233 306.074 330.118 306.174 329.995 306.274L326.946 303.225L323.42 299.699L319.894 296.173L316.368 292.647L312.842 289.121L309.316 285.595L305.79 282.069L302.264 278.543L298.738 275.017L295.212 271.491L291.686 267.965L288.16 264.439L284.634 260.913L281.108 257.387L277.582 253.861L274.056 250.335L270.531 246.809L267.005 243.283L263.479 239.758L259.953 236.232L256.427 232.706L254.552 230.831Z" fill="white"/>
<path d="M256.219 228.972C256.327 228.857 256.427 228.749 256.534 228.634L257.256 229.356L260.782 232.882L264.308 236.408L267.834 239.934L271.36 243.46L274.886 246.986L278.412 250.512L281.938 254.038L285.464 257.564L288.99 261.09L292.516 264.616L296.042 268.141L299.568 271.667L303.093 275.193L306.619 278.719L310.145 282.245L313.671 285.771L317.197 289.297L320.723 292.823L324.249 296.349L327.775 299.875L331.301 303.401L332.177 304.277C332.069 304.384 331.954 304.484 331.839 304.592L330.456 303.209L326.93 299.683L323.404 296.157L319.878 292.631L316.352 289.105L312.826 285.579L309.3 282.053L305.774 278.527L298.976 271.729L298.715 271.468L295.189 267.942L291.663 264.416L288.137 260.89L284.611 257.364L281.085 253.838L277.559 250.312L274.033 246.786L270.507 243.26L266.981 239.734L263.455 236.208L259.93 232.682L256.404 229.156L256.219 228.972Z" fill="white"/>
<path d="M252.962 232.775C253.054 232.652 253.154 232.529 253.246 232.414L253.722 232.89L257.248 236.416L260.774 239.942L264.3 243.468L267.826 246.994L271.352 250.52L274.878 254.046L278.404 257.572L281.93 261.098L285.456 264.624L288.981 268.149L292.507 271.675L296.033 275.201L299.559 278.727L303.085 282.253L309.976 289.144L310.145 289.313L313.671 292.839L317.197 296.365L320.723 299.891L324.249 303.417L327.775 306.943L328.412 307.58C328.289 307.68 328.166 307.772 328.043 307.864L326.93 306.75L323.404 303.225L319.878 299.699L316.352 296.173L312.826 292.647L309.3 289.121L305.774 285.595L302.248 282.069L298.722 278.543L295.196 275.017L291.67 271.491L288.144 267.965L284.618 264.439L281.092 260.913L277.566 257.387L274.04 253.861L270.514 250.335L266.989 246.809L263.463 243.284L259.937 239.758L256.411 236.232L252.962 232.775Z" fill="white"/>
<path d="M257.971 227.19C258.078 227.082 258.186 226.975 258.301 226.867L260.79 229.356L264.316 232.882L267.842 236.408L271.368 239.934L274.894 243.46L278.42 246.986L281.946 250.512L285.472 254.038L288.997 257.564L292.523 261.09L296.049 264.616L299.575 268.142L303.101 271.667L308.394 276.96L310.161 278.727L313.687 282.253L317.213 285.779L320.739 289.305L324.265 292.831L327.791 296.357L331.316 299.883L333.959 302.525C333.851 302.633 333.744 302.748 333.636 302.856L330.479 299.698L326.953 296.172L323.427 292.646L316.368 285.587L312.842 282.061L309.316 278.535L305.79 275.009L302.264 271.483L298.738 267.957L295.212 264.431L291.686 260.905L288.16 257.379L284.634 253.853L281.108 250.327L277.582 246.802L274.056 243.276L270.53 239.75L267.004 236.224L263.479 232.698L259.953 229.172L257.971 227.19Z" fill="white"/>
<path d="M289.028 215.237L292.554 218.763L296.08 222.289L299.606 225.815L303.131 229.341L306.657 232.867L310.183 236.393L313.709 239.919L317.235 243.445L320.761 246.971L324.287 250.497L327.813 254.023L331.339 257.549L334.865 261.075L338.391 264.6L341.917 268.126L345.443 271.652L348.047 274.257C348.016 274.441 347.985 274.633 347.955 274.817L344.605 271.468L341.079 267.942L337.554 264.416L334.028 260.89L330.502 257.364L326.976 253.838L323.45 250.312L319.924 246.786L316.398 243.26L312.872 239.735L309.346 236.209L305.82 232.683L302.294 229.157L298.768 225.631L295.242 222.105L291.716 218.579L288.19 215.053L286.024 212.887C286.208 212.856 286.393 212.825 286.585 212.794L289.028 215.237Z" fill="white"/>
<path d="M292.554 215.237L296.08 218.763L299.606 222.289L303.132 225.815L306.658 229.341L310.184 232.867L313.709 236.393L317.235 239.919L320.761 243.445L324.287 246.97L327.813 250.496L331.339 254.022L334.865 257.548L338.391 261.074L341.917 264.6L345.443 268.126L348.462 271.145C348.439 271.337 348.416 271.537 348.393 271.729L348.132 271.468L344.606 267.942L341.08 264.416L337.554 260.89L334.028 257.364L330.502 253.838L326.976 250.312L323.45 246.786L319.924 243.26L316.398 239.734L312.872 236.208L309.346 232.682L305.82 229.156L302.294 225.63L298.768 222.105L295.242 218.579L291.717 215.053L289.105 212.441C289.297 212.418 289.496 212.395 289.689 212.372L292.554 215.237Z" fill="white"/>
<path d="M296.088 215.237L299.614 218.763L303.139 222.289L306.665 225.815L310.191 229.341L313.717 232.867L317.243 236.393L320.769 239.919L324.295 243.445L327.821 246.971L331.347 250.497L334.873 254.023L338.399 257.548L341.925 261.074L345.451 264.6L348.7 267.85C348.693 268.057 348.685 268.265 348.669 268.472L348.132 267.934L344.606 264.408L341.08 260.882L337.554 257.356L334.028 253.83L330.502 250.305L326.976 246.779L323.45 243.253L319.924 239.727L316.398 236.201L312.872 232.675L309.346 229.149L305.82 225.623L302.294 222.097L298.769 218.571L295.243 215.045L292.354 212.157C292.562 212.149 292.769 212.141 292.976 212.126L296.088 215.237Z" fill="white"/>
<path d="M299.613 215.237L303.139 218.763L306.665 222.289L310.191 225.815L313.717 229.341L317.243 232.867L320.769 236.393L324.295 239.919L327.821 243.445L331.347 246.971L334.873 250.497L338.399 254.023L341.925 257.549L345.451 261.074L348.738 264.362C348.746 264.585 348.746 264.8 348.746 265.023L348.139 264.416L344.613 260.89L341.087 257.364L337.561 253.838L334.035 250.312L330.51 246.786L326.984 243.26L323.458 239.734L319.932 236.208L316.406 232.683L312.88 229.157L309.354 225.631L305.828 222.105L302.302 218.579L298.776 215.053L295.819 212.095C296.041 212.095 296.256 212.095 296.479 212.103L299.613 215.237Z" fill="white"/>
<path d="M306.673 215.237L310.199 218.763L313.725 222.289L317.251 225.815L320.777 229.341L324.303 232.867L327.829 236.393L331.355 239.919L334.881 243.444L338.407 246.97L341.933 250.496L345.459 254.022L348.001 256.565C348.047 256.826 348.093 257.087 348.132 257.348L344.621 253.838L341.095 250.312L337.569 246.786L334.043 243.26L330.517 239.734L326.992 236.208L323.466 232.682L319.94 229.156L316.414 225.63L312.888 222.104L309.362 218.578L305.836 215.053L303.508 212.725C303.77 212.763 304.031 212.809 304.292 212.856L306.673 215.237Z" fill="white"/>
<path d="M305.835 317.397L302.309 313.871L298.783 310.345L295.257 306.819L291.731 303.293L288.205 299.767L284.68 296.242L281.154 292.716L277.628 289.19L274.102 285.664L270.576 282.138L267.05 278.612L263.524 275.086L259.998 271.56L256.472 268.034L252.946 264.508L249.42 260.982L245.894 257.456L242.937 254.499C242.975 254.322 243.013 254.145 243.052 253.961L243.206 254.115L246.731 257.641L250.257 261.166L253.783 264.692L257.309 268.218L260.835 271.744L264.361 275.27L267.887 278.796L271.413 282.322L278.304 289.213L278.473 289.382L281.999 292.908L285.525 296.434L289.05 299.96L292.576 303.485L296.102 307.011L299.628 310.537L303.154 314.063L306.68 317.589L306.995 317.904C306.818 317.943 306.642 317.981 306.457 318.019L305.835 317.397Z" fill="white"/>
<path d="M305.835 313.863L302.309 310.337L298.784 306.811L295.258 303.286L291.732 299.76L288.206 296.234L284.68 292.708L281.154 289.182L277.628 285.656L274.102 282.13L270.576 278.604L267.05 275.078L263.524 271.552L259.998 268.026L256.472 264.5L252.946 260.974L249.42 257.448L245.894 253.922L243.621 251.649C243.667 251.48 243.713 251.303 243.759 251.134L246.732 254.107L250.258 257.633L253.784 261.159L257.31 264.685L260.835 268.21L264.361 271.736L267.887 275.262L271.413 278.788L274.939 282.314L278.465 285.84L281.991 289.366L285.517 292.892L289.043 296.418L296.103 303.478L299.629 307.004L303.154 310.529L309.822 317.197C309.653 317.243 309.484 317.289 309.308 317.336L305.835 313.863Z" fill="white"/>
<path d="M309.362 313.863L305.836 310.337L302.31 306.812L298.784 303.286L295.258 299.76L291.732 296.234L288.206 292.708L284.68 289.182L281.154 285.656L277.628 282.13L274.103 278.604L268.395 272.896L267.051 271.552L263.525 268.026L259.999 264.5L256.473 260.974L252.947 257.448L249.421 253.922L245.895 250.396L244.435 248.937C244.489 248.776 244.543 248.607 244.597 248.445L246.732 250.581L250.258 254.107L253.784 257.633L257.31 261.159L260.836 264.685L264.362 268.211L267.888 271.736L271.414 275.262L274.94 278.788L278.466 282.314L281.992 285.84L285.518 289.366L289.044 292.892L292.57 296.418L296.095 299.944L299.621 303.47L303.147 306.996L306.673 310.522L310.199 314.048L312.496 316.345C312.335 316.398 312.166 316.452 312.004 316.506L309.362 313.863Z" fill="white"/>
<path d="M312.919 215.076C313.257 215.191 313.595 215.314 313.933 215.444L317.259 218.771L320.785 222.296L324.311 225.822L327.837 229.348L331.363 232.874L334.889 236.4L338.415 239.926L341.94 243.452L345.42 246.932C345.543 247.27 345.666 247.608 345.789 247.946L344.637 246.794L341.111 243.268L337.585 239.742L334.059 236.216L330.533 232.69L327.007 229.164L323.481 225.638L319.955 222.112L316.429 218.586L312.919 215.076Z" fill="white"/>
<path d="M316.421 310.337L312.895 306.811L309.369 303.286L305.843 299.76L302.317 296.234L298.791 292.708L295.265 289.182L291.739 285.656L288.214 282.13L284.688 278.604L281.162 275.078L277.636 271.552L274.11 268.026L270.584 264.5L267.058 260.974L263.532 257.448L260.006 253.922L256.48 250.396L252.954 246.87L249.428 243.345L247.546 241.462C247.623 241.317 247.692 241.178 247.769 241.032L250.265 243.529L253.791 247.055L257.317 250.581L260.843 254.107L264.369 257.633L267.895 261.159L271.421 264.685L274.947 268.21L278.473 271.736L281.999 275.262L285.525 278.788L289.051 282.314L296.11 289.374L299.636 292.9L303.162 296.426L310.053 303.316L310.222 303.485L313.748 307.011L317.274 310.537L319.932 313.195C319.786 313.272 319.647 313.341 319.501 313.418L316.421 310.337Z" fill="white"/>
<path d="M320.346 218.325L320.792 218.771L324.318 222.297L327.844 225.823L331.37 229.349L334.896 232.875L338.422 236.401L341.947 239.927L342.539 240.518C342.777 240.964 343 241.409 343.223 241.855L341.102 239.735L337.577 236.209L334.051 232.683L330.525 229.157L326.999 225.631L323.473 222.105L319.947 218.579L319.01 217.642C319.455 217.864 319.901 218.087 320.346 218.325Z" fill="white"/>
<path d="M323.481 306.804L316.59 299.921L316.421 299.752L312.895 296.226L309.369 292.7L305.843 289.174L302.317 285.648L298.791 282.123L295.265 278.597L291.739 275.071L288.213 271.545L284.687 268.019L281.162 264.493L277.636 260.967L274.11 257.441L270.584 253.915L267.058 250.389L263.532 246.863L260.006 243.337L256.48 239.811L252.954 236.285L251.525 234.857C251.617 234.726 251.702 234.603 251.794 234.48L253.791 236.477L257.317 240.003L260.843 243.529L264.369 247.055L267.895 250.581L271.421 254.107L274.947 257.633L278.473 261.159L281.999 264.685L285.525 268.211L289.051 271.737L296.11 278.796L299.636 282.322L303.162 285.848L306.688 289.374L310.214 292.9L313.74 296.426L317.266 299.952L320.792 303.478L324.318 307.004L326.469 309.155C326.346 309.247 326.215 309.339 326.092 309.424L323.481 306.804Z" fill="white"/>
<path d="M335.702 300.728C335.602 300.843 335.495 300.958 335.395 301.073L334.066 299.745L330.54 296.219L327.014 292.693L323.488 289.167L319.962 285.641L316.436 282.115L312.91 278.589L309.384 275.063L305.858 271.537L302.332 268.011L298.807 264.485L295.281 260.959L291.755 257.433L288.229 253.907L284.703 250.381L281.177 246.855L277.651 243.329L274.125 239.804L270.599 236.278L267.073 232.752L263.547 229.226L260.021 225.7L259.875 225.554C259.99 225.454 260.106 225.346 260.221 225.247L260.858 225.884L264.384 229.41L267.91 232.936L271.436 236.462L274.962 239.988L278.488 243.514L282.014 247.04L285.54 250.566L289.066 254.092L292.592 257.618L296.118 261.144L299.644 264.669L303.17 268.195L306.696 271.721L310.222 275.247L313.748 278.773L317.274 282.299L320.799 285.825L324.325 289.351L327.851 292.877L331.377 296.403L334.903 299.929L335.702 300.728Z" fill="white"/>
<path d="M338.813 296.787C338.721 296.91 338.629 297.04 338.537 297.163L337.592 296.218L334.066 292.692L330.54 289.166L327.014 285.641L323.488 282.115L319.962 278.589L316.436 275.063L312.91 271.537L309.385 268.011L305.859 264.485L302.333 260.959L298.807 257.433L295.281 253.907L291.755 250.381L288.229 246.855L284.703 243.329L281.177 239.803L277.651 236.277L274.125 232.751L270.599 229.225L267.073 225.7L263.785 222.412C263.908 222.32 264.039 222.227 264.162 222.135L264.385 222.358L267.911 225.884L271.436 229.41L274.962 232.936L278.488 236.462L282.014 239.988L285.54 243.514L289.066 247.04L292.592 250.566L296.118 254.091L299.644 257.617L303.17 261.143L306.696 264.669L310.222 268.195L313.748 271.721L317.274 275.247L320.8 278.773L324.326 282.299L327.852 285.825L331.378 289.351L334.903 292.877L338.429 296.403L338.813 296.787Z" fill="white"/>
<path d="M337.6 292.693L330.54 285.633L327.014 282.107L323.488 278.581L317.781 272.874L316.436 271.529L312.91 268.003L309.384 264.477L305.858 260.951L302.332 257.425L298.806 253.899L295.281 250.374L291.755 246.848L288.229 243.322L284.703 239.796L281.177 236.27L277.651 232.744L274.125 229.218L270.599 225.692L267.073 222.166L265.867 220.96C265.998 220.875 266.128 220.783 266.259 220.699L267.91 222.35L271.436 225.876L274.962 229.402L278.488 232.928L282.014 236.454L285.54 239.98L289.066 243.506L292.592 247.032L296.118 250.558L299.644 254.084L303.17 257.61L306.696 261.136L310.222 264.662L313.748 268.188L317.274 271.714L320.799 275.24L324.325 278.765L327.851 282.291L331.377 285.817L334.903 289.343L338.429 292.869L340.234 294.674C340.15 294.805 340.065 294.936 339.973 295.066L337.6 292.693Z" fill="white"/>
<path d="M337.008 299.161L334.066 296.219L330.54 292.693L327.014 289.167L323.488 285.641L319.962 282.115L316.436 278.589L312.91 275.063L309.384 271.537L305.858 268.011L302.332 264.485L298.806 260.959L295.28 257.433L291.754 253.907L288.229 250.381L284.703 246.855L281.177 243.329L277.651 239.804L274.125 236.278L270.599 232.752L267.073 229.226L263.547 225.7L261.788 223.941C261.911 223.841 262.026 223.749 262.149 223.649L264.384 225.884L267.91 229.41L271.436 232.936L274.962 236.462L278.488 239.988L282.014 243.514L285.54 247.04L289.066 250.566L292.592 254.092L296.118 257.618L299.644 261.144L303.17 264.669L306.696 268.195L310.221 271.721L313.747 275.247L317.273 278.773L320.799 282.299L327.859 289.359L331.385 292.885L334.911 296.411L337.3 298.8C337.208 298.923 337.108 299.038 337.008 299.161Z" fill="white"/>
<path d="M341.971 289.351L342.839 290.219C342.762 290.365 342.693 290.503 342.616 290.649L341.134 289.167L337.608 285.641L334.082 282.115L330.556 278.589L327.03 275.063L323.504 271.537L319.978 268.011L316.452 264.485L312.926 260.959L309.4 257.433L305.874 253.907L302.348 250.381L298.822 246.855L295.296 243.329L291.77 239.803L288.244 236.278L284.718 232.752L281.192 229.226L277.667 225.7L274.141 222.174L270.615 218.648L270.315 218.348C270.453 218.271 270.599 218.195 270.738 218.125L271.452 218.84L274.978 222.366L278.504 225.892L282.03 229.418L285.556 232.944L289.082 236.47L292.608 239.995L296.134 243.521L299.66 247.047L303.185 250.573L306.711 254.099L310.237 257.625L313.763 261.151L317.289 264.677L320.815 268.203L324.341 271.729L327.867 275.255L331.393 278.781L334.919 282.307L341.81 289.197L341.971 289.351Z" fill="white"/>
<path d="M341.126 285.633L337.6 282.107L334.074 278.581L330.548 275.055L327.022 271.529L323.496 268.003L319.97 264.478L316.444 260.952L312.918 257.426L309.393 253.9L305.867 250.374L302.341 246.848L298.815 243.322L295.289 239.796L291.763 236.27L288.237 232.744L284.711 229.218L281.185 225.692L277.659 222.166L274.133 218.64L272.658 217.165C272.804 217.096 272.95 217.027 273.104 216.958L274.978 218.832L278.504 222.358L282.03 225.884L285.556 229.41L289.082 232.936L292.608 236.462L296.134 239.988L299.66 243.514L303.186 247.04L306.712 250.566L310.238 254.092L313.763 257.618L317.289 261.144L320.815 264.67L324.341 268.196L327.867 271.722L331.393 275.247L334.919 278.773L338.445 282.299L341.971 285.825L343.999 287.846C343.93 287.992 343.861 288.145 343.792 288.291L341.126 285.633Z" fill="white"/>
<path d="M341.341 292.908L341.126 292.693L337.6 289.167L334.074 285.641L330.548 282.115L327.022 278.589L323.496 275.063L319.97 271.537L316.445 268.011L312.919 264.485L309.393 260.959L305.867 257.433L302.341 253.907L298.815 250.381L295.289 246.855L291.763 243.33L288.237 239.804L284.711 236.278L281.185 232.752L277.659 229.226L274.133 225.7L270.607 222.174L268.042 219.608C268.18 219.524 268.31 219.447 268.449 219.37L271.445 222.366L274.971 225.892L278.496 229.418L282.022 232.944L285.548 236.47L289.074 239.996L292.6 243.522L296.126 247.047L299.652 250.573L303.178 254.099L306.704 257.625L310.23 261.151L313.756 264.677L317.282 268.203L320.808 271.729L327.867 278.789L331.393 282.315L334.919 285.841L338.445 289.366L341.595 292.516C341.51 292.631 341.426 292.77 341.341 292.908Z" fill="white"/>
<path d="M344.659 250.343L341.133 246.817L337.607 243.291L334.081 239.765L330.555 236.239L327.029 232.713L323.503 229.187L319.977 225.661L316.452 222.135L312.926 218.609L309.4 215.083L307.948 213.631C308.24 213.701 308.524 213.77 308.816 213.847L310.245 215.275L313.771 218.801L317.297 222.327L320.822 225.853L324.348 229.379L327.874 232.905L331.4 236.431L334.926 239.957L338.452 243.483L341.978 247.009L345.504 250.535L347.079 252.11C347.156 252.394 347.225 252.686 347.294 252.978L344.659 250.343Z" fill="white"/>
<path d="M344.659 275.048L341.133 271.522L337.607 267.996L334.081 264.47L330.555 260.944L327.03 257.418L323.504 253.892L319.978 250.366L316.452 246.84L312.926 243.314L309.4 239.788L305.874 236.262L302.348 232.736L298.822 229.211L295.296 225.685L291.77 222.159L288.244 218.633L284.718 215.107L283.143 213.532C283.32 213.494 283.497 213.455 283.673 213.417L285.556 215.299L289.081 218.825L292.607 222.351L296.133 225.877L299.659 229.403L303.185 232.929L306.711 236.454L310.237 239.98L313.763 243.506L317.289 247.032L320.815 250.558L324.341 254.084L327.867 257.61L331.393 261.136L334.919 264.662L338.445 268.188L341.971 271.714L345.497 275.24L347.532 277.275C347.494 277.452 347.455 277.629 347.417 277.806L344.659 275.048Z" fill="white"/>
<path d="M345.827 283.275L344.66 282.107L341.134 278.581L337.608 275.055L334.082 271.53L330.556 268.004L327.03 264.478L323.504 260.952L319.978 257.426L316.452 253.9L312.926 250.374L309.4 246.848L305.874 243.322L302.348 239.796L298.822 236.27L295.296 232.744L291.77 229.218L288.245 225.692L284.719 222.166L281.193 218.64L277.674 215.122C277.836 215.068 277.997 215.007 278.158 214.953L278.504 215.299L282.03 218.825L285.556 222.351L289.082 225.877L292.608 229.403L296.134 232.929L299.66 236.454L303.186 239.98L306.712 243.506L310.237 247.032L313.763 250.558L317.289 254.084L320.815 257.61L324.341 261.136L327.867 264.662L331.393 268.188L334.919 271.714L340.212 277.007L341.979 278.773L345.505 282.299L346.004 282.799C345.942 282.952 345.881 283.114 345.827 283.275Z" fill="white"/>
<path d="M344.66 278.573L341.126 275.047L337.6 271.521L334.074 267.995L330.548 264.469L327.022 260.943L323.496 257.417L319.971 253.892L316.445 250.366L312.919 246.84L309.393 243.314L305.867 239.788L302.341 236.262L298.815 232.736L295.289 229.21L291.763 225.684L288.237 222.158L284.711 218.632L281.185 215.106L280.34 214.261C280.509 214.215 280.678 214.161 280.847 214.115L282.022 215.291L285.548 218.816L289.074 222.342L292.6 225.868L296.126 229.394L299.652 232.92L303.178 236.446L306.704 239.972L310.23 243.498L313.756 247.024L317.282 250.55L320.808 254.076L324.334 257.602L327.86 261.128L331.386 264.654L334.912 268.18L338.438 271.706L341.963 275.232L345.489 278.757L346.818 280.086C346.772 280.255 346.726 280.424 346.672 280.593L344.66 278.573Z" fill="white"/>
<path d="M344.859 285.833L344.659 285.633L341.133 282.107L337.607 278.581L330.809 271.783L330.547 271.522L327.021 267.996L323.496 264.47L319.97 260.944L316.444 257.418L312.918 253.892L309.392 250.366L305.866 246.84L302.34 243.314L298.814 239.788L295.288 236.262L291.762 232.736L288.236 229.21L284.71 225.684L281.184 222.158L277.658 218.633L275.108 216.082C275.262 216.021 275.415 215.952 275.569 215.89L278.496 218.817L282.022 222.343L285.547 225.869L289.073 229.395L292.599 232.921L296.125 236.447L299.651 239.973L303.177 243.498L306.703 247.024L310.229 250.55L313.755 254.076L317.281 257.602L320.807 261.128L324.333 264.654L327.859 268.18L331.385 271.706L334.911 275.232L338.437 278.758L341.963 282.284L345.043 285.364C344.982 285.526 344.92 285.679 344.859 285.833Z" fill="white"/>
<path d="M348.185 260.928L344.659 257.402L341.133 253.876L337.607 250.35L334.082 246.824L330.556 243.298L327.03 239.772L323.504 236.246L319.978 232.72L316.452 229.195L312.926 225.669L309.4 222.143L305.874 218.617L302.348 215.091L299.552 212.295C299.79 212.31 300.028 212.333 300.266 212.356L303.185 215.275L306.711 218.801L310.237 222.327L313.763 225.853L317.289 229.379L320.815 232.905L324.341 236.431L327.867 239.957L331.393 243.483L334.919 247.009L338.445 250.535L341.971 254.061L345.497 257.586L348.569 260.659C348.592 260.897 348.615 261.135 348.631 261.374L348.185 260.928Z" fill="white"/>
</g>
</g>
<path d="M161.219 162.533H245.296V301.757H161.219V162.533Z" fill="#9C84F4" stroke="#251F47" stroke-width="0.768179" stroke-miterlimit="10" stroke-linecap="round" stroke-linejoin="round"/>
<path opacity="0.3" d="M345.358 244.459H390.112V301.98H345.358V244.459Z" fill="#A696E7" stroke="#251F47" stroke-width="0.768179" stroke-miterlimit="10" stroke-linecap="round" stroke-linejoin="round"/>
<path d="M402.926 302.032L88.0134 302.032" stroke="#251F47" stroke-width="0.867527" stroke-miterlimit="10"/>
<path d="M303.216 137.544C303.216 138.85 304.268 139.903 305.574 139.903C306.88 139.903 307.933 138.85 307.933 137.544C307.933 136.238 306.88 135.186 305.574 135.186C304.276 135.186 303.216 136.246 303.216 137.544Z" stroke="white" stroke-width="0.768179" stroke-miterlimit="10" stroke-linecap="round" stroke-linejoin="round"/>
<path d="M46.7667 5.71662C45.4642 5.71662 44.4084 4.66077 44.4084 3.35831C44.4084 2.05585 45.4642 1 46.7667 1C48.0691 1 49.125 2.05585 49.125 3.35831C49.125 4.66077 48.0691 5.71662 46.7667 5.71662Z" stroke="white" stroke-width="0.768179" stroke-miterlimit="10" stroke-linecap="round" stroke-linejoin="round"/>
<path d="M0.999403 135.186C0.999403 137.79 3.11186 139.902 5.71599 139.902C8.32011 139.902 10.4326 137.79 10.4326 135.186C10.4326 132.582 8.32011 130.469 5.71599 130.469C3.11186 130.469 0.999403 132.582 0.999403 135.186Z" stroke="white" stroke-width="0.768179" stroke-miterlimit="10" stroke-linecap="round" stroke-linejoin="round"/>
<path d="M247.945 58.5677L260.06 44.1489H247.945V58.5677Z" stroke="white" stroke-width="0.768179" stroke-miterlimit="10" stroke-linecap="round" stroke-linejoin="round"/>
<path d="M301.948 44.1408V6.26956H247.945V35.5065V44.1408V44.1485H260.059L260.067 44.1408H301.948Z" stroke="white" stroke-width="0.768179" stroke-miterlimit="10" stroke-linecap="round" stroke-linejoin="round"/>
<path d="M261.058 19.6667H292.031" stroke="white" stroke-width="0.768179" stroke-miterlimit="10" stroke-linecap="round" stroke-linejoin="round"/>
<path d="M261.058 31.0205H284.388" stroke="white" stroke-width="0.768179" stroke-miterlimit="10" stroke-linecap="round" stroke-linejoin="round"/>
<path d="M114.866 152.869L96.3377 130.815H114.866V152.869Z" stroke="white" stroke-width="0.768179" stroke-miterlimit="10" stroke-linecap="round" stroke-linejoin="round"/>
<path d="M32.2793 130.807V72.8938H114.866V117.602V130.807V130.815H96.3377L96.33 130.807H32.2793Z" stroke="white" stroke-width="0.768179" stroke-miterlimit="10" stroke-linecap="round" stroke-linejoin="round"/>
<path d="M94.8164 93.3741H47.4351" stroke="white" stroke-width="0.768179" stroke-miterlimit="10" stroke-linecap="round" stroke-linejoin="round"/>
<path d="M94.8164 110.742H59.1345" stroke="white" stroke-width="0.768179" stroke-miterlimit="10" stroke-linecap="round" stroke-linejoin="round"/>
<path d="M213.555 113.193L264.761 124.339C265.906 124.585 267.074 124.039 267.627 123.002L290.956 71.0273C292.239 68.6152 295.235 67.7011 297.647 68.9762L299.184 69.7905L274.963 130.753L274.924 130.822C274.218 132.151 272.689 132.82 271.237 132.436L208.853 116.173C209.345 114.068 211.435 112.747 213.555 113.193Z" fill="#9C84F4"/>
<path d="M296.955 203.539C296.955 203.539 301.134 212.181 304.238 214.147L312.757 216.168C316.759 216.644 318.096 219.532 318.096 219.532L295.58 229.949L284.749 208.808L296.955 203.539Z" fill="#251F47"/>
<path d="M180.284 128.456C180.284 128.456 233.896 130.469 259.046 134.287C266.32 135.393 272.612 139.956 275.999 146.493L305.582 203.653L279.379 217.435L249.036 162.51L193.866 160.866L180.284 128.456Z" fill="#795DED" stroke="#251F47" stroke-width="0.768179" stroke-miterlimit="10" stroke-linecap="round" stroke-linejoin="round"/>
<path d="M178.179 115.467C178.878 117.794 179.938 120.014 181.444 121.927C193.996 137.867 220.022 118.386 241.293 118.547C244.227 118.57 246.831 118.624 247.461 119.569C248.521 121.151 249.774 123.433 250.542 123.371C251.425 123.295 250.042 120.191 249.259 117.856C249.259 117.856 251.878 124.316 252.839 123.963C253.999 123.533 251.041 116.174 251.041 116.174C251.041 116.174 254.805 123.709 255.773 122.542C256.741 121.374 252.647 114.668 252.647 114.668C252.647 114.668 256.518 120.644 257.763 120.045C258.769 119.554 255.489 115.006 252.117 111.403C250.119 109.275 247.523 107.808 244.65 107.263C241.907 106.74 237.874 106.418 232.113 106.84C232.113 106.84 210.619 109.237 192.721 112.148L185.784 80.0538C184.932 76.1053 181.943 72.8713 178.003 71.9648C174.922 71.2581 171.458 71.5731 169.184 75.1605C167.571 77.7108 167.302 80.8834 168.208 83.7641L178.179 115.467Z" fill="white" stroke="#251F47" stroke-width="0.768179" stroke-miterlimit="10" stroke-linecap="round" stroke-linejoin="round"/>
<path d="M245.833 216.298C245.833 216.298 239.941 227.122 240.241 230.786L243.751 238.813C245.779 242.301 244.274 245.097 244.274 245.097L222.411 233.375L232.82 211.935L245.833 216.298Z" fill="#251F47"/>
<path d="M174.892 121.658C174.892 121.658 249.789 117.226 271.367 137.544C288.759 153.922 250.404 224.295 250.404 224.295L223.11 212.803L245.295 163.201L181.559 162.372C181.559 162.372 155.649 154.967 162.317 121.658H174.892Z" fill="#795DED" stroke="#251F47" stroke-width="0.768179" stroke-miterlimit="10" stroke-linecap="round" stroke-linejoin="round"/>
<path d="M137.197 70.0288C137.197 70.0288 135.599 61.8323 144.84 58.4754C153.114 55.4718 153.882 46.9604 153.882 46.9604C153.882 46.9604 156.524 40.3003 163.983 40.7228C171.442 41.1376 167.694 28.501 180.399 25.9891C182.304 25.6127 184.064 26.3732 185.6 27.656C190.317 31.5891 191.085 38.5565 187.72 43.6879L170.428 70.0211H137.197V70.0288Z" fill="#9C84F4" stroke="#251F47" stroke-width="0.768179" stroke-miterlimit="10" stroke-linecap="round" stroke-linejoin="round"/>
<path d="M185.186 77.1038L193.336 56.7854L186.238 46.7223L168.739 72.5177L185.186 77.1038Z" fill="white" stroke="#251F47" stroke-width="0.768179" stroke-miterlimit="10" stroke-linecap="round" stroke-linejoin="round"/>
<path d="M190.179 63.3074L186.63 57.5999L191.915 59.0901L190.179 63.3074Z" fill="#251F47" stroke="#251F47" stroke-width="0.768179" stroke-miterlimit="10" stroke-linecap="round" stroke-linejoin="round"/>
<path d="M172.441 32.6801C168.07 41.1608 175.644 53.7666 184.655 58.4141C193.666 63.0615 200.833 60.0349 204.236 51.124C207.409 42.8047 205.68 30.3909 196.677 25.7434C187.666 21.0959 176.82 24.1994 172.441 32.6801Z" fill="white" stroke="#251F47" stroke-width="0.768179" stroke-miterlimit="10" stroke-linecap="round" stroke-linejoin="round"/>
<path d="M171.55 35.0617C174.408 26.0894 183.472 21.7108 193.244 24.4147C200.933 26.5426 205.888 34.0554 206.41 41.6373C206.303 41.668 200.203 41.476 197.599 34.716C197.599 34.716 196.877 45.5934 185.4 43.4809L180.3 55.4722C173.501 52.3227 168.385 44.9943 171.55 35.0617Z" fill="#9C84F4" stroke="#251F47" stroke-width="0.768179" stroke-miterlimit="10" stroke-linecap="round" stroke-linejoin="round"/>
<path d="M195.341 54.1276C195.341 54.1276 192.875 53.9432 192.483 51.1701L195.341 54.1276Z" fill="white"/>
<path d="M195.341 54.1276C195.341 54.1276 192.875 53.9432 192.483 51.1701" stroke="#251F47" stroke-width="0.768179" stroke-miterlimit="10" stroke-linecap="round" stroke-linejoin="round"/>
<path d="M184.14 51.6615C183.05 51.3466 182.02 50.6014 181.314 49.503C179.892 47.306 180.292 44.5328 182.197 43.2961C183.495 42.4588 184.847 42.7583 186.022 43.7262" fill="white"/>
<path d="M184.14 51.6615C183.05 51.3466 182.02 50.6014 181.314 49.503C179.892 47.306 180.292 44.5328 182.197 43.2961C183.495 42.4588 184.847 42.7583 186.022 43.7262" stroke="#251F47" stroke-width="0.768179" stroke-miterlimit="10" stroke-linecap="round" stroke-linejoin="round"/>
<path d="M185.6 48.8114C185.6 48.8114 185.07 46.6836 183.195 47.083L185.6 48.8114Z" fill="white"/>
<path d="M185.6 48.8114C185.6 48.8114 185.07 46.6836 183.195 47.083" stroke="#251F47" stroke-width="0.768179" stroke-miterlimit="10" stroke-linecap="round" stroke-linejoin="round"/>
<path d="M179.07 23.946C178.886 27.1954 176.105 29.6766 172.863 29.4923C169.614 29.3079 167.133 26.5271 167.317 23.2854C167.501 20.036 170.282 17.5548 173.524 17.7391C176.766 17.9235 179.247 20.7043 179.07 23.946Z" fill="#9C84F4" stroke="#251F47" stroke-width="0.768179" stroke-miterlimit="10" stroke-linecap="round" stroke-linejoin="round"/>
<path d="M189.272 70.8508L171.934 64.6593C171.934 64.6593 151.148 99.1659 150.402 122.111C150.402 122.111 174.892 121.658 195.979 121.42L189.272 70.8508Z" fill="#251F47"/>
<mask id="mask1_3068_12718" style="mask-type:luminance" maskUnits="userSpaceOnUse" x="150" y="64" width="46" height="59">
<path d="M189.272 70.8508L171.934 64.6593C171.934 64.6593 151.148 99.1659 150.402 122.111C150.402 122.111 174.892 121.658 195.979 121.42L189.272 70.8508Z" fill="white"/>
</mask>
<g mask="url(#mask1_3068_12718)">
<path d="M185.031 80.9674H178.049" stroke="white" stroke-width="0.768179" stroke-miterlimit="10" stroke-linecap="round" stroke-linejoin="round"/>
<path d="M181.536 73.985L175.03 71.281" stroke="white" stroke-width="0.768179" stroke-miterlimit="10" stroke-linecap="round" stroke-linejoin="round"/>
<path d="M170.582 73.3474V80.9677" stroke="white" stroke-width="0.768179" stroke-miterlimit="10" stroke-linecap="round" stroke-linejoin="round"/>
<path d="M173.916 90.1707L169.315 85.408" stroke="white" stroke-width="0.768179" stroke-miterlimit="10" stroke-linecap="round" stroke-linejoin="round"/>
<path d="M183.126 89.2178L183.917 94.9331" stroke="white" stroke-width="0.768179" stroke-miterlimit="10" stroke-linecap="round" stroke-linejoin="round"/>
<path d="M177.25 97.1607L170.582 98.4282" stroke="white" stroke-width="0.768179" stroke-miterlimit="10" stroke-linecap="round" stroke-linejoin="round"/>
<path d="M165.028 97.791L160.581 93.3509" stroke="white" stroke-width="0.768179" stroke-miterlimit="10" stroke-linecap="round" stroke-linejoin="round"/>
<path d="M173.916 103.668L169.315 107.316" stroke="white" stroke-width="0.768179" stroke-miterlimit="10" stroke-linecap="round" stroke-linejoin="round"/>
<path d="M169.314 115.044H162.332" stroke="white" stroke-width="0.768179" stroke-miterlimit="10" stroke-linecap="round" stroke-linejoin="round"/>
<path d="M165.819 108.061L159.313 105.357" stroke="white" stroke-width="0.768179" stroke-miterlimit="10" stroke-linecap="round" stroke-linejoin="round"/>
<path d="M154.873 107.424V115.044" stroke="white" stroke-width="0.768179" stroke-miterlimit="10" stroke-linecap="round" stroke-linejoin="round"/>
<path d="M158.207 124.247L153.598 119.484" stroke="white" stroke-width="0.768179" stroke-miterlimit="10" stroke-linecap="round" stroke-linejoin="round"/>
<path d="M200.718 100.572H193.735" stroke="white" stroke-width="0.768179" stroke-miterlimit="10" stroke-linecap="round" stroke-linejoin="round"/>
<path d="M197.23 93.5889L190.724 90.8849" stroke="white" stroke-width="0.768179" stroke-miterlimit="10" stroke-linecap="round" stroke-linejoin="round"/>
<path d="M189.61 109.782L185.009 105.019" stroke="white" stroke-width="0.768179" stroke-miterlimit="10" stroke-linecap="round" stroke-linejoin="round"/>
<path d="M192.943 116.765L186.276 118.032" stroke="white" stroke-width="0.768179" stroke-miterlimit="10" stroke-linecap="round" stroke-linejoin="round"/>
<path d="M180.722 117.402L176.274 112.955" stroke="white" stroke-width="0.768179" stroke-miterlimit="10" stroke-linecap="round" stroke-linejoin="round"/>
</g>
<path d="M197.86 125.113C199.258 127.103 200.956 128.885 202.984 130.222C219.907 141.406 238.504 114.751 258.746 108.221C261.542 107.322 264.031 106.554 264.922 107.253C266.428 108.428 268.333 110.203 269.039 109.896C269.854 109.55 267.565 107.03 266.09 105.064C266.09 105.064 270.607 110.372 271.405 109.742C272.373 108.966 267.257 102.913 267.257 102.913C267.257 102.913 273.195 108.882 273.748 107.468C274.301 106.055 268.31 100.969 268.31 100.969C268.31 100.969 273.864 105.425 274.855 104.465C275.661 103.681 271.114 100.393 266.781 98.035C264.215 96.6369 261.289 96.0608 258.393 96.4449C255.627 96.8136 251.694 97.7661 246.355 99.9785C246.355 99.9785 226.697 109.005 210.627 117.385L193.958 89.0934C191.907 85.6059 188.05 83.4857 184.025 83.8621C180.876 84.154 177.688 85.5444 176.651 89.6695C175.921 92.5963 176.666 95.692 178.425 98.1425L197.86 125.113Z" fill="white" stroke="#251F47" stroke-width="0.768179" stroke-miterlimit="10" stroke-linecap="round" stroke-linejoin="round"/>
<path d="M209.951 109.765L190.701 123.37C190.701 123.37 159.981 84.6841 174.169 75.343C187.559 66.532 209.951 109.765 209.951 109.765Z" fill="#251F47" stroke="#251F47" stroke-width="0.768179" stroke-miterlimit="10" stroke-linecap="round" stroke-linejoin="round"/>
<mask id="mask2_3068_12718" style="mask-type:luminance" maskUnits="userSpaceOnUse" x="170" y="74" width="40" height="50">
<path d="M209.951 109.765L190.701 123.37C190.701 123.37 159.981 84.6841 174.169 75.343C187.559 66.532 209.951 109.765 209.951 109.765Z" fill="white"/>
</mask>
<g mask="url(#mask2_3068_12718)">
<path d="M185.031 80.9653H178.049" stroke="white" stroke-width="0.768179" stroke-miterlimit="10" stroke-linecap="round" stroke-linejoin="round"/>
<path d="M181.536 73.9829L175.03 71.2789" stroke="white" stroke-width="0.768179" stroke-miterlimit="10" stroke-linecap="round" stroke-linejoin="round"/>
<path d="M170.582 73.3452V80.9655" stroke="white" stroke-width="0.768179" stroke-miterlimit="10" stroke-linecap="round" stroke-linejoin="round"/>
<path d="M173.916 90.1686L169.315 85.4059" stroke="white" stroke-width="0.768179" stroke-miterlimit="10" stroke-linecap="round" stroke-linejoin="round"/>
<path d="M183.126 89.2157L183.917 94.931" stroke="white" stroke-width="0.768179" stroke-miterlimit="10" stroke-linecap="round" stroke-linejoin="round"/>
<path d="M177.25 97.1586L170.582 98.4261" stroke="white" stroke-width="0.768179" stroke-miterlimit="10" stroke-linecap="round" stroke-linejoin="round"/>
<path d="M173.916 103.665L169.315 107.314" stroke="white" stroke-width="0.768179" stroke-miterlimit="10" stroke-linecap="round" stroke-linejoin="round"/>
<path d="M200.718 100.57H193.735" stroke="white" stroke-width="0.768179" stroke-miterlimit="10" stroke-linecap="round" stroke-linejoin="round"/>
<path d="M197.23 93.5871L190.724 90.8831" stroke="white" stroke-width="0.768179" stroke-miterlimit="10" stroke-linecap="round" stroke-linejoin="round"/>
<path d="M189.61 109.78L185.009 105.017" stroke="white" stroke-width="0.768179" stroke-miterlimit="10" stroke-linecap="round" stroke-linejoin="round"/>
<path d="M198.812 108.828L199.611 114.543" stroke="white" stroke-width="0.768179" stroke-miterlimit="10" stroke-linecap="round" stroke-linejoin="round"/>
<path d="M192.943 116.763L186.276 118.03" stroke="white" stroke-width="0.768179" stroke-miterlimit="10" stroke-linecap="round" stroke-linejoin="round"/>
<path d="M180.722 117.4L176.274 112.953" stroke="white" stroke-width="0.768179" stroke-miterlimit="10" stroke-linecap="round" stroke-linejoin="round"/>
<path d="M189.61 123.27L185.009 126.919" stroke="white" stroke-width="0.768179" stroke-miterlimit="10" stroke-linecap="round" stroke-linejoin="round"/>
</g>
<path d="M334.289 42.3361C334.135 45.1169 337.024 47.6365 339.758 47.1065C342.939 46.4842 344.483 42.9276 346.949 40.8304C348.047 39.8933 349.522 39.2096 350.92 39.5783C351.573 39.7473 352.149 40.1314 352.656 40.5616C354.569 42.1901 355.66 44.5638 356.989 46.6993C358.325 48.8349 360.177 50.9166 362.658 51.3238C365.07 51.7155 367.497 50.3559 369.057 48.4661C370.608 46.5764 371.453 44.2181 372.275 41.9136" stroke="white" stroke-width="0.768179" stroke-miterlimit="10" stroke-linecap="round" stroke-linejoin="round"/>
<path d="M361.114 226.069C366.337 225.009 370.877 221.037 372.621 215.99C374.365 210.951 373.243 205.021 369.787 200.965C368.634 199.605 367.121 198.407 365.354 198.238C363.58 198.069 361.605 199.313 361.521 201.088C361.49 201.779 361.728 202.463 362.074 203.062C364.663 207.625 372.16 206.834 375.379 202.693C378.59 198.553 378.505 192.745 377.514 187.598C374.472 171.912 364.002 157.831 349.845 150.411" stroke="white" stroke-width="0.768179" stroke-miterlimit="10" stroke-linecap="round" stroke-linejoin="round"/>
<path d="M361.997 148.129C359.716 148.506 349.837 150.411 349.837 150.411V163.716" stroke="white" stroke-width="0.768179" stroke-miterlimit="10" stroke-linecap="round" stroke-linejoin="round"/>
<path d="M143.758 162.064C134.847 180.37 111.402 190.111 92.1439 183.497C89.2325 182.498 86.3595 181.123 84.2931 178.849C82.2267 176.575 81.1128 173.241 82.1191 170.33C83.5864 166.082 89.2862 164.361 93.373 166.22C97.4673 168.087 99.8718 172.581 100.371 177.052C101.5 187.245 93.8262 196.886 84.3852 200.873C74.9443 204.867 64.1975 204.276 54.096 202.517" stroke="white" stroke-width="0.768179" stroke-miterlimit="10" stroke-linecap="round" stroke-linejoin="round"/>
<path d="M67.5703 194.781L54.0964 202.524L63.7755 214.408" stroke="white" stroke-width="0.768179" stroke-miterlimit="10" stroke-linecap="round" stroke-linejoin="round"/>
<path d="M138.242 38.948C135.4 43.6877 128.333 44.3176 123.493 41.6443C118.654 38.9711 115.619 33.9625 113.123 29.0308C109.213 21.303 120.474 24.2604 115.942 35.1839C114.075 39.6855 110.718 44.3099 105.863 44.7324C98.9498 45.3316 94.7709 37.6575 90.715 32.0267C87.9418 28.1782 84.5849 20.4195 80.1064 19.6667C73.3387 18.5298 73.1006 28.3548 72.3708 31.0511C71.6411 33.7474 69.8819 36.5974 67.1088 36.9277C63.7672 37.3195 61.3628 34.024 58.9507 31.681C53.5735 26.4651 44.7625 25.2053 38.1408 28.7005" stroke="white" stroke-width="0.768179" stroke-miterlimit="10" stroke-linecap="round" stroke-linejoin="round"/>
</svg>
