<svg width="283" height="235" viewBox="0 0 283 235" fill="none" xmlns="http://www.w3.org/2000/svg">
<path d="M259.648 22.9637C241.945 1.44741 211.038 -7.65747 186.937 7.54283C164.254 21.8489 154.106 49.862 133.603 66.7931C112.107 84.5448 88.4431 85.4758 62.4181 82.3073C39.9847 79.5771 14.4535 80.0063 5.58811 106.138C-4.02447 134.475 10.1594 167.822 27.3269 189.667C44.253 211.205 67.8587 225.631 93.8738 231.28C145.722 242.539 206.818 223.71 243.76 183.708C281.948 142.355 298.242 69.8701 259.648 22.9637Z" fill="#1A1A3E"/>
<path d="M145.611 54.9821L66.1182 123.278L67.5976 154.179C67.5976 157.865 72.0437 210.124 76.2732 210.124L150.499 160.451L217.38 205.025C221.609 205.025 229.773 156.46 229.773 152.774L234.717 123.205L155.153 54.9821C152.361 53.0437 148.403 53.0437 145.611 54.9821Z" fill="#B39EF9"/>
<path d="M214.356 214.718H86.0999C82.6821 214.718 79.9121 211.948 79.9121 208.53V77.8862C79.9121 74.4684 82.6821 71.6984 86.0999 71.6984H214.356C217.774 71.6984 220.544 74.4684 220.544 77.8862V208.53C220.545 211.947 217.774 214.718 214.356 214.718Z" fill="#2C2C62"/>
<path d="M150.496 149.838C164.567 149.838 175.974 138.431 175.974 124.361C175.974 110.29 164.567 98.8831 150.496 98.8831C136.425 98.8831 125.019 110.29 125.019 124.361C125.019 138.431 136.425 149.838 150.496 149.838Z" fill="#66CC33"/>
<path d="M150.498 91.7023C150.387 91.7023 150.298 91.6129 150.298 91.5026V82.4544C150.298 82.3441 150.387 82.2547 150.498 82.2547C150.608 82.2547 150.697 82.3441 150.697 82.4544V91.5026C150.697 91.6129 150.608 91.7023 150.498 91.7023Z" fill="#9CA0CD"/>
<path d="M150.648 92.0654C150.601 92.0783 150.55 92.0853 150.497 92.0853C150.175 92.0853 149.914 91.824 149.914 91.5021V82.4538C149.914 82.1319 150.176 81.8706 150.497 81.8706C150.653 81.8706 150.799 81.9312 150.91 82.0415C151.02 82.1518 151.08 82.2978 151.08 82.4538V91.5021C151.08 91.7713 150.898 91.9988 150.648 92.0654Z" fill="#9CA0CD"/>
<path d="M150.498 166.466C150.387 166.466 150.298 166.377 150.298 166.267V157.219C150.298 157.108 150.387 157.019 150.498 157.019C150.608 157.019 150.697 157.108 150.697 157.219V166.267C150.697 166.377 150.608 166.466 150.498 166.466Z" fill="#9CA0CD"/>
<path d="M150.649 166.83C150.601 166.842 150.549 166.849 150.497 166.849C150.175 166.849 149.914 166.588 149.914 166.266V157.218C149.914 156.896 150.175 156.634 150.497 156.635C150.819 156.635 151.08 156.896 151.08 157.218V166.266C151.08 166.422 151.02 166.568 150.91 166.679C150.837 166.752 150.748 166.804 150.649 166.83Z" fill="#9CA0CD"/>
<path d="M117.641 124.561H108.592C108.482 124.561 108.393 124.471 108.393 124.361C108.393 124.251 108.482 124.161 108.592 124.161H117.641C117.751 124.161 117.84 124.251 117.84 124.361C117.839 124.471 117.751 124.561 117.641 124.561Z" fill="#9CA0CD"/>
<path d="M117.79 124.924C117.742 124.937 117.69 124.944 117.638 124.944H108.59C108.434 124.944 108.288 124.884 108.178 124.773C108.067 124.663 108.007 124.517 108.007 124.361C108.007 124.039 108.268 123.778 108.59 123.778H117.638C117.794 123.778 117.94 123.838 118.051 123.949C118.161 124.059 118.222 124.205 118.222 124.361C118.222 124.517 118.161 124.663 118.051 124.773C117.977 124.847 117.888 124.899 117.79 124.924Z" fill="#9CA0CD"/>
<path d="M192.405 124.56H183.357C183.247 124.56 183.157 124.47 183.157 124.36C183.157 124.25 183.247 124.16 183.357 124.16H192.405C192.515 124.16 192.605 124.25 192.605 124.36C192.605 124.47 192.515 124.56 192.405 124.56Z" fill="#9CA0CD"/>
<path d="M192.557 124.923C192.508 124.936 192.457 124.943 192.405 124.943H183.357C183.035 124.943 182.773 124.681 182.773 124.359C182.773 124.038 183.035 123.776 183.357 123.776H192.405C192.561 123.776 192.707 123.837 192.817 123.947C192.928 124.057 192.988 124.203 192.988 124.359C192.988 124.515 192.928 124.661 192.817 124.772C192.744 124.845 192.654 124.897 192.557 124.923Z" fill="#9CA0CD"/>
<path d="M120.866 154.192C120.816 154.192 120.764 154.172 120.725 154.133C120.648 154.056 120.648 153.929 120.725 153.851L127.123 147.454C127.2 147.376 127.327 147.376 127.405 147.454C127.482 147.531 127.482 147.659 127.405 147.736L121.007 154.133C120.969 154.173 120.917 154.192 120.866 154.192Z" fill="#9CA0CD"/>
<path d="M121.018 154.556C120.97 154.569 120.919 154.576 120.866 154.576C120.71 154.576 120.564 154.516 120.454 154.405C120.344 154.295 120.283 154.149 120.283 153.993C120.283 153.837 120.344 153.691 120.454 153.581L126.852 147.183C127.079 146.956 127.449 146.956 127.676 147.183C127.786 147.294 127.847 147.44 127.847 147.596C127.847 147.752 127.786 147.898 127.676 148.008L121.279 154.405C121.205 154.478 121.116 154.53 121.018 154.556Z" fill="#9CA0CD"/>
<path d="M173.732 101.325C173.682 101.325 173.63 101.305 173.591 101.267C173.514 101.189 173.514 101.062 173.591 100.984L179.989 94.5869C180.066 94.5094 180.193 94.5094 180.271 94.5869C180.348 94.6644 180.348 94.7916 180.271 94.8691L173.873 101.267C173.835 101.306 173.783 101.325 173.732 101.325Z" fill="#9CA0CD"/>
<path d="M173.884 101.69C173.836 101.703 173.785 101.71 173.732 101.71C173.576 101.71 173.43 101.649 173.32 101.539C173.093 101.312 173.093 100.942 173.32 100.714L179.718 94.3169C179.945 94.0894 180.315 94.0894 180.542 94.3169C180.652 94.4272 180.713 94.5733 180.713 94.7293C180.713 94.8853 180.652 95.0313 180.542 95.1416L174.145 101.539C174.071 101.612 173.982 101.663 173.884 101.69Z" fill="#9CA0CD"/>
<path d="M127.264 101.325C127.213 101.325 127.161 101.305 127.123 101.267L120.725 94.8681C120.648 94.7906 120.648 94.6634 120.725 94.5859C120.803 94.5084 120.93 94.5084 121.007 94.5859L127.405 100.984C127.482 101.062 127.482 101.189 127.405 101.267C127.366 101.306 127.315 101.325 127.264 101.325Z" fill="#9CA0CD"/>
<path d="M127.416 101.69C127.367 101.703 127.317 101.71 127.264 101.71C127.108 101.71 126.962 101.649 126.852 101.539L120.454 95.1406C120.344 95.0303 120.283 94.8842 120.283 94.7282C120.283 94.5722 120.344 94.4262 120.454 94.3159C120.682 94.0884 121.051 94.0884 121.279 94.3159L127.676 100.714C127.904 100.942 127.904 101.311 127.676 101.539C127.603 101.612 127.513 101.663 127.416 101.69Z" fill="#9CA0CD"/>
<path d="M180.13 154.193C180.079 154.193 180.028 154.173 179.989 154.134L173.591 147.736C173.514 147.659 173.514 147.531 173.591 147.454C173.669 147.376 173.796 147.376 173.873 147.454L180.271 153.852C180.348 153.93 180.348 154.057 180.271 154.134C180.232 154.173 180.182 154.193 180.13 154.193Z" fill="#9CA0CD"/>
<path d="M180.282 154.556C180.233 154.569 180.183 154.576 180.13 154.576H180.129C179.973 154.576 179.827 154.516 179.717 154.405L173.319 148.007C173.209 147.897 173.148 147.751 173.148 147.595C173.148 147.439 173.209 147.293 173.319 147.182C173.547 146.955 173.916 146.955 174.144 147.182L180.541 153.58C180.652 153.69 180.712 153.836 180.712 153.992C180.712 154.148 180.652 154.294 180.541 154.404C180.469 154.479 180.379 154.53 180.282 154.556Z" fill="#9CA0CD"/>
<path d="M150.498 91.7023C150.387 91.7023 150.298 91.6129 150.298 91.5026V82.4544C150.298 82.3441 150.387 82.2547 150.498 82.2547C150.608 82.2547 150.697 82.3441 150.697 82.4544V91.5026C150.697 91.6129 150.608 91.7023 150.498 91.7023Z" fill="#9CA0CD"/>
<path d="M150.648 92.0654C150.601 92.0783 150.55 92.0853 150.497 92.0853C150.175 92.0853 149.914 91.824 149.914 91.5021V82.4538C149.914 82.1319 150.176 81.8706 150.497 81.8706C150.653 81.8706 150.799 81.9312 150.91 82.0415C151.02 82.1518 151.08 82.2978 151.08 82.4538V91.5021C151.08 91.7713 150.898 91.9988 150.648 92.0654Z" fill="#9CA0CD"/>
<path d="M150.498 166.466C150.387 166.466 150.298 166.377 150.298 166.267V157.219C150.298 157.108 150.387 157.019 150.498 157.019C150.608 157.019 150.697 157.108 150.697 157.219V166.267C150.697 166.377 150.608 166.466 150.498 166.466Z" fill="#9CA0CD"/>
<path d="M150.649 166.83C150.601 166.842 150.549 166.849 150.497 166.849C150.175 166.849 149.914 166.588 149.914 166.266V157.218C149.914 156.896 150.175 156.634 150.497 156.635C150.819 156.635 151.08 156.896 151.08 157.218V166.266C151.08 166.422 151.02 166.568 150.91 166.679C150.837 166.752 150.748 166.804 150.649 166.83Z" fill="#9CA0CD"/>
<path d="M117.641 124.561H108.592C108.482 124.561 108.393 124.471 108.393 124.361C108.393 124.251 108.482 124.161 108.592 124.161H117.641C117.751 124.161 117.84 124.251 117.84 124.361C117.839 124.471 117.751 124.561 117.641 124.561Z" fill="#9CA0CD"/>
<path d="M117.79 124.924C117.742 124.937 117.69 124.944 117.638 124.944H108.59C108.434 124.944 108.288 124.884 108.178 124.773C108.067 124.663 108.007 124.517 108.007 124.361C108.007 124.039 108.268 123.778 108.59 123.778H117.638C117.794 123.778 117.94 123.838 118.051 123.949C118.161 124.059 118.222 124.205 118.222 124.361C118.222 124.517 118.161 124.663 118.051 124.773C117.977 124.847 117.888 124.899 117.79 124.924Z" fill="#9CA0CD"/>
<path d="M192.405 124.56H183.357C183.247 124.56 183.157 124.47 183.157 124.36C183.157 124.25 183.247 124.16 183.357 124.16H192.405C192.515 124.16 192.605 124.25 192.605 124.36C192.605 124.47 192.515 124.56 192.405 124.56Z" fill="#9CA0CD"/>
<path d="M192.557 124.923C192.508 124.936 192.457 124.943 192.405 124.943H183.357C183.035 124.943 182.773 124.681 182.773 124.359C182.773 124.038 183.035 123.776 183.357 123.776H192.405C192.561 123.776 192.707 123.837 192.817 123.947C192.928 124.057 192.988 124.203 192.988 124.359C192.988 124.515 192.928 124.661 192.817 124.772C192.744 124.845 192.654 124.897 192.557 124.923Z" fill="#9CA0CD"/>
<path d="M120.866 154.192C120.816 154.192 120.764 154.172 120.725 154.133C120.648 154.056 120.648 153.929 120.725 153.851L127.123 147.454C127.2 147.376 127.327 147.376 127.405 147.454C127.482 147.531 127.482 147.659 127.405 147.736L121.007 154.133C120.969 154.173 120.917 154.192 120.866 154.192Z" fill="#9CA0CD"/>
<path d="M121.018 154.556C120.97 154.569 120.919 154.576 120.866 154.576C120.71 154.576 120.564 154.516 120.454 154.405C120.344 154.295 120.283 154.149 120.283 153.993C120.283 153.837 120.344 153.691 120.454 153.581L126.852 147.183C127.079 146.956 127.449 146.956 127.676 147.183C127.786 147.294 127.847 147.44 127.847 147.596C127.847 147.752 127.786 147.898 127.676 148.008L121.279 154.405C121.205 154.478 121.116 154.53 121.018 154.556Z" fill="#9CA0CD"/>
<path d="M173.732 101.325C173.682 101.325 173.63 101.305 173.591 101.267C173.514 101.189 173.514 101.062 173.591 100.984L179.989 94.5869C180.066 94.5094 180.193 94.5094 180.271 94.5869C180.348 94.6644 180.348 94.7916 180.271 94.8691L173.873 101.267C173.835 101.306 173.783 101.325 173.732 101.325Z" fill="#9CA0CD"/>
<path d="M173.884 101.69C173.836 101.703 173.785 101.71 173.732 101.71C173.576 101.71 173.43 101.649 173.32 101.539C173.093 101.312 173.093 100.942 173.32 100.714L179.718 94.3169C179.945 94.0894 180.315 94.0894 180.542 94.3169C180.652 94.4272 180.713 94.5733 180.713 94.7293C180.713 94.8853 180.652 95.0313 180.542 95.1416L174.145 101.539C174.071 101.612 173.982 101.663 173.884 101.69Z" fill="#9CA0CD"/>
<path d="M127.264 101.325C127.213 101.325 127.161 101.305 127.123 101.267L120.725 94.8681C120.648 94.7906 120.648 94.6634 120.725 94.5859C120.803 94.5084 120.93 94.5084 121.007 94.5859L127.405 100.984C127.482 101.062 127.482 101.189 127.405 101.267C127.366 101.306 127.315 101.325 127.264 101.325Z" fill="#9CA0CD"/>
<path d="M127.416 101.69C127.367 101.703 127.317 101.71 127.264 101.71C127.108 101.71 126.962 101.649 126.852 101.539L120.454 95.1406C120.344 95.0303 120.283 94.8842 120.283 94.7282C120.283 94.5722 120.344 94.4262 120.454 94.3159C120.682 94.0884 121.051 94.0884 121.279 94.3159L127.676 100.714C127.904 100.942 127.904 101.311 127.676 101.539C127.603 101.612 127.513 101.663 127.416 101.69Z" fill="#9CA0CD"/>
<path d="M180.13 154.193C180.079 154.193 180.028 154.173 179.989 154.134L173.591 147.736C173.514 147.659 173.514 147.531 173.591 147.454C173.669 147.376 173.796 147.376 173.873 147.454L180.271 153.852C180.348 153.93 180.348 154.057 180.271 154.134C180.232 154.173 180.182 154.193 180.13 154.193Z" fill="#9CA0CD"/>
<path d="M180.282 154.556C180.233 154.569 180.183 154.576 180.13 154.576H180.129C179.973 154.576 179.827 154.516 179.717 154.405L173.319 148.007C173.209 147.897 173.148 147.751 173.148 147.595C173.148 147.439 173.209 147.293 173.319 147.182C173.547 146.955 173.916 146.955 174.144 147.182L180.541 153.58C180.652 153.69 180.712 153.836 180.712 153.992C180.712 154.148 180.652 154.294 180.541 154.404C180.469 154.479 180.379 154.53 180.282 154.556Z" fill="#9CA0CD"/>
<path d="M120.109 112.04C120.085 112.04 120.059 112.036 120.034 112.026L111.676 108.582C111.574 108.54 111.526 108.423 111.568 108.322C111.61 108.219 111.727 108.172 111.828 108.213L120.186 111.657C120.288 111.699 120.336 111.816 120.294 111.917C120.262 111.995 120.188 112.04 120.109 112.04Z" fill="#9CA0CD"/>
<path d="M120.26 112.405C120.212 112.418 120.161 112.425 120.108 112.425C120.032 112.425 119.957 112.41 119.886 112.382L111.528 108.939C111.231 108.817 111.088 108.475 111.211 108.178C111.271 108.034 111.382 107.922 111.526 107.862C111.67 107.802 111.828 107.801 111.972 107.861L120.33 111.304C120.627 111.426 120.77 111.768 120.647 112.065C120.577 112.235 120.432 112.359 120.26 112.405Z" fill="#9CA0CD"/>
<path d="M189.245 140.522C189.219 140.522 189.194 140.517 189.17 140.507L180.812 137.064C180.71 137.022 180.662 136.905 180.704 136.803C180.745 136.701 180.863 136.653 180.964 136.695L189.322 140.139C189.424 140.181 189.472 140.298 189.43 140.399C189.398 140.476 189.324 140.522 189.245 140.522Z" fill="#9CA0CD"/>
<path d="M189.398 140.887C189.349 140.9 189.298 140.907 189.246 140.907C189.169 140.907 189.095 140.892 189.023 140.863L180.665 137.42C180.368 137.297 180.226 136.956 180.349 136.658C180.408 136.514 180.519 136.402 180.663 136.342C180.808 136.283 180.966 136.282 181.11 136.341L189.467 139.784C189.611 139.843 189.724 139.955 189.783 140.099C189.843 140.243 189.844 140.401 189.784 140.545C189.715 140.716 189.571 140.84 189.398 140.887Z" fill="#9CA0CD"/>
<path d="M134.537 163.308C134.512 163.308 134.486 163.303 134.461 163.293C134.359 163.251 134.311 163.134 134.353 163.033L137.796 154.675C137.837 154.573 137.955 154.525 138.056 154.567C138.158 154.608 138.206 154.726 138.164 154.827L134.722 163.185C134.69 163.261 134.615 163.308 134.537 163.308Z" fill="#9CA0CD"/>
<path d="M134.687 163.671C134.639 163.684 134.588 163.691 134.535 163.691H134.534C134.458 163.691 134.383 163.676 134.313 163.648C134.016 163.525 133.874 163.184 133.996 162.886L137.439 154.529C137.498 154.385 137.61 154.272 137.754 154.213C137.898 154.153 138.056 154.152 138.2 154.212C138.344 154.271 138.456 154.383 138.516 154.527C138.575 154.671 138.576 154.829 138.517 154.973L135.074 163.331C135.004 163.501 134.86 163.625 134.687 163.671Z" fill="#9CA0CD"/>
<path d="M163.015 94.1706C162.989 94.1706 162.965 94.1657 162.94 94.1557C162.837 94.114 162.79 93.9968 162.831 93.8954L166.274 85.5377C166.316 85.4354 166.433 85.3877 166.534 85.4294C166.637 85.4711 166.684 85.5884 166.643 85.6897L163.2 94.0474C163.168 94.1239 163.094 94.1706 163.015 94.1706Z" fill="#9CA0CD"/>
<path d="M163.169 94.5345C163.12 94.5474 163.07 94.5544 163.017 94.5544C162.94 94.5544 162.866 94.5395 162.794 94.5106C162.497 94.3884 162.355 94.0467 162.477 93.7496L165.92 85.3919C165.98 85.2478 166.091 85.1355 166.235 85.0759C166.379 85.0163 166.537 85.0153 166.681 85.0749C166.825 85.1345 166.937 85.2458 166.997 85.3899C167.057 85.5339 167.058 85.6919 166.998 85.836L163.555 94.1937C163.486 94.3646 163.342 94.4888 163.169 94.5345Z" fill="#9CA0CD"/>
<path d="M166.61 163.246C166.532 163.246 166.458 163.2 166.426 163.123L162.951 154.778C162.908 154.677 162.957 154.56 163.058 154.517C163.16 154.474 163.277 154.523 163.32 154.624L166.795 162.969C166.838 163.07 166.789 163.188 166.688 163.23C166.662 163.241 166.635 163.246 166.61 163.246Z" fill="#9CA0CD"/>
<path d="M166.759 163.61C166.71 163.623 166.66 163.63 166.609 163.63H166.608C166.372 163.63 166.161 163.489 166.069 163.271L162.594 154.926C162.534 154.782 162.533 154.624 162.593 154.48C162.653 154.336 162.764 154.224 162.908 154.164C163.052 154.104 163.21 154.103 163.354 154.163C163.498 154.223 163.61 154.334 163.67 154.478L167.145 162.823C167.269 163.12 167.129 163.462 166.832 163.586C166.809 163.595 166.784 163.603 166.759 163.61Z" fill="#9CA0CD"/>
<path d="M137.862 94.2192C137.784 94.2192 137.71 94.1725 137.678 94.096L134.203 85.7512C134.16 85.6498 134.209 85.5326 134.31 85.4899C134.412 85.4472 134.529 85.4958 134.572 85.5972L138.047 93.942C138.09 94.0433 138.041 94.1606 137.94 94.2033C137.914 94.2142 137.888 94.2192 137.862 94.2192Z" fill="#9CA0CD"/>
<path d="M138.012 94.5832C137.964 94.5961 137.913 94.603 137.862 94.603C137.626 94.603 137.414 94.462 137.324 94.2444L133.848 85.8996C133.725 85.6025 133.865 85.2607 134.162 85.1365C134.306 85.0769 134.464 85.0759 134.608 85.1355C134.753 85.1951 134.865 85.3064 134.924 85.4505L138.4 93.7953C138.523 94.0924 138.382 94.4341 138.086 94.5583C138.062 94.5683 138.037 94.5762 138.012 94.5832Z" fill="#9CA0CD"/>
<path d="M111.812 140.671C111.733 140.671 111.66 140.625 111.628 140.548C111.585 140.447 111.634 140.33 111.735 140.287L120.08 136.812C120.181 136.769 120.299 136.817 120.341 136.919C120.384 137.02 120.335 137.137 120.234 137.18L111.889 140.656C111.863 140.666 111.837 140.671 111.812 140.671Z" fill="#9CA0CD"/>
<path d="M111.963 141.035C111.914 141.048 111.863 141.055 111.813 141.055C111.576 141.055 111.365 140.914 111.274 140.696C111.151 140.399 111.291 140.057 111.588 139.933L119.933 136.458C120.077 136.398 120.235 136.397 120.379 136.457C120.523 136.516 120.635 136.628 120.695 136.772C120.818 137.069 120.678 137.411 120.381 137.535L112.036 141.01C112.012 141.02 111.988 141.028 111.963 141.035Z" fill="#9CA0CD"/>
<path d="M180.839 111.925C180.76 111.925 180.687 111.878 180.655 111.802C180.612 111.7 180.661 111.583 180.762 111.54L189.107 108.065C189.209 108.022 189.326 108.071 189.369 108.172C189.411 108.273 189.363 108.391 189.261 108.433L180.916 111.909C180.891 111.92 180.865 111.925 180.839 111.925Z" fill="#9CA0CD"/>
<path d="M180.99 112.288C180.941 112.301 180.89 112.308 180.839 112.308C180.602 112.308 180.391 112.167 180.3 111.948C180.24 111.805 180.239 111.646 180.299 111.502C180.359 111.358 180.47 111.246 180.614 111.186L188.959 107.711C189.103 107.651 189.261 107.65 189.405 107.71C189.549 107.77 189.661 107.881 189.721 108.025C189.781 108.169 189.782 108.327 189.722 108.471C189.662 108.615 189.551 108.727 189.407 108.787L181.062 112.262C181.039 112.273 181.014 112.281 180.99 112.288Z" fill="#9CA0CD"/>
<path d="M120.109 112.04C120.085 112.04 120.059 112.036 120.034 112.026L111.676 108.582C111.574 108.54 111.526 108.423 111.568 108.322C111.61 108.219 111.727 108.172 111.828 108.213L120.186 111.657C120.288 111.699 120.336 111.816 120.294 111.917C120.262 111.995 120.188 112.04 120.109 112.04Z" fill="#9CA0CD"/>
<path d="M120.26 112.405C120.212 112.418 120.161 112.425 120.108 112.425C120.032 112.425 119.957 112.41 119.886 112.382L111.528 108.939C111.231 108.817 111.088 108.475 111.211 108.178C111.271 108.034 111.382 107.922 111.526 107.862C111.67 107.802 111.828 107.801 111.972 107.861L120.33 111.304C120.627 111.426 120.77 111.768 120.647 112.065C120.577 112.235 120.432 112.359 120.26 112.405Z" fill="#9CA0CD"/>
<path d="M189.245 140.522C189.219 140.522 189.194 140.517 189.17 140.507L180.812 137.064C180.71 137.022 180.662 136.905 180.704 136.803C180.745 136.701 180.863 136.653 180.964 136.695L189.322 140.139C189.424 140.181 189.472 140.298 189.43 140.399C189.398 140.476 189.324 140.522 189.245 140.522Z" fill="#9CA0CD"/>
<path d="M189.398 140.887C189.349 140.9 189.298 140.907 189.246 140.907C189.169 140.907 189.095 140.892 189.023 140.863L180.665 137.42C180.368 137.297 180.226 136.956 180.349 136.658C180.408 136.514 180.519 136.402 180.663 136.342C180.808 136.283 180.966 136.282 181.11 136.341L189.467 139.784C189.611 139.843 189.724 139.955 189.783 140.099C189.843 140.243 189.844 140.401 189.784 140.545C189.715 140.716 189.571 140.84 189.398 140.887Z" fill="#9CA0CD"/>
<path d="M134.537 163.308C134.512 163.308 134.486 163.303 134.461 163.293C134.359 163.251 134.311 163.134 134.353 163.033L137.796 154.675C137.837 154.573 137.955 154.525 138.056 154.567C138.158 154.608 138.206 154.726 138.164 154.827L134.722 163.185C134.69 163.261 134.615 163.308 134.537 163.308Z" fill="#9CA0CD"/>
<path d="M134.687 163.671C134.639 163.684 134.588 163.691 134.535 163.691H134.534C134.458 163.691 134.383 163.676 134.313 163.648C134.016 163.525 133.874 163.184 133.996 162.886L137.439 154.529C137.498 154.385 137.61 154.272 137.754 154.213C137.898 154.153 138.056 154.152 138.2 154.212C138.344 154.271 138.456 154.383 138.516 154.527C138.575 154.671 138.576 154.829 138.517 154.973L135.074 163.331C135.004 163.501 134.86 163.625 134.687 163.671Z" fill="#9CA0CD"/>
<path d="M163.015 94.1706C162.989 94.1706 162.965 94.1657 162.94 94.1557C162.837 94.114 162.79 93.9968 162.831 93.8954L166.274 85.5377C166.316 85.4354 166.433 85.3877 166.534 85.4294C166.637 85.4711 166.684 85.5884 166.643 85.6897L163.2 94.0474C163.168 94.1239 163.094 94.1706 163.015 94.1706Z" fill="#9CA0CD"/>
<path d="M163.169 94.5345C163.12 94.5474 163.07 94.5544 163.017 94.5544C162.94 94.5544 162.866 94.5395 162.794 94.5106C162.497 94.3884 162.355 94.0467 162.477 93.7496L165.92 85.3919C165.98 85.2478 166.091 85.1355 166.235 85.0759C166.379 85.0163 166.537 85.0153 166.681 85.0749C166.825 85.1345 166.937 85.2458 166.997 85.3899C167.057 85.5339 167.058 85.6919 166.998 85.836L163.555 94.1937C163.486 94.3646 163.342 94.4888 163.169 94.5345Z" fill="#9CA0CD"/>
<path d="M166.61 163.246C166.532 163.246 166.458 163.2 166.426 163.123L162.951 154.778C162.908 154.677 162.957 154.56 163.058 154.517C163.16 154.474 163.277 154.523 163.32 154.624L166.795 162.969C166.838 163.07 166.789 163.188 166.688 163.23C166.662 163.241 166.635 163.246 166.61 163.246Z" fill="#9CA0CD"/>
<path d="M166.759 163.61C166.71 163.623 166.66 163.63 166.609 163.63H166.608C166.372 163.63 166.161 163.489 166.069 163.271L162.594 154.926C162.534 154.782 162.533 154.624 162.593 154.48C162.653 154.336 162.764 154.224 162.908 154.164C163.052 154.104 163.21 154.103 163.354 154.163C163.498 154.223 163.61 154.334 163.67 154.478L167.145 162.823C167.269 163.12 167.129 163.462 166.832 163.586C166.809 163.595 166.784 163.603 166.759 163.61Z" fill="#9CA0CD"/>
<path d="M137.862 94.2192C137.784 94.2192 137.71 94.1725 137.678 94.096L134.203 85.7512C134.16 85.6498 134.209 85.5326 134.31 85.4899C134.412 85.4472 134.529 85.4958 134.572 85.5972L138.047 93.942C138.09 94.0433 138.041 94.1606 137.94 94.2033C137.914 94.2142 137.888 94.2192 137.862 94.2192Z" fill="#9CA0CD"/>
<path d="M138.012 94.5832C137.964 94.5961 137.913 94.603 137.862 94.603C137.626 94.603 137.414 94.462 137.324 94.2444L133.848 85.8996C133.725 85.6025 133.865 85.2607 134.162 85.1365C134.306 85.0769 134.464 85.0759 134.608 85.1355C134.753 85.1951 134.865 85.3064 134.924 85.4505L138.4 93.7953C138.523 94.0924 138.382 94.4341 138.086 94.5583C138.062 94.5683 138.037 94.5762 138.012 94.5832Z" fill="#9CA0CD"/>
<path d="M111.812 140.671C111.733 140.671 111.66 140.625 111.628 140.548C111.585 140.447 111.634 140.33 111.735 140.287L120.08 136.812C120.181 136.769 120.299 136.817 120.341 136.919C120.384 137.02 120.335 137.137 120.234 137.18L111.889 140.656C111.863 140.666 111.837 140.671 111.812 140.671Z" fill="#9CA0CD"/>
<path d="M111.963 141.035C111.914 141.048 111.863 141.055 111.813 141.055C111.576 141.055 111.365 140.914 111.274 140.696C111.151 140.399 111.291 140.057 111.588 139.933L119.933 136.458C120.077 136.398 120.235 136.397 120.379 136.457C120.523 136.516 120.635 136.628 120.695 136.772C120.818 137.069 120.678 137.411 120.381 137.535L112.036 141.01C112.012 141.02 111.988 141.028 111.963 141.035Z" fill="#9CA0CD"/>
<path d="M180.839 111.925C180.76 111.925 180.687 111.878 180.655 111.802C180.612 111.7 180.661 111.583 180.762 111.54L189.107 108.065C189.209 108.022 189.326 108.071 189.369 108.172C189.411 108.273 189.363 108.391 189.261 108.433L180.916 111.909C180.891 111.92 180.865 111.925 180.839 111.925Z" fill="#9CA0CD"/>
<path d="M180.99 112.288C180.941 112.301 180.89 112.308 180.839 112.308C180.602 112.308 180.391 112.167 180.3 111.948C180.24 111.805 180.239 111.646 180.299 111.502C180.359 111.358 180.47 111.246 180.614 111.186L188.959 107.711C189.103 107.651 189.261 107.65 189.405 107.71C189.549 107.77 189.661 107.881 189.721 108.025C189.781 108.169 189.782 108.327 189.722 108.471C189.662 108.615 189.551 108.727 189.407 108.787L181.062 112.262C181.039 112.273 181.014 112.281 180.99 112.288Z" fill="#9CA0CD"/>
<path d="M145.924 134.623C145.828 134.648 145.727 134.661 145.626 134.661C145.321 134.661 145.028 134.54 144.812 134.325L136.256 125.768C135.807 125.319 135.807 124.59 136.256 124.141C136.705 123.692 137.434 123.691 137.883 124.141L145.626 131.883L163.114 114.395C163.563 113.946 164.293 113.946 164.742 114.395C165.191 114.844 165.191 115.573 164.742 116.022L146.44 134.325C146.296 134.47 146.118 134.571 145.924 134.623Z" fill="white"/>
<path d="M152.128 174.924L190.486 137.183C200.559 127.272 214.938 121.609 230.029 121.609C233.573 121.609 236.446 123.86 236.446 126.638V178.058V227.512C236.446 230.29 231.655 234.507 228.111 234.507H206.316L152.129 181.192C150.315 179.408 150.315 176.708 152.128 174.924Z" fill="#9C84F4"/>
<path d="M148.869 174.856L110.511 137.115C100.438 127.203 86.0591 121.54 70.9681 121.54C67.4241 121.54 64.5508 123.791 64.5508 126.569V177.989V228.048C64.5508 230.826 68.6641 234.507 72.2081 234.507L94.6811 234.439L148.868 181.123C150.681 179.34 150.681 176.638 148.869 174.856Z" fill="#9C84F4"/>
<path d="M236.446 206.865V228.619C236.446 231.871 233.017 234.506 228.788 234.506H72.2081C67.9795 234.506 64.5508 231.87 64.5508 228.619V206.865L145.727 157.154C147.048 156.345 148.63 155.918 150.227 155.875C152.004 155.827 153.797 156.254 155.269 157.154L236.446 206.865Z" fill="#795DED"/>
<path d="M165.7 161.502L236.446 197.612L236.445 206.866L164.428 162.754L165.7 161.502Z" fill="#5B43CB"/>
<path d="M135.296 161.502L64.5508 197.612V206.866L136.568 162.754L135.296 161.502Z" fill="#5B43CB"/>
<path d="M256.517 149.018C264.245 141.29 264.245 128.76 256.517 121.032C248.788 113.304 236.258 113.304 228.53 121.032C220.802 128.76 220.802 141.29 228.53 149.018C236.258 156.746 248.788 156.746 256.517 149.018Z" fill="#FF4626"/>
<path d="M248.282 136.951V133.568C248.282 130.389 245.704 127.812 242.525 127.812C239.346 127.812 236.768 130.389 236.768 133.568V136.951C236.768 138.79 236.264 139.493 235.311 141.065H249.739C248.785 139.493 248.282 138.79 248.282 136.951Z" fill="white"/>
<path d="M242.524 144C241.324 144 240.351 143.027 240.351 141.827H244.696C244.697 143.027 243.724 144 242.524 144Z" fill="white"/>
<path d="M242.524 126.048C241.55 126.048 240.761 126.838 240.761 127.812C240.761 128.786 241.55 129.575 242.524 129.575C243.498 129.575 244.288 128.786 244.288 127.812C244.288 126.838 243.498 126.048 242.524 126.048ZM242.524 128.87C241.939 128.87 241.465 128.396 241.465 127.811C241.465 127.226 241.939 126.751 242.524 126.751C243.11 126.751 243.584 127.226 243.584 127.811C243.584 128.396 243.11 128.87 242.524 128.87Z" fill="white"/>
<path d="M242.525 159.225C236.061 159.225 229.984 156.707 225.413 152.137C220.842 147.565 218.325 141.489 218.325 135.025C218.325 128.561 220.843 122.483 225.413 117.913C229.984 113.342 236.061 110.825 242.525 110.825C248.989 110.825 255.067 113.342 259.637 117.913C264.208 122.484 266.725 128.561 266.725 135.025C266.725 141.489 264.207 147.566 259.637 152.137C255.067 156.708 248.989 159.225 242.525 159.225ZM242.525 112.713C236.565 112.713 230.962 115.034 226.749 119.247C222.534 123.462 220.213 129.064 220.213 135.024C220.213 140.983 222.534 146.587 226.749 150.8C230.963 155.014 236.566 157.335 242.525 157.335C248.484 157.335 254.088 155.014 258.302 150.8C262.516 146.586 264.837 140.983 264.837 135.024C264.837 129.063 262.516 123.461 258.302 119.247C254.088 115.034 248.485 112.713 242.525 112.713Z" fill="#FF4626"/>
<path d="M233.465 60.4912C233.465 60.1762 233.342 59.8791 233.12 59.6566C232.66 59.1966 231.911 59.1966 231.451 59.6566L225.263 65.8444C225.04 66.067 224.917 66.364 224.917 66.679C224.917 66.9939 225.04 67.291 225.263 67.5136C225.485 67.7361 225.782 67.8593 226.097 67.8593C226.412 67.8593 226.709 67.7361 226.932 67.5136L233.12 61.3258C233.343 61.1022 233.465 60.8061 233.465 60.4912Z" fill="#66CC33"/>
<path d="M239.504 74.3657L229.207 72.8188C228.563 72.7214 227.961 73.1675 227.865 73.8103C227.768 74.4541 228.213 75.0562 228.856 75.1526L239.153 76.6996C239.212 76.7085 239.272 76.7125 239.33 76.7125C239.908 76.7125 240.41 76.2803 240.497 75.707C240.592 75.0642 240.148 74.4621 239.504 74.3657Z" fill="#66CC33"/>
<path d="M218.411 53.2729C218.364 52.9609 218.198 52.6867 217.945 52.4989C217.691 52.3121 217.379 52.2346 217.068 52.2813C216.756 52.328 216.481 52.494 216.294 52.7473C216.107 53.0007 216.03 53.3126 216.077 53.6236L217.624 63.9208C217.71 64.494 218.211 64.9262 218.79 64.9262C218.849 64.9262 218.908 64.9213 218.967 64.9133C219.279 64.8666 219.554 64.7007 219.741 64.4473C219.929 64.194 220.005 63.882 219.959 63.571L218.411 53.2729Z" fill="#66CC33"/>
<path d="M65.5996 85.8273L86.2267 95.0673L113.473 31.3738L33.8379 71.6016L54.5116 80.8625" fill="url(#paint0_linear_3070_14119)"/>
<path d="M65.5997 85.8271L113.473 31.3737L54.5117 80.8623L58.3458 99.2549L65.5997 85.8271Z" fill="url(#paint1_linear_3070_14119)"/>
<path d="M58.3467 99.2545L70.8654 88.1853L65.6006 85.8267L58.3467 99.2545Z" fill="url(#paint2_linear_3070_14119)"/>
<defs>
<linearGradient id="paint0_linear_3070_14119" x1="42.3097" y1="45.3774" x2="83.664" y2="100.076" gradientUnits="userSpaceOnUse">
<stop stop-color="#795DED"/>
<stop offset="0.0001" stop-color="#7D5DFE"/>
<stop offset="1" stop-color="#76D466"/>
</linearGradient>
<linearGradient id="paint1_linear_3070_14119" x1="60.7842" y1="46.2979" x2="106.429" y2="88.2398" gradientUnits="userSpaceOnUse">
<stop stop-color="#795DED"/>
<stop offset="0.0001" stop-color="#7D5DFE"/>
<stop offset="1" stop-color="#76D466"/>
</linearGradient>
<linearGradient id="paint2_linear_3070_14119" x1="59.6785" y1="88.7789" x2="68.739" y2="97.7151" gradientUnits="userSpaceOnUse">
<stop stop-color="#795DED"/>
<stop offset="0.0001" stop-color="#7D5DFE"/>
<stop offset="1" stop-color="#76D466"/>
</linearGradient>
</defs>
</svg>
