<svg width="270" height="274" viewBox="0 0 270 274" fill="none" xmlns="http://www.w3.org/2000/svg">
<path d="M258.327 16.2896H53.4314C47.6936 16.2896 43.0422 20.9418 43.0422 26.6807V186.174C43.0422 191.913 47.6936 196.565 53.4314 196.565H258.327C264.065 196.565 268.716 191.913 268.716 186.174V26.6807C268.716 20.9418 264.065 16.2896 258.327 16.2896Z" fill="white"/>
<path d="M258.329 196.896H53.4315C47.5209 196.896 42.7112 192.086 42.7112 186.174V26.6792C42.7112 20.7674 47.5209 15.9568 53.4315 15.9568H258.329C264.239 15.9568 269.049 20.7674 269.049 26.6792V186.174C269.049 192.086 264.239 196.896 258.329 196.896ZM53.4315 16.6208C47.8864 16.6208 43.375 21.133 43.375 26.6792V186.174C43.375 191.72 47.8864 196.232 53.4315 196.232H258.329C263.874 196.232 268.387 191.72 268.387 186.174V26.6792C268.387 21.133 263.875 16.6208 258.329 16.6208H53.4315Z" fill="#251F47"/>
<path d="M268.769 38.8325H43.0946C42.9111 38.8325 42.7634 38.6833 42.7634 38.5013V26.706C42.7634 20.7793 47.5835 15.9568 53.5091 15.9568H258.354C264.28 15.9568 269.1 20.7778 269.1 26.706V38.5013C269.1 38.6848 268.952 38.8325 268.769 38.8325ZM43.4258 38.1686H268.436V26.7046C268.436 21.1434 263.913 16.6193 258.353 16.6193H53.5106C47.9505 16.6193 43.4273 21.1434 43.4273 26.7046V38.1686H43.4258Z" fill="#251F47"/>
<path d="M243.08 180.18H68.6812C63.7537 180.18 59.7437 176.169 59.7437 171.241V62.8901C59.7437 57.9616 63.7537 53.9507 68.6812 53.9507H243.08C248.009 53.9507 252.017 57.9616 252.017 62.8901V171.239C252.017 176.168 248.007 180.179 243.08 180.179V180.18ZM68.6812 54.6147C64.1192 54.6147 60.4075 58.3271 60.4075 62.8901V171.239C60.4075 175.802 64.1192 179.515 68.6812 179.515H243.08C247.642 179.515 251.355 175.802 251.355 171.239V62.8901C251.355 58.3271 247.643 54.6147 243.08 54.6147H68.6812Z" fill="#251F47"/>
<path d="M235.097 30.4708C236.577 28.9901 236.577 26.5895 235.097 25.1088C233.616 23.6281 231.216 23.6281 229.736 25.1088C228.255 26.5895 228.255 28.9901 229.736 30.4708C231.216 31.9515 233.616 31.9514 235.097 30.4708Z" fill="#251F47"/>
<path d="M248.49 28.6581C248.97 26.6201 247.709 24.578 245.671 24.097C243.633 23.616 241.592 24.8782 241.111 26.9162C240.63 28.9542 241.892 30.9962 243.929 31.4772C245.967 31.9582 248.009 30.6961 248.49 28.6581Z" fill="#251F47"/>
<path d="M260.884 28.6569C261.365 26.6189 260.103 24.5769 258.066 24.0959C256.028 23.6148 253.986 24.877 253.506 26.915C253.025 28.953 254.287 30.995 256.324 31.476C258.362 31.9571 260.403 30.6949 260.884 28.6569Z" fill="#251F47"/>
<path d="M130.209 0.331238H7.29369C3.44847 0.331238 0.331299 3.44901 0.331299 7.29498V95.2885C0.331299 99.1345 3.44847 102.252 7.29369 102.252H130.209C134.054 102.252 137.171 99.1345 137.171 95.2885V7.29498C137.171 3.44901 134.054 0.331238 130.209 0.331238Z" fill="white"/>
<path d="M130.207 102.584H7.29507C3.27308 102.584 0 99.3113 0 95.2871V7.29649C0 3.27372 3.27308 0 7.29507 0H130.209C134.231 0 137.504 3.27372 137.504 7.29649V95.2886C137.504 99.3113 134.231 102.585 130.209 102.585L130.207 102.584ZM7.29507 0.663995C3.63858 0.663995 0.663866 3.63929 0.663866 7.29649V95.2886C0.663866 98.9458 3.63858 101.921 7.29507 101.921H130.209C133.865 101.921 136.84 98.9458 136.84 95.2886V7.29649C136.84 3.63929 133.865 0.663995 130.209 0.663995H7.29507Z" fill="#795DED"/>
<g opacity="0.4">
<path d="M123.937 13.1949H100.63C99.6667 13.1949 98.8865 12.4145 98.8865 11.4506C98.8865 10.4866 99.6667 9.70627 100.63 9.70627H123.937C124.901 9.70627 125.681 10.4866 125.681 11.4506C125.681 12.4145 124.901 13.1949 123.937 13.1949Z" fill="#B39EF9"/>
<path d="M128.942 20.6644H95.564C94.6003 20.6644 93.8201 19.884 93.8201 18.9201C93.8201 17.9562 94.6003 17.1758 95.564 17.1758H128.942C129.906 17.1758 130.686 17.9562 130.686 18.9201C130.686 19.884 129.906 20.6644 128.942 20.6644Z" fill="#B39EF9"/>
<path d="M129.029 34.7053H95.6758C94.7121 34.7053 93.9319 33.9249 93.9319 32.961C93.9319 31.9971 94.7121 31.2167 95.6758 31.2167H129.029C129.992 31.2167 130.773 31.9971 130.773 32.961C130.773 33.9249 129.992 34.7053 129.029 34.7053Z" fill="#B39EF9"/>
<path d="M128.917 41.4497H96.2906C95.3269 41.4497 94.5466 40.6693 94.5466 39.7054C94.5466 38.7415 95.3269 37.9611 96.2906 37.9611H128.917C129.881 37.9611 130.661 38.7415 130.661 39.7054C130.661 40.6693 129.881 41.4497 128.917 41.4497Z" fill="#B39EF9"/>
<path d="M129.138 48.3061H96.5115C95.5478 48.3061 94.7676 47.5257 94.7676 46.5618C94.7676 45.5979 95.5478 44.8175 96.5115 44.8175H129.138C130.102 44.8175 130.882 45.5979 130.882 46.5618C130.882 47.5257 130.102 48.3061 129.138 48.3061Z" fill="#B39EF9"/>
<path d="M129.027 55.0504H95.6758C94.7121 55.0504 93.9319 54.2701 93.9319 53.3062C93.9319 52.3422 94.7121 51.5619 95.6758 51.5619H129.027C129.991 51.5619 130.771 52.3422 130.771 53.3062C130.771 54.2701 129.991 55.0504 129.027 55.0504Z" fill="#B39EF9"/>
<path d="M128.917 62.0172H95.5655C94.6018 62.0172 93.8215 61.2368 93.8215 60.2729C93.8215 59.309 94.6018 58.5286 95.5655 58.5286H128.917C129.881 58.5286 130.661 59.309 130.661 60.2729C130.661 61.2368 129.881 62.0172 128.917 62.0172Z" fill="#B39EF9"/>
<path d="M107.775 27.9848H95.6265C94.6628 27.9848 93.8826 27.2044 93.8826 26.2405C93.8826 25.2766 94.6628 24.4962 95.6265 24.4962H107.775C108.738 24.4962 109.518 25.2766 109.518 26.2405C109.518 27.2044 108.738 27.9848 107.775 27.9848Z" fill="#B39EF9"/>
<path d="M129.109 27.9848H116.292C115.328 27.9848 114.548 27.2044 114.548 26.2405C114.548 25.2766 115.328 24.4962 116.292 24.4962H129.109C130.073 24.4962 130.853 25.2766 130.853 26.2405C130.853 27.2044 130.073 27.9848 129.109 27.9848Z" fill="#B39EF9"/>
</g>
<g opacity="0.4">
<path d="M42.2964 67.5739H9.42388C8.46016 67.5739 7.67993 66.7935 7.67993 65.8296C7.67993 64.8656 8.46016 64.0853 9.42388 64.0853H42.2979C43.2617 64.0853 44.0419 64.8656 44.0419 65.8296C44.0419 66.7935 43.2617 67.5739 42.2979 67.5739H42.2964Z" fill="#B39EF9"/>
<path d="M73.5042 67.4619H48.337C47.3732 67.4619 46.593 66.6816 46.593 65.7177C46.593 64.7537 47.3732 63.9734 48.337 63.9734H73.5042C74.4679 63.9734 75.2482 64.7537 75.2482 65.7177C75.2482 66.6816 74.4679 67.4619 73.5042 67.4619Z" fill="#B39EF9"/>
<path d="M32.4832 60.2982H9.31207C8.34834 60.2982 7.56812 59.5179 7.56812 58.554C7.56812 57.59 8.34834 56.8097 9.31207 56.8097H32.4817C33.4455 56.8097 34.2257 57.59 34.2257 58.554C34.2257 59.5179 33.4455 60.2982 32.4817 60.2982H32.4832Z" fill="#B39EF9"/>
</g>
<path d="M73.5907 97.5969H9.91329C8.38864 97.5969 7.14893 96.3569 7.14893 94.832V74.7077C7.14893 73.1842 8.38864 71.9428 9.91329 71.9428H73.5907C75.1154 71.9428 76.3551 73.1827 76.3551 74.7077V94.832C76.3551 96.3554 75.1154 97.5969 73.5907 97.5969ZM9.91329 72.6083C8.75563 72.6083 7.81279 73.5513 7.81279 74.7092V94.8335C7.81279 95.9913 8.75563 96.9344 9.91329 96.9344H73.5907C74.7484 96.9344 75.6912 95.9913 75.6912 94.8335V74.7092C75.6912 73.5513 74.7484 72.6083 73.5907 72.6083H9.91329Z" fill="#F2ECFE"/>
<path d="M129.529 97.5969H83.9814C82.4568 97.5969 81.217 96.3569 81.217 94.832V74.7077C81.217 73.1827 82.4568 71.9428 83.9814 71.9428H129.529C131.052 71.9428 132.291 73.1827 132.291 74.7077V94.832C132.291 96.3569 131.052 97.5969 129.529 97.5969ZM83.9814 72.6083C82.8238 72.6083 81.8809 73.5513 81.8809 74.7092V94.8335C81.8809 95.9913 82.8238 96.9344 83.9814 96.9344H129.529C130.686 96.9344 131.629 95.9913 131.629 94.8335V74.7092C131.629 73.5513 130.686 72.6083 129.529 72.6083H83.9814Z" fill="#F2ECFE"/>
<path d="M86.7443 9.58243H10.1371C8.67138 9.58243 7.48315 10.7709 7.48315 12.2369V45.5217C7.48315 46.9878 8.67138 48.1762 10.1371 48.1762H86.7443C88.21 48.1762 89.3982 46.9878 89.3982 45.5217V12.2369C89.3982 10.7709 88.21 9.58243 86.7443 9.58243Z" fill="#9C84F4"/>
<path d="M243.829 179.783C243.512 178.124 243.209 176.893 242.936 175.726C240.911 167.094 238.739 160.056 237.154 155.311L232.851 139.633L179.781 149.284C179.781 149.284 178.062 160.875 174.556 179.783H243.828H243.829Z" fill="#251F47"/>
<path d="M186.642 177.803C192.467 177.803 196.258 171.455 193.652 166.06C193.054 164.823 192.447 163.576 191.847 162.367C187.37 153.329 174.557 155.302 172.96 165.324C172.932 165.5 172.575 165.678 172.552 165.857C171.725 172.199 176.603 177.804 182.782 177.804H186.642V177.803Z" fill="#251F47"/>
<path d="M259.555 106.735C259.555 84.4512 255.229 74.163 224.921 65.8295C217.221 63.7122 205.876 62.8244 194.878 64.0614C164.254 64.4389 152.55 78.1067 141.83 77.768C130.025 77.395 120.221 62.0664 120.221 62.0664C116.314 57.8243 112.171 59.9714 109.953 61.2323C107.297 62.7438 106.162 66.2787 105.683 68.7601C105.374 70.3626 105.646 72.0248 106.435 73.4379C110.348 80.4479 124.098 103.48 136.822 105.377C146.917 106.881 167.151 101.26 176.369 99.4784C182.869 122.177 172.547 165.851 172.547 165.851C180.255 160.33 206.069 167.449 222.613 173.737C230.885 176.881 238.312 175.126 243.733 172.023C249.156 168.919 239.551 136.862 239.551 136.862C239.551 136.862 259.555 126.161 259.555 106.733V106.735Z" fill="white"/>
<path d="M231.436 175.744C228.683 175.744 225.686 175.26 222.495 174.049C207.737 168.438 180.651 160.457 172.741 166.123C172.629 166.203 172.479 166.205 172.364 166.129C172.249 166.051 172.194 165.911 172.225 165.777C172.328 165.342 182.365 122.302 176.134 99.8634C174.173 100.25 171.776 100.79 169.023 101.411C158.767 103.724 144.72 106.89 136.774 105.705C123.913 103.789 110.08 80.6478 106.146 73.6005C105.315 72.1114 105.034 70.3716 105.358 68.6989C105.876 66.0175 107.065 62.4961 109.789 60.9458C111.722 59.8461 116.251 57.2677 120.466 61.8426C120.479 61.8575 120.491 61.8724 120.502 61.8888C120.599 62.041 130.349 77.0757 141.842 77.4383C145.873 77.5666 150.098 75.6522 155.449 73.229C164.084 69.3196 175.908 63.9659 194.875 63.7316C205.215 62.5662 216.776 63.2467 225.01 65.5117C240.039 69.6434 248.939 74.3749 253.868 80.8522C258.865 87.4161 259.888 95.9481 259.888 106.738C259.888 116.886 254.398 124.619 249.791 129.319C245.426 133.775 241.003 136.423 239.945 137.026C240.367 138.463 242.465 145.728 244 153.216C246.318 164.522 246.284 170.948 243.897 172.313C240.822 174.073 236.553 175.745 231.434 175.745L231.436 175.744ZM181.371 163.553C193.191 163.553 211.508 169.162 222.732 173.428C231.615 176.803 238.967 174.371 243.57 171.736C247.831 169.298 241.886 145.806 239.237 136.959C239.192 136.808 239.259 136.646 239.398 136.571C239.596 136.465 259.226 125.735 259.226 106.735C259.226 85.5748 255.833 74.6733 224.836 66.1503C216.677 63.9077 205.214 63.2332 194.919 64.3926C176.057 64.6269 164.305 69.9478 155.724 73.8318C150.293 76.2893 146.013 78.2321 141.823 78.0993C130.104 77.7292 120.554 63.1915 119.96 62.2693C116.568 58.6062 113.083 59.8342 110.118 61.5203C107.614 62.9452 106.502 66.2787 106.01 68.8227C105.716 70.3417 105.971 71.9234 106.726 73.2752C110.623 80.2554 124.312 103.176 136.873 105.047C144.696 106.212 158.673 103.063 168.879 100.762C171.78 100.108 174.285 99.5426 176.31 99.1516C176.475 99.1203 176.644 99.2203 176.691 99.3859C182.662 120.235 174.394 159.135 173.051 165.142C175.053 164.026 177.94 163.552 181.373 163.552L181.371 163.553Z" fill="#251F47"/>
<path d="M113.855 76.4803C110.442 76.4803 108.228 72.7008 108.134 72.5381C108.043 72.38 108.097 72.177 108.257 72.086C108.415 71.995 108.618 72.0487 108.709 72.2084C108.73 72.2442 110.869 75.8685 113.915 75.8178C116.262 75.782 118.585 73.6542 120.819 69.4927C120.906 69.3316 121.107 69.2704 121.268 69.3569C121.43 69.4435 121.491 69.6449 121.404 69.806C119.046 74.1974 116.529 76.443 113.923 76.4818C113.9 76.4818 113.878 76.4818 113.855 76.4818V76.4803Z" fill="#251F47"/>
<path d="M212.025 127.226C211.9 127.226 211.781 127.154 211.724 127.033C211.647 126.868 211.72 126.669 211.885 126.593C223.129 121.39 228.579 113.757 231.17 108.269C233.981 102.316 234.133 97.5297 234.134 97.482C234.139 97.3014 234.287 97.1582 234.466 97.1582C234.469 97.1582 234.472 97.1582 234.475 97.1582C234.658 97.1626 234.803 97.3148 234.798 97.4984C234.794 97.6983 234.646 102.448 231.785 108.522C229.149 114.119 223.604 121.904 212.164 127.196C212.119 127.217 212.072 127.227 212.025 127.227V127.226Z" fill="#251F47"/>
<path d="M216.995 142.856C216.813 142.856 216.665 142.71 216.664 142.528C216.661 142.344 216.809 142.193 216.992 142.192C230.78 142.028 239.874 136.902 239.963 136.85C240.121 136.759 240.324 136.814 240.415 136.973C240.506 137.131 240.451 137.334 240.293 137.425C240.202 137.477 230.957 142.687 217 142.854H216.995V142.856Z" fill="#251F47"/>
<path d="M204.23 141.646C204.23 141.646 207.056 141.949 212.644 140.549C216.869 139.491 215.622 125.774 210.483 129.49C206.192 132.592 203.681 132.995 203.681 132.995L199.545 130.932C197.92 130.124 196.179 129.592 194.387 129.381C187.256 128.541 187.685 130.188 187.685 130.188C187.379 131.853 187.974 132.105 189.284 132.656L194.862 135.001C195.636 135.327 195.812 136.38 195.188 136.958C194.22 137.853 193.101 138.559 191.889 139.038C189.69 139.906 185.856 141.303 181.907 142.195C180.049 142.616 179.46 144.917 181.173 145.769L193.488 146.676C196.609 146.906 199.686 145.822 202.026 143.671L204.227 141.644L204.23 141.646Z" fill="white"/>
<path d="M194.3 147.038C194.022 147.038 193.743 147.028 193.466 147.007L181.15 146.1C181.107 146.097 181.065 146.085 181.027 146.066C180.178 145.643 179.735 144.858 179.841 143.968C179.961 142.956 180.764 142.114 181.834 141.871C185.851 140.962 189.782 139.512 191.768 138.729C192.945 138.265 194.019 137.587 194.963 136.714C195.177 136.516 195.274 136.225 195.221 135.933C195.171 135.645 194.993 135.416 194.734 135.307L189.156 132.962C187.871 132.422 187.019 132.063 187.349 130.177C187.342 130.052 187.364 129.83 187.567 129.595C188.277 128.781 190.583 128.597 194.425 129.051C196.239 129.264 198.011 129.798 199.691 130.635L203.726 132.647C204.225 132.533 206.594 131.892 210.287 129.221C211.655 128.232 212.677 128.473 213.295 128.849C215.158 129.988 215.833 133.838 215.388 136.752C215.04 139.033 214.069 140.534 212.725 140.871C207.798 142.105 205.014 142.032 204.348 141.989L202.252 143.917C200.068 145.925 197.21 147.038 194.3 147.038ZM181.267 145.443L193.513 146.346C196.524 146.568 199.545 145.504 201.803 143.427L204.005 141.401C204.075 141.337 204.171 141.306 204.265 141.316C204.293 141.319 207.113 141.592 212.564 140.227C213.637 139.958 214.427 138.654 214.733 136.65C215.148 133.935 214.53 130.379 212.95 129.415C212.303 129.02 211.539 129.134 210.678 129.757C206.373 132.869 203.841 133.303 203.735 133.321C203.667 133.332 203.597 133.321 203.535 133.29L199.399 131.228C197.787 130.425 196.088 129.913 194.35 129.709C189.3 129.114 188.267 129.804 188.07 130.031C188.067 130.034 188.008 130.103 188.008 130.103C188.02 130.149 188.022 130.198 188.013 130.246C187.755 131.65 188.107 131.798 189.415 132.348L194.993 134.694C195.457 134.89 195.788 135.309 195.878 135.816C195.969 136.332 195.797 136.849 195.417 137.199C194.411 138.129 193.267 138.85 192.014 139.345C189.567 140.31 185.839 141.646 181.983 142.517C181.061 142.726 180.575 143.435 180.502 144.045C180.43 144.635 180.709 145.14 181.268 145.442L181.267 145.443Z" fill="#251F47"/>
<path d="M86.0638 40.9707C86.3338 40.1545 87.1424 39.6771 87.9525 39.8546C90.2141 40.353 101.856 42.9179 104.028 43.4118C106.201 43.9057 106.287 46.3245 107.524 48.5388C108.599 50.4636 112.301 57.5199 116.335 62.4364C117.55 63.9181 117.719 66.0414 116.775 67.7245C116.232 68.6899 115.542 69.6389 114.723 70.1985C112.618 71.6369 111.037 73.3513 106.811 63.2377C106.553 62.62 106.12 62.0903 105.561 61.7232C104.774 61.2054 103.536 60.2639 102.328 58.83C102.328 58.83 95.2475 67.4768 93.4379 49.9205C93.2768 48.3597 93.972 46.8392 95.2863 46.0723C95.3907 46.0111 95.5011 45.9499 95.616 45.8888L87.1334 43.1686C86.2458 42.8836 85.7624 41.8899 86.0653 40.9752L86.0638 40.9707Z" fill="white"/>
<path d="M112.45 71.6249C112.268 71.6249 112.082 71.5996 111.889 71.5444C110.32 71.0878 108.709 68.6407 106.504 63.3645C106.268 62.802 105.879 62.329 105.377 61.9992C104.6 61.4874 103.462 60.6205 102.322 59.3313C101.645 60.0461 99.756 61.7665 97.754 61.1651C95.3641 60.4474 93.7991 56.6738 93.1069 49.9518C92.9428 48.3642 93.6067 46.8437 94.8166 45.9783L87.0322 43.482C86.5279 43.3208 86.1162 42.9657 85.87 42.4823C85.6179 41.9869 85.5732 41.3975 85.7492 40.8678C86.0729 39.8919 87.0516 39.3175 88.0242 39.5323C91.8195 40.3679 102.106 42.6359 104.102 43.0895C105.788 43.473 106.345 44.901 106.936 46.4125C107.188 47.0586 107.449 47.7271 107.813 48.3776C107.931 48.588 108.08 48.8611 108.258 49.1849C109.683 51.7842 113.017 57.8705 116.591 62.226C117.888 63.8062 118.077 66.0817 117.063 67.8857C116.388 69.0853 115.665 69.9553 114.91 70.47L114.633 70.6625C113.951 71.137 113.251 71.6249 112.452 71.6249H112.45ZM102.326 58.4972C102.423 58.4972 102.517 58.5405 102.58 58.6151C103.75 60.0028 104.945 60.9189 105.743 61.4442C106.354 61.847 106.83 62.423 107.117 63.1079C109.18 68.0438 110.755 70.5223 112.076 70.9072C112.814 71.1221 113.481 70.6566 114.254 70.1179L114.536 69.9224C115.205 69.4643 115.86 68.6705 116.484 67.5604C117.366 65.9922 117.202 64.0166 116.077 62.6453C112.463 58.2421 109.108 52.1169 107.675 49.5027C107.497 49.1804 107.349 48.9088 107.232 48.6999C106.847 48.0106 106.577 47.3197 106.316 46.6527C105.746 45.1934 105.295 44.04 103.953 43.7356C101.959 43.282 91.6748 41.0155 87.8795 40.1799C87.2381 40.0382 86.5921 40.4246 86.3773 41.0767C86.2549 41.4452 86.2848 41.8377 86.4593 42.1823C86.6234 42.5061 86.8979 42.7434 87.2321 42.8508L95.7147 45.571C95.8415 45.6112 95.9325 45.7246 95.9444 45.8574C95.9563 45.9902 95.8862 46.1171 95.7684 46.1797C95.658 46.2379 95.552 46.2976 95.4506 46.3558C94.2765 47.0422 93.6142 48.4269 93.7648 49.8847C94.5898 57.8944 96.4919 60.0938 97.9435 60.5295C99.9753 61.1398 102.049 58.6435 102.068 58.6181C102.131 58.542 102.224 58.4972 102.322 58.4972H102.325H102.326Z" fill="#251F47"/>
<path d="M103.948 55.1967C103.891 55.1967 103.833 55.1817 103.781 55.1519C103.218 54.8236 102.185 54.0895 101.765 53.7896C99.474 52.1468 98.1955 50.5129 97.636 49.6848C97.2452 49.1058 97.0483 48.4567 97.0647 47.8092C97.0975 46.5871 97.8717 46.3155 98.2447 46.1857C99.6082 45.7097 101.794 47.0228 102.038 47.1735C102.194 47.269 102.243 47.4734 102.146 47.6301C102.049 47.7853 101.845 47.8345 101.689 47.7375C101.099 47.3734 99.3666 46.4961 98.4625 46.8109C98.1104 46.9333 97.7464 47.0601 97.727 47.8256C97.7136 48.3359 97.8718 48.8492 98.185 49.3132C98.7191 50.104 99.9439 51.6678 102.15 53.2494C102.471 53.4792 103.562 54.2551 104.114 54.5789C104.272 54.6714 104.325 54.8744 104.233 55.0325C104.172 55.1385 104.06 55.1967 103.946 55.1967H103.948Z" fill="#251F47"/>
<path d="M102.422 59.2612C102.334 59.2612 102.246 59.2269 102.18 59.1567C100.305 57.1618 100.415 55.04 100.421 54.9519C100.433 54.7699 100.59 54.6311 100.773 54.6416C100.955 54.6535 101.094 54.8102 101.084 54.9922C101.082 55.0236 101 56.932 102.665 58.7016C102.79 58.8344 102.784 59.0448 102.65 59.1702C102.586 59.2299 102.504 59.2597 102.423 59.2597L102.422 59.2612Z" fill="#251F47"/>
<path d="M213.912 65.3088L213.144 44.5429L198.579 52.1931L198.739 65.3178C198.845 68.2438 201.248 69.8762 201.248 69.8762C204.224 72.1398 208.394 71.7294 211.429 69.548L212.131 69.0436C213.307 68.1991 213.98 66.789 213.912 65.3088Z" fill="white"/>
<path d="M205.901 71.7324C204.144 71.7324 202.448 71.2042 201.047 70.1388C200.957 70.0791 198.52 68.3871 198.408 65.3282L198.248 52.196C198.247 52.0707 198.315 51.9558 198.426 51.8976L212.991 44.2475C213.092 44.1938 213.213 44.1967 213.311 44.2534C213.41 44.3101 213.472 44.4146 213.477 44.528L214.245 65.2924C214.317 66.892 213.601 68.3945 212.327 69.3107L211.624 69.815C209.852 71.0893 207.839 71.7309 205.903 71.7309L205.901 71.7324ZM198.914 52.3915L199.072 65.3133C199.17 68.02 201.412 69.5852 201.435 69.6017C204.157 71.6712 208.091 71.5384 211.235 69.2779L211.937 68.7735C213.028 67.9887 213.643 66.6995 213.58 65.3237V65.3207L212.831 45.0816L198.912 52.393L198.914 52.3915Z" fill="#251F47"/>
<path d="M191.969 20.76C195.857 20.5287 190.97 24.6455 205.347 20.3243C211.072 18.6038 208.177 25.4796 209.662 25.0379C215.152 23.404 214.963 23.4532 217.642 24.1784C219.416 24.6574 220.572 28.0236 220.238 30.5379C219.798 33.8563 217.135 34.7143 214.779 41.7288C213.124 46.6543 213.531 49.646 211.612 50.3652C209.673 51.0919 208.239 48.4135 206.063 49.0432C203.246 49.8579 203.803 54.8759 201.061 56.9574C199.332 58.2705 195.308 58.8793 188.86 55.6533C187.816 55.1311 187.279 53.909 187.588 52.7511C187.983 51.2679 188.493 49.3968 189.126 47.651C192.139 39.3309 195.017 37.4494 193.974 35.2947C192.377 31.9927 186.305 33.8877 185.299 31.175C184.255 28.3579 186.648 21.0793 191.971 20.7615L191.969 20.76Z" fill="#251F47"/>
<path d="M205.538 35.0828L204.425 37.2195C203.901 38.2267 203.446 39.2667 203.061 40.3396C202.339 42.3495 200.971 45.7485 200.222 47.6704C197.817 53.8463 190.436 47.0616 190.436 47.0616L189.923 45.3621L188.93 44.9458C188.738 44.8652 188.56 44.7443 188.434 44.5742C188.116 44.1519 188.114 43.5924 188.384 43.1806C189.867 40.926 192.96 35.8647 194.071 31.3212C194.071 31.3212 200.406 29.6366 205.538 35.0813V35.0828Z" fill="white"/>
<path d="M196.885 50.5979C193.833 50.5979 190.373 47.454 190.213 47.3063C190.17 47.266 190.137 47.2153 190.121 47.1586L189.652 45.6083L188.804 45.2532C188.541 45.1427 188.323 44.9786 188.17 44.7757C187.777 44.2549 187.752 43.5417 188.108 43C189.433 40.9872 192.633 35.8095 193.75 31.2451C193.779 31.1272 193.87 31.0347 193.988 31.0034C194.053 30.9855 200.574 29.3337 205.781 34.8575C205.878 34.9605 205.898 35.1127 205.833 35.238L204.72 37.3747C204.205 38.364 203.752 39.401 203.374 40.453C202.851 41.9138 201.972 44.1385 201.266 45.9261C200.993 46.6199 200.74 47.2616 200.534 47.7913C199.946 49.2998 199.018 50.2115 197.775 50.501C197.486 50.5681 197.188 50.5994 196.886 50.5994L196.885 50.5979ZM190.728 46.8766C191.265 47.3496 194.941 50.4771 197.625 49.8534C198.641 49.6176 199.411 48.8417 199.915 47.5495C200.121 47.0198 200.374 46.3767 200.649 45.6814C201.353 43.8983 202.229 41.678 202.749 40.2277C203.137 39.1474 203.603 38.0835 204.132 37.0674L205.135 35.141C200.713 30.6035 195.399 31.3898 194.344 31.6017C193.206 36.0453 190.306 40.8648 188.662 43.3641C188.46 43.6715 188.474 44.0789 188.699 44.3758C188.781 44.4847 188.907 44.5757 189.06 44.6414L190.052 45.0577C190.143 45.0965 190.213 45.1726 190.242 45.2681L190.73 46.8796L190.728 46.8766Z" fill="#251F47"/>
<path d="M203.968 42.542C203.968 42.542 206.636 37.4001 208.641 39.1519C210.646 40.9021 207.57 46.4871 203.968 42.542Z" fill="white"/>
<path d="M194.088 43.4194C193.524 43.4194 193.051 43.2373 192.676 42.8762C191.983 42.2063 191.684 40.9305 191.787 39.0818C191.866 37.6613 192.265 36.8122 193.003 36.4855C193.548 36.2437 194.125 36.2273 194.628 36.4377C195.044 36.6123 195.362 36.9242 195.5 37.2927C196.386 39.6473 196.017 41.5811 195.375 42.6047C195.072 43.0896 194.705 43.3746 194.344 43.4074C194.256 43.4149 194.17 43.4194 194.086 43.4194H194.088ZM193.891 36.954C193.689 36.954 193.479 37.0003 193.273 37.0913C192.784 37.3076 192.515 37.9716 192.45 39.1191C192.359 40.7425 192.596 41.878 193.137 42.4003C193.425 42.6778 193.803 42.7927 194.284 42.7479C194.396 42.7375 194.61 42.5778 194.814 42.254C195.347 41.405 195.682 39.6577 194.881 37.527C194.808 37.3315 194.617 37.1539 194.373 37.051C194.222 36.9883 194.059 36.957 193.891 36.957V36.954Z" fill="#251F47"/>
<path d="M206.377 38.5431C206.362 38.5431 206.349 38.5431 206.334 38.5401L194.179 36.9525C193.997 36.9286 193.868 36.763 193.894 36.5809C193.917 36.3989 194.082 36.2706 194.265 36.2945L206.421 37.8821C206.603 37.9059 206.731 38.0716 206.705 38.2536C206.683 38.4207 206.541 38.5431 206.377 38.5431Z" fill="#251F47"/>
<path d="M188.778 42.1182C188.727 42.1182 188.677 42.1078 188.631 42.0854C188.281 41.9183 188.032 41.2677 187.914 40.8947C187.544 39.7189 187.419 37.9836 188.178 36.6377C188.434 36.1855 188.798 35.911 189.262 35.8244C190.412 35.6066 191.759 36.6884 191.816 36.7346C191.957 36.8495 191.978 37.0584 191.863 37.2017C191.748 37.3434 191.54 37.3658 191.396 37.2494C191.076 36.9898 190.084 36.3437 189.384 36.4765C189.118 36.5272 188.912 36.6869 188.756 36.9644C187.738 38.7684 188.613 41.2558 188.93 41.496C189.096 41.5751 189.159 41.7691 189.08 41.9347C189.023 42.0526 188.902 42.1197 188.778 42.1197V42.1182Z" fill="#251F47"/>
<path d="M112.523 173.407C117.604 173.407 121.723 169.287 121.723 164.205C121.723 159.123 117.604 155.003 112.523 155.003C107.442 155.003 103.323 159.123 103.323 164.205C103.323 169.287 107.442 173.407 112.523 173.407Z" fill="white"/>
<path d="M142.606 173.407C147.687 173.407 151.806 169.287 151.806 164.205C151.806 159.123 147.687 155.003 142.606 155.003C137.525 155.003 133.406 159.123 133.406 164.205C133.406 169.287 137.525 173.407 142.606 173.407Z" fill="white"/>
<path d="M142.606 173.74C137.35 173.74 133.073 169.464 133.073 164.205C133.073 158.947 137.349 154.671 142.606 154.671C147.863 154.671 152.139 158.947 152.139 164.205C152.139 169.464 147.862 173.74 142.606 173.74ZM142.606 155.335C137.716 155.335 133.737 159.314 133.737 164.205C133.737 169.097 137.716 173.076 142.606 173.076C147.496 173.076 151.475 169.097 151.475 164.205C151.475 159.314 147.496 155.335 142.606 155.335Z" fill="#9C84F4"/>
<path d="M139.549 167.767V160.644C139.549 160.28 139.931 160.044 140.256 160.203L147.378 163.72C147.741 163.899 147.744 164.416 147.383 164.598L140.261 168.204C139.934 168.37 139.549 168.133 139.549 167.767Z" fill="#9C84F4"/>
<path d="M172.689 173.407C177.77 173.407 181.889 169.287 181.889 164.205C181.889 159.123 177.77 155.003 172.689 155.003C167.608 155.003 163.489 159.123 163.489 164.205C163.489 169.287 167.608 173.407 172.689 173.407Z" fill="white"/>
<path d="M172.689 173.74C167.433 173.74 163.156 169.464 163.156 164.205C163.156 158.947 167.433 154.671 172.689 154.671C177.945 154.671 182.222 158.947 182.222 164.205C182.222 169.464 177.946 173.74 172.689 173.74ZM172.689 155.335C167.799 155.335 163.82 159.314 163.82 164.205C163.82 169.097 167.799 173.076 172.689 173.076C177.579 173.076 181.558 169.097 181.558 164.205C181.558 159.314 177.579 155.335 172.689 155.335Z" fill="#251F47"/>
<path d="M175.707 167.545C175.622 167.545 175.537 167.512 175.473 167.448L169.334 161.308C169.204 161.178 169.204 160.967 169.334 160.839C169.463 160.709 169.674 160.709 169.802 160.839L175.941 166.979C176.071 167.109 176.071 167.319 175.941 167.448C175.877 167.512 175.792 167.545 175.707 167.545Z" fill="#251F47"/>
<path d="M169.568 167.545C169.483 167.545 169.398 167.512 169.334 167.448C169.204 167.318 169.204 167.107 169.334 166.979L175.473 160.839C175.602 160.709 175.813 160.709 175.941 160.839C176.071 160.969 176.071 161.179 175.941 161.308L169.802 167.448C169.738 167.512 169.653 167.545 169.568 167.545Z" fill="#251F47"/>
<path d="M128.69 127.695C128.581 127.695 128.474 127.641 128.411 127.542C128.313 127.389 128.357 127.183 128.511 127.084L144.794 116.615C144.95 116.517 145.154 116.562 145.252 116.715C145.351 116.869 145.306 117.075 145.152 117.174L128.869 127.642C128.814 127.678 128.751 127.695 128.69 127.695Z" fill="#251F47"/>
<path d="M107.059 141.603C106.95 141.603 106.842 141.549 106.78 141.45C106.681 141.297 106.726 141.091 106.88 140.992L121.622 131.514C121.775 131.416 121.981 131.461 122.08 131.614C122.178 131.768 122.134 131.974 121.98 132.072L107.238 141.55C107.182 141.586 107.12 141.603 107.059 141.603Z" fill="#251F47"/>
<path d="M121.156 143.987C121.047 143.987 120.94 143.933 120.877 143.835C120.779 143.681 120.823 143.475 120.977 143.377L158.892 119C159.047 118.901 159.252 118.946 159.35 119.1C159.449 119.254 159.404 119.459 159.25 119.558L121.334 143.935C121.279 143.971 121.216 143.987 121.155 143.987H121.156Z" fill="#251F47"/>
<path d="M76.4087 212.704L29.9411 212.241C21.5376 212.241 14.3514 206.755 12.879 198.402L4.92454 153.259C3.97723 147.881 8.0738 142.946 13.4832 142.946H43.8032L76.4102 212.704H76.4087Z" fill="white"/>
<path d="M76.4086 213.035H76.4056L29.938 212.573C21.1675 212.573 14.0171 206.768 12.5521 198.458L4.59769 153.316C4.12627 150.637 4.85428 147.911 6.59525 145.834C8.31384 143.787 10.8231 142.611 13.483 142.611H43.8031C43.9314 142.611 44.0492 142.686 44.1029 142.802L76.7099 212.561C76.7577 212.664 76.7502 212.784 76.689 212.88C76.6279 212.975 76.5235 213.032 76.4101 213.032L76.4086 213.035ZM13.483 143.277C11.02 143.277 8.69575 144.365 7.10397 146.262C5.48831 148.189 4.81251 150.718 5.25111 153.202L13.2056 198.345C14.6124 206.332 21.4942 211.91 29.941 211.91L75.885 212.367L43.5912 143.277H13.483Z" fill="#251F47"/>
<path d="M48.6859 267.899H41.0417V212.161L48.6859 212.452V267.899Z" fill="#251F47"/>
<path d="M62.918 258.575H28.5283C23.1636 258.575 18.8149 262.924 18.8149 268.29H72.6328C72.6328 262.924 68.2841 258.575 62.9195 258.575H62.918Z" fill="#251F47"/>
<path d="M17.4933 178.131C17.3351 178.131 17.1949 178.018 17.1666 177.857L13.3102 155.943C13.2788 155.763 13.3982 155.591 13.5787 155.56C13.7607 155.529 13.9308 155.649 13.9621 155.828L17.8185 177.742C17.8498 177.922 17.7305 178.094 17.55 178.125C17.5306 178.128 17.5112 178.13 17.4918 178.13L17.4933 178.131Z" fill="#251F47"/>
<path d="M61.2084 106.557C64.2622 106.287 66.3955 109.071 68.1051 113.288C69.5 116.73 68.951 119.597 67.0683 121.484C60.9742 127.59 54.3624 145.209 45.3218 150.567C38.1088 154.842 23.01 154.051 16.0357 145.187C9.40446 136.758 8.39598 124.551 15.8999 119.058C22.6445 114.121 28.9266 122.583 36.0859 117.991C43.1438 113.464 43.0319 109.711 47.2075 107.503C51.689 105.134 52.5557 107.323 61.2099 106.557H61.2084Z" fill="#251F47"/>
<path d="M104.724 240.705C104.66 240.971 107.77 255.207 107.77 255.207L100.62 254.01L98.4656 241.973L104.722 240.705H104.724Z" fill="white"/>
<path d="M107.77 255.54C107.752 255.54 107.734 255.54 107.715 255.535L100.565 254.339C100.426 254.315 100.317 254.207 100.293 254.07L98.1389 242.033C98.1076 241.855 98.2225 241.685 98.4 241.65L104.657 240.381C104.769 240.359 104.884 240.395 104.961 240.477C105.025 240.544 105.058 240.633 105.054 240.723C105.101 241.314 106.893 249.646 108.092 255.138C108.116 255.246 108.085 255.358 108.009 255.438C107.946 255.504 107.858 255.541 107.769 255.541L107.77 255.54ZM100.906 253.722L107.342 254.8C105.216 245.064 104.615 242.057 104.454 241.099L98.8505 242.234L100.906 253.722Z" fill="#251F47"/>
<path d="M103.973 250.538C104.41 250.17 105.035 249.811 105.832 249.777C107.03 249.726 108.123 250.477 108.619 251.578C109.858 254.334 113.129 262.013 114.052 268.288C114.379 270.506 112.705 272.31 110.099 270.856C105.826 268.475 99.899 263.008 96.796 254.932C96.4394 254.006 96.5677 252.957 97.1525 252.157C97.6299 251.504 98.2789 250.713 99.0307 250.038C99.7498 249.394 100.831 249.385 101.577 249.998L102.249 250.55C102.753 250.965 103.475 250.957 103.975 250.538H103.973Z" fill="white"/>
<path d="M111.859 271.713C111.336 271.713 110.694 271.568 109.936 271.146C105.465 268.654 99.5846 263.118 96.4846 255.05C96.0832 254.006 96.2324 252.849 96.8829 251.96C97.5109 251.102 98.1584 250.373 98.8073 249.791C99.6502 249.036 100.903 249.015 101.787 249.741L102.458 250.293C102.835 250.604 103.383 250.599 103.76 250.283C104.375 249.765 105.086 249.476 105.817 249.444C107.12 249.388 108.36 250.192 108.922 251.441C110.256 254.407 113.459 261.98 114.381 268.238C114.569 269.516 114.145 270.685 113.274 271.288C112.989 271.485 112.516 271.713 111.861 271.713H111.859ZM100.32 249.874C99.9367 249.874 99.5547 250.011 99.2504 250.284C98.6358 250.835 98.0182 251.532 97.4184 252.353C96.9023 253.06 96.7844 253.979 97.1052 254.813C100.141 262.714 105.891 268.132 110.26 270.567C111.291 271.141 112.228 271.204 112.896 270.743C113.559 270.286 113.876 269.364 113.724 268.336C112.816 262.16 109.64 254.655 108.316 251.714C107.864 250.71 106.874 250.064 105.846 250.107C105.254 250.132 104.696 250.362 104.187 250.79C103.566 251.313 102.662 251.319 102.037 250.805L101.366 250.253C101.059 250.001 100.689 249.874 100.32 249.874Z" fill="#251F47"/>
<path d="M112.426 269.214C111.864 269.214 105.835 268.861 98.5251 254.41C98.4431 254.246 98.5072 254.048 98.6713 253.964C98.8354 253.882 99.0339 253.946 99.1174 254.11C106.444 268.594 112.377 268.548 112.438 268.55C112.627 268.542 112.775 268.687 112.781 268.869C112.787 269.052 112.644 269.206 112.462 269.212C112.454 269.212 112.444 269.212 112.428 269.212L112.426 269.214Z" fill="#251F47"/>
<path d="M107.849 261.258C107.717 261.258 107.593 261.178 107.541 261.047C107.473 260.877 107.557 260.685 107.727 260.617L111.116 259.28C111.288 259.213 111.479 259.297 111.546 259.467C111.613 259.637 111.53 259.83 111.36 259.897L107.97 261.234C107.93 261.25 107.89 261.258 107.848 261.258H107.849Z" fill="#251F47"/>
<path d="M106.662 258.661C106.529 258.661 106.404 258.581 106.353 258.449C106.286 258.279 106.371 258.087 106.542 258.02L110.518 256.472C110.688 256.407 110.881 256.49 110.948 256.662C111.013 256.832 110.93 257.024 110.758 257.092L106.782 258.639C106.744 258.654 106.702 258.661 106.662 258.661Z" fill="#251F47"/>
<path d="M74.2141 240.666C74.1619 240.774 73.7651 242.445 73.4548 245.262C72.9386 249.955 78.1899 254.3 78.1899 254.3L65.7524 252.623L66.2283 241.763L74.2141 240.666Z" fill="white"/>
<path d="M78.1898 254.631C78.1749 254.631 78.16 254.631 78.1451 254.628L65.7077 252.951C65.5376 252.929 65.4138 252.779 65.4212 252.608L65.8971 241.748C65.9046 241.588 66.0239 241.456 66.1835 241.433L74.1693 240.336C74.2917 240.32 74.411 240.371 74.4826 240.469C74.5512 240.563 74.5647 240.687 74.5199 240.795C74.4468 241.008 74.0709 242.7 73.7859 245.298C73.2951 249.761 78.3509 254.001 78.4032 254.043C78.5165 254.137 78.5553 254.297 78.4956 254.431C78.4419 254.553 78.3226 254.63 78.1913 254.63L78.1898 254.631ZM66.097 252.335L77.1858 253.83C75.7044 252.376 72.7163 248.946 73.125 245.226C73.3414 243.258 73.6054 241.805 73.771 241.063L66.5461 242.055L66.0955 252.335H66.097Z" fill="#251F47"/>
<path d="M68.6225 249.471C69.352 249.231 69.185 248.103 69.7817 247.572C70.6813 246.771 71.8076 246.787 72.8802 247.327C75.5625 248.68 82.8904 252.569 87.5211 256.857C89.1576 258.373 88.9831 260.838 86.0501 261.365C81.2449 262.23 73.2308 261.75 65.7836 257.448C64.9288 256.954 64.3738 256.059 64.329 255.065C64.2932 254.254 64.329 251.565 64.4946 250.562C64.6513 249.604 65.4867 248.909 66.4474 248.912H67.3142C67.9646 248.916 68.0019 249.674 68.6196 249.471H68.6225Z" fill="white"/>
<path d="M81.6971 262.06C76.9934 262.06 71.1454 260.928 65.6196 257.735C64.6544 257.178 64.0502 256.184 64.001 255.08C63.9637 254.251 64.001 251.544 64.171 250.508C64.3545 249.391 65.3108 248.58 66.4461 248.58H67.3188C67.7604 248.583 68.0066 248.827 68.1856 249.004C68.3676 249.185 68.3959 249.197 68.5197 249.156C68.751 249.08 68.8435 248.822 68.9762 248.409C69.0941 248.04 69.2284 247.623 69.5625 247.324C70.5054 246.483 71.7376 246.38 73.031 247.032C75.9177 248.488 83.1293 252.338 87.748 256.614C88.6893 257.485 89.0891 258.661 88.7923 259.679C88.6162 260.282 88.0329 261.346 86.1114 261.692C84.818 261.925 83.3277 262.06 81.6986 262.06H81.6971ZM66.4446 249.244C65.636 249.244 64.9543 249.82 64.8245 250.617C64.6648 251.595 64.6276 254.265 64.6634 255.052C64.7021 255.929 65.184 256.719 65.9523 257.162C73.2369 261.371 81.081 261.925 85.9936 261.04C87.1572 260.831 87.9255 260.282 88.1553 259.494C88.382 258.718 88.0538 257.802 87.2974 257.102C82.7414 252.882 75.594 249.07 72.7327 247.626C72.0017 247.257 70.935 246.991 70.0041 247.821C69.8042 247.999 69.7087 248.297 69.6088 248.613C69.4596 249.077 69.2925 249.603 68.7286 249.789C68.208 249.961 67.9156 249.671 67.7201 249.479C67.568 249.328 67.4799 249.249 67.3173 249.249H66.4506C66.4506 249.249 66.4476 249.247 66.4461 249.247L66.4446 249.244Z" fill="#251F47"/>
<path d="M81.5793 259.888C78.4465 259.888 73.7054 259.033 66.8027 255.941C66.6356 255.867 66.561 255.67 66.6356 255.502C66.7102 255.335 66.9071 255.261 67.0742 255.335C81.7956 261.931 86.38 258.127 86.4263 258.087C86.5635 257.966 86.7739 257.979 86.8947 258.117C87.0155 258.254 87.0021 258.464 86.8649 258.585C86.759 258.678 85.3059 259.886 81.5808 259.886L81.5793 259.888Z" fill="#251F47"/>
<path d="M78.1124 255.411C78.0572 255.411 78.002 255.398 77.9498 255.368C77.7901 255.279 77.7334 255.076 77.823 254.916L79.6221 251.723C79.7116 251.563 79.9145 251.507 80.0741 251.598C80.2338 251.687 80.2904 251.89 80.2009 252.05L78.4018 255.243C78.3406 255.35 78.2287 255.411 78.1124 255.411Z" fill="#251F47"/>
<path d="M75.5687 254.148C75.5105 254.148 75.4508 254.131 75.3956 254.098C75.239 254.003 75.1898 253.798 75.2853 253.642L77.3112 250.316C77.4066 250.159 77.6095 250.11 77.7677 250.205C77.9243 250.301 77.9735 250.505 77.8781 250.662L75.8521 253.988C75.7895 254.091 75.6806 254.148 75.5687 254.148Z" fill="#251F47"/>
<path d="M40.5136 185.925C40.5136 185.925 84.0528 184.034 88.8117 188.455C95.2684 194.452 106.36 244.374 106.36 244.374L95.6503 247.378C95.6503 247.378 79.5146 206.407 75.5165 206.407C71.5184 206.407 33.8228 205.061 33.8228 205.061L40.5136 185.925Z" fill="#251F47"/>
<path d="M31.9475 184.549C31.9475 184.549 26.2054 201.41 30.7749 204.485C35.3444 207.56 68.2811 207.299 67.1398 206.914C65.9971 206.529 64.195 234.522 64.195 245.286L74.5662 245.686C74.5662 245.686 91.0927 202.396 89.3115 197.563C86.1249 188.916 62.0959 185.996 54.2444 184.841C52.6273 184.603 31.949 184.55 31.949 184.55L31.9475 184.549Z" fill="#251F47"/>
<path d="M83.8337 221.379C83.8009 221.379 83.7666 221.375 83.7323 221.363C83.5577 221.307 83.4622 221.119 83.5174 220.945C83.8904 219.781 84.2604 218.635 84.6244 217.513C87.526 208.544 90.0338 200.797 88.9954 197.665C86.792 191.014 70.3162 188.464 64.9023 187.627C64.7218 187.599 64.5965 187.43 64.6249 187.248C64.6532 187.068 64.8248 186.942 65.0038 186.971C74.5724 188.451 87.5364 191.149 89.6265 197.456C90.7319 200.794 88.3167 208.262 85.2569 217.717C84.8944 218.838 84.5229 219.982 84.1515 221.148C84.1067 221.288 83.9754 221.379 83.8352 221.379H83.8337Z" fill="white"/>
<path d="M37.1093 133.426C37.1093 133.426 37.263 130.646 35.5459 159.624C35.5459 159.624 36.7274 182.048 36.8751 184.576C37.0228 187.105 58.9453 186.005 58.9453 186.005C61.5381 174.634 61.2547 161.584 59.4466 147.646L63.203 147.31L63.4641 138.548C62.7838 135.968 59.9135 134.114 57.9846 133.424C52.8497 131.116 43.7435 131.858 37.1078 133.426H37.1093Z" fill="white"/>
<path d="M49.1036 186.574C48.7246 186.574 48.3427 186.574 47.9623 186.569C36.6527 186.484 36.5766 185.159 36.5438 184.594C36.3976 182.093 35.2265 159.865 35.2146 159.641C35.2146 159.629 35.2146 159.616 35.2146 159.604C35.9352 147.446 36.326 140.879 36.5364 137.35C36.6423 135.586 36.702 134.581 36.7378 134.018C36.7527 133.776 36.7631 133.593 36.778 133.453C36.778 133.438 36.778 133.423 36.778 133.406L36.781 133.345H36.7915C36.8347 133.039 36.9108 133.009 37.1316 133.021C37.1585 133.023 37.2032 133.029 37.2524 133.05C43.6106 131.577 52.8003 130.727 58.1217 133.12C60.3714 133.923 63.1223 135.944 63.7862 138.462C63.7937 138.493 63.7981 138.524 63.7966 138.556L63.5356 147.317C63.5311 147.486 63.4013 147.623 63.2342 147.638L59.8209 147.944C61.7916 163.335 61.6126 175.811 59.2704 186.078C59.2376 186.223 59.1123 186.329 58.9631 186.336C58.9124 186.339 54.1519 186.575 49.1051 186.575L49.1036 186.574ZM35.877 159.624C35.9173 160.381 37.0615 182.088 37.2047 184.555C37.2122 184.685 37.5792 185.828 47.9668 185.905C52.7347 185.943 57.5399 185.737 58.6767 185.684C60.9651 175.465 61.1084 163.032 59.1168 147.686C59.1048 147.596 59.1302 147.505 59.1869 147.435C59.2436 147.365 59.3256 147.32 59.4166 147.313L62.8807 147.003L63.1313 138.584C62.5077 136.32 59.9746 134.485 57.8741 133.733C52.684 131.401 43.6793 132.244 37.4225 133.69C37.3539 134.794 37.063 139.62 35.8785 159.621L35.877 159.624Z" fill="#251F47"/>
<path d="M50.2091 157.659C50.0898 157.659 49.9749 157.595 49.9152 157.482C49.8302 157.319 49.8914 157.119 50.054 157.034C55.2694 154.286 55.617 146.55 55.6185 146.471C55.626 146.288 55.7752 146.146 55.9616 146.152C56.1451 146.16 56.2883 146.313 56.2809 146.495C56.2689 146.828 55.9139 154.693 50.3613 157.619C50.3121 157.644 50.2598 157.658 50.2076 157.658L50.2091 157.659Z" fill="#251F47"/>
<path d="M40.8134 133.039C40.8134 133.039 35.5338 132.429 32.1339 137.074C28.7579 141.686 28.3461 146.944 28.9832 151.172C30.0647 158.347 34.5731 166.517 34.3657 168.746C34.2642 169.828 33.117 177.521 28.7758 184.41C25.1999 190.083 25.3535 202.593 26.0517 203.001C30.7584 205.743 38.4757 211.31 47.6684 211.976C49.3661 212.098 50.7535 211.219 50.9996 209.845C51.9813 204.352 54.6114 188.422 55.0067 173.467C55.3498 160.515 46.1288 140.851 45.7215 139.163C44.7369 135.07 40.8119 133.039 40.8119 133.039H40.8134Z" fill="white"/>
<path d="M47.9905 212.319C47.8771 212.319 47.7623 212.314 47.6444 212.307C39.6974 211.732 32.9931 207.625 28.0984 204.624C27.3077 204.139 26.5603 203.682 25.886 203.289C25.7368 203.202 25.6414 203.03 25.5638 202.714C25.0596 200.653 25.1416 189.558 28.4967 184.236C33.0931 176.942 34.0299 168.797 34.0374 168.717C34.1224 167.809 33.2631 165.587 32.2681 163.016C30.9299 159.56 29.2665 155.259 28.6579 151.224C28.091 147.456 28.1864 141.91 31.8683 136.882C35.3413 132.137 40.7984 132.708 40.8521 132.714C40.8924 132.718 40.9312 132.73 40.967 132.748C41.1326 132.833 45.0382 134.897 46.0467 139.088C46.1153 139.372 46.4957 140.31 47.0223 141.609C49.5957 147.956 55.6227 162.821 55.3408 173.479C54.9499 188.275 52.4049 203.882 51.3278 209.906C51.0682 211.362 49.7181 212.322 47.992 212.322L47.9905 212.319ZM26.2635 202.739C26.9333 203.13 27.6688 203.581 28.4445 204.057C33.281 207.022 39.9063 211.082 47.6922 211.644C49.2302 211.755 50.458 210.991 50.6728 209.787C51.747 203.778 54.2861 188.211 54.6754 173.459C54.9529 162.94 48.7439 147.622 46.4062 141.856C45.8289 140.433 45.4813 139.573 45.4007 139.241C44.5265 135.607 41.1833 133.626 40.7149 133.365C40.1301 133.32 35.4502 133.106 32.4024 137.271C28.8548 142.119 28.7638 147.48 29.3128 151.124C29.9095 155.085 31.5595 159.35 32.8857 162.776C33.9956 165.642 34.7968 167.715 34.6968 168.779C34.5014 170.869 33.0468 178.26 29.0577 184.589C25.5638 190.134 25.7861 201.793 26.265 202.742L26.2635 202.739Z" fill="#251F47"/>
<path d="M84.369 173.307C78.2615 170.935 67.4725 161.063 64.5455 153.181L64.2636 139.488C63.9399 137.328 63.179 136.456 61.3739 135.251C60.6668 134.778 59.4479 134.245 58.4589 134.048C58.4589 134.048 57.9472 133.757 57.8353 136.559C57.7801 137.923 59.5166 153.095 59.8269 166.099C60.0447 175.199 58.6871 183.149 58.7781 184.898C58.7856 185.028 64.7738 186.226 65.1766 185.823L65.2169 185.702L64.8723 168.952C68.2393 171.89 74.6736 176.953 79.7831 176.768L84.3705 173.306L84.369 173.307Z" fill="white"/>
<path d="M64.6068 186.22C62.7987 186.22 58.7543 185.256 58.7096 185.238C58.5007 185.158 58.4515 185.019 58.4455 184.916C58.4142 184.319 58.541 183.072 58.7155 181.344C59.084 177.709 59.6405 172.215 59.4943 166.106C59.2809 157.188 58.4037 147.334 57.8801 141.446C57.6325 138.671 57.4833 136.995 57.5027 136.546C57.5907 134.372 57.9144 133.92 58.1859 133.769C58.3172 133.696 58.4485 133.696 58.5469 133.727C59.6255 133.947 60.8742 134.518 61.5575 134.975C63.3745 136.189 64.2443 137.122 64.5919 139.439C64.5933 139.452 64.5948 139.467 64.5948 139.481L64.8753 153.119C67.7292 160.723 78.2033 170.559 84.4884 172.998C84.6003 173.042 84.6809 173.143 84.6973 173.263C84.7137 173.382 84.6645 173.5 84.569 173.573L79.9816 177.035C79.9279 177.075 79.8623 177.099 79.7936 177.102C75.1764 177.267 69.4209 173.276 65.2169 169.692L65.5466 185.698C65.5466 185.735 65.5422 185.774 65.5302 185.81L65.4899 185.931C65.4735 185.98 65.4467 186.025 65.4094 186.06C65.2945 186.175 65.0051 186.222 64.6068 186.222V186.22ZM59.1034 184.673C60.0716 184.959 64.0205 185.658 64.8798 185.574L64.5381 168.961C64.5352 168.829 64.6113 168.709 64.7291 168.653C64.8485 168.598 64.9887 168.618 65.0871 168.704C70.9844 173.847 76.0253 176.518 79.6653 176.441L83.7052 173.392C77.2396 170.566 67.0355 160.841 64.2338 153.296C64.2204 153.262 64.2144 153.225 64.2129 153.187L63.931 139.515C63.6222 137.478 62.9419 136.697 61.1875 135.525C60.5743 135.115 59.4629 134.603 58.4873 134.393C58.4082 134.54 58.2262 135.04 58.1635 136.573C58.1471 136.979 58.3112 138.827 58.5395 141.388C59.0646 147.283 59.9418 157.151 60.1551 166.091C60.3028 172.24 59.7434 177.76 59.3734 181.411C59.2213 182.918 59.1049 184.055 59.1019 184.673H59.1034Z" fill="#251F47"/>
<path d="M76.5769 174.329C76.75 173.991 77.0409 173.722 77.3989 173.594C77.6555 173.501 77.9076 173.38 78.1478 173.252L81.4791 171.484C82.1027 171.178 82.9948 171.891 83.6422 172.103C85.5965 172.745 89.6439 174.258 89.3097 175.678C88.9502 177.211 85.4712 176.486 84.2375 176.177C83.9555 176.107 81.4 177.032 80.5914 177.093C79.4755 177.178 79.2175 176.893 78.6714 176.606C78.4223 176.475 78.1448 176.417 77.845 176.415C77.3855 176.412 76.9469 176.22 76.659 175.86L76.6515 175.851C76.3337 175.454 76.2785 174.908 76.5098 174.456L76.5754 174.328L76.5769 174.329Z" fill="white"/>
<path d="M80.2248 177.442C79.4654 177.442 79.1163 177.242 78.7493 177.032C78.6762 176.99 78.6002 176.947 78.5181 176.903C78.3242 176.802 78.1034 176.751 77.8438 176.75C77.2694 176.745 76.7443 176.497 76.4012 176.069C75.9969 175.563 75.9268 174.876 76.2162 174.307L76.2819 174.179C76.4982 173.755 76.8547 173.437 77.2859 173.282C77.4932 173.207 77.717 173.104 77.9915 172.96L81.3228 171.191C81.918 170.899 82.5774 171.232 83.1577 171.523C83.3725 171.63 83.5754 171.732 83.7455 171.788C87.9465 173.169 89.9277 174.502 89.6338 175.754C89.5517 176.106 89.3414 176.389 89.0117 176.588C87.8809 177.278 85.5133 176.836 84.1841 176.505C84.0066 176.517 83.3069 176.726 82.7922 176.878C81.9463 177.129 81.0721 177.39 80.6186 177.424C80.4769 177.434 80.3456 177.44 80.2263 177.44L80.2248 177.442ZM81.8225 171.742C81.7494 171.742 81.6823 171.754 81.6241 171.784L78.3033 173.546C78.0004 173.707 77.7498 173.821 77.5111 173.907C77.2396 174.006 77.0128 174.209 76.8726 174.482L76.807 174.61C76.6354 174.946 76.6772 175.351 76.9129 175.647C77.1367 175.927 77.4753 176.084 77.8483 176.087C78.2123 176.09 78.542 176.166 78.8269 176.317C78.9164 176.365 79 176.411 79.079 176.457C79.4565 176.674 79.728 176.829 80.5664 176.766C80.9498 176.738 81.8658 176.465 82.6013 176.247C83.7903 175.893 84.114 175.81 84.3169 175.859C86.3681 176.372 87.9942 176.435 88.6641 176.026C88.8416 175.917 88.943 175.784 88.9848 175.607C89.1698 174.82 87.0305 173.57 83.5366 172.422C83.3203 172.351 83.0951 172.239 82.8593 172.12C82.5058 171.942 82.1134 171.745 81.8225 171.745V171.742Z" fill="#251F47"/>
<path d="M45.632 167.673C49.9314 177.511 57.6218 179.849 70.2353 181.529L68.8897 185.25C50.0433 187.603 46.4957 183.874 38.877 173.892L45.632 167.671V167.673Z" fill="white"/>
<path d="M36.2767 192.011C34.943 192.011 33.4736 191.744 31.8684 191.095C31.6983 191.026 31.6163 190.832 31.6849 190.664C31.7535 190.494 31.946 190.411 32.116 190.48C40.6538 193.928 45.1218 185.913 45.1651 185.832C45.2531 185.671 45.453 185.611 45.6141 185.699C45.7753 185.787 45.8349 185.987 45.7469 186.148C45.7081 186.22 42.4798 192.011 36.2738 192.011H36.2767Z" fill="#251F47"/>
<path d="M64.8781 168.355C64.7006 168.355 64.5529 168.215 64.5469 168.036L64.0949 155.421C64.0889 155.238 64.2322 155.084 64.4142 155.078C64.6051 155.069 64.7513 155.215 64.7573 155.397L65.2093 168.012C65.2153 168.195 65.0721 168.349 64.8901 168.355C64.8856 168.355 64.8826 168.355 64.8781 168.355Z" fill="#251F47"/>
<path d="M58.4021 186.287C53.767 186.287 51.5099 185.299 48.471 183.969C47.7206 183.64 46.9448 183.3 46.0691 182.948C43.5464 181.933 41.7189 180.367 40.1436 177.867C39.4156 176.712 38.7935 175.48 38.1923 174.289C37.6627 173.24 37.1137 172.154 36.499 171.135C36.405 170.978 36.4543 170.774 36.6109 170.68C36.7676 170.586 36.9719 170.635 37.0659 170.793C37.694 171.833 38.2475 172.93 38.783 173.991C39.3768 175.168 39.9914 176.386 40.703 177.514C42.1978 179.886 43.9298 181.372 46.3153 182.332C47.2014 182.688 47.9817 183.03 48.7365 183.36C52.6511 185.074 55.2379 186.205 63.6191 185.301C64.2859 185.229 66.9742 185.253 67.6336 185.28C67.8171 185.288 67.9588 185.443 67.9513 185.625C67.9439 185.808 67.7932 185.949 67.6067 185.943C66.9787 185.917 64.3172 185.892 63.6907 185.959C61.6155 186.183 59.8865 186.284 58.4021 186.284V186.287Z" fill="#251F47"/>
<path d="M69.9565 181.706C69.946 181.706 69.9371 181.706 69.9266 181.706C69.8103 181.696 58.2038 180.616 51.586 175.996C49.6138 174.62 48.6307 171.572 47.5909 168.344C47.3835 167.703 47.1747 167.055 46.9554 166.414C46.8957 166.241 46.9882 166.051 47.1627 165.993C47.3358 165.933 47.5238 166.026 47.5834 166.2C47.8042 166.845 48.0146 167.497 48.2219 168.142C49.2274 171.26 50.1777 174.204 51.9664 175.453C58.441 179.973 69.8714 181.036 69.9863 181.047C70.1683 181.063 70.3041 181.224 70.2877 181.407C70.2727 181.58 70.128 181.709 69.958 181.709L69.9565 181.706Z" fill="#251F47"/>
<path d="M67.2412 183.264C67.4143 182.925 67.7052 182.657 68.0632 182.529C68.3198 182.436 68.5719 182.315 68.8121 182.187L72.1434 180.419C72.767 180.113 73.6591 180.826 74.3065 181.038C76.2608 181.68 80.3082 183.193 79.974 184.613C79.6145 186.146 76.1355 185.42 74.9018 185.111C74.6198 185.041 72.0643 185.966 71.2557 186.028C70.1399 186.113 69.8818 185.828 69.3358 185.541C69.0866 185.41 68.8091 185.352 68.5093 185.35C68.0498 185.347 67.6112 185.155 67.3233 184.795L67.3158 184.786C66.9981 184.389 66.9429 183.843 67.1741 183.391L67.2397 183.263L67.2412 183.264Z" fill="white"/>
<path d="M70.8886 186.377C70.1292 186.377 69.7802 186.177 69.4132 185.966C69.3401 185.925 69.264 185.881 69.1819 185.838C68.988 185.737 68.7672 185.686 68.5076 185.684C67.9333 185.68 67.4081 185.432 67.065 185.004C66.6607 184.498 66.5906 183.81 66.88 183.242L66.9457 183.114C67.162 182.69 67.5185 182.372 67.9497 182.217C68.157 182.142 68.3808 182.039 68.6553 181.894L71.9866 180.126C72.5803 179.835 73.2397 180.167 73.8215 180.458C74.0364 180.565 74.2392 180.666 74.4093 180.723C78.6103 182.103 80.5915 183.437 80.2976 184.689C80.2155 185.041 80.0052 185.323 79.6755 185.523C78.5447 186.213 76.1771 185.771 74.8479 185.44C74.6704 185.452 73.9707 185.661 73.456 185.813C72.6102 186.063 71.736 186.325 71.2824 186.359C71.1407 186.369 71.0094 186.375 70.8901 186.375L70.8886 186.377ZM67.5364 183.416L67.4708 183.545C67.2992 183.88 67.341 184.288 67.5752 184.582C67.799 184.862 68.1376 185.019 68.5106 185.022C68.8746 185.025 69.2043 185.101 69.4892 185.252C69.5788 185.299 69.6623 185.346 69.7414 185.392C70.1188 185.608 70.3903 185.764 71.2287 185.701C71.6121 185.673 72.5281 185.399 73.2636 185.18C74.4541 184.826 74.7778 184.743 74.9792 184.792C77.0305 185.305 78.6566 185.368 79.3264 184.959C79.5039 184.85 79.6054 184.718 79.6471 184.54C79.8321 183.754 77.6928 182.503 74.199 181.356C73.9827 181.284 73.7574 181.172 73.5217 181.053C73.0771 180.831 72.5744 180.577 72.2849 180.719L68.9641 182.481C68.6613 182.641 68.4107 182.755 68.172 182.842C67.9004 182.939 67.6737 183.143 67.5335 183.416H67.5364Z" fill="#251F47"/>
<path d="M65.0395 127.399C65.502 127.333 65.8182 126.89 65.7168 126.434C65.0843 123.596 65.3274 118.736 65.2334 118.873C64.222 120.358 62.1155 118.494 59.1154 118.376C57.3282 118.306 56.6405 119.364 56.3749 120.231C56.2899 120.511 55.911 120.564 55.7528 120.317C55.3157 119.64 54.5713 119.066 53.4614 120.176C52.2276 121.41 53.26 124.272 54.3759 125.21C54.1044 125.519 49.8422 130.116 46.5706 133.571C45.9231 134.254 46.0141 135.349 46.7645 135.919L49.6721 138.126C51.4892 139.505 53.9731 139.602 55.8916 138.368L56.3406 138.08C56.8061 137.78 56.8851 137.132 56.5047 136.729L55.623 135.795C54.9099 134.948 55.0412 133.873 55.4962 132.978L57.2939 129.931C57.7071 130.431 58.2278 131.001 58.7082 131.337C59.6659 132.005 60.8564 131.902 61.7008 131.095C62.8584 129.989 63.6685 128.748 64.0355 127.541L65.038 127.401L65.0395 127.399Z" fill="white"/>
<path d="M52.957 139.557C51.7247 139.557 50.494 139.164 49.4721 138.389L46.5645 136.182C46.1318 135.853 45.8573 135.354 45.8141 134.812C45.7693 134.272 45.9588 133.735 46.3317 133.341C49.2513 130.258 52.9719 126.252 53.9162 125.224C53.1942 124.448 52.6258 123.076 52.5766 121.926C52.5408 121.089 52.766 120.403 53.23 119.938C53.7566 119.41 54.2787 119.17 54.7785 119.224C55.2529 119.274 55.6766 119.58 56.0346 120.135C56.3106 119.316 57.0446 117.961 59.1317 118.042C60.3818 118.091 61.4947 118.437 62.3883 118.715C63.7728 119.145 64.5157 119.339 64.9618 118.684C65.0438 118.563 65.199 118.508 65.3377 118.551C65.5928 118.63 65.5928 118.651 65.5928 119.761C65.5928 121.249 65.5928 124.345 66.0418 126.361C66.1105 126.665 66.0463 126.987 65.8673 127.245C65.6868 127.507 65.4018 127.683 65.0871 127.727L64.2904 127.839C63.8772 129.048 63.0656 130.252 61.9318 131.334C60.9711 132.251 59.6001 132.362 58.5215 131.607C58.1784 131.368 57.7845 130.995 57.3459 130.498L55.7855 133.145C55.517 133.675 55.1574 134.722 55.8795 135.58L56.7477 136.501C56.9969 136.765 57.1147 137.123 57.07 137.483C57.0267 137.842 56.8253 138.162 56.521 138.357L56.0719 138.645C55.1246 139.256 54.04 139.557 52.957 139.557ZM54.6398 119.88C54.3638 119.88 54.046 120.058 53.6954 120.408C53.2807 120.823 53.2166 121.448 53.2359 121.898C53.2897 123.127 53.9804 124.442 54.589 124.953C54.6577 125.01 54.6994 125.094 54.7069 125.182C54.7144 125.271 54.6845 125.359 54.6248 125.425C54.3593 125.726 50.1643 130.254 46.8106 133.794C46.5675 134.051 46.4436 134.402 46.472 134.755C46.5003 135.109 46.6793 135.436 46.9628 135.651L49.8704 137.857C51.5696 139.147 53.9162 139.239 55.7109 138.084L56.1599 137.796C56.2987 137.707 56.3897 137.562 56.4091 137.399C56.4285 137.235 56.3763 137.073 56.2629 136.953L55.3812 136.019C54.6606 135.166 54.5995 134.005 55.2007 132.823L57.0073 129.758C57.0625 129.666 57.1595 129.604 57.2669 129.595C57.3728 129.587 57.4802 129.631 57.5488 129.715C58.0725 130.348 58.526 130.801 58.8975 131.059C59.7239 131.635 60.7339 131.553 61.4709 130.85C62.5853 129.786 63.3625 128.606 63.7176 127.439C63.7549 127.316 63.8608 127.226 63.9891 127.208L64.9916 127.068C65.1244 127.05 65.2437 126.975 65.3198 126.866C65.3944 126.759 65.4197 126.629 65.3914 126.504C64.926 124.418 64.926 121.272 64.926 119.759V119.594C64.2054 119.974 63.2521 119.679 62.1869 119.348C61.2844 119.067 60.2625 118.751 59.1003 118.704C57.8472 118.655 57.0342 119.2 56.691 120.325C56.6135 120.579 56.4016 120.761 56.1361 120.796C55.8705 120.834 55.6169 120.717 55.4722 120.494C55.2275 120.116 54.9695 119.91 54.7039 119.882C54.6815 119.879 54.6606 119.879 54.6383 119.879L54.6398 119.88Z" fill="#251F47"/>
<path d="M57.2952 130.261C57.1922 130.261 57.0893 130.213 57.0251 130.122L56.4508 129.321C56.3434 129.172 56.3777 128.964 56.5269 128.858C56.6761 128.751 56.8834 128.785 56.9893 128.934L57.5637 129.736C57.6711 129.885 57.6368 130.092 57.4876 130.198C57.4294 130.24 57.3623 130.261 57.2952 130.261Z" fill="#251F47"/>
<path d="M85.348 184.718L95.4402 154.971C96.0459 154.038 97.0991 153.472 98.2329 153.472H125.132C126.352 153.472 127.139 154.659 126.74 155.705C126.582 156.121 126.411 156.533 126.272 156.955L117.151 184.77H117.148C117.118 186.396 115.795 187.706 114.164 187.706H64.525C62.875 187.706 61.5398 186.368 61.5398 184.716H85.3495L85.348 184.718Z" fill="#251F47"/>
<path d="M105.341 168.72C104.962 169.98 105.541 171.271 106.636 171.6C107.73 171.932 108.925 171.178 109.304 169.917C109.682 168.658 109.104 167.367 108.009 167.037C106.915 166.706 105.72 167.46 105.341 168.72Z" fill="white"/>
<path d="M163.875 187.211H44.4462C42.2218 187.211 40.4913 189.303 40.7434 191.69L48.9903 269.878H54.9457L49.7839 196.496C49.6929 195.203 50.6403 194.1 51.8412 194.1H154.36C156.156 194.1 157.573 195.75 157.438 197.686L152.327 270.337H158.282L166.669 190.589C166.859 188.788 165.555 187.211 163.876 187.211H163.875Z" fill="white"/>
<path d="M158.281 270.667H152.325C152.233 270.667 152.146 270.628 152.082 270.561C152.019 270.494 151.988 270.403 151.994 270.312L157.105 197.66C157.166 196.777 156.871 195.914 156.291 195.292C155.771 194.736 155.085 194.43 154.359 194.43H51.8398C51.3848 194.43 50.9537 194.622 50.6285 194.971C50.2615 195.365 50.0735 195.911 50.1138 196.471L55.2755 269.852C55.2815 269.945 55.2502 270.034 55.1875 270.101C55.1249 270.169 55.0368 270.207 54.9443 270.207H48.9889C48.8189 270.207 48.6772 270.079 48.6593 269.91L40.4124 191.723C40.2751 190.426 40.6824 189.145 41.5268 188.206C42.2981 187.35 43.3334 186.878 44.4448 186.878H163.874C164.734 186.878 165.538 187.244 166.135 187.906C166.787 188.631 167.102 189.621 166.996 190.622L158.609 270.37C158.591 270.539 158.449 270.667 158.279 270.667H158.281ZM152.682 270.003H157.982L166.34 190.552C166.425 189.737 166.172 188.934 165.644 188.349C165.174 187.827 164.546 187.541 163.875 187.541H44.4463C43.5258 187.541 42.6651 187.935 42.0206 188.649C41.3015 189.449 40.9569 190.543 41.0733 191.653L49.2888 269.543H54.5893L49.4514 196.517C49.3992 195.774 49.6513 195.046 50.1436 194.519C50.5956 194.034 51.1983 193.767 51.8398 193.767H154.359C155.273 193.767 156.131 194.149 156.777 194.842C157.481 195.598 157.842 196.643 157.767 197.708L152.682 270.004V270.003Z" fill="#251F47"/>
<path d="M95.6337 127.991C95.5591 127.991 95.4831 127.966 95.4204 127.914C95.2802 127.796 95.2623 127.587 95.3801 127.447L97.0361 125.477C97.1539 125.337 97.3628 125.319 97.503 125.437C97.6432 125.555 97.6611 125.764 97.5433 125.904L95.8873 127.874C95.8217 127.951 95.7277 127.991 95.6337 127.991Z" fill="#251F47"/>
<path d="M91.7775 132.58C91.7029 132.58 91.6269 132.554 91.5642 132.502C91.424 132.384 91.4061 132.175 91.5239 132.035L93.1798 130.065C93.2977 129.925 93.5066 129.907 93.6468 130.025C93.787 130.143 93.8049 130.352 93.6871 130.492L92.0311 132.462C91.9655 132.539 91.8715 132.58 91.7775 132.58Z" fill="#251F47"/>
<path d="M93.2245 128.2C93.1499 128.2 93.0738 128.175 93.0112 128.123L91.042 126.466C90.9017 126.349 90.8838 126.14 91.0017 125.999C91.1196 125.859 91.3284 125.841 91.4686 125.959L93.4379 127.615C93.5781 127.733 93.596 127.942 93.4781 128.082C93.4125 128.16 93.3185 128.2 93.2245 128.2Z" fill="#251F47"/>
<path d="M97.8117 132.057C97.7371 132.057 97.661 132.032 97.5984 131.98L95.6291 130.324C95.4889 130.206 95.471 129.997 95.5889 129.857C95.7067 129.716 95.9156 129.698 96.0558 129.816L98.025 131.473C98.1653 131.59 98.1832 131.799 98.0653 131.94C97.9997 132.017 97.9057 132.057 97.8117 132.057Z" fill="#251F47"/>
<path d="M86.5413 120.038C86.2996 120.038 86.0579 120.004 85.8192 119.934C85.1449 119.737 84.587 119.283 84.2498 118.655C83.5606 117.376 84.0216 115.766 85.2747 115.067C85.8789 114.729 86.5771 114.65 87.2409 114.844C87.9152 115.041 88.4732 115.495 88.8103 116.123C89.4996 117.402 89.0386 119.012 87.7855 119.712C87.3976 119.928 86.9724 120.037 86.5413 120.037V120.038ZM85.5984 115.647C84.6601 116.171 84.3169 117.379 84.8346 118.342C85.0867 118.812 85.503 119.151 86.0057 119.297C86.498 119.44 87.0157 119.382 87.4632 119.133C88.4016 118.609 88.7447 117.4 88.227 116.438C87.9749 115.969 87.5587 115.629 87.056 115.483C86.5651 115.34 86.046 115.398 85.5984 115.647Z" fill="#251F47"/>
<path d="M115.179 124.039C116.303 123.941 117.136 122.962 117.04 121.851C116.943 120.74 115.954 119.919 114.83 120.016C113.707 120.114 112.874 121.093 112.97 122.204C113.067 123.315 114.056 124.136 115.179 124.039Z" fill="#251F47"/>
<path d="M219.308 246.715C219.208 246.715 219.108 246.671 219.044 246.584C218.934 246.438 218.962 246.23 219.107 246.118C232.726 235.757 244.102 223.032 252.924 208.302C253.018 208.145 253.222 208.093 253.379 208.187C253.535 208.281 253.588 208.486 253.494 208.642C244.629 223.447 233.196 236.233 219.51 246.647C219.45 246.693 219.38 246.714 219.31 246.714L219.308 246.715Z" fill="#251F47"/>
<path d="M242.444 236.432C242.363 236.432 242.281 236.402 242.217 236.342C242.083 236.217 242.075 236.008 242.2 235.874C247.711 229.966 252.716 223.519 257.078 216.709C257.177 216.555 257.381 216.51 257.536 216.609C257.692 216.707 257.736 216.913 257.636 217.067C253.253 223.91 248.221 230.39 242.685 236.326C242.62 236.396 242.532 236.432 242.442 236.432H242.444Z" fill="#251F47"/>
<path d="M133.147 252.344C134.769 248.971 134.923 245.574 133.147 242.14L134.421 240.596L176.527 241.755L175.326 252.946L134.336 253.339L133.147 252.344Z" fill="white"/>
<path d="M134.336 253.67C134.259 253.67 134.183 253.643 134.123 253.593L132.934 252.597C132.818 252.5 132.782 252.336 132.847 252.199C134.509 248.74 134.511 245.501 132.852 242.293C132.791 242.175 132.806 242.032 132.891 241.929L134.165 240.384C134.23 240.305 134.33 240.26 134.43 240.263L176.536 241.421C176.628 241.424 176.715 241.465 176.776 241.535C176.837 241.605 176.866 241.696 176.857 241.788L175.656 252.979C175.638 253.146 175.498 253.275 175.329 253.276L134.339 253.669H134.336V253.67ZM133.556 252.253L134.456 253.005L175.028 252.615L176.16 242.075L134.577 240.93L133.543 242.182C135.143 245.41 135.149 248.795 133.558 252.251L133.556 252.253Z" fill="#251F47"/>
<path d="M203.965 239.364H132.021C131.265 239.364 130.652 239.983 130.652 240.747C130.652 241.511 131.265 242.13 132.021 242.13H169.013C171.191 242.13 172.956 243.915 172.956 246.116V248.357C172.956 250.558 171.189 252.342 169.013 252.342H132.021C131.265 252.342 130.652 252.961 130.652 253.725C130.652 254.489 131.265 255.109 132.021 255.109H203.965C207.981 255.109 211.236 251.818 211.236 247.76V246.711C211.236 242.652 207.981 239.362 203.965 239.362V239.364Z" fill="#251F47"/>
<path d="M136.761 271.683H202.446V256.729H136.761C138.485 261.617 138.533 266.926 136.761 271.683Z" fill="white"/>
<path d="M202.446 272.014H136.761C136.652 272.014 136.55 271.961 136.488 271.873C136.426 271.783 136.411 271.67 136.449 271.568C138.17 266.95 138.169 261.719 136.447 256.839C136.411 256.738 136.428 256.625 136.489 256.538C136.552 256.45 136.652 256.398 136.759 256.398H202.444C202.628 256.398 202.776 256.547 202.776 256.729V271.683C202.776 271.867 202.628 272.014 202.444 272.014H202.446ZM137.232 271.35H202.115V257.059H137.224C138.794 261.799 138.797 266.838 137.232 271.35Z" fill="#251F47"/>
<path d="M192.339 262.302H142.616C142.433 262.302 142.285 262.153 142.285 261.971C142.285 261.789 142.433 261.64 142.616 261.64H192.339C192.522 261.64 192.67 261.789 192.67 261.971C192.67 262.153 192.522 262.302 192.339 262.302Z" fill="#251F47"/>
<path d="M192.339 266.481H151.485C151.301 266.481 151.154 266.332 151.154 266.15C151.154 265.968 151.301 265.819 151.485 265.819H192.339C192.522 265.819 192.67 265.968 192.67 266.15C192.67 266.332 192.522 266.481 192.339 266.481Z" fill="#251F47"/>
<path d="M194.93 257.442H135.877C135.254 257.442 134.75 256.932 134.75 256.302C134.75 255.673 135.255 255.162 135.877 255.162H210.35C213.087 255.162 215.307 257.405 215.307 260.173V268.048C215.307 270.815 213.087 273.059 210.35 273.059H135.877C135.254 273.059 134.75 272.548 134.75 271.919C134.75 271.289 135.255 270.779 135.877 270.779H194.93C196.863 270.779 198.431 269.194 198.431 267.239V260.983C198.431 259.028 196.863 257.444 194.93 257.444V257.442Z" fill="#251F47"/>
<path d="M168.174 245.684H137.823C137.639 245.684 137.491 245.535 137.491 245.353C137.491 245.171 137.639 245.022 137.823 245.022H168.174C168.358 245.022 168.505 245.171 168.505 245.353C168.505 245.535 168.358 245.684 168.174 245.684Z" fill="#251F47"/>
</svg>
