<svg width="16" height="16" viewBox="0 0 16 16" fill="none" xmlns="http://www.w3.org/2000/svg">
<path d="M13.9267 8.59292L9.5837 12.9359C9.13918 13.3803 8.53635 13.63 7.90777 13.63C7.2792 13.63 6.67636 13.3803 6.23185 12.9359L3.06518 9.76922C2.62076 9.3247 2.37109 8.72186 2.37109 8.09329C2.37109 7.46472 2.62076 6.86188 3.06518 6.41736L7.40814 2.0744L13.9267 8.59292Z" fill="#EEEEEE"/>
<path d="M15.8263 3.72906C15.7713 3.67397 15.706 3.63026 15.634 3.60044C15.5621 3.57062 15.485 3.55527 15.4071 3.55527C15.3292 3.55527 15.2521 3.57062 15.1802 3.60044C15.1082 3.63026 15.0429 3.67397 14.9879 3.72906L12.4443 6.2734L9.7266 3.55574L12.2709 1.01214C12.3821 0.90095 12.4446 0.750144 12.4446 0.592898C12.4446 0.435651 12.3821 0.284846 12.2709 0.173656C12.1597 0.0624658 12.0089 0 11.8517 0C11.6944 0 11.5436 0.0624658 11.4325 0.173656L8.88885 2.718L6.93782 0.766224C6.82663 0.655034 6.67583 0.592568 6.51858 0.592568C6.36133 0.592568 6.21053 0.655034 6.09934 0.766224C5.98815 0.877414 5.92568 1.02822 5.92568 1.18547C5.92568 1.34271 5.98815 1.49352 6.09934 1.60471L6.56969 2.07432L2.64392 6.00008C2.36878 6.27521 2.15053 6.60184 2.00162 6.96132C1.85272 7.32079 1.77607 7.70608 1.77607 8.09518C1.77607 8.48428 1.85272 8.86957 2.00162 9.22905C2.15053 9.58852 2.36878 9.91515 2.64392 10.1903L3.80758 11.3539L0.173656 14.9879C0.1186 15.0429 0.0749274 15.1083 0.0451315 15.1802C0.0153356 15.2521 0 15.3292 0 15.4071C0 15.485 0.0153356 15.5621 0.0451315 15.634C0.0749274 15.7059 0.1186 15.7713 0.173656 15.8263C0.284846 15.9375 0.435651 16 0.592898 16C0.670758 16 0.747856 15.9847 0.81979 15.9549C0.891724 15.9251 0.957084 15.8814 1.01214 15.8263L4.64829 12.1902L5.81194 13.3539C6.08707 13.629 6.4137 13.8472 6.77318 13.9962C7.13265 14.1451 7.51794 14.2217 7.90704 14.2217C8.29614 14.2217 8.68143 14.1451 9.04091 13.9962C9.40038 13.8472 9.72701 13.629 10.0021 13.3539L13.9279 9.42809L14.3975 9.89844C14.4526 9.9535 14.5179 9.99717 14.5899 10.027C14.6618 10.0568 14.7389 10.0721 14.8168 10.0721C14.8946 10.0721 14.9717 10.0568 15.0436 10.027C15.1156 9.99717 15.1809 9.9535 15.236 9.89844C15.2911 9.84338 15.3347 9.77802 15.3645 9.70609C15.3943 9.63416 15.4097 9.55706 15.4097 9.4792C15.4097 9.40134 15.3943 9.32424 15.3645 9.25231C15.3347 9.18037 15.2911 9.11501 15.236 9.05996L13.282 7.11115L15.8263 4.56755C15.8814 4.51252 15.9251 4.44716 15.955 4.37522C15.9848 4.30329 16.0001 4.22618 16.0001 4.14831C16.0001 4.07043 15.9848 3.99332 15.955 3.92139C15.9251 3.84945 15.8814 3.7841 15.8263 3.72906ZM9.1644 12.5183C8.99931 12.6835 8.80329 12.8145 8.58755 12.9039C8.37181 12.9933 8.14057 13.0393 7.90704 13.0393C7.67351 13.0393 7.44227 12.9933 7.22653 12.9039C7.01079 12.8145 6.81477 12.6835 6.64968 12.5183L3.48167 9.35031C3.31649 9.18523 3.18547 8.98921 3.09607 8.77347C3.00667 8.55773 2.96066 8.32649 2.96066 8.09296C2.96066 7.85943 3.00667 7.62819 3.09607 7.41245C3.18547 7.1967 3.31649 7.00069 3.48167 6.8356L7.40743 2.90984L13.0879 8.59257L9.1644 12.5183Z" fill="#999999"/>
</svg>
