<svg width="17" height="20" viewBox="0 0 17 20" fill="none" xmlns="http://www.w3.org/2000/svg">
<path d="M16.1481 13.895C16.082 13.7928 15.9746 13.7246 15.8539 13.7083C14.2672 13.501 13.1489 12.0467 13.3562 10.4599C13.5026 9.3391 14.2874 8.40575 15.3665 8.06915C15.5856 7.99892 15.7064 7.76435 15.6361 7.54521C15.6252 7.51111 15.6099 7.47853 15.5907 7.4483C14.8625 6.13417 13.5678 5.23039 12.0832 5C11.3351 5.0357 10.5978 5.19363 9.90072 5.4675C9.40006 5.66898 8.8714 5.79238 8.33324 5.83331C7.79508 5.79238 7.26641 5.66898 6.76575 5.4675C6.06865 5.19363 5.33139 5.0357 4.58328 5C3.02747 5 0 7.2058 0 11.2499C0 15.0932 2.80329 19.9999 4.99995 19.9999C5.83811 20.0074 6.66618 19.8166 7.41661 19.4432C7.69922 19.2873 8.0116 19.193 8.33328 19.1665C8.65492 19.193 8.96733 19.2873 9.24995 19.4432C10.0004 19.8166 10.8284 20.0074 11.6666 19.9999C13.4083 19.9999 15.3741 17.0099 16.1974 14.2391C16.2318 14.1227 16.2139 13.997 16.1481 13.895Z" fill="#555555"/>
<path d="M7.91651 4.99995C10.4466 4.99718 12.4971 2.94681 12.4998 0.416676C12.4998 0.186561 12.3133 0 12.0832 0C9.55302 0.00277341 7.50261 2.05314 7.49988 4.58328C7.49984 4.81339 7.6864 4.99995 7.91651 4.99995Z" fill="#555555"/>
</svg>
