<svg width="30" height="30" viewBox="0 0 30 30" fill="none" xmlns="http://www.w3.org/2000/svg">
<path d="M15.025 2.5C22.125 2.5 27.5 8.32123 27.5 14.9812C27.5 22.7053 21.2 27.5 15 27.5C12.95 27.5 10.675 26.9492 8.85 25.8726C8.2125 25.4845 7.675 25.1965 6.9875 25.4219L4.4625 26.173C3.825 26.3733 3.25 25.8726 3.4375 25.1965L4.275 22.3923C4.4125 22.0043 4.3875 21.5911 4.1875 21.2656C3.1125 19.2877 2.5 17.1219 2.5 15.0188C2.5 8.4339 7.7625 2.5 15.025 2.5ZM20.7375 13.4289C19.85 13.4289 19.1375 14.1425 19.1375 15.0313C19.1375 15.9076 19.85 16.6337 20.7375 16.6337C21.625 16.6337 22.3375 15.9076 22.3375 15.0313C22.3375 14.1425 21.625 13.4289 20.7375 13.4289ZM14.975 13.4289C14.1 13.4164 13.375 14.1425 13.375 15.0188C13.375 15.9076 14.0875 16.6212 14.975 16.6337C15.8625 16.6337 16.575 15.9076 16.575 15.0313C16.575 14.1425 15.8625 13.4289 14.975 13.4289ZM9.2125 13.4289C8.325 13.4289 7.6125 14.1425 7.6125 15.0313C7.6125 15.9076 8.3375 16.6337 9.2125 16.6337C10.1 16.6212 10.8125 15.9076 10.8125 15.0313C10.8125 14.1425 10.1 13.4289 9.2125 13.4289Z" fill="#795DED"/>
</svg>
