<svg width="11" height="7" viewBox="0 0 11 7" fill="none" xmlns="http://www.w3.org/2000/svg">
<path d="M10.8535 1.35393L5.85373 6.35337C5.8073 6.39986 5.75216 6.43673 5.69146 6.46189C5.63076 6.48705 5.5657 6.5 5.5 6.5C5.4343 6.5 5.36924 6.48705 5.30854 6.46189C5.24784 6.43673 5.1927 6.39986 5.14627 6.35337L0.146521 1.35393C0.052705 1.26012 0 1.13289 0 1.00022C0 0.867555 0.052705 0.740321 0.146521 0.646511C0.240336 0.552702 0.367577 0.5 0.500253 0.5C0.632928 0.5 0.760169 0.552702 0.853985 0.646511L5.5 5.29287L10.146 0.646511C10.1925 0.600061 10.2476 0.563215 10.3083 0.538077C10.369 0.512938 10.4341 0.5 10.4997 0.5C10.5654 0.5 10.6305 0.512938 10.6912 0.538077C10.7519 0.563215 10.807 0.600061 10.8535 0.646511C10.8999 0.692961 10.9368 0.748106 10.9619 0.808795C10.9871 0.869485 11 0.934532 11 1.00022C11 1.06591 10.9871 1.13096 10.9619 1.19165C10.9368 1.25234 10.8999 1.30748 10.8535 1.35393Z" fill="#999999"/>
</svg>
