<svg width="32" height="32" viewBox="0 0 32 32" fill="none" xmlns="http://www.w3.org/2000/svg">
<path d="M16.9375 15.2169H16L15.5312 16.1544L16 17.0919H16.9375V15.2169Z" fill="#373E69"/>
<path d="M15.0625 15.2169H16V17.0919H15.0625V15.2169Z" fill="#53597E"/>
<path d="M19.0469 15.2169H20.9219V17.0919H19.0469V15.2169Z" fill="#373E69"/>
<path d="M4.05078 16C4.05078 19.2216 5.32603 22.1451 7.39872 24.2942L10.2158 21.4771C8.86366 20.0494 8.03416 18.1216 8.03416 16C8.03416 11.6001 11.601 8.03318 16.001 8.03318L17.876 6.04149L16.001 4.0498C9.40103 4.0498 4.05078 9.40005 4.05078 16Z" fill="#CAF490"/>
<path d="M24.6022 7.70581L21.7851 10.5229C23.1373 11.9507 23.9668 13.8784 23.9668 16C23.9668 20.3999 20.3999 23.9668 16 23.9668L14.125 25.9585L16 27.9502C22.5999 27.9502 27.9502 22.5999 27.9502 16C27.9502 12.7784 26.6749 9.85494 24.6022 7.70581Z" fill="#82D97E"/>
<path d="M9.95898 25.9585L16.0005 32V19.917L9.95898 25.9585Z" fill="#94F06D"/>
<path d="M11.0801 15.2169H12.9551V17.0919H11.0801V15.2169Z" fill="#53597E"/>
<path d="M16 0V12.083L22.0415 6.0415L16 0Z" fill="#94F06D"/>
</svg>
