<svg width="25" height="18" viewBox="0 0 25 18" fill="none" xmlns="http://www.w3.org/2000/svg">
<path d="M24.5517 8.99827C24.5568 10.9471 23.9246 12.8442 22.7513 14.4003C22.6867 14.4863 22.6058 14.5587 22.5132 14.6134C22.4206 14.6681 22.3182 14.704 22.2117 14.7191C22.1052 14.7342 21.9968 14.7282 21.8926 14.7014C21.7885 14.6746 21.6906 14.6276 21.6046 14.563C21.5187 14.4984 21.4463 14.4174 21.3916 14.3249C21.3369 14.2323 21.3009 14.1298 21.2858 14.0233C21.2707 13.9168 21.2767 13.8084 21.3035 13.7043C21.3303 13.6001 21.3774 13.5022 21.442 13.4163C22.4023 12.144 22.9197 10.5923 22.915 8.99827C22.915 7.04493 22.139 5.1716 20.7578 3.79039C19.3766 2.40917 17.5033 1.63321 15.55 1.63321C13.5966 1.63321 11.7233 2.40917 10.3421 3.79039C8.96086 5.1716 8.1849 7.04493 8.1849 8.99827C8.1849 9.2153 8.09868 9.42345 7.94521 9.57692C7.79174 9.73039 7.5836 9.81661 7.36656 9.81661C7.14952 9.81661 6.94137 9.73039 6.78791 9.57692C6.63444 9.42345 6.54822 9.2153 6.54822 8.99827C6.54782 8.17244 6.66106 7.35048 6.88476 6.55552C6.77326 6.54325 6.66074 6.54325 6.54822 6.54325C5.246 6.54325 3.99711 7.06055 3.0763 7.98136C2.15549 8.90217 1.63818 10.1511 1.63818 11.4533C1.63818 12.7555 2.15549 14.0044 3.0763 14.9252C3.99711 15.846 5.246 16.3633 6.54822 16.3633H9.00324C9.22027 16.3633 9.42842 16.4495 9.58189 16.603C9.73536 16.7565 9.82158 16.9646 9.82158 17.1817C9.82158 17.3987 9.73536 17.6068 9.58189 17.7603C9.42842 17.9138 9.22027 18 9.00324 18H6.54822C5.64823 18.0002 4.75785 17.8148 3.93272 17.4555C3.10758 17.0961 2.36539 16.5705 1.75252 15.9114C1.13964 15.2524 0.669244 14.474 0.370695 13.625C0.072147 12.7759 -0.048136 11.8745 0.0173586 10.9769C0.0828533 10.0793 0.332719 9.20479 0.75135 8.40809C1.16998 7.61139 1.74838 6.90955 2.45044 6.34643C3.15249 5.7833 3.96311 5.37098 4.83167 5.13521C5.70024 4.89944 6.60808 4.84528 7.49852 4.97613C8.40523 3.16264 9.89762 1.70837 11.734 0.848866C13.5703 -0.0106391 15.643 -0.225036 17.6164 0.240403C19.5898 0.705842 21.3482 1.82386 22.6069 3.41335C23.8657 5.00285 24.5509 6.97074 24.5517 8.99827ZM15.3106 8.41929C15.2346 8.3432 15.1443 8.28284 15.045 8.24166C14.9456 8.20048 14.8392 8.17928 14.7316 8.17928C14.6241 8.17928 14.5176 8.20048 14.4182 8.24166C14.3189 8.28284 14.2286 8.3432 14.1526 8.41929L10.8793 11.6926C10.8032 11.7687 10.7429 11.8589 10.7018 11.9583C10.6606 12.0576 10.6395 12.1641 10.6395 12.2716C10.6395 12.3791 10.6606 12.4856 10.7018 12.585C10.7429 12.6843 10.8032 12.7746 10.8793 12.8506C11.0328 13.0042 11.2411 13.0904 11.4583 13.0904C11.5658 13.0904 11.6723 13.0692 11.7716 13.0281C11.8709 12.9869 11.9612 12.9266 12.0372 12.8506L13.9133 10.9735V17.1817C13.9133 17.3987 13.9995 17.6068 14.153 17.7603C14.3064 17.9138 14.5146 18 14.7316 18C14.9487 18 15.1568 17.9138 15.3103 17.7603C15.4637 17.6068 15.55 17.3987 15.55 17.1817V10.9735L17.426 12.8506C17.502 12.9266 17.5923 12.9869 17.6916 13.0281C17.791 13.0692 17.8974 13.0904 18.005 13.0904C18.1125 13.0904 18.219 13.0692 18.3183 13.0281C18.4177 12.9869 18.5079 12.9266 18.5839 12.8506C18.66 12.7746 18.7203 12.6843 18.7614 12.585C18.8026 12.4856 18.8238 12.3791 18.8238 12.2716C18.8238 12.1641 18.8026 12.0576 18.7614 11.9583C18.7203 11.8589 18.66 11.7687 18.5839 11.6926L15.3106 8.41929Z" fill="#795DED"/>
</svg>
