<svg width="14" height="14" viewBox="0 0 14 14" fill="none" xmlns="http://www.w3.org/2000/svg">
<path d="M12.4391 5.09091C12.3309 5.01021 12.2464 4.90181 12.1947 4.77713C12.1429 4.65246 12.1257 4.51613 12.1449 4.3825C12.3971 2.7976 12.1089 2.31132 11.8928 2.0952C11.6767 1.87907 11.1964 1.59691 9.61149 1.84906C9.47795 1.86699 9.34204 1.84922 9.2176 1.79755C9.09316 1.74587 8.98464 1.66214 8.90309 1.55489C7.85849 0.162093 7.31218 0 6.994 0C6.67581 0 6.1295 0.162093 5.0849 1.55489C5.00335 1.66214 4.89483 1.74587 4.77039 1.79755C4.64595 1.84922 4.51004 1.86699 4.3765 1.84906C2.79159 1.59691 2.31132 1.88508 2.0952 2.0952C1.87907 2.30532 1.59091 2.7976 1.84305 4.3825C1.86227 4.51613 1.84509 4.65246 1.79332 4.77713C1.74155 4.90181 1.6571 5.01021 1.54888 5.09091C0.156089 6.13551 0 6.68182 0 7C0 7.31818 0.156089 7.86449 1.54888 8.90909C1.6571 8.98979 1.74155 9.09819 1.79332 9.22287C1.84509 9.34754 1.86227 9.48387 1.84305 9.6175C1.61492 11.2144 1.87907 11.6887 2.0952 11.9048C2.31132 12.1209 2.77959 12.3791 4.3765 12.1509C4.51012 12.1317 4.64645 12.1489 4.77113 12.2007C4.8958 12.2524 5.0042 12.3369 5.0849 12.4451C6.1295 13.8379 6.67581 14 6.994 14C7.31218 14 7.85849 13.8379 8.90309 12.4451C8.98379 12.3369 9.09219 12.2524 9.21686 12.2007C9.34154 12.1489 9.47787 12.1317 9.61149 12.1509C11.2144 12.3791 11.6767 12.1149 11.8928 11.9048C12.1089 11.6947 12.3731 11.2144 12.1449 9.6175C12.1257 9.48387 12.1429 9.34754 12.1947 9.22287C12.2464 9.09819 12.3309 8.98979 12.4391 8.90909C13.8319 7.86449 13.988 7.31818 13.988 7C13.988 6.68182 13.8319 6.13551 12.4391 5.09091Z" fill="#66CC33"/>
<path d="M6.69384 9.10114C6.61483 9.1016 6.5365 9.08646 6.46336 9.05658C6.39022 9.02671 6.32369 8.98269 6.26759 8.92704L5.06691 7.72636C4.95386 7.61331 4.89035 7.45999 4.89035 7.30012C4.89035 7.14024 4.95386 6.98692 5.06691 6.87387C5.17995 6.76083 5.33328 6.69732 5.49315 6.69732C5.65302 6.69732 5.80635 6.76083 5.91939 6.87387L6.69384 7.65432L8.66896 5.67319C8.72477 5.61692 8.79117 5.57225 8.86433 5.54178C8.93749 5.5113 9.01596 5.49561 9.09521 5.49561C9.17446 5.49561 9.25293 5.5113 9.32609 5.54178C9.39924 5.57225 9.46564 5.61692 9.52145 5.67319C9.57772 5.729 9.62238 5.79539 9.65286 5.86855C9.68334 5.94171 9.69903 6.02018 9.69903 6.09943C9.69903 6.17868 9.68334 6.25715 9.65286 6.33031C9.62238 6.40346 9.57772 6.46986 9.52145 6.52567L7.12008 8.92704C7.06398 8.98269 6.99746 9.02671 6.92431 9.05658C6.85117 9.08646 6.77284 9.1016 6.69384 9.10114Z" fill="white"/>
</svg>
