<svg width="28" height="28" viewBox="0 0 28 28" fill="none" xmlns="http://www.w3.org/2000/svg">
<path d="M14.0004 0C6.26838 0 0 6.26838 0 14.0004C0 17.0914 1.00265 19.9487 2.69925 22.2651L0.913052 27.5455L6.47689 25.8082C8.64997 27.1953 11.2311 28 14.0004 28C21.7324 28 28.0008 21.7316 28.0008 13.9996C28.0008 6.26756 21.7324 0 14.0004 0Z" fill="#4CAF50"/>
<path d="M12.8345 16.3333C11.9841 15.6866 9.96337 13.2733 10.0188 12.7854C10.0741 12.2975 11.5117 11.2663 11.4979 10.6897C11.484 10.113 10.202 6.39807 9.03728 6.38667C7.87255 6.37527 5.73286 7.7029 5.88029 10.3345C6.02771 12.9662 8.21627 16.515 11.528 19.0285C14.8398 21.542 17.8705 22.5276 20.4142 21.5127C22.6655 20.6143 22.6989 18.2971 22.3877 17.898C22.0774 17.4989 18.9652 15.9538 18.3959 16.0645C17.8265 16.1753 17.2311 17.9753 16.3336 18.0975C15.436 18.2181 13.6848 16.98 12.8345 16.3333Z" fill="white"/>
</svg>
