<svg width="20" height="25" viewBox="0 0 20 25" fill="none" xmlns="http://www.w3.org/2000/svg">
<path d="M13.2002 4.70057C13.2002 5.69279 14.0079 6.50051 15.0001 6.50051H18.7351C18.617 6.31265 18.482 6.13379 18.3222 5.97404L13.7279 1.37972C13.567 1.21885 13.3882 1.08499 13.2014 0.966858V4.70181L13.2002 4.70057Z" fill="#727175"/>
<path d="M6.10868 14.8995H4.69235L4.5416 15.6521C4.48985 15.9097 4.55622 16.1752 4.72384 16.3788C5.05797 16.7861 5.74419 16.7861 6.07829 16.3788C6.24479 16.1752 6.31116 15.9097 6.26054 15.6521L6.10979 14.8995H6.10868Z" fill="#727175"/>
<path d="M19.1615 7.69972H15.0003C13.3466 7.69972 12.0001 6.35425 12.0001 4.69943V0.538248C11.8696 0.521374 11.7402 0.5 11.6063 0.5H3.00029C1.34659 0.5 0 1.84546 0 3.50029V21.4997C0 23.1534 1.34546 24.5 3.00029 24.5H16.1995C17.8532 24.5 19.1998 23.1545 19.1998 21.4997V8.0946C19.1998 7.96074 19.1784 7.83136 19.1615 7.70086L19.1615 7.69972ZM4.20069 9.49966C3.86996 9.49966 3.60109 9.23079 3.60109 8.90006C3.60109 8.56933 3.86996 8.30046 4.20069 8.30046H4.80029V7.10012H4.20069C3.86996 7.10012 3.60109 6.83125 3.60109 6.50052C3.60109 6.16979 3.86996 5.90092 4.20069 5.90092H4.80029V4.70058H4.20069C3.86996 4.70058 3.60109 4.43171 3.60109 4.10098C3.60109 3.77025 3.86996 3.50139 4.20069 3.50139H5.40104C5.73177 3.50139 6.00063 3.77025 6.00063 4.10098V4.70058H6.60023C6.93096 4.70058 7.19983 4.96944 7.19983 5.30018C7.19983 5.63091 6.93096 5.89977 6.60023 5.89977H6.00063V7.10012H6.60023C6.93096 7.10012 7.19983 7.36898 7.19983 7.69972C7.19983 8.03044 6.93096 8.29931 6.60023 8.29931H6.00063V9.49966H6.60023C6.93096 9.49966 7.19983 9.76852 7.19983 10.0993C7.19983 10.43 6.93096 10.6989 6.60023 10.6989H6.00063V11.8992H6.60023C6.93096 11.8992 7.19983 12.1681 7.19983 12.4988C7.19983 12.8295 6.93096 13.0984 6.60023 13.0984H5.39989C5.06916 13.0984 4.80029 12.8295 4.80029 12.4988V11.8992H4.20069C3.86996 11.8992 3.60109 11.6303 3.60109 11.2996C3.60109 10.9689 3.86996 10.7 4.20069 10.7H4.80029V9.49966H4.20069ZM7.00523 17.1403C6.60924 17.623 6.02428 17.8997 5.39991 17.8997C4.77555 17.8997 4.19058 17.6229 3.7946 17.1403C3.39861 16.6577 3.24223 16.03 3.36486 15.4169L3.61235 14.1817C3.6686 13.9015 3.91497 13.6991 4.20071 13.6991H6.60025C6.886 13.6991 7.13237 13.9004 7.18862 14.1817L7.43611 15.4169C7.55873 16.03 7.40236 16.6577 7.00637 17.1403H7.00523Z" fill="#727175"/>
</svg>
