<svg width="97" height="35" viewBox="0 0 97 35" fill="none" xmlns="http://www.w3.org/2000/svg">
<path d="M95.1118 23.9218C94.4198 23.9218 93.8813 23.7475 93.4963 23.3989C93.1113 23.0451 92.9188 22.5197 92.9188 21.8225L92.9032 17.7721C92.9032 17.59 92.95 17.434 93.0437 17.3039C93.1373 17.1738 93.27 17.088 93.4417 17.0464L92.9032 15.6338V15.3919L93.3324 12.8555H95.0416V21.206C95.0416 21.5389 95.0962 21.7705 95.2054 21.9005C95.3199 22.0306 95.5306 22.0956 95.8376 22.0956C96.0821 22.0956 96.298 22.093 96.4853 22.0878C96.6726 22.0826 96.8443 22.0722 97.0004 22.0566V23.8047C96.7767 23.8672 96.4905 23.901 96.1419 23.9062C95.7934 23.9166 95.45 23.9218 95.1118 23.9218ZM91.8965 17.0464V15.2982H96.977V17.0464H91.8965Z" fill="white"/>
<path d="M88.3283 23.8125V15.2982H90.4823L90.4745 23.8125H88.3283ZM89.4131 14.1822C89.0385 14.1822 88.7211 14.0521 88.461 13.792C88.2009 13.5319 88.0708 13.1989 88.0708 12.7931C88.0708 12.3873 88.2009 12.0569 88.461 11.802C88.7263 11.5418 89.0437 11.4117 89.4131 11.4117C89.7825 11.4117 90.0973 11.5418 90.3574 11.802C90.6228 12.0569 90.7554 12.3873 90.7554 12.7931C90.7554 13.1989 90.6228 13.5319 90.3574 13.792C90.0973 14.0521 89.7825 14.1822 89.4131 14.1822Z" fill="white"/>
<path d="M84.5361 23.8125L81.4769 19.1691L83.4123 18.8959L84.2474 19.848L87.2286 23.8125H84.5361ZM79.5259 23.8125V11.6459H81.6408V17.897L81.5081 19.1457V19.2081L81.6408 20.5036V23.8125H79.5259ZM83.4123 19.4266L81.4769 19.1691L82.8036 17.2727L84.2084 15.2982H86.9476L84.224 18.4823L83.4123 19.4266Z" fill="white"/>
<path d="M70.1973 23.8125V11.6459H72.3122V15.2982L72.1795 17.7253L72.2576 18.4121L72.1639 17.858C72.2263 17.3897 72.3512 16.9475 72.5385 16.5313C72.7258 16.1098 73.0042 15.7691 73.3736 15.5089C73.743 15.2488 74.232 15.1187 74.8407 15.1187C75.6316 15.1187 76.2533 15.3711 76.7059 15.8757C77.1638 16.3752 77.3927 17.14 77.3927 18.1701V23.8125H75.2309V18.9506C75.2309 18.2326 75.1321 17.7201 74.9344 17.4131C74.7419 17.1062 74.4063 16.9527 73.9276 16.9527C73.5895 16.9527 73.2799 17.0672 72.999 17.2961C72.7232 17.5198 72.5073 17.7877 72.3512 18.0999V23.8125H70.1973Z" fill="white"/>
<path d="M65.1447 23.9452C64.4527 23.9452 63.8492 23.8438 63.3341 23.6409C62.819 23.438 62.4132 23.131 62.1167 22.72C61.8253 22.3038 61.664 21.7731 61.6328 21.1279H63.7243C63.7816 21.5546 63.935 21.8641 64.1848 22.0566C64.4345 22.2439 64.7571 22.3376 65.1525 22.3376C65.3918 22.3376 65.6129 22.3116 65.8158 22.2595C66.0187 22.2075 66.18 22.1191 66.2997 21.9942C66.4246 21.8693 66.487 21.6976 66.487 21.4791C66.487 21.3126 66.448 21.1774 66.3699 21.0733C66.2919 20.964 66.1748 20.873 66.0187 20.8002C65.8679 20.7221 65.6806 20.6493 65.4568 20.5816C65.2331 20.514 64.9756 20.4386 64.6842 20.3553C64.1692 20.2044 63.6957 20.0249 63.2639 19.8168C62.832 19.6035 62.4861 19.3226 62.2259 18.974C61.9658 18.6254 61.8357 18.1702 61.8357 17.6083C61.8357 16.8018 62.1323 16.1905 62.7254 15.7743C63.3185 15.3529 64.0911 15.1422 65.0432 15.1422C65.6259 15.1422 66.1514 15.2228 66.6197 15.3841C67.0879 15.5454 67.4729 15.8237 67.7747 16.2191C68.0816 16.6145 68.2767 17.1634 68.36 17.8658L66.2841 17.858C66.2217 17.5354 66.1228 17.2935 65.9875 17.1322C65.8575 16.9657 65.7066 16.8539 65.5349 16.7966C65.3684 16.7394 65.1915 16.7108 65.0042 16.7108C64.7961 16.7108 64.6088 16.7446 64.4423 16.8122C64.281 16.8747 64.1562 16.9683 64.0677 17.0932C63.9793 17.2181 63.935 17.3689 63.935 17.5458C63.935 17.7643 63.9975 17.9464 64.1223 18.0921C64.2524 18.2378 64.4475 18.3653 64.7076 18.4745C64.973 18.5786 65.3034 18.6904 65.6988 18.8101C65.9901 18.8881 66.3023 18.9792 66.6353 19.0832C66.9682 19.1873 67.283 19.3278 67.5796 19.5047C67.8761 19.6764 68.1181 19.9105 68.3054 20.207C68.4979 20.4984 68.5941 20.8782 68.5941 21.3464C68.5941 22.1633 68.2819 22.8006 67.6576 23.2585C67.0333 23.7163 66.1956 23.9452 65.1447 23.9452Z" fill="white"/>
<path d="M55.6139 23.9062C55.1144 23.9062 54.6644 23.8125 54.2638 23.6252C53.8684 23.438 53.5562 23.1674 53.3273 22.8136C53.1036 22.4598 52.9917 22.041 52.9917 21.5572C52.9917 21.0473 53.0906 20.6285 53.2883 20.3007C53.486 19.9677 53.7617 19.705 54.1155 19.5125C54.4693 19.3148 54.8777 19.1691 55.3407 19.0754C55.6633 19.0078 55.9963 18.9532 56.3397 18.9115C56.6883 18.8647 57.0134 18.8283 57.3152 18.8023C57.617 18.7763 57.8615 18.7555 58.0488 18.7399V18.4511C58.0488 17.8944 57.9473 17.4912 57.7444 17.2415C57.5415 16.9865 57.1929 16.8591 56.6987 16.8591C56.3813 16.8591 56.1134 16.9007 55.8948 16.9839C55.6815 17.0672 55.5202 17.218 55.411 17.4366C55.3017 17.6551 55.2471 17.9698 55.2471 18.3809H53.2336C53.1764 17.6369 53.2883 17.0255 53.5692 16.5469C53.8554 16.0682 54.2742 15.7144 54.8257 15.4855C55.3824 15.2514 56.0353 15.1343 56.7845 15.1343C57.2267 15.1343 57.6482 15.1838 58.0488 15.2826C58.4546 15.3763 58.8136 15.5402 59.1258 15.7743C59.4431 16.0032 59.6929 16.318 59.875 16.7186C60.0623 17.1192 60.1559 17.6265 60.1559 18.2404V23.8125H58.0332L58.0488 21.8615C57.9551 22.4338 57.7158 22.9177 57.3308 23.3131C56.9458 23.7085 56.3735 23.9062 55.6139 23.9062ZM56.2694 22.4C56.5348 22.4 56.7923 22.3532 57.0421 22.2595C57.297 22.1607 57.5155 22.0254 57.6976 21.8537C57.8849 21.682 58.002 21.4843 58.0488 21.2606V19.8168C57.8407 19.848 57.6144 19.8845 57.3698 19.9261C57.1253 19.9677 56.912 20.0093 56.7299 20.051C56.1784 20.1654 55.7908 20.3241 55.5671 20.527C55.3486 20.7247 55.2393 21.0031 55.2393 21.362C55.2393 21.5754 55.2809 21.7601 55.3642 21.9161C55.4526 22.0722 55.5749 22.1919 55.731 22.2751C55.8922 22.3584 56.0717 22.4 56.2694 22.4Z" fill="white"/>
<path d="M44.5489 23.8126V21.7757H46.0707C46.7939 21.7757 47.4104 21.6508 47.9203 21.4011C48.4354 21.1461 48.8282 20.7455 49.0987 20.1992C49.3693 19.653 49.5045 18.9376 49.5045 18.0531C49.5045 17.1582 49.3693 16.448 49.0987 15.9226C48.8334 15.3971 48.4458 15.0225 47.9359 14.7988C47.426 14.5699 46.8017 14.4554 46.0629 14.4554H44.4865V12.4653H46.2892C47.4182 12.4653 48.3911 12.6708 49.208 13.0819C50.03 13.4929 50.6621 14.1094 51.1044 14.9314C51.5518 15.7535 51.7755 16.7862 51.7755 18.0297C51.7755 19.2679 51.544 20.3163 51.081 21.1748C50.6179 22.0332 49.978 22.6888 49.1611 23.1414C48.3443 23.5888 47.4026 23.8126 46.336 23.8126H44.5489ZM42.7852 23.8126V12.4653H44.9781V23.8126H42.7852Z" fill="white"/>
<circle cx="17.3425" cy="17.3425" r="17.3425" fill="#5B43CB"/>
<path d="M10.9893 17.343V20.0711C10.9893 20.5086 11.3439 20.8632 11.7813 20.8632H14.5095V18.135C14.5095 17.6976 14.1549 17.343 13.7174 17.343H10.9893Z" fill="url(#paint0_linear_2819_16198)"/>
<path d="M18.0297 10.3025H10.9893V13.0307C10.9893 13.4681 11.3439 13.8227 11.7813 13.8227H18.0297C19.9739 13.8227 21.55 15.3988 21.55 17.343C21.55 19.2871 19.9739 20.8632 18.0297 20.8632H14.5095V23.5914C14.5095 24.0288 14.8641 24.3834 15.3016 24.3834H18.0297C21.918 24.3834 25.0702 21.2313 25.0702 17.343C25.0704 13.4546 21.9182 10.3025 18.0297 10.3025Z" fill="white"/>
<defs>
<linearGradient id="paint0_linear_2819_16198" x1="11.3638" y1="18.1169" x2="13.7355" y2="20.626" gradientUnits="userSpaceOnUse">
<stop stop-color="#795DED"/>
<stop offset="0.0001" stop-color="#7D5DFE"/>
<stop offset="1" stop-color="#76D466"/>
</linearGradient>
</defs>
</svg>
