<svg width="52" height="53" viewBox="0 0 52 53" fill="none" xmlns="http://www.w3.org/2000/svg">
<circle cx="26" cy="26.4852" r="26" fill="#5B43CB"/>
<path d="M16.4753 26.4858V30.5759C16.4753 31.2317 17.007 31.7634 17.6628 31.7634H21.7529V27.6733C21.7529 27.0175 21.2212 26.4858 20.5654 26.4858H16.4753Z" fill="url(#paint0_linear_218_1014)"/>
<path d="M27.0304 15.9307H16.4753V20.0208C16.4753 20.6766 17.007 21.2083 17.6628 21.2083H27.0304C29.9451 21.2083 32.308 23.5711 32.308 26.4858C32.308 29.4005 29.9451 31.7634 27.0304 31.7634H21.7529V35.8534C21.7529 36.5092 22.2846 37.0409 22.9404 37.0409H27.0304C32.8598 37.0409 37.5855 32.3152 37.5855 26.4858C37.5858 20.6564 32.8601 15.9307 27.0304 15.9307Z" fill="white"/>
<defs>
<linearGradient id="paint0_linear_218_1014" x1="17.0368" y1="27.6461" x2="20.5926" y2="31.4078" gradientUnits="userSpaceOnUse">
<stop offset="0" stop-color="#795DED"/>
<stop offset="0.0001" stop-color="#7D5DFE"/>
<stop offset="1" stop-color="#76D466"/>
</linearGradient>
</defs>
</svg>
