<svg width="33" height="32" viewBox="0 0 33 32" fill="none" xmlns="http://www.w3.org/2000/svg"><path d="M12.84 22.957l-.337-.853A4.591 4.591 0 009.9 19.501l-.852-.337-.352-.136-1.996-.783-.426-.166-2.038-.799-1.674-.654c-.275-.12-.41-.322-.41-.605 0-.007 0-.011.003-.02-.004-.007-.004-.01-.004-.018 0-.287.136-.489.411-.605l1.674-.659 2.038-.798.426-.166-.821-1.887-.031-.078-1.969.771-2.332.915c-.566.224-.969.542-1.197.949-.233.407-.349.934-.349 1.573 0 .64.116 1.162.349 1.573.228.407.631.725 1.197.95l2.332.914 1.965.77.077.032 1.914.752.659-1.512-.659 1.511.411.16a4.603 4.603 0 012.604 2.603l.159.41 1.964-.856-.132-.348z" fill="#DC3545"/><path d="M28.01 24.44l-1-2.297-.845-1.933-.016.004.016-.004-.035-.078-.821-1.887-.868.341.868-.34-.179-.404a4.606 4.606 0 010-3.68l.179-.403-1.996-.783-.15.345-.365.837a4.594 4.594 0 000 3.688l.364.837.151.345.857 1.964.898-.352-.895.352.183.419.879 2.007.72 1.65c.11.275.063.516-.139.717l-.011.012-.012.011c-.201.202-.438.248-.717.14l-1.65-.72-2.007-.876-.419-.186-.752 1.918-.03.077 1.937.845 2.297 1c.558.244 1.066.302 1.52.174.452-.124.902-.415 1.355-.864.454-.454.744-.903.868-1.356.116-.45.058-.957-.186-1.52z" fill="#0EA5E9"/><path d="M19.439 3.878l-.915-2.332C18.3.98 17.982.577 17.575.349 17.168.116 16.645 0 16.005 0c-.638 0-1.161.116-1.572.349-.407.228-.725.631-.95 1.197l-.918 2.332-.77 1.965.077.03 1.251.547-1.251-.546-.078-.035-.03.077-.752 1.914-.16.411a4.603 4.603 0 01-2.603 2.604l-.415.163.86 1.964.353-.14.849-.333a4.576 4.576 0 002.603-2.607l.337-.853.136-.352-.542-.237.542.237.783-1.996.17-.422.798-2.042.655-1.674c.12-.27.318-.406.605-.406h.034c.287 0 .485.135.605.406l.655 1.674.802 2.042.166.426 1.887-.821.074-.035-.767-1.96z" fill="#DC3545"/><path d="M28.187 6.044c-.124-.453-.414-.902-.867-1.356-.454-.453-.903-.744-1.357-.868-.453-.124-.96-.065-1.518.175l-2.298 1-1.937.844-.074.035-1.887.821-.407.179a4.598 4.598 0 01-3.677 0l-.406-.179-.783 1.996.349.15.837.365a4.584 4.584 0 003.684 0l.841-.364.345-.151-.136-.349.136.349 1.964-.857-.751-1.914-.016-.042.02.042L21 7.834l.419-.182 2.007-.88 1.65-.72c.275-.108.515-.062.717.14l.012.011.011.012c.202.201.248.438.14.717l-.721 1.65-.88 2.007-.182.419 1.914.751.082.031.84-1.933 1.004-2.298c.24-.558.298-1.065.174-1.515z" fill="#0EA5E9"/><path d="M31.66 14.429c-.23-.407-.633-.725-1.198-.95l-2.333-.914-1.964-.77-.023.05.02-.047-.078-.031-1.915-.752-.41-.166a4.614 4.614 0 01-2.604-2.604l-.159-.41-1.964.86.136.352.337.852a4.593 4.593 0 002.607 2.608l.849.333.352.14 1.996.782.492-1.127-.488 1.12.426.166 2.034.802 1.678.659c.27.116.406.318.406.604 0 .008 0 .012-.003.02.003.008.003.008.003.02 0 .282-.135.483-.406.604l-1.678.654-2.038.799-.426.166.821 1.887.031.078 1.964-.771 2.333-.915c.566-.225.969-.542 1.197-.95.233-.41.349-.933.349-1.572.004-.643-.112-1.166-.345-1.577z" fill="#DC3545"/><path d="M18.687 23.158l-.837-.368a4.616 4.616 0 00-3.685 0l-.836.368-.345.151-1.965.857-.418.186-2.007.875-1.65.72c-.276.11-.516.067-.718-.135l-.011-.011-.012-.012c-.201-.201-.248-.442-.14-.717l.721-1.65.876-2.011.186-.415-1.918-.755-.077-.031-.849 1.933-1 2.298c-.244.562-.302 1.065-.178 1.522.128.454.415.903.868 1.357.453.453.903.74 1.356.864.454.127.961.07 1.519-.175l2.298-1 1.937-.844.077-.035 1.887-.821-.472-1.205.472 1.205.403-.175a4.597 4.597 0 013.677 0l.407.175.783-1.996-.349-.155zM9.86 4.998l-2.297-1c-.558-.24-1.065-.298-1.519-.174-.453.124-.902.415-1.356.868-.453.453-.74.903-.868 1.356-.124.453-.066.957.175 1.519l1.003 2.298.845 1.933.035.078.821 1.886.965-.38-.965.377.174.406a4.598 4.598 0 010 3.677l-.174.403 1.996.783.15-.349.365-.837a4.6 4.6 0 00.004-3.684l-.368-.837-.151-.349-.86-1.964-.183-.419-.875-2.007-.721-1.65c-.109-.276-.062-.516.14-.717.003-.008.007-.008.011-.012.004-.008.008-.008.012-.012.201-.201.438-.247.716-.139l1.651.72 2.007.88.418.182.756-1.914.031-.081-1.937-.84z" fill="#0EA5E9"/><path d="M23.313 19.032l-.352.136-.853.337a4.591 4.591 0 00-2.603 2.603l-.337.853-.136.352-.783 1.996-.166.422-.802 2.042-.655 1.674c-.12.27-.318.41-.605.41-.007 0-.011 0-.019-.003-.008.003-.012.003-.02.003-.286 0-.484-.14-.604-.41l-.655-1.674-.798-2.042-.166-.426-1.891.821-.074.031.771 1.968.918 2.33c.225.569.543.968.95 1.2.41.233.934.345 1.573.345.64 0 1.162-.112 1.573-.345.407-.232.724-.631.95-1.2l.914-2.33.77-1.968-.034-.015.039.015.03-.077.752-1.914-1.058-.461 1.058.46.159-.41a4.614 4.614 0 012.604-2.604l.414-.159-.864-1.96z" fill="#DC3545"/></svg>