<svg width="33" height="32" viewBox="0 0 33 32" fill="none" xmlns="http://www.w3.org/2000/svg"><path d="M25.29 4.861a17.423 17.423 0 00-3.327-.327c-2.1 0-4.199.377-6.194 1.136l-.008.004-.038.017c-.272.105-.54.214-.804.335l-.076.034h-.004a19.54 19.54 0 00-.8.385h-.004l-.072.038c-.255.13-.51.272-.762.42-.038.024-.076.045-.114.07-.226.13-.444.268-.657.411-.021.017-.063.034-.11.067a17.295 17.295 0 00-2.669 2.192v.004h-.004a.111.111 0 00-.021.025c.034-.075.063-.155.092-.226l.004-.004.017-.038a16.145 16.145 0 014.534-5.896l.005-.005.004-.004c.088-.075.188-.146.289-.226l.201-.16a2.46 2.46 0 00.18-.13c.114-.079.222-.158.327-.234a9.79 9.79 0 01.499-.331l.008-.004.021-.013c.176-.113.352-.222.532-.322l.005-.005A15.938 15.938 0 0122.638 0a16.12 16.12 0 012.653 4.861zm2.138 18.221a20.2 20.2 0 00.034-1.127c0-2.1-.378-4.199-1.136-6.19l-.004-.008-.013-.034c-.096-.243-.193-.49-.297-.725-.05-.121-.11-.238-.16-.347-.046-.097-.088-.201-.146-.315l-.005-.008-.033-.071c-.021-.046-.046-.088-.067-.13l-.013-.03c0-.004-.004-.004-.004-.008-.004-.004-.004-.008-.004-.008l-.008-.017-.009-.013-.008-.012-.009-.013a6.334 6.334 0 00-.088-.171l-.004-.005-.004-.008-.004-.004c-.046-.088-.088-.172-.143-.26l-.004-.008-.004-.009-.008-.02-.03-.047v-.004c-.058-.105-.117-.214-.184-.327l-.004-.004-.005-.009-.004-.008-.004-.008c-.08-.134-.163-.277-.256-.42l-.004-.008a25.29 25.29 0 01-.255-.402l-.009-.013-.008-.012c-.038-.059-.088-.13-.143-.214l-.029-.042-.004-.008-.008-.009-.005-.004-.008-.017-.009-.008-.004-.008-.046-.063-.004-.009c-.071-.1-.142-.2-.218-.301v-.005h-.004l-.008-.016c-.005 0-.005 0-.005-.005a8.921 8.921 0 00-.2-.268c-.047-.058-.08-.104-.106-.13a3.835 3.835 0 00-.2-.255l-.005-.004-.033-.038a4.999 4.999 0 00-.252-.298l-.004-.004v-.004a19.07 19.07 0 00-.893-.96c-.008-.004-.008-.008-.016-.016.083.033.171.07.255.108 3.08 1.383 5.64 3.7 7.326 6.597l.008.008a15.982 15.982 0 012.07 6.286 15.842 15.842 0 01-4.857 2.657c.009-.059.021-.113.025-.16.021-.117.046-.238.067-.364v-.008l.005-.013c.058-.364.104-.73.142-1.094.008-.104.017-.205.02-.301a.611.611 0 00.047-.227zm-5.046-.75c-.016.034-.029.071-.046.105-.025.063-.05.117-.067.163a16.169 16.169 0 01-6.596 7.326A15.939 15.939 0 019.38 32a16.09 16.09 0 01-2.666-4.865 17.477 17.477 0 009.521-.809c.256-.1.512-.206.763-.314l.055-.021h.008l.009-.005c.134-.062.268-.117.39-.176l.008-.008.008-.004.017-.008.264-.126.008-.004.009-.009.008-.004.021-.013.046-.02h.004l.034-.017c.063-.03.117-.063.168-.088l.025-.013.012-.008.004-.005.021-.008.021-.012h.009l.004-.005h.004v-.004c.063-.033.122-.063.18-.096.03-.013.063-.034.105-.059h.004l.009-.004.02-.013h.005l.004-.004c.096-.054.197-.113.297-.172l.047-.025.004-.004.104-.063c.076-.042.151-.088.223-.13v-.004l.05-.03.008-.008h.005l.13-.08c.113-.07.226-.146.339-.217l.012-.009.013-.008.008-.004c.105-.071.214-.147.323-.226l.008-.005.005-.004.008-.004c.092-.063.184-.13.268-.193h.004c.005-.004.009-.004.009-.008.155-.113.302-.226.448-.34l.03-.02.008-.009c.075-.063.16-.126.235-.184l.008-.009h.004l.034-.025.004-.004.008-.008.009-.009a4.4 4.4 0 00.289-.243v-.004c.33-.28.654-.578.964-.893l-.005-.004zm-12.722.042c-.063-.025-.13-.05-.197-.08l-.005-.004-.062-.025a16.18 16.18 0 01-6.5-5.326 15.674 15.674 0 01-.826-1.27l-.008-.017A15.98 15.98 0 010 9.374a15.986 15.986 0 014.865-2.66 17.425 17.425 0 00-.327 3.327c0 2.1.378 4.199 1.136 6.194a17.022 17.022 0 001.777 3.448v.005c.629.943 1.358 1.84 2.192 2.673.004.005.012.009.017.013z" fill="#0EA5E9"/><path d="M14.693 1.555a17.428 17.428 0 00-6.16 7.308 17.186 17.186 0 00-1.187 3.7 17.568 17.568 0 00-.34 3.412v.059c-.033-.088-.075-.176-.108-.264a16.11 16.11 0 01-1.048-5.725c0-1.387.176-2.774.532-4.124A15.953 15.953 0 019.37 0c1.899.205 3.688.742 5.323 1.555zM32.004 9.37a16.066 16.066 0 01-1.559 5.323 17.478 17.478 0 00-9.014-6.823h-.004a3.2 3.2 0 00-.264-.084h-.004l-.004-.004a5.076 5.076 0 00-.281-.084l-.009-.004h-.008l-.025-.008c-.147-.046-.293-.084-.436-.122a24.998 24.998 0 00-.46-.113h-.005l-.017-.008c-.155-.034-.31-.067-.47-.105h-.02s0-.004-.004-.004h-.013V7.33c-.067-.009-.15-.03-.251-.05l-.05-.01H19.1l-.017-.003h-.008l-.017-.005h-.008l-.008-.004-.068-.008-.008-.004h-.008a8.347 8.347 0 00-.365-.059l-.02-.004c-.11-.021-.223-.034-.332-.05l-.172-.021a3.898 3.898 0 00-.318-.034l-.004-.004-.05-.004h-.005a8.847 8.847 0 00-.386-.034l-.008-.004c-.431-.034-.867-.05-1.307-.05h-.03c.088-.034.172-.076.256-.11a16.232 16.232 0 019.852-.515 16.421 16.421 0 015.934 3.013zm-5.858 12.593c0 1.387-.176 2.77-.533 4.116a15.99 15.99 0 01-2.983 5.917c-1.89-.214-3.68-.75-5.318-1.555a17.5 17.5 0 006.156-7.308v-.005c.121-.268.235-.54.343-.817l.005-.008c.054-.139.104-.273.15-.402v-.005l.005-.008v-.004l.008-.021c.034-.097.063-.185.092-.277l.005-.004.004-.013.004-.008.008-.034c.03-.088.055-.167.076-.243l.017-.05.004-.004v-.008c.037-.118.075-.24.113-.37l.004-.008v-.008c.046-.142.08-.28.117-.419a.833.833 0 00.034-.122c.02-.088.046-.171.063-.251v-.008l.012-.055.005-.004v-.004c.008-.03.02-.08.033-.147l.088-.394.004-.017v-.012l.004-.009c.021-.125.05-.26.076-.402v-.004c.02-.117.037-.23.054-.34v-.004c.034-.188.055-.373.076-.557l.008-.038v-.012c.013-.1.021-.197.034-.298v-.008l.004-.05.004-.009c.013-.13.021-.264.034-.386.033-.435.046-.871.046-1.315v-.034c.033.088.075.176.109.268a16.668 16.668 0 011.035 5.758zM16.03 24.99c-.089.033-.177.075-.265.108a16.208 16.208 0 01-9.848.515A15.968 15.968 0 010 22.625c.21-1.894.75-3.687 1.559-5.322a17.441 17.441 0 007.304 6.16c1.17.533 2.406.931 3.7 1.187a17.23 17.23 0 003.441.343c.009 0 .017-.004.025-.004z" fill="#0EA5E9"/></svg>