<svg width="32" height="32" viewBox="0 0 32 32" fill="none" xmlns="http://www.w3.org/2000/svg"><path d="M11.996 24.001l4.002 4.002L11.996 32 0 20l3.998-4.002 4 4.002 3.997-4.002L15.998 20l-4.002 4zM32 20L20 32l-4.002-3.997L20 24l-4.002-4L20 15.998 23.997 20l4.006-4.002L32 20z" fill="#28A745"/><path d="M32 12l-3.997 3.998-4.006-3.997L20 15.998l-4.002-3.997L20 7.999l-4.002-3.997L20 0l12 12zM11.996 7.999l4.002 4.002-4.002 3.997L8 12.001l-4.001 3.997L0 12.001 11.996 0l4.002 4.002-4.002 3.997z" fill="#28A745"/></svg>