<svg width="32" height="32" viewBox="0 0 32 32" fill="none" xmlns="http://www.w3.org/2000/svg"><path d="M24.387 3.426l-.56-1.422s-.227-.662-.34-.868a2.16 2.16 0 00-.276-.34c-.55-.55-1.324-.787-2.009-.568-.425.134-.827.327-.827.327s-.005-.005-.005 0l-1.418.617a7.347 7.347 0 01-4.482.456 7.359 7.359 0 01-1.427-.456L11.715.595s-.747-.367-1.011-.443C10.046-.045 9.308.246 8.79.77c-.09.09-.233.282-.291.39-.121.232-.336.867-.336.867l-.55 1.396a7.65 7.65 0 01-.684 1.333c.393-.085.827-.027 1.301.183l2.116.922 1.785.778.067.031 2.13.926a4.204 4.204 0 003.345.005l2.13-.93.066-.032 1.785-.778 2.116-.922c.478-.206.912-.268 1.306-.179a7.1 7.1 0 01-.69-1.333zm4.16 20.974l1.422-.559.868-.34h.005l.004-.004c.12-.08.228-.17.331-.277a2.21 2.21 0 00.6-2.022c.004-.005 0-.005 0-.005l-.005-.004-.353-.81s.004-.004 0-.004l-.618-1.418a7.347 7.347 0 01-.456-4.482 7.37 7.37 0 01.456-1.427l.577-1.329.443-1.01a2.201 2.201 0 00-.908-2.161l-.97-.38-1.396-.55a7.648 7.648 0 01-1.333-.685c.085.394.027.828-.183 1.302l-.922 2.116-.778 1.784-.032.067-.925 2.13a4.204 4.204 0 00-.005 3.345l.93 2.13.032.067.778 1.784.921 2.116c.206.479.269.913.18 1.306a8.171 8.171 0 011.337-.68zM7.573 28.565l.559 1.422s.228.662.34.868c.054.094.174.232.277.34.55.55 1.324.787 2.009.568.425-.134.827-.327.827-.327s.005.005.005 0l1.418-.617a7.344 7.344 0 014.482-.456c.487.103.966.255 1.426.456l1.329.577s.747.367 1.01.443c.658.197 1.396-.094 1.915-.617.09-.09.233-.282.291-.39.12-.232.336-.867.336-.867l.545-1.396c.184-.47.416-.912.685-1.333-.394.085-.828.027-1.302-.183l-2.116-.922-1.785-.778-.067-.031-2.129-.926a4.204 4.204 0 00-3.346-.005l-2.129.93-.067.032-1.785.778-2.115.922c-.479.206-.913.268-1.306.179.277.42.51.863.693 1.333zM3.408 7.595l-1.422.56-.868.34h-.004l-.005.004c-.12.08-.228.17-.33.277a2.21 2.21 0 00-.6 2.026l.004.005.354.81s-.005.004 0 .004l.617 1.418a7.347 7.347 0 01.456 4.482 7.359 7.359 0 01-.456 1.427l-.577 1.328-.443 1.011a2.201 2.201 0 00.908 2.16l.97.38 1.396.551c.47.183.913.416 1.333.684-.085-.393-.026-.827.184-1.301l.921-2.116.779-1.785.03-.067.927-2.129a4.204 4.204 0 00.004-3.346l-.93-2.129-.031-.067-.779-1.785-.921-2.116c-.206-.478-.269-.912-.18-1.306a8.536 8.536 0 01-1.337.68z" fill="#DC3545"/><path d="M13.025 1.038L11.616.42s-.635-.308-.863-.375A1.835 1.835 0 0010.315 0c-.787 0-1.503.385-1.839 1.029-.205.402-.357.823-.357.823s-.005 0-.005.004L7.546 3.31a7.593 7.593 0 01-.689 1.342 7.465 7.465 0 01-3.525 2.876l-1.36.537s-.791.273-1.037.407c-.608.33-.926 1.064-.926 1.807 0 .13.036.367.072.483.076.25.38.859.38.859l.604 1.386c.165.376.295.765.393 1.16.027.106.161.142.233.062.214-.237.514-.434.89-.582l2.165-.85 1.83-.715.07-.027 2.18-.859a4.244 4.244 0 002.388-2.384l.854-2.183.027-.072.716-1.829.85-2.165c.147-.376.344-.675.581-.89a.136.136 0 00-.063-.233 9.049 9.049 0 01-1.154-.402zm17.928 11.987l.618-1.409.375-.863.005-.004v-.005a2.23 2.23 0 00-.975-2.304c0-.004-.005-.004-.005-.004h-.004l-.828-.326s0-.005-.004-.005l-1.454-.568a7.597 7.597 0 01-1.342-.689 7.466 7.466 0 01-2.876-3.525l-.537-1.36-.398-1.02c-.004-.013-.013-.026-.018-.035a2.217 2.217 0 00-2.174-.872l-.966.42-1.387.604a7.214 7.214 0 01-1.158.394c-.107.027-.143.16-.063.232.238.215.434.515.582.89l.85 2.165.715 1.825.027.072.86 2.178a4.244 4.244 0 002.383 2.389l2.183.854.072.027 1.83.716 2.164.85c.376.147.675.344.89.581.076.08.206.045.233-.063.107-.384.237-.769.402-1.145zM18.966 30.958l1.409.617s.635.309.863.376c.107.031.29.045.438.045.788 0 1.503-.385 1.839-1.03.205-.402.357-.822.357-.822s.005 0 .005-.005l.568-1.453c.188-.475.416-.922.689-1.342a7.467 7.467 0 013.525-2.877l1.36-.536s.791-.273 1.037-.407c.608-.331.926-1.065.926-1.807 0-.13-.036-.367-.072-.483-.076-.251-.38-.86-.38-.86l-.604-1.386a7.215 7.215 0 01-.393-1.159c-.027-.107-.161-.143-.233-.062-.215.237-.514.434-.89.581l-2.165.85-1.83.716-.07.027-2.18.859a4.244 4.244 0 00-2.388 2.384l-.854 2.183-.027.071-.716 1.83-.85 2.165c-.147.375-.344.675-.581.89a.136.136 0 00.063.232c.389.108.778.237 1.154.403zM1.038 18.97L.42 20.38l-.375.862-.005.005v.004c-.027.143-.04.287-.04.434a2.23 2.23 0 001.02 1.874h.004l.828.327s0 .004.004.004l1.454.569a7.6 7.6 0 011.342.688 7.465 7.465 0 012.876 3.525l.537 1.36.398 1.02c.004.013.013.027.018.035a2.22 2.22 0 001.793.913c.13 0 .256-.009.38-.036l.967-.42 1.386-.604a7.216 7.216 0 011.16-.394c.106-.027.142-.16.062-.232-.237-.215-.434-.515-.582-.89l-.85-2.165-.715-1.83-.027-.071-.859-2.179a4.244 4.244 0 00-2.384-2.388l-2.183-.855-.072-.027-1.829-.715-2.165-.85c-.376-.148-.675-.345-.89-.582a.136.136 0 00-.233.063c-.107.38-.237.765-.402 1.145z" fill="#DC3545" fill-opacity=".6"/></svg>