<svg width="32" height="32" viewBox="0 0 32 32" fill="none" xmlns="http://www.w3.org/2000/svg"><path d="M29.71 1.046A.613.613 0 0029.277 0H25.67c-1.157 0-2.27.46-3.091 1.278L15.998 7.86l3.449 3.449L29.709 1.046z" fill="#624BFF"/><path d="M12.541 11.321l2.133 2.12a1.881 1.881 0 002.648 0l1.755-1.742.37-.39-3.45-3.449-2.174-2.175a4.278 4.278 0 00-3.025-1.253h-5.12l6.871 6.872-.008.017z" fill="#A79AFF"/><path d="M2.29 30.958A.61.61 0 002.723 32h3.644a4.278 4.278 0 003.025-1.253l6.607-6.607-3.449-3.448L2.291 30.958z" fill="#624BFF"/><path d="M17.326 18.563a1.879 1.879 0 00-2.652 0L12.923 20.3l-.37.39 3.45 3.449 2.145 2.146a4.375 4.375 0 003.095 1.282h5.08l-6.872-6.872.012-.013-2.137-2.12z" fill="#A79AFF"/><path d="M7.86 16.002L5.702 18.16l5.615-5.615L1.037 2.282A.608.608 0 000 2.714v3.627a4.33 4.33 0 001.274 3.08l6.586 6.581z" fill="#624BFF"/><path d="M4.432 21.223v5.1l6.872-6.872.013.012 2.129-2.145a1.879 1.879 0 00-.005-2.652l-2.124-2.12-5.615 5.614a4.321 4.321 0 00-1.27 3.063z" fill="#A79AFF"/><path d="M20.741 19.426l10.242 10.312A.595.595 0 0032 29.32v-3.672a4.31 4.31 0 00-1.257-3.05l-6.566-6.6-3.436 3.429z" fill="#624BFF"/><path d="M27.589 10.827v-5.15l-6.844 6.877-.012-.013-2.096 2.117c-.722.73-.726 1.9-.012 2.635l2.116 2.129 5.615-5.615a4.219 4.219 0 001.233-2.98z" fill="#A79AFF"/></svg>