<svg width="24" height="24" viewBox="0 0 24 24" fill="none" xmlns="http://www.w3.org/2000/svg"><path d="M14.64 21.928c.031.002.063.004.095.004h7.266c.85 0 1.541-.691 1.541-1.54V3.546c0-.85-.69-1.541-1.54-1.541h-7.267c-.032 0-.064.003-.095.004A1.76 1.76 0 0012.647.266L2.193 1.661A2 2 0 00.458 3.643v16.67a2 2 0 001.729 1.982l10.4 1.424a1.808 1.808 0 002.053-1.791zm.095-19.041h7.266a.66.66 0 01.66.66v16.845a.66.66 0 01-.66.66h-7.266a.6.6 0 01-.095-.01v-7.967a3.603 3.603 0 007.087-.917h-3.605V8.552a3.602 3.602 0 00-3.482 2.688V2.896c.031-.004.062-.01.095-.01zM4.77 12.17c-.334.333-.825.48-1.392.475a2.256 2.256 0 01-.324-.023v1.616l-.928-.024v-4.41c.287-.06.692-.112 1.27-.127.593-.016 1.02.096 1.31.335.278.226.467.607.467 1.06 0 .453-.143.838-.403 1.098zm3.917.007c-.364.347-.899.5-1.515.495-.136 0-.259-.008-.353-.023v1.685l-1.01-.026V9.71a8.168 8.168 0 011.383-.133c.645-.017 1.11.098 1.425.347.303.237.509.634.509 1.107s-.157.875-.439 1.146zm4.622-1.766l-1.405.023v4.03l-1.138-.03v-3.981l-1.312.021v-.921l3.855-.1v.958z" fill="#F59E0B"/><path d="M3.447 10.45a1.509 1.509 0 00-.393.047v1.335c.08.02.18.026.317.026.51-.001.827-.28.827-.748 0-.422-.272-.668-.751-.66zm3.798-.067c-.21.004-.353.027-.427.05v1.391c.088.02.196.027.346.027.554 0 .9-.291.9-.78 0-.44-.298-.697-.819-.688zm11.367 1.206h3.606a3.592 3.592 0 00-1.095-2.583l-2.51 2.583zm-.039-.634l2.549-2.549c-.717-.717-1.612-1.067-2.552-1.053l.002 3.602z" fill="#F59E0B"/></svg>