<svg width="24" height="24" viewBox="0 0 24 24" fill="none" xmlns="http://www.w3.org/2000/svg"><path d="M3.09 10.775c-.19.003-.319.025-.387.046v1.324c.08.02.178.027.314.027.501 0 .814-.278.814-.743 0-.418-.269-.662-.74-.654z" fill="#637381"/><path d="M14.64 21.928c.031.002.063.004.095.004h7.267c.85 0 1.54-.691 1.54-1.54V3.546c0-.85-.69-1.541-1.54-1.541h-7.266c-.033 0-.065.003-.096.004A1.76 1.76 0 0012.647.266L2.193 1.66A2 2 0 00.458 3.643v16.67a2 2 0 001.729 1.982l10.4 1.424a1.808 1.808 0 002.053-1.791zm.095-19.041h7.267a.66.66 0 01.66.66v16.845a.66.66 0 01-.66.66h-7.266a.6.6 0 01-.096-.01v-5.9l5.27 1.009c.073.014.159 0 .192-.03l2.39-2.187s.156-.094-.066-.136l-.985-.19-1.094 1.001a.562.562 0 01-.377.13.687.687 0 01-.13-.012l-5.064-.969-.136.125v-.624l5.087.973c.073.014.16.001.192-.03l2.391-2.187s.156-.094-.065-.136l-.986-.19-1.094 1.001a.564.564 0 01-.377.13.725.725 0 01-.13-.011l-5.019-.96v-.48l5.088.974c.073.013.16 0 .192-.03l2.39-2.188s.157-.093-.064-.135L16.02 8.792c-.074-.014-.16 0-.193.03L14.64 9.907V2.896c.033-.004.064-.01.097-.01zm4.567 7.954c-.565-.044-1.354.397-1.354.397s.344-.602-.049-1.034c-.393-.433-2.335.578-2.335.578l-.924-.177v-.027l1.583-1.447 5.44 1.04-1.607 1.47-.396-.076c.035-.29.125-.687-.358-.724zM4.394 12.482c-.33.33-.813.475-1.371.471-.123 0-.234-.009-.32-.022v1.603l-.914-.024v-4.378a6.99 6.99 0 011.252-.124c.584-.015 1.005.095 1.29.332.273.225.46.603.46 1.053 0 .45-.142.831-.397 1.09zm2.11 2.22c-.51-.014-1.008-.164-1.255-.315l.201-.86c.268.149.683.3 1.114.308.47.008.72-.19.72-.5 0-.294-.216-.463-.76-.668-.74-.272-1.216-.697-1.216-1.369 0-.788.627-1.407 1.685-1.435a2.71 2.71 0 011.174.21l-.234.872a2.103 2.103 0 00-.96-.209c-.442.007-.655.218-.655.461 0 .298.253.428.838.655.811.306 1.198.745 1.198 1.418 0 .801-.6 1.465-1.85 1.432zm6.11-.504c-.537.424-1.34.61-2.305.583a9.33 9.33 0 01-1.234-.104V9.951a9.73 9.73 0 011.474-.138c.94-.024 1.559.13 2.05.48.534.377.873.992.873 1.881 0 .287-.035.544-.094.779-.01.01-.012.02-.008.031-.14.537-.414.939-.756 1.214z" fill="#637381"/><path d="M10.666 10.66a2.326 2.326 0 00-.501.051v3.185c.094.024.246.027.384.03 1.014.024 1.687-.525 1.687-1.714.007-1.033-.606-1.569-1.57-1.553zm9.527-.213c.327.063.664.048.753-.034.089-.081-.104-.198-.431-.26a2.2 2.2 0 00-.359-.039.233.233 0 00-.121-.053l-.087-.016c-.11-.022-.234-.004-.294.038-.277-.04-.518-.038-.569.01-.062.056.165.155.507.22.1.02.198.032.289.042.078.035.184.068.312.092z" fill="#637381"/></svg>