<svg width="24" height="24" viewBox="0 0 24 24" fill="none" xmlns="http://www.w3.org/2000/svg"><path d="M14.64 21.928c.031.002.063.004.095.004h7.266c.85 0 1.541-.691 1.541-1.54V3.546c0-.85-.69-1.541-1.54-1.541h-7.267c-.032 0-.064.003-.095.005A1.76 1.76 0 0012.647.266L2.193 1.661A2 2 0 00.458 3.643v16.67a2 2 0 001.729 1.982l10.4 1.424a1.808 1.808 0 002.053-1.791zm0-7.132h2.351v.88H14.64v-.88zm0-.11v-.898h2.351v.898H14.64zm0-1.008v-1.03h2.351v1.03H14.64zm0-1.14v-1.152h2.351v1.153H14.64zm0-1.245v-1.098h2.351v1.098H14.64zm0-1.192V9.003h2.351v1.098H14.64zm.095-7.214h7.266a.66.66 0 01.66.66v16.845a.66.66 0 01-.66.66h-7.266a.605.605 0 01-.095-.01v-5.271h7.798V8.799h-.005V7.717H14.64v-4.82c.031-.005.062-.01.095-.01zm7.593 6.116v6.657H21.3V9.324h-.706v6.336h-.588V9.975H19.3v5.685h-.517v-5.042h-.706v5.042h-.992V9.003h5.243zm-2.592-.094V7.811h2.603V8.8h-.011v.11h-2.592zm-.095 0h-2.603V7.811h2.603V8.91zm-15.6 4.262c.292.005.619-.058.812-.137l.148.816c-.18.092-.584.183-1.105.17-1.445-.04-2.171-1.014-2.171-2.28 0-1.515.995-2.384 2.266-2.418.502-.013.888.086 1.062.178l-.2.83a1.975 1.975 0 00-.818-.156c-.759.012-1.34.508-1.34 1.508 0 .9.494 1.474 1.347 1.489zm2.708.925c-.515-.014-1.017-.165-1.266-.316l.203-.864c.27.149.689.301 1.123.309.474.008.726-.192.726-.501 0-.296-.218-.466-.766-.672-.747-.273-1.227-.7-1.227-1.374 0-.791.633-1.414 1.7-1.442.52-.014.906.09 1.184.21l-.236.877a2.136 2.136 0 00-.968-.21c-.446.007-.66.22-.66.463 0 .3.254.43.844.657.819.308 1.209.748 1.209 1.425 0 .804-.606 1.471-1.866 1.438zm5.05.06l-1.314-.033L8.938 9.27l1.192-.03.596 2.058c.169.583.323 1.145.441 1.76h.023c.125-.59.281-1.176.453-1.741l.646-2.132 1.24-.032-1.73 5.004z" fill="#0D6EFD"/></svg>