<svg width="24" height="24" viewBox="0 0 24 24" fill="none" xmlns="http://www.w3.org/2000/svg"><path d="M14.64 21.928c.031.002.063.005.095.005h7.266c.85 0 1.541-.692 1.541-1.541V3.547c0-.85-.69-1.54-1.54-1.54h-7.267c-.032 0-.064.002-.095.004A1.76 1.76 0 0012.647.266L2.193 1.661A2 2 0 00.458 3.644v16.67a2 2 0 001.729 1.981l10.4 1.424a1.808 1.808 0 002.053-1.79zm0-10.763v-.723h.106v-.332l.451-.405-.557 1.46zm.918-1.503h.195v-.11h.496v.09l-1.61 4.23v-1.806l.92-2.404zm7.104 4.782h-.046l.007-2.184h.039v2.184zM14.735 2.887h7.266a.66.66 0 01.66.66v8.189h-.467v.11H19.98v-.11h-.531v.524h.088v.503h-.088v.532h.531v-.096h.782c-.226.222-.49.36-.796.418v-.076h-.524v.083a1.532 1.532 0 01-.889-.435 1.502 1.502 0 01-.457-.864h.064v-.53h-.074c.05-.342.201-.633.458-.887a1.52 1.52 0 01.898-.448v.082h.524v-.07c.24.043.46.14.657.29v.272h.532v-.095l.738.005v.09h.531v-.525h-.232a2.97 2.97 0 00-.966-.981 2.832 2.832 0 00-1.26-.426v-.127h-.525V9.1a2.85 2.85 0 00-1.855.85 2.854 2.854 0 00-.86 1.845H16.6v.531h.126c.066.708.359 1.322.875 1.828a2.856 2.856 0 001.84.837v.11h.523v-.113a2.877 2.877 0 001.23-.418v.4h.524v-.103h.475v.102h.467v5.424a.66.66 0 01-.66.66h-7.266c-.033 0-.064-.005-.096-.01v-6.081h.093v-.395l-.004-.023 1.865-4.881h.18v-.525h-.525v.088h-.496v-.02l.848-.761h.343V7.94h-.503v.386l-.903.811h-.309v.278l-.582.523h-.007V2.896c.032-.004.063-.01.096-.01zm6.46 11.043v.255a2.6 2.6 0 01-1.23.474v-.083h-.523v.087a2.532 2.532 0 01-1.614-.744 2.552 2.552 0 01-.773-1.593h.07v-.532h-.072a2.54 2.54 0 01.764-1.613c.453-.45.998-.706 1.625-.76v.087h.524V9.43c.38.04.738.163 1.067.366.341.21.623.487.84.824h-.718v-.11h-.334a1.826 1.826 0 00-.855-.367v-.132h-.524v.12c-.435.05-.813.232-1.125.545a1.874 1.874 0 00-.552 1.118h-.13v.532h.132c.058.425.246.793.562 1.097.315.303.688.48 1.113.529v.114h.524v-.125a1.831 1.831 0 001.164-.646h.267v-.532h-.524v.117h-.893v-.117h-.117v-.503h.117v-.088h2.214v.088h.102l-.006 1.088v1.096h-.096v.096h-.474v-.61h-.524zm-18.52.373c-.472-.013-.933-.158-1.162-.302l.186-.827c.248.142.632.288 1.031.295.435.007.665-.184.665-.48 0-.283-.2-.446-.702-.643-.685-.262-1.126-.67-1.126-1.317 0-.758.58-1.354 1.56-1.38a2.42 2.42 0 011.085.203l-.217.84a1.884 1.884 0 00-.886-.203c-.41.007-.606.21-.606.443 0 .287.234.412.774.63.75.295 1.108.717 1.108 1.363 0 .77-.555 1.408-1.71 1.378zm4.621.052l-1.2-.03L4.68 9.683l1.09-.028.546 1.968a19.1 19.1 0 01.402 1.682h.02c.116-.564.258-1.124.415-1.664l.59-2.037 1.13-.029-1.578 4.78zm6.231-.07a5.862 5.862 0 01-1.721.24c-.916-.025-1.569-.267-2.018-.712-.444-.425-.686-1.06-.68-1.77.008-1.605 1.18-2.553 2.818-2.596.66-.017 1.175.097 1.43.21l-.248.918c-.285-.115-.637-.207-1.197-.197-.948.015-1.652.55-1.652 1.609 0 1.009.637 1.614 1.569 1.63.264.005.476-.021.567-.064v-1.046l-.785-.005v-.876l1.917-.006v2.664z" fill="#0D6EFD"/></svg>