<svg width="300" height="309" viewBox="0 0 300 309" fill="none" xmlns="http://www.w3.org/2000/svg"><g clip-path="url(#clip0_1589_20810)"><path d="M150.003 308.824c82.845 0 150.004-37.184 150.004-83.053s-67.159-83.053-150.004-83.053C67.159 142.718 0 179.902 0 225.771s67.159 83.053 150.003 83.053z" fill="#EEF2F5"/><path d="M285.016 212.913l-83.615 48.3c-.622.361-1.625.361-2.247 0l-120.562-69.6c-.623-.361-.623-.936 0-1.297l83.614-48.3c.622-.361 1.626-.361 2.248 0l120.562 69.606c.622.355.622.937 0 1.291zM90.713 288.24c27.739 0 50.226-12.984 50.226-29 0-16.017-22.487-29-50.226-29-27.74 0-50.227 12.983-50.227 29 0 16.016 22.487 29 50.227 29z" fill="#DFE5EC"/><path d="M151.87 248.442c21.835 0 39.536-10.219 39.536-22.825s-17.701-22.825-39.536-22.825-39.536 10.219-39.536 22.825 17.701 22.825 39.536 22.825zm87.923 22.097c13.707 0 24.819-6.416 24.819-14.33S253.5 241.88 239.793 241.88c-13.707 0-24.818 6.415-24.818 14.329 0 7.914 11.111 14.33 24.818 14.33z" fill="#DFE5EC"/><path d="M203.226 174.929v74.216c0 .475-.334 1.057-.749 1.298l-1.592.916c-.415.241-1.084.241-1.499 0l-1.592-.916c-.415-.241-.749-.823-.749-1.298v-74.216c0-.475.334-.669.749-.434l1.592.916c.415.241 1.084.241 1.499 0l1.592-.916c.415-.235.749-.041.749.434z" fill="#37474F"/><path d="M199.386 251.366l-1.592-.916c-.415-.241-.749-.823-.749-1.298v-74.223c0-.475.334-.669.749-.434l1.592.916c.415.241.75.816.75 1.298v74.215c0 .482-.335.676-.75.442z" fill="#212B36"/><path d="M271.134 135.701v74.215c0 .475-.334 1.057-.749 1.298l-1.592.917c-.415.241-1.084.241-1.498 0l-1.593-.917c-.414-.241-.749-.823-.749-1.298v-74.215c0-.475.335-.669.749-.435l1.593.916c.414.241 1.083.241 1.498 0l1.592-.916c.415-.241.749-.047.749.435z" fill="#37474F"/><path d="M267.295 212.131l-1.593-.917c-.414-.241-.749-.823-.749-1.298v-74.215c0-.475.335-.669.749-.435l1.593.917c.414.24.749.822.749 1.297v74.216c0 .482-.335.676-.749.435z" fill="#212B36"/><path d="M111.765 122.154v74.216c0 .475-.334 1.057-.749 1.298l-1.592.916c-.415.241-1.084.241-1.499 0l-1.592-.916c-.415-.241-.749-.823-.749-1.298v-74.216c0-.475.334-.669.749-.435l1.592.917c.415.241 1.084.241 1.499 0l1.592-.917c.415-.24.749-.046.749.435z" fill="#37474F"/><path d="M107.925 198.584l-1.592-.916c-.415-.241-.749-.823-.749-1.298v-74.216c0-.475.334-.669.749-.435l1.592.917c.415.241.75.816.75 1.298v74.215c0 .482-.335.676-.75.435z" fill="#212B36"/><path d="M285.911 140.979v-.542c0-.87-.608-1.926-1.364-2.361l-119.76-69.078c-.756-.435-1.973-.435-2.729 0l-73.674 42.546c-.756.435-1.365 1.492-1.365 2.362v.542c0 .869.61 1.926 1.365 2.361l119.759 69.071c.756.435 1.974.435 2.73 0l73.674-42.546c.749-.428 1.364-1.485 1.364-2.355z" fill="#624BFF"/><path opacity=".6" d="M285.911 140.979v-.542c0-.87-.608-1.926-1.364-2.361l-119.76-69.078c-.756-.435-1.973-.435-2.729 0l-73.674 42.546c-.756.435-1.365 1.492-1.365 2.362v.542c0 .869.61 1.926 1.365 2.361l119.759 69.071c.756.435 1.974.435 2.73 0l73.674-42.546c.749-.428 1.364-1.485 1.364-2.355z" fill="#000"/><path d="M209.516 182.522v3.693c.495 0 .983-.114 1.364-.328l73.667-42.553c.756-.442 1.365-1.492 1.365-2.362v-.548c0-.77-.475-1.693-1.11-2.181.495.421.408 1.01-.255 1.398l-73.667 42.553c-.381.228-.876.328-1.364.328z" fill="#624BFF"/><path opacity=".5" d="M209.516 182.522v3.693c.495 0 .983-.114 1.364-.328l73.667-42.553c.756-.442 1.365-1.492 1.365-2.362v-.548c0-.77-.475-1.693-1.11-2.181.495.421.408 1.01-.255 1.398l-73.667 42.553c-.381.228-.876.328-1.364.328z" fill="#000"/><path d="M284.547 139.648l-73.674 42.546c-.756.435-1.973.435-2.729 0L88.391 113.123c-.756-.435-.756-1.137 0-1.572l73.674-42.547c.756-.434 1.973-.434 2.729 0l119.753 69.072c.756.434.756 1.137 0 1.572z" fill="#624BFF"/><path opacity=".4" d="M284.547 139.648l-73.674 42.546c-.756.435-1.973.435-2.729 0L88.391 113.123c-.756-.435-.756-1.137 0-1.572l73.674-42.547c.756-.434 1.973-.434 2.729 0l119.753 69.072c.756.434.756 1.137 0 1.572z" fill="#000"/><path opacity=".15" d="M200.463 138.718l-17.453 10.108c-.542.315-1.418.315-1.953 0l-51.565-29.729c-.542-.314-.542-.816 0-1.13l17.454-10.109c.542-.314 1.418-.314 1.953 0l51.564 29.729c.536.315.536.817 0 1.131z" fill="#000"/><path d="M131.195 116.048h0l.005-.003 16.396-9.466.001-.001c.177-.103.44-.168.729-.168.288 0 .548.066.721.167l.003.002 50.039 28.933h.001c.12.07.146.123.15.136v1.709c-.001.002-.003.007-.009.014a.428.428 0 01-.144.115l-.005.003-16.387 9.464-.001.001c-.178.1-.441.165-.732.165-.29 0-.553-.065-.731-.165l-.002-.001-50.036-28.891-.001-.001c-.129-.074-.153-.134-.157-.147l.003-.859.001-.003.003-.875a.417.417 0 01.153-.129zm-.154.131v-.001.001z" fill="#212B36" stroke="#212B36"/><path d="M182.943 145.628l16.389-9.419c.542-.307.542-.816 0-1.13l-50.039-28.933c-.541-.315-1.418-.315-1.953 0l-16.396 9.466c-.542.314-.542.816 0 1.13l50.039 28.893c.541.301 1.418.308 1.96-.007z" fill="#37474F"/><path d="M183.192 146.061l16.041-9.229v.524l-.01.015a.522.522 0 01-.152.127l-16.379 9.464h-.001a.985.985 0 01-.166.075v-.729c.236-.048.464-.129.667-.247 0 0 0 0 0 0z" fill="#212B36" stroke="#212B36"/><path d="M133.578 116.301c0-.014.007-.02.014-.02l1.625-.937 2.201 1.271-1.632.97-2.201-1.271-.007-.013zm2.536-1.472c0-.013.006-.02.013-.02l1.626-.937 1.732.997-1.632.97-1.726-.997-.013-.013zm.535 3.244c0-.013.006-.02.013-.02l1.626-.936 1.726.997-1.633.97-1.726-.997-.006-.014zm2.007-4.709c0-.013.006-.02.013-.02l1.626-.937 2.796 1.613-1.632.97-2.79-1.613-.013-.013zm.067 2.97c0-.013.006-.02.013-.02l1.625-.936 1.372.796-1.632.97-1.372-.79-.006-.02zm.528 3.245c0-.014.007-.02.013-.02l1.626-.937 1.733.997-1.633.97-1.726-.997-.013-.013zm1.713-1.947c0-.013.006-.02.013-.02l1.626-.937 1.371.796-1.632.97-1.372-.789-.006-.02zm.234-5.733c0-.013.006-.02.013-.02l1.626-.937 2.201 1.271-1.633.97-2.201-1.271-.006-.013zm.662 9.185c0-.014.007-.02.013-.02l1.626-.937 12.496 7.212-1.632.97-12.49-7.212-.013-.013zm.462-5.599c0-.014.006-.02.013-.02l1.626-.937 1.371.796-1.632.97-1.372-.789-.006-.02zm.896 3.445c0-.014.007-.02.013-.02l1.626-.937 1.371.796-1.632.97-1.371-.789-.007-.02zm.522-8.496c0-.014.006-.02.013-.02l1.626-.937 1.371.796-1.632.97-1.372-.789-.006-.02zm.535 3.238c0-.014.007-.02.013-.02l1.626-.937 1.371.796-1.632.97-1.371-.789-.007-.02zm.294 3.11c0-.013.007-.02.014-.02l1.625-.936 1.372.796-1.633.97-1.371-.79-.007-.02zm.897 3.446c0-.014.006-.02.013-.02l1.626-.937 1.371.796-1.632.97-1.372-.789-.006-.02zm.522-8.496c0-.014.006-.02.013-.02l1.626-.937 1.371.796-1.632.97-1.372-.789-.006-.02zm.535 3.237c0-.013.006-.02.013-.02l1.626-.936 1.371.796-1.632.97-1.372-.789-.006-.021zm.294 3.111c0-.013.007-.02.013-.02l1.626-.936 1.371.796-1.632.97-1.371-.79-.007-.02zm.007-9.426c0-.013.006-.02.013-.02l1.626-.936 1.726.997-1.633.97-1.726-.997-.006-.014zm.889 12.871c0-.013.007-.02.014-.02l1.625-.936 1.372.796-1.632.97-1.372-.79-.007-.02zm.522-8.496c0-.013.007-.02.014-.02l1.625-.936 1.372.796-1.633.97-1.371-.789-.007-.021zm.535 3.245c0-.013.007-.02.014-.02l1.625-.937 1.372.796-1.632.97-1.372-.789-.007-.02zm.301 3.104c0-.013.007-.02.014-.02l1.625-.937 1.372.796-1.632.97-1.372-.789-.007-.02zm.89 3.445c0-.013.007-.02.014-.02l1.625-.936 1.372.796-1.633.97-1.371-.79-.007-.02zm.442-12.102c0-.013.006-.02.013-.02l1.626-.936 1.371.796-1.632.97-1.372-.789-.006-.021zm.08 3.606c0-.013.007-.02.013-.02l1.626-.936 1.371.796-1.639.963-1.371-.789v-.014zm.535 3.238c0-.013.007-.02.014-.02l1.625-.937 1.372.797-1.633.97-1.371-.79-.007-.02zm.295 3.111c0-.014.006-.02.013-.02l1.626-.937 1.371.796-1.632.97-1.372-.789-.006-.02zm.889 3.445c0-.013.007-.02.014-.02l1.625-.937 1.372.796-1.633.97-1.371-.789-.007-.02zm.448-12.102c0-.013.007-.02.014-.02l1.625-.936 1.372.796-1.632.97-1.372-.79-.007-.02zm.081 3.606c0-.013.006-.02.013-.02l1.626-.937 1.371.797-1.632.97-1.372-.79-.006-.02zm.535 3.245c0-.014.007-.021.013-.021l1.626-.936 1.371.796-1.632.97-1.371-.789-.007-.02zm.294 3.104c0-.014.007-.02.014-.02l1.625-.937 1.372.796-1.633.97-1.371-.789-.007-.02zm.897 3.445c0-.014.006-.02.013-.02l1.626-.937 1.371.796-1.632.97-1.372-.789-.006-.02zm.441-12.102c0-.013.007-.02.014-.02l1.625-.937 1.372.797-1.633.97-1.371-.79-.007-.02zm.081 3.606c0-.014.006-.02.013-.02l1.625-.937 1.372.796-1.632.97-1.372-.789-.006-.02zm.247 11.874c0-.013.007-.02.013-.02l1.626-.937 1.726.997-1.632.97-1.726-.997-.007-.013zm.288-8.636c0-.014.006-.02.013-.02l1.626-.937 1.371.796-1.632.97-1.372-.789-.006-.02zm.294 3.11c0-.013.007-.02.013-.02l1.626-.936 1.371.796-1.632.97-1.371-.79-.007-.02zm.896 3.446c0-.014.007-.02.014-.02l1.625-.937 1.372.796-1.632.97-1.372-.789-.007-.02zm.442-12.102c0-.013.007-.02.013-.02l1.626-.937 1.371.796-1.632.97-1.371-.789-.007-.02zm.08 3.606c0-.014.007-.02.014-.02l1.625-.937 1.372.796-1.633.97-1.371-.789-.007-.02zm.535 3.237c0-.013.007-.02.014-.02l1.625-.936 1.372.796-1.632.97-1.372-.789-.007-.021zm.067 8.844c0-.013.007-.02.014-.02l1.625-.936 1.726.996-1.632.97-1.726-.996-.007-.014zm.228-5.733c0-.013.006-.02.013-.02l1.626-.936 1.371.796-1.632.97-1.372-.79-.006-.02zm.896 3.445c0-.013.007-.02.014-.02l1.625-.936 1.372.796-1.633.97-1.371-.79-.007-.02zm.522-8.496c0-.013.007-.02.013-.02l1.626-.936 1.371.796-1.632.97-1.371-.789-.007-.021zm.535 3.238c0-.013.007-.02.014-.02l1.625-.936 1.372.796-1.633.97-1.371-.79-.007-.02zm.295 3.111c0-.013.006-.02.013-.02l1.625-.937 1.372.796-1.632.97-1.372-.789-.006-.02zm.066-9.392c0-.014.007-.02.014-.02l1.625-.937 1.372.796-1.633.97-1.371-.789-.007-.02zm.061 15.332c0-.013.006-.02.013-.02l1.626-.936 1.732.997-1.632.97-1.726-.997-.013-.014zm.769-2.495c0-.013.007-.02.013-.02l1.626-.936 1.371.796-1.632.97-1.371-.79-.007-.02zm.522-8.496c0-.013.013-.02.013-.02l1.619-.936 1.371.789-1.632.97-1.371-.789v-.014zm.535 3.238c0-.013.007-.02.013-.02l1.626-.937 1.371.797-1.632.97-1.371-.79-.007-.02zm.294 3.111c0-.014.007-.02.014-.02l1.625-.937 1.372.796-1.633.97-1.371-.789-.007-.02zm.067-9.393c0-.013.007-.02.014-.02l1.625-.936 1.372.796-1.633.97-1.371-.789-.007-.021zm.415 15.534c0-.013.007-.02.013-.02l1.626-.937 2.201 1.271-1.632.97-2.201-1.271-.007-.013zm.415-2.696c0-.013.006-.02.013-.02l1.626-.937 4.328 2.502-1.639.97-4.328-2.502v-.013zm.521-8.496c0-.013.007-.02.014-.02l1.625-.937 1.372.797-1.632.97-1.372-.79-.007-.02zm.536 3.238c0-.013.006-.02.013-.02l1.626-.937 1.371.796-1.632.97-1.372-.789-.006-.02zm.301 3.111c0-.014.006-.02.013-.02l1.626-.937 1.371.796-1.632.97-1.372-.789-.006-.02zm.06-9.393c0-.013.007-.02.013-.02l1.626-.936 1.371.796-1.632.97-1.371-.79-.007-.02zm1.351 4.342c0-.014.007-.02.014-.02l1.625-.937 1.372.796-1.633.97-1.371-.789-.007-.02zm.368 11.948c0-.014.007-.02.014-.02l1.625-.937 1.372.796-1.633.97-1.371-.789-.007-.02zm.167-8.71c0-.014.007-.02.014-.02l1.625-.937 1.372.796-1.633.97-1.371-.789-.007-.02zm.301 3.11c0-.013.007-.02.014-.02l1.625-.936 1.258.722c.087.054.234.081.395.081a.899.899 0 00.415-.087l2.134-1.231 1.612.93-4.175 2.435-3.264-1.887-.014-.007zm.061-9.392c0-.013.006-.02.013-.02l1.626-.937 1.371.797-1.632.97-1.372-.79-.006-.02zm1.351 4.342c0-.014.007-.02.013-.02l1.626-.937 1.371.796-1.632.97-1.371-.789-.007-.02zm.368 11.947c0-.013.007-.02.013-.02l1.626-.936 1.371.796-1.632.97-1.371-.789-.007-.021zm.167-8.71c0-.013.007-.02.014-.02l1.625-.936 1.372.796-1.633.97-1.371-.789-.007-.021zm1.338-5.719c0-.014.007-.02.013-.02l1.626-.937 1.371.796-1.632.97-1.371-.789-.007-.02zm.375 3.779c0-.013.006-.02.013-.02l1.626-.936 1.371.796-1.632.97-1.372-.789-.006-.021zm.368 11.948c0-.013.006-.02.013-.02l1.626-.936 1.371.796-1.632.97-1.372-.79-.006-.02zm.287-2.769c0-.014.007-.02.014-.02l1.625-.937 1.372.796-1.633.97-1.371-.789-.007-.02zm1.218-11.66c0-.014.007-.02.013-.02l1.626-.937 1.371.796-1.632.97-1.371-.789-.007-.02zm.374 3.779c0-.013.007-.02.014-.02l1.625-.936 2.442 1.404-1.632.971-2.435-1.405-.014-.014zm.843 12.216c0-.014.007-.02.014-.02l1.625-.937 3.619 2.094-1.632.97-3.619-2.087-.007-.02zm.402-8.563c0-.014.006-.02.013-.02l1.626-.937 1.371.796-1.632.97-1.372-.789-.006-.02zm.635-6.135c0-.013.007-.02.014-.02l1.625-.936 1.372.796-1.633.97-1.371-.79-.007-.02zm1.499 13.233c0-.014.006-.02.013-.02l1.626-.937 1.371.796-1.632.97-1.372-.789-.006-.02zm.113-5.8c0-.014.007-.02.014-.02l1.625-.937 1.372.789-1.632.97-1.372-.789-.007-.013zm.295-2.77c0-.013.007-.02.013-.02l1.626-.936 1.371.796-1.632.97-1.371-.79-.007-.02zm.341-3.365c0-.013.007-.02.013-.02l1.626-.936 1.371.796-1.632.97-1.371-.79-.007-.02zm1.211 15.995c0-.013.007-.02.013-.02l1.626-.936 1.371.796-1.632.97-1.371-.79-.007-.02zm.287-2.763c0-.013.007-.02.014-.02l1.625-.936 1.372.796-1.632.97-1.372-.789-.007-.021zm.114-5.8c0-.013.007-.02.014-.02l1.625-.936 1.372.796-1.633.97-1.371-.789-.007-.021zm.181 3.038c0-.014.007-.02.013-.02l1.626-.937 1.371.796-1.632.97-1.371-.789-.007-.02zm.114-5.807c0-.013.006-.02.013-.02l1.626-.937 1.371.796-1.632.97-1.372-.789-.006-.02zm.836-3.077c0-.014.006-.02.013-.02l1.626-.937 1.371.796-1.632.97-1.372-.789-.006-.02zm.716 15.707c0-.013.006-.02.013-.02l4.161-2.402 1.371.797-4.174 2.435-1.371-.79v-.02zm.287-2.763c0-.013.007-.02.014-.02l1.625-.936 1.372.796-1.633.97-1.371-.79-.007-.02zm.295-2.763c0-.013.006-.02.013-.02l1.626-.936 1.371.796-1.632.97-1.372-.79-.006-.02zm.113-5.806c0-.014.007-.02.014-.02l1.625-.937 1.372.796-1.633.97-1.371-.789-.007-.02zm.181 3.044c0-.014.007-.021.013-.021l1.626-.936 1.371.796-1.632.97-1.378-.803v-.006zm.656-6.122c0-.013.006-.02.013-.02l1.626-.936 1.371.796-1.632.97-1.372-.789-.006-.021zm1.297 10.182c0-.013.007-.02.014-.02l1.625-.936 1.372.796-1.633.97-1.371-.79-.007-.02zm.295-2.763c0-.013.006-.02.013-.02l1.626-.936 1.371.796-1.632.97-1.372-.79-.006-.02zm.294-2.769c0-.014.007-.02.013-.02l1.626-.937 1.371.796-1.632.97-1.371-.789-.007-.02zm.361-3.352c0-.013.007-.02.014-.02l1.625-.936 1.372.796-1.633.97-1.371-.79-.007-.02zm1.298 10.182c0-.013.007-.02.013-.02l4.161-2.402 1.372.796-4.175 2.435-1.371-.789v-.02zm.294-2.763c0-.013.007-.02.014-.02l1.625-.936 1.372.796-1.633.97-1.371-.79-.007-.02zm.295-2.769c0-.014.006-.02.013-.02l1.626-.937 1.371.796-1.632.97-1.372-.789-.006-.02zm1.485-3.452c0-.014.007-.02.013-.02l.689-.408 1.372.796-.703.435-1.364-.79-.007-.013zm.763 4.749c0-.013.006-.02.013-.02l1.625-.936 1.372.796-1.632.97-1.372-.79-.006-.02zm1.485-3.451c0-.014.006-.021.013-.021l.689-.408 1.371.796-.702.435-1.365-.789-.006-.013zm.762 4.749c0-.013.007-.02.014-.02l1.625-.936 1.372.796-1.633.97-1.371-.79-.007-.02zm1.485-3.452c0-.013.007-.02.014-.02l.689-.408 1.371.796-.702.435-1.365-.789-.007-.014zm2.248 1.298c0-.013.007-.02.013-.02l.69-.408 1.371.796-.703.435-1.364-.789-.007-.014z" fill="#161C24"/><path opacity=".15" d="M240.795 140.678l15.353-8.864-76.771-44.326-15.359 8.864 76.777 44.326z" fill="#000"/><path d="M197.318 126.248l-10.965-6.335c-1.13-.655-1.692-1.505-1.692-2.361 0-.857-.007-1.526-.007-1.526l10.316-5.853c.602-.348 1.09-1.197 1.09-1.893V94.767l19.146 11.064v13.514c0 .695-.488 1.545-1.09 1.893l-8.617 5.017c-2.254 1.298-5.92 1.298-8.181-.007z" fill="#E6E6E6"/><path d="M210.611 121.733v1.518l3.512-2.02c.596-.348 1.091-1.191 1.091-1.893v-13.513l-3.646-2.107c-.074.923-.161 1.886-.234 2.816l2.555 1.478v10.557c0 .702-.488 1.545-1.09 1.893l-2.188 1.271z" fill="#E0E0E0"/><path d="M213.888 118.582c0 .696-.488 1.545-1.09 1.893l-7.292 4.255c-2.261 1.304-5.927 1.304-8.182 0l-10.964-6.335c-2.261-1.305-2.261-3.419 0-4.723l7.298-4.255c.602-.348 1.091-1.191 1.091-1.893V96.961l19.146 11.065v10.556h-.007z" fill="#F5F5F5"/><path d="M191.432 110.695l2.221-1.285c.602-.348 1.09-1.197 1.09-1.893V96.954l19.146 11.065v10.563c0 .696-.488 1.545-1.09 1.893l-2.188 1.258-19.179-11.038zm-6.772 5.332v1.525c0 .856.569 1.706 1.693 2.361l10.964 6.335c1.084.629 2.489.944 3.907.97V125.7c-1.418-.02-2.823-.348-3.907-.97l-10.964-6.342c-1.131-.649-1.693-1.505-1.693-2.361z" fill="#EBEBEB"/><path d="M244.634 133.165c-.709.409-1.894.388-2.643-.046-9.412-5.432-64.636-37.316-74.048-42.748-.756-.434-1.365-1.491-1.365-2.361V23.187c0-.87.575-1.907 1.278-2.315.709-.408 1.893-.388 2.642.047l74.049 42.747c.756.435 1.364 1.492 1.364 2.362v64.809c0 .884-.575 1.92-1.277 2.328z" fill="#212B36"/><path d="M241.985 133.112l-74.048-42.747c-.756-.435-1.365-1.492-1.365-2.362V23.187c0-.87.609-1.225 1.365-.79l74.048 42.747c.756.435 1.365 1.492 1.365 2.362v64.81c0 .876-.609 1.231-1.365.796z" fill="#37474F"/><path d="M242.186 133.38c.755.334 1.799.321 2.441-.054.703-.408 1.278-1.445 1.278-2.321v-7.292l-2.555 1.478v7.292c.006.803-.502 1.164-1.164.897z" fill="#E0E0E0"/><path d="M243.35 125.205v7.292c0 .869-.609 1.224-1.365.789l-74.048-42.747c-.756-.435-1.365-1.492-1.365-2.362v-7.292l76.778 44.32z" fill="#fff"/><path d="M240.794 119.659V68.362c0-.521-.368-1.157-.816-1.418l-70.021-40.426c-.455-.26-.816-.047-.816.475V78.29c0 .522.368 1.157.816 1.418l70.021 40.426c.448.261.816.047.816-.475z" fill="#624BFF"/><path opacity=".5" d="M240.794 119.659V68.362c0-.521-.368-1.157-.816-1.418l-70.021-40.426c-.455-.26-.816-.047-.816.475V78.29c0 .522.368 1.157.816 1.418l70.021 40.426c.448.261.816.047.816-.475z" fill="#fff"/><path d="M204.965 105.825c.709.408 1.278 1.398 1.278 2.214 0 .816-.575 1.144-1.278.736-.709-.408-1.277-1.398-1.277-2.215 0-.809.575-1.143 1.277-.735z" fill="#212B36"/><path d="M243.851 67.513h0v-.008a3.207 3.207 0 00-.248-1.144l1.677-.97c.082.23.126.45.126.643v57.404l-1.555.9V67.513z" fill="#212B36" stroke="#212B36"/><path d="M178.696 9.807c.007-.04.007-.08.02-.12-.006-.007 0-.02.007-.027.007-.04.02-.08.027-.114.02-.06.04-.114.08-.167.007-.027.027-.047.04-.067.013-.02.02-.033.04-.047a.564.564 0 01.087-.087l.007-.006a.595.595 0 01.114-.067c.234-.114.541-.08.876.113l86.411 49.872c.722.415 1.304 1.432 1.304 2.261v62.843c0 .355-.2.636-.468.783-.02.014-.04.027-.053.04a.516.516 0 01-.067.04c-.034.02-.074.027-.114.041a.74.74 0 01-.167.02.839.839 0 01-.435-.127l-.034-.021-1.244-.715-85.133-49.15c-.723-.414-1.305-1.425-1.305-2.26V9.967c0-.054 0-.114.007-.16z" fill="#212B36"/><path d="M179.117 9.105c.234-.114.542-.08.877.114l86.411 49.871c.722.415 1.304 1.432 1.304 2.261v4.269l1.666-.977v-4.235c0-.83-.582-1.84-1.305-2.26l-86.411-49.88c-.374-.22-.709-.22-.95-.08a56.33 56.33 0 01-1.592.917z" fill="#624BFF"/><path d="M178.689 9.961c.007-.823.589-1.157 1.305-.743l86.411 49.865c.722.415 1.304 1.432 1.304 2.262v4.268l-89.02-51.37V9.96z" fill="#624BFF"/><path d="M179.994 9.219l86.411 49.871c.354.208.682.562.916.97l1.659-.963c-.234-.401-.555-.75-.91-.95L181.659 8.27c-.374-.221-.709-.221-.95-.08-.234.14-1.318.762-1.592.91.234-.108.542-.074.877.12z" fill="#fff" opacity=".5"/><path opacity=".15" d="M269.383 64.643V60.4c0-.421-.154-.89-.395-1.304l-1.666.957c.241.408.388.876.388 1.297v4.268l1.673-.976z" fill="#000"/><path d="M264.773 59.987c.408.234.736.936.736 1.558 0 .623-.328.944-.736.71-.408-.235-.736-.937-.736-1.56-.006-.628.328-.942.736-.708zm-2.656-1.539c.408.234.736.937.736 1.559 0 .622-.328.943-.736.709-.408-.234-.736-.937-.736-1.559-.007-.622.328-.943.736-.709zm-2.657-1.532c.409.234.736.937.736 1.559 0 .629-.327.943-.736.709-.408-.234-.735-.936-.735-1.559 0-.622.327-.943.735-.709z" fill="#212B36"/><path opacity=".9" d="M268.889 65.509v57.434c0 .028-.003.057-.01.126a.887.887 0 01-.434.638l-.002.001-.22.127V65.899l.666-.39z" fill="#212B36" stroke="#212B36"/><path d="M205.161 36.5l18.216 10.495c.254.148.462.495.462.77 0 .274-.208.381-.462.234l-18.216-10.496c-.254-.147-.462-.495-.462-.77-.006-.274.201-.38.462-.234z" fill="#624BFF"/><path d="M212.118 56.595l6.904 3.974c.254.147.461.495.461.77 0 .273-.207.38-.461.233l-6.904-3.973c-.254-.147-.462-.495-.462-.77 0-.274.208-.38.462-.234zm0 4.021l6.904 3.973c.254.148.461.496.461.77s-.207.381-.461.234l-6.904-3.974c-.254-.147-.462-.495-.462-.77 0-.273.208-.38.462-.233z" fill="#E6E6E6"/><path d="M225.176 48.039l36.473 21.006c.254.147.461.495.461.769s-.207.381-.461.234l-36.473-21.006c-.254-.147-.461-.495-.461-.769 0-.28.207-.381.461-.234zm-12.904 36.746l11.105 6.43c.254.147.462.494.462.769 0 .274-.208.381-.462.234l-11.105-6.429c-.254-.147-.461-.495-.461-.77-.007-.28.207-.38.461-.234zm12.904 7.46l36.473 21.032c.254.147.461.495.461.769 0 .275-.207.382-.461.235l-36.473-21.026c-.254-.147-.461-.495-.461-.77 0-.28.207-.388.461-.24zm-20.015-51.712l9.178 5.272c.254.147.462.495.462.77 0 .273-.208.38-.462.233l-9.178-5.271c-.254-.148-.462-.495-.462-.77 0-.274.201-.388.462-.234z" fill="#624BFF"/><path opacity=".6" d="M205.161 40.533l9.178 5.272c.254.147.462.495.462.77 0 .273-.208.38-.462.233l-9.178-5.271c-.254-.148-.462-.495-.462-.77 0-.274.201-.388.462-.234z" fill="#fff"/><path d="M205.161 44.54l4.295 2.476c.254.147.461.495.461.769s-.207.381-.461.234l-4.295-2.475c-.254-.147-.462-.495-.462-.77-.006-.274.201-.38.462-.234z" fill="#624BFF"/><path opacity=".6" d="M205.161 44.54l4.295 2.476c.254.147.461.495.461.769s-.207.381-.461.234l-4.295-2.475c-.254-.147-.462-.495-.462-.77-.006-.274.201-.38.462-.234z" fill="#fff"/><path d="M205.161 52.581l4.295 2.476c.254.147.461.495.461.769s-.207.381-.461.234l-4.295-2.475c-.254-.147-.462-.495-.462-.77-.006-.28.201-.38.462-.234z" fill="#624BFF"/><path opacity=".6" d="M205.161 52.581l4.295 2.476c.254.147.461.495.461.769s-.207.381-.461.234l-4.295-2.475c-.254-.147-.462-.495-.462-.77-.006-.28.201-.38.462-.234z" fill="#fff"/><path d="M205.161 56.602l4.295 2.475c.254.147.461.495.461.77 0 .274-.207.38-.461.233l-4.295-2.475c-.254-.147-.462-.495-.462-.769s.201-.381.462-.234z" fill="#624BFF"/><path opacity=".6" d="M205.161 56.602l4.295 2.475c.254.147.461.495.461.77 0 .274-.207.38-.461.233l-4.295-2.475c-.254-.147-.462-.495-.462-.769s.201-.381.462-.234z" fill="#fff"/><path d="M216.131 46.842l5.506 3.19c.254.148.462.496.462.77s-.208.381-.462.234l-5.506-3.19c-.254-.148-.461-.496-.461-.77 0-.281.207-.382.461-.234z" fill="#624BFF"/><path opacity=".6" d="M216.131 46.842l5.506 3.19c.254.148.462.496.462.77s-.208.381-.462.234l-5.506-3.19c-.254-.148-.461-.496-.461-.77 0-.281.207-.382.461-.234z" fill="#fff"/><path d="M224.641 75.895l37.008 21.307c.254.147.461.495.461.77 0 .273-.207.38-.461.233L224.641 76.9c-.254-.148-.461-.496-.461-.77s.207-.381.461-.234zm31.508 14.095l5.506 3.191c.254.148.461.495.461.77 0 .274-.207.38-.461.234L256.149 91c-.254-.148-.461-.496-.461-.77-.007-.28.2-.388.461-.24zm-38.807-22.343l37.008 21.306c.254.147.461.495.461.77 0 .274-.207.38-.461.234L217.342 68.65c-.254-.147-.461-.495-.461-.77 0-.274.207-.38.461-.233z" fill="#fff"/><path d="M212.118 48.56l9.178 5.272c.254.148.462.495.462.77 0 .274-.208.38-.462.234l-9.178-5.272c-.254-.147-.462-.495-.462-.769s.208-.381.462-.234z" fill="#624BFF"/><path opacity=".6" d="M212.118 48.56l9.178 5.272c.254.148.462.495.462.77 0 .274-.208.38-.462.234l-9.178-5.272c-.254-.147-.462-.495-.462-.769s.208-.381.462-.234z" fill="#fff"/><path d="M223.096 54.87l38.286 22.149c.254.147.461.495.461.77 0 .273-.207.38-.461.233l-38.286-22.15c-.254-.147-.461-.494-.461-.769 0-.274.207-.381.461-.234z" fill="#624BFF"/><path opacity=".6" d="M223.096 54.87l38.286 22.149c.254.147.461.495.461.77 0 .273-.207.38-.461.233l-38.286-22.15c-.254-.147-.461-.494-.461-.769 0-.274.207-.381.461-.234z" fill="#fff"/><path d="M212.118 72.758l49.53 28.565c.255.147.462.495.462.769s-.207.381-.462.234l-49.53-28.565c-.254-.147-.462-.495-.462-.77 0-.273.208-.38.462-.233z" fill="#E6E6E6"/><path d="M205.161 68.744l4.295 2.475c.254.147.461.495.461.77 0 .274-.207.38-.461.233l-4.295-2.475c-.254-.147-.462-.495-.462-.77-.006-.28.201-.387.462-.233z" fill="#624BFF"/><path opacity=".6" d="M205.161 68.744l4.295 2.475c.254.147.461.495.461.77 0 .274-.207.38-.461.233l-4.295-2.475c-.254-.147-.462-.495-.462-.77-.006-.28.201-.387.462-.233z" fill="#fff"/><path d="M212.118 76.778l49.53 28.565c.255.147.462.495.462.769 0 .275-.207.382-.462.234l-49.53-28.565c-.254-.147-.462-.495-.462-.769 0-.28.208-.381.462-.234z" fill="#E6E6E6"/><path d="M205.161 72.758l4.295 2.475c.254.147.461.495.461.77 0 .273-.207.38-.461.233l-4.295-2.475c-.254-.147-.462-.495-.462-.77-.006-.273.201-.38.462-.233z" fill="#624BFF"/><path opacity=".6" d="M205.161 72.758l4.295 2.475c.254.147.461.495.461.77 0 .273-.207.38-.461.233l-4.295-2.475c-.254-.147-.462-.495-.462-.77-.006-.273.201-.38.462-.233z" fill="#fff"/><path d="M212.118 80.792l49.53 28.565c.255.147.462.495.462.769s-.207.381-.462.234l-49.53-28.565c-.254-.147-.462-.495-.462-.77 0-.273.208-.38.462-.233z" fill="#E6E6E6"/><path d="M205.161 76.778l4.295 2.475c.254.147.461.495.461.77 0 .274-.207.38-.461.234l-4.295-2.476c-.254-.147-.462-.495-.462-.769-.006-.28.201-.381.462-.234z" fill="#624BFF"/><path opacity=".6" d="M205.161 76.778l4.295 2.475c.254.147.461.495.461.77 0 .274-.207.38-.461.234l-4.295-2.476c-.254-.147-.462-.495-.462-.769-.006-.28.201-.381.462-.234zm-6.696-44.306l2.523 1.458c.254.148.461.502.461.796v.93c0 .295-.207.408-.461.268l-2.523-1.459a1.016 1.016 0 01-.461-.796v-.93c.007-.294.207-.414.461-.267zm0 4.054l2.523 1.458c.254.148.461.502.461.796v.93c0 .295-.207.408-.461.268l-2.523-1.459a1.016 1.016 0 01-.461-.796v-.93c.007-.294.207-.407.461-.267zm0 4.061l2.523 1.458c.254.147.461.502.461.796v.93c0 .294-.207.408-.461.267l-2.523-1.458a1.016 1.016 0 01-.461-.796v-.93c.007-.294.207-.415.461-.267zm0 4.053l2.523 1.459c.254.147.461.502.461.796v.93c0 .294-.207.408-.461.268l-2.523-1.459a1.016 1.016 0 01-.461-.796v-.93c.007-.294.207-.408.461-.267zm0 4.061l2.523 1.459c.254.147.461.501.461.796v.93c0 .294-.207.408-.461.267l-2.523-1.458a1.016 1.016 0 01-.461-.796v-.93c.007-.294.207-.415.461-.268zm0 4.054l2.523 1.459c.254.147.461.501.461.796v.93c0 .294-.207.408-.461.267l-2.523-1.458a1.016 1.016 0 01-.461-.796v-.93c.007-.295.207-.415.461-.268zm0 4.061l2.523 1.458c.254.147.461.502.461.796V60c0 .294-.207.408-.461.268l-2.523-1.459a1.016 1.016 0 01-.461-.796v-.93c.007-.294.207-.414.461-.267zm0 4.054l2.523 1.458c.254.147.461.502.461.796v.93c0 .294-.207.408-.461.268l-2.523-1.459a1.016 1.016 0 01-.461-.796v-.93c.007-.294.207-.415.461-.267zm0 4.06l2.523 1.459c.254.147.461.502.461.796v.93c0 .294-.207.408-.461.267l-2.523-1.458a1.016 1.016 0 01-.461-.796v-.93c.007-.294.207-.415.461-.267zm0 4.054l2.523 1.459c.254.147.461.502.461.796v.93c0 .294-.207.408-.461.267l-2.523-1.458a1.016 1.016 0 01-.461-.796v-.93c.007-.294.207-.415.461-.268zm0 4.061l2.523 1.458c.254.147.461.502.461.796v.93c0 .295-.207.408-.461.268l-2.523-1.459a1.016 1.016 0 01-.461-.796v-.93c.007-.294.207-.414.461-.267zm0 4.055l2.523 1.458c.254.147.461.501.461.795v.924c0 .294-.207.408-.461.267l-2.523-1.458a1.016 1.016 0 01-.461-.796v-.93c.007-.288.207-.408.461-.26z" fill="#fff"/><path d="M181.727 19.293l13.647 7.88c.508.295.917 1.004.917 1.586v15.755c0 .581-.409.822-.917.528l-13.647-7.88c-.508-.295-.916-1.004-.916-1.586V19.822c0-.582.408-.823.916-.529z" fill="#37474F"/><path d="M182.991 34.914l1.258.73c.254.146.461.494.461.768 0 .275-.207.382-.461.235l-1.258-.73c-.254-.147-.462-.495-.462-.769 0-.28.208-.381.462-.234z" fill="#624BFF"/><path opacity=".6" d="M182.991 34.914l1.258.73c.254.146.461.494.461.768 0 .275-.207.382-.461.235l-1.258-.73c-.254-.147-.462-.495-.462-.769 0-.28.208-.381.462-.234z" fill="#fff"/><path d="M182.991 22.01l1.258.729c.254.147.461.495.461.769s-.207.381-.461.234l-1.258-.73c-.254-.146-.462-.494-.462-.768 0-.281.208-.382.462-.235z" fill="#624BFF"/><path opacity=".6" d="M182.991 22.01l1.258.729c.254.147.461.495.461.769s-.207.381-.461.234l-1.258-.73c-.254-.146-.462-.494-.462-.768 0-.281.208-.382.462-.235z" fill="#fff"/><path d="M184.757 25.602l1.257.729c.254.147.462.495.462.77 0 .274-.208.38-.462.233l-1.257-.729c-.255-.147-.462-.495-.462-.769s.207-.381.462-.234z" fill="#624BFF"/><path opacity=".6" d="M184.757 25.602l1.257.729c.254.147.462.495.462.77 0 .274-.208.38-.462.233l-1.257-.729c-.255-.147-.462-.495-.462-.769s.207-.381.462-.234z" fill="#fff"/><path d="M184.757 28.177l1.257.73c.254.147.462.494.462.769 0 .274-.208.381-.462.234l-1.257-.73c-.255-.146-.462-.494-.462-.769 0-.274.207-.38.462-.234z" fill="#624BFF"/><path opacity=".6" d="M184.757 28.177l1.257.73c.254.147.462.494.462.769 0 .274-.208.381-.462.234l-1.257-.73c-.255-.146-.462-.494-.462-.769 0-.274.207-.38.462-.234z" fill="#fff"/><path d="M182.991 29.75l1.258.729c.254.147.461.495.461.769s-.207.381-.461.234l-1.258-.73c-.254-.146-.462-.494-.462-.769 0-.274.208-.38.462-.234z" fill="#624BFF"/><path opacity=".6" d="M182.991 29.75l1.258.729c.254.147.461.495.461.769s-.207.381-.461.234l-1.258-.73c-.254-.146-.462-.494-.462-.769 0-.274.208-.38.462-.234z" fill="#fff"/><path d="M184.757 33.349l1.257.729c.254.147.462.495.462.769s-.208.381-.462.234l-1.257-.729c-.255-.147-.462-.495-.462-.77 0-.28.207-.38.462-.233z" fill="#624BFF"/><path opacity=".6" d="M184.757 33.349l1.257.729c.254.147.462.495.462.769s-.208.381-.462.234l-1.257-.729c-.255-.147-.462-.495-.462-.77 0-.28.207-.38.462-.233z" fill="#fff"/><path d="M186.43 23.996l7.673 4.429c.255.147.462.495.462.769s-.207.381-.462.234L186.43 25c-.254-.148-.461-.495-.461-.77 0-.274.207-.381.461-.234z" fill="#624BFF"/><path opacity=".8" d="M186.43 23.996l7.673 4.429c.255.147.462.495.462.769s-.207.381-.462.234L186.43 25c-.254-.148-.461-.495-.461-.77 0-.274.207-.381.461-.234z" fill="#fff"/><path d="M186.43 36.9l7.673 4.43c.255.146.462.494.462.768 0 .275-.207.382-.462.235l-7.673-4.429c-.254-.147-.461-.495-.461-.77 0-.28.207-.38.461-.233z" fill="#624BFF"/><path opacity=".8" d="M186.43 36.9l7.673 4.43c.255.146.462.494.462.768 0 .275-.207.382-.462.235l-7.673-4.429c-.254-.147-.461-.495-.461-.77 0-.28.207-.38.461-.233z" fill="#fff"/><path d="M188.196 27.588l5.907 3.419c.254.147.462.495.462.77 0 .273-.208.38-.462.233l-5.907-3.418c-.254-.147-.462-.495-.462-.77 0-.274.208-.38.462-.234z" fill="#624BFF"/><path opacity=".8" d="M188.196 27.588l5.907 3.419c.254.147.462.495.462.77 0 .273-.208.38-.462.233l-5.907-3.418c-.254-.147-.462-.495-.462-.77 0-.274.208-.38.462-.234z" fill="#fff"/><path d="M188.196 30.17l5.907 3.42c.254.146.462.494.462.768 0 .275-.208.382-.462.235l-5.907-3.419c-.254-.147-.462-.495-.462-.77 0-.273.208-.38.462-.233z" fill="#624BFF"/><path opacity=".8" d="M188.196 30.17l5.907 3.42c.254.146.462.494.462.768 0 .275-.208.382-.462.235l-5.907-3.419c-.254-.147-.462-.495-.462-.77 0-.273.208-.38.462-.233z" fill="#fff"/><path d="M186.43 31.736l7.673 4.429c.255.147.462.495.462.769s-.207.381-.462.234l-7.673-4.428c-.254-.148-.461-.495-.461-.77 0-.274.207-.381.461-.234z" fill="#624BFF"/><path opacity=".8" d="M186.43 31.736l7.673 4.429c.255.147.462.495.462.769s-.207.381-.462.234l-7.673-4.428c-.254-.148-.461-.495-.461-.77 0-.274.207-.381.461-.234z" fill="#fff"/><path d="M188.196 35.335l5.907 3.419c.254.147.462.495.462.769s-.208.381-.462.234l-5.907-3.418c-.254-.148-.462-.495-.462-.77 0-.28.208-.381.462-.234z" fill="#624BFF"/><path opacity=".8" d="M188.196 35.335l5.907 3.419c.254.147.462.495.462.769s-.208.381-.462.234l-5.907-3.418c-.254-.148-.462-.495-.462-.77 0-.28.208-.381.462-.234z" fill="#fff"/><path d="M181.727 40.132l13.647 7.88c.508.294.917 1.004.917 1.586V80.73c0 .583-.409.823-.917.529l-13.647-7.88c-.508-.295-.916-1.004-.916-1.586V40.66c0-.582.408-.823.916-.528z" fill="#37474F"/><path d="M182.991 42.848l1.258.729c.254.147.461.495.461.77 0 .273-.207.38-.461.233l-1.258-.729c-.254-.147-.462-.495-.462-.77 0-.274.208-.38.462-.233z" fill="#624BFF"/><path opacity=".6" d="M182.991 42.848l1.258.729c.254.147.461.495.461.77 0 .273-.207.38-.461.233l-1.258-.729c-.254-.147-.462-.495-.462-.77 0-.274.208-.38.462-.233z" fill="#fff"/><path d="M184.757 46.44l1.257.73c.254.146.462.494.462.768 0 .275-.208.382-.462.235l-1.257-.73c-.255-.147-.462-.495-.462-.769s.207-.381.462-.234z" fill="#624BFF"/><path opacity=".6" d="M184.757 46.44l1.257.73c.254.146.462.494.462.768 0 .275-.208.382-.462.235l-1.257-.73c-.255-.147-.462-.495-.462-.769s.207-.381.462-.234z" fill="#fff"/><path d="M184.757 49.016l1.257.729c.254.147.462.495.462.77 0 .273-.208.38-.462.233l-1.257-.729c-.255-.147-.462-.495-.462-.77 0-.274.207-.38.462-.233z" fill="#624BFF"/><path opacity=".6" d="M184.757 49.016l1.257.729c.254.147.462.495.462.77 0 .273-.208.38-.462.233l-1.257-.729c-.255-.147-.462-.495-.462-.77 0-.274.207-.38.462-.233z" fill="#fff"/><path d="M182.991 50.588l1.258.729c.254.147.461.495.461.77 0 .273-.207.38-.461.233l-1.258-.729c-.254-.147-.462-.495-.462-.77 0-.273.208-.38.462-.233z" fill="#624BFF"/><path opacity=".6" d="M182.991 50.588l1.258.729c.254.147.461.495.461.77 0 .273-.207.38-.461.233l-1.258-.729c-.254-.147-.462-.495-.462-.77 0-.273.208-.38.462-.233z" fill="#fff"/><path d="M186.43 44.834l7.673 4.43c.255.146.462.494.462.768 0 .275-.207.382-.462.235l-7.673-4.429c-.254-.147-.461-.495-.461-.77 0-.274.207-.38.461-.233z" fill="#624BFF"/><path opacity=".8" d="M186.43 44.834l7.673 4.43c.255.146.462.494.462.768 0 .275-.207.382-.462.235l-7.673-4.429c-.254-.147-.461-.495-.461-.77 0-.274.207-.38.461-.233z" fill="#fff"/><path d="M188.196 48.427l5.907 3.418c.254.147.462.495.462.77 0 .274-.208.38-.462.234l-5.907-3.419c-.254-.147-.462-.495-.462-.77 0-.273.208-.38.462-.233z" fill="#624BFF"/><path opacity=".8" d="M188.196 48.427l5.907 3.418c.254.147.462.495.462.77 0 .274-.208.38-.462.234l-5.907-3.419c-.254-.147-.462-.495-.462-.77 0-.273.208-.38.462-.233z" fill="#fff"/><path d="M188.196 51.01l5.907 3.418c.254.147.462.495.462.769s-.208.381-.462.234l-5.907-3.418c-.254-.148-.462-.495-.462-.77 0-.274.208-.381.462-.234z" fill="#624BFF"/><path opacity=".8" d="M188.196 51.01l5.907 3.418c.254.147.462.495.462.769s-.208.381-.462.234l-5.907-3.418c-.254-.148-.462-.495-.462-.77 0-.274.208-.381.462-.234z" fill="#fff"/><path d="M186.43 52.575l7.673 4.428c.255.147.462.495.462.77 0 .274-.207.38-.462.233l-7.673-4.428c-.254-.147-.461-.495-.461-.77 0-.274.207-.38.461-.233z" fill="#624BFF"/><path opacity=".8" d="M186.43 52.575l7.673 4.428c.255.147.462.495.462.77 0 .274-.207.38-.462.233l-7.673-4.428c-.254-.147-.461-.495-.461-.77 0-.274.207-.38.461-.233z" fill="#fff"/><path d="M184.757 54.2l1.257.73c.254.146.462.494.462.769 0 .274-.208.38-.462.234l-1.257-.73c-.255-.147-.462-.495-.462-.769s.207-.381.462-.234z" fill="#624BFF"/><path opacity=".6" d="M184.757 54.2l1.257.73c.254.146.462.494.462.769 0 .274-.208.38-.462.234l-1.257-.73c-.255-.147-.462-.495-.462-.769s.207-.381.462-.234z" fill="#fff"/><path d="M184.757 56.776l1.257.729c.254.147.462.495.462.769s-.208.381-.462.234l-1.257-.729c-.255-.147-.462-.495-.462-.77 0-.28.207-.38.462-.233z" fill="#624BFF"/><path opacity=".6" d="M184.757 56.776l1.257.729c.254.147.462.495.462.769s-.208.381-.462.234l-1.257-.729c-.255-.147-.462-.495-.462-.77 0-.28.207-.38.462-.233z" fill="#fff"/><path d="M188.196 56.187l5.907 3.419c.254.147.462.494.462.769 0 .274-.208.381-.462.234l-5.907-3.419c-.254-.147-.462-.494-.462-.769 0-.274.208-.381.462-.234z" fill="#624BFF"/><path opacity=".8" d="M188.196 56.187l5.907 3.419c.254.147.462.494.462.769 0 .274-.208.381-.462.234l-5.907-3.419c-.254-.147-.462-.494-.462-.769 0-.274.208-.381.462-.234z" fill="#fff"/><path d="M188.196 58.77l5.907 3.418c.254.147.462.495.462.769s-.208.381-.462.234l-5.907-3.418c-.254-.148-.462-.495-.462-.77 0-.28.208-.381.462-.234z" fill="#624BFF"/><path opacity=".8" d="M188.196 58.77l5.907 3.418c.254.147.462.495.462.769s-.208.381-.462.234l-5.907-3.418c-.254-.148-.462-.495-.462-.77 0-.28.208-.381.462-.234z" fill="#fff"/><path d="M182.991 63.526l1.258.729c.254.147.461.495.461.769s-.207.381-.461.234l-1.258-.729c-.254-.147-.462-.495-.462-.77 0-.28.208-.38.462-.233z" fill="#624BFF"/><path opacity=".6" d="M182.991 63.526l1.258.729c.254.147.461.495.461.769s-.207.381-.461.234l-1.258-.729c-.254-.147-.462-.495-.462-.77 0-.28.208-.38.462-.233z" fill="#fff"/><path d="M186.43 65.513l7.673 4.428c.255.147.462.495.462.77 0 .274-.207.38-.462.234l-7.673-4.43c-.254-.146-.461-.494-.461-.768 0-.275.207-.382.461-.234z" fill="#624BFF"/><path opacity=".8" d="M186.43 65.513l7.673 4.428c.255.147.462.495.462.77 0 .274-.207.38-.462.234l-7.673-4.43c-.254-.146-.461-.494-.461-.768 0-.275.207-.382.461-.234z" fill="#fff"/><path d="M184.757 67.138l1.257.73c.254.146.462.494.462.769 0 .274-.208.38-.462.234l-1.257-.73c-.255-.147-.462-.495-.462-.769 0-.28.207-.388.462-.234z" fill="#624BFF"/><path opacity=".6" d="M184.757 67.138l1.257.73c.254.146.462.494.462.769 0 .274-.208.38-.462.234l-1.257-.73c-.255-.147-.462-.495-.462-.769 0-.28.207-.388.462-.234z" fill="#fff"/><path d="M184.757 69.707l1.257.729c.254.147.462.495.462.77 0 .274-.208.38-.462.233l-1.257-.729c-.255-.147-.462-.495-.462-.769s.207-.381.462-.234z" fill="#624BFF"/><path opacity=".6" d="M184.757 69.707l1.257.729c.254.147.462.495.462.77 0 .274-.208.38-.462.233l-1.257-.729c-.255-.147-.462-.495-.462-.769s.207-.381.462-.234z" fill="#fff"/><path d="M188.196 69.125l5.907 3.418c.254.147.462.495.462.77 0 .274-.208.381-.462.234l-5.907-3.419c-.254-.147-.462-.495-.462-.769 0-.28.208-.388.462-.234z" fill="#624BFF"/><path opacity=".8" d="M188.196 69.125l5.907 3.418c.254.147.462.495.462.77 0 .274-.208.381-.462.234l-5.907-3.419c-.254-.147-.462-.495-.462-.769 0-.28.208-.388.462-.234z" fill="#fff"/><path d="M188.196 71.7l5.907 3.419c.254.147.462.495.462.77 0 .273-.208.38-.462.233l-5.907-3.418c-.254-.147-.462-.495-.462-.77 0-.274.208-.38.462-.233z" fill="#624BFF"/><path opacity=".8" d="M188.196 71.7l5.907 3.419c.254.147.462.495.462.77 0 .273-.208.38-.462.233l-5.907-3.418c-.254-.147-.462-.495-.462-.77 0-.274.208-.38.462-.233z" fill="#fff"/><path d="M184.757 59.338l1.257.729c.254.147.462.495.462.77 0 .274-.208.38-.462.233l-1.257-.729c-.255-.147-.462-.495-.462-.77 0-.28.207-.387.462-.233z" fill="#624BFF"/><path opacity=".6" d="M184.757 59.338l1.257.729c.254.147.462.495.462.77 0 .274-.208.38-.462.233l-1.257-.729c-.255-.147-.462-.495-.462-.77 0-.28.207-.387.462-.233z" fill="#fff"/><path d="M182.991 60.91l1.258.729c.254.147.461.495.461.77 0 .274-.207.38-.461.233l-1.258-.729c-.254-.147-.462-.495-.462-.769 0-.281.208-.388.462-.234z" fill="#624BFF"/><path opacity=".6" d="M182.991 60.91l1.258.729c.254.147.461.495.461.77 0 .274-.207.38-.461.233l-1.258-.729c-.254-.147-.462-.495-.462-.769 0-.281.208-.388.462-.234z" fill="#fff"/><path d="M188.196 61.331l5.907 3.419c.254.147.462.495.462.769s-.208.381-.462.234l-5.907-3.418c-.254-.148-.462-.495-.462-.77 0-.28.208-.388.462-.234z" fill="#624BFF"/><path opacity=".8" d="M188.196 61.331l5.907 3.419c.254.147.462.495.462.769s-.208.381-.462.234l-5.907-3.418c-.254-.148-.462-.495-.462-.77 0-.28.208-.388.462-.234z" fill="#fff"/><path d="M186.43 62.897l7.673 4.428c.255.147.462.495.462.77 0 .274-.207.38-.462.234L186.43 63.9c-.254-.147-.461-.495-.461-.77 0-.28.207-.38.461-.233z" fill="#624BFF"/><path opacity=".8" d="M186.43 62.897l7.673 4.428c.255.147.462.495.462.77 0 .274-.207.38-.462.234L186.43 63.9c-.254-.147-.461-.495-.461-.77 0-.28.207-.38.461-.233z" fill="#fff"/><path d="M182.991 71.319l1.258.73c.254.146.461.494.461.768 0 .275-.207.382-.461.235l-1.258-.73c-.254-.147-.462-.495-.462-.769 0-.28.208-.381.462-.234z" fill="#624BFF"/><path opacity=".6" d="M182.991 71.319l1.258.73c.254.146.461.494.461.768 0 .275-.207.382-.461.235l-1.258-.73c-.254-.147-.462-.495-.462-.769 0-.28.208-.381.462-.234z" fill="#fff"/><path d="M186.43 73.306l7.673 4.428c.255.148.462.496.462.77s-.207.381-.462.234l-7.673-4.429c-.254-.147-.461-.495-.461-.769s.207-.381.461-.234z" fill="#624BFF"/><path opacity=".8" d="M186.43 73.306l7.673 4.428c.255.148.462.496.462.77s-.207.381-.462.234l-7.673-4.429c-.254-.147-.461-.495-.461-.769s.207-.381.461-.234z" fill="#fff"/><path d="M257.654 83.902v51.096c0 .683.475 1.499 1.064 1.84l29.354 16.938a.676.676 0 00.355.101.443.443 0 00.134-.02c.033-.007.06-.02.093-.034.02-.013.041-.02.054-.033l.06-.04c.02-.021.04-.034.06-.054a.75.75 0 00.194-.281c.067-.154.114-.341.114-.535v-50.835c0-.676-.475-1.499-1.064-1.84l-29.354-16.918c-.274-.154-.522-.18-.716-.094-.033.014-.06.034-.093.054l-.007.006a.31.31 0 00-.067.067c-.013.014-.02.027-.034.04-.013.02-.026.034-.033.054a.464.464 0 00-.06.134c-.014.026-.02.06-.027.093-.007.007-.007.014-.007.02-.013.034-.013.06-.02.1.007.048 0 .095 0 .141z" fill="#212B36" opacity=".8"/><path d="M258.002 83.2c.194-.094.441-.067.716.094l29.354 16.918c.582.341 1.064 1.164 1.064 1.84v3.472l1.692-.977v-3.445c0-.676-.475-1.499-1.057-1.833L260.417 82.35c-.301-.18-.575-.18-.769-.06-.201.1-1.419.79-1.646.91z" fill="#624BFF"/><path d="M257.654 83.896c.007-.67.475-.944 1.057-.602l29.355 16.918c.588.341 1.063 1.164 1.063 1.84v3.472l-31.475-18.143v-3.485z" fill="#624BFF"/><path d="M258.718 83.287l29.354 16.918c.288.167.556.455.75.79l1.686-.964c-.188-.328-.449-.609-.736-.776l-29.355-16.918c-.301-.174-.575-.18-.769-.06-.187.114-1.405.802-1.632.923.18-.094.428-.067.702.087z" fill="#fff" opacity=".5"/><path opacity=".15" d="M290.829 104.54v-3.452c0-.341-.127-.722-.321-1.063l-1.686.963c.194.334.315.709.315 1.057v3.472l1.692-.977z" fill="#000"/><path d="M287.592 101.637c.328.194.602.763.602 1.271 0 .508-.267.769-.602.575-.327-.194-.602-.762-.602-1.271 0-.508.268-.769.602-.575zm-2.162-1.251c.328.194.602.763.602 1.271 0 .508-.267.769-.602.575-.334-.194-.602-.756-.602-1.271 0-.508.274-.762.602-.575zm-2.16-1.244c.328.194.602.762.602 1.271 0 .508-.267.769-.602.575-.328-.194-.602-.763-.602-1.271.007-.508.274-.77.602-.575z" fill="#212B36"/><path d="M288.742 153.776c.04-.026.08-.047.134-.073.1-.061.207-.121.328-.188l.006-.006.181-.101c.007-.006.013-.006.013-.006.101-.054.194-.114.281-.161l.569-.314c.06-.04.114-.061.134-.074a.518.518 0 00.18-.147.772.772 0 00.141-.214c.074-.161.12-.355.12-.562v-47.39l-1.692.977v47.37a1.556 1.556 0 01-.114.535.935.935 0 01-.194.281.15.15 0 01-.06.053c-.007.007-.013.014-.027.02z" fill="#37474F" opacity=".9"/><path d="M260.096 93.241c0-.067.02-.107.053-.133l.763-.696c.013-.007.027-.014.033-.007.014.007.014.007.02.007.02.013.041.04.061.073a.322.322 0 01.026.107v.529a.716.716 0 01-.013.147c-.013.027-.027.06-.054.08l-.401.368.401.837a.49.49 0 01.054.147c.013.04.013.093.013.167v.528c0 .034-.006.06-.026.08-.02.014-.041.02-.061.007 0 0-.006-.006-.02-.013-.013-.007-.02-.027-.033-.047l-.763-1.579a.456.456 0 01-.053-.2v-.402zm2.79-.735a.198.198 0 01.06-.087c.027-.02.06-.02.114.006l.287.168c.02.013.04.04.06.073a.302.302 0 01.027.107c0 .014 0 .034-.006.047l-1.312 4.067a.227.227 0 01-.053.087c-.027.027-.067.02-.114-.006l-.274-.16a.237.237 0 01-.087-.182c0-.013 0-.033.007-.046l1.291-4.074zm2.02 3.906c0 .067-.02.107-.054.134l-.762.696c-.014.007-.027.013-.034.007-.013-.007-.013-.007-.02-.007a.234.234 0 01-.06-.074.324.324 0 01-.027-.107v-.528a.7.7 0 01.014-.147c.013-.027.026-.06.053-.08l.402-.369-.402-.836a.467.467 0 01-.053-.147c-.014-.04-.014-.094-.014-.16v-.53c0-.032.007-.06.027-.08.02-.013.04-.02.06-.006 0 0 .007.007.02.013.014.007.02.027.034.047l.762 1.579a.444.444 0 01.054.2v.395zm2.121 2.081c.027.013.053.047.073.093a.316.316 0 01.034.134v.582c0 .047-.013.074-.034.094-.02.02-.046.02-.073.007l-.361-.208a.194.194 0 01-.074-.087.33.33 0 01-.033-.134v-.582c0-.046.013-.073.033-.093.02-.02.047-.02.074-.007l.361.2zm1.203.695a.194.194 0 01.074.087.33.33 0 01.033.134v.582c0 .047-.013.074-.033.094-.02.02-.047.02-.074.006l-.361-.207a.194.194 0 01-.074-.087.329.329 0 01-.033-.134v-.582c0-.047.013-.073.033-.093.02-.02.047-.02.074-.007l.361.207zm1.205.696a.186.186 0 01.074.094.33.33 0 01.033.134v.582c0 .047-.013.073-.033.093-.02.021-.047.021-.074.007l-.361-.207a.198.198 0 01-.074-.087.33.33 0 01-.033-.134v-.582c0-.047.013-.074.033-.094.02-.02.047-.02.074-.006l.361.2zm-9.017-2.014l17.634 10.182c.207.121.374.402.374.629 0 .228-.167.308-.374.194l-17.634-10.181c-.208-.12-.375-.402-.375-.63-.007-.233.167-.314.375-.193z" fill="#624BFF"/><path d="M266.078 110.936l17.634 10.181c.207.121.375.402.375.629 0 .228-.168.308-.375.194l-17.634-10.182c-.207-.12-.375-.401-.375-.628-.006-.228.161-.315.375-.194zm0 6.535l8.442 4.877c.208.121.375.402.375.629 0 .228-.167.308-.375.194l-8.442-4.877c-.207-.12-.375-.401-.375-.629-.006-.227.161-.314.375-.194z" fill="#E6E6E6"/><path d="M279.517 108.895l7.024 4.041c.208.12.375.401.375.629 0 .227-.167.307-.375.194l-7.024-4.041c-.207-.12-.374-.401-.374-.629 0-.227.16-.314.374-.194zm-19.099 24.906l17.634 10.182c.207.12.374.401.374.629 0 .227-.167.307-.374.194l-17.634-10.182c-.208-.121-.375-.402-.375-.629-.007-.227.167-.314.375-.194zm19.099 11.025l7.025 4.04c.207.121.374.402.374.629 0 .228-.167.308-.374.194l-7.025-4.04c-.207-.121-.374-.402-.374-.629-.007-.228.16-.315.374-.194zm0-9.781l7.025 4.041c.207.12.374.401.374.629 0 .227-.167.308-.374.194l-7.025-4.041c-.207-.12-.374-.401-.374-.629-.007-.227.16-.314.374-.194zm0 3.265l7.025 4.04c.207.121.374.402.374.629 0 .228-.167.308-.374.194l-7.025-4.04c-.207-.121-.374-.402-.374-.629-.007-.228.16-.315.374-.194zm-5.994-6.737l3.947 2.281c.207.121.375.402.375.629 0 .228-.168.308-.375.194l-3.947-2.281c-.207-.12-.375-.401-.375-.629 0-.227.168-.314.375-.194zm-13.105-30.431l10.289 5.934c.207.12.374.401.374.628 0 .228-.167.308-.374.194l-10.289-5.933c-.208-.121-.375-.402-.375-.629-.007-.228.167-.315.375-.194z" fill="#624BFF"/><path opacity=".6" d="M260.418 101.142l10.289 5.934c.207.12.374.401.374.628 0 .228-.167.308-.374.194l-10.289-5.933c-.208-.121-.375-.402-.375-.629-.007-.228.167-.315.375-.194z" fill="#fff"/><path d="M260.418 104.406l3.492 2.014c.207.12.374.401.374.629 0 .227-.167.308-.374.194l-3.492-2.014c-.208-.12-.375-.401-.375-.629-.007-.234.167-.314.375-.194z" fill="#624BFF"/><path opacity=".6" d="M260.418 104.406l3.492 2.014c.207.12.374.401.374.629 0 .227-.167.308-.374.194l-3.492-2.014c-.208-.12-.375-.401-.375-.629-.007-.234.167-.314.375-.194z" fill="#fff"/><path d="M260.418 107.671l3.492 2.014c.207.12.374.401.374.629 0 .227-.167.307-.374.194l-3.492-2.014c-.208-.12-.375-.401-.375-.629-.007-.227.167-.314.375-.194z" fill="#624BFF"/><path opacity=".6" d="M260.418 107.671l3.492 2.014c.207.12.374.401.374.629 0 .227-.167.307-.374.194l-3.492-2.014c-.208-.12-.375-.401-.375-.629-.007-.227.167-.314.375-.194z" fill="#fff"/><path d="M260.418 110.936l3.492 2.013c.207.121.374.402.374.629 0 .227-.167.308-.374.194l-3.492-2.014c-.208-.12-.375-.401-.375-.628-.007-.228.167-.315.375-.194z" fill="#624BFF"/><path opacity=".6" d="M260.418 110.936l3.492 2.013c.207.121.374.402.374.629 0 .227-.167.308-.374.194l-3.492-2.014c-.208-.12-.375-.401-.375-.628-.007-.228.167-.315.375-.194z" fill="#fff"/><path opacity=".6" d="M266.078 114.2l10.289 5.934c.207.12.374.401.374.629 0 .227-.167.308-.374.194l-10.289-5.934c-.207-.12-.375-.401-.375-.629-.006-.227.161-.314.375-.194zm11.746 6.784l4.475 2.589c.208.12.375.401.375.628 0 .228-.167.308-.375.194l-4.475-2.589c-.207-.12-.375-.401-.375-.628-.006-.228.168-.315.375-.194z" fill="#624BFF"/><path opacity=".6" d="M266.078 114.2l10.289 5.934c.207.12.374.401.374.629 0 .227-.167.308-.374.194l-10.289-5.934c-.207-.12-.375-.401-.375-.629-.006-.227.161-.314.375-.194zm11.746 6.784l4.475 2.589c.208.12.375.401.375.628 0 .228-.167.308-.375.194l-4.475-2.589c-.207-.12-.375-.401-.375-.628-.006-.228.168-.315.375-.194z" fill="#fff"/><path d="M260.418 114.207l3.492 2.013c.207.121.374.402.374.629 0 .228-.167.308-.374.194l-3.492-2.013c-.208-.121-.375-.402-.375-.629-.007-.234.167-.315.375-.194z" fill="#624BFF"/><path opacity=".6" d="M260.418 114.207l3.492 2.013c.207.121.374.402.374.629 0 .228-.167.308-.374.194l-3.492-2.013c-.208-.121-.375-.402-.375-.629-.007-.234.167-.315.375-.194z" fill="#fff"/><path d="M272.166 107.918l4.475 2.589c.207.121.375.402.375.629 0 .228-.168.308-.375.194l-4.475-2.589c-.208-.12-.375-.401-.375-.629 0-.227.167-.314.375-.194z" fill="#624BFF"/><path opacity=".6" d="M272.166 107.918l4.475 2.589c.207.121.375.402.375.629 0 .228-.168.308-.375.194l-4.475-2.589c-.208-.12-.375-.401-.375-.629 0-.227.167-.314.375-.194z" fill="#fff"/><path d="M270.318 123.185l10.289 5.933c.207.121.374.402.374.629 0 .228-.167.308-.374.194l-10.289-5.934c-.207-.12-.375-.401-.375-.628 0-.228.168-.315.375-.194zm5.934 6.702l10.288 5.934c.208.121.375.402.375.629 0 .228-.167.308-.375.194l-10.288-5.934c-.208-.12-.375-.401-.375-.629 0-.227.167-.314.375-.194zm5.814.074l4.475 2.589c.208.121.375.401.375.629 0 .227-.167.308-.375.194l-4.475-2.589c-.207-.12-.375-.401-.375-.629 0-.227.168-.314.375-.194z" fill="#fff"/><path d="M282.066 142.899l4.475 2.589c.208.12.375.401.375.629 0 .227-.167.307-.375.194l-4.475-2.589c-.207-.121-.375-.402-.375-.629 0-.228.168-.314.375-.194z" fill="#E6E6E6"/><path d="M266.078 107.671l10.289 5.934c.207.12.374.401.374.629 0 .227-.167.307-.374.187l-10.289-5.934c-.207-.12-.375-.401-.375-.629-.006-.22.161-.307.375-.187z" fill="#624BFF"/><path opacity=".6" d="M266.078 107.671l10.289 5.934c.207.12.374.401.374.629 0 .227-.167.307-.374.187l-10.289-5.934c-.207-.12-.375-.401-.375-.629-.006-.22.161-.307.375-.187z" fill="#fff"/><path d="M277.824 114.448l4.475 2.589c.208.12.375.401.375.629 0 .227-.167.307-.375.194l-4.475-2.589c-.207-.121-.375-.402-.375-.629-.006-.228.168-.315.375-.194z" fill="#624BFF"/><path opacity=".6" d="M277.824 114.448l4.475 2.589c.208.12.375.401.375.629 0 .227-.167.307-.375.194l-4.475-2.589c-.207-.121-.375-.402-.375-.629-.006-.228.168-.315.375-.194z" fill="#fff"/><path opacity=".15" d="M207.703 151.877l6.301 3.639c1.987 1.144 5.105.983 6.958-.368l10.402-7.593c1.853-1.351 1.753-3.378-.234-4.529l-3.164-1.833c-1.987-1.151-5.258-1.251-7.312-.221l-12.838 6.964c-2.047 1.031-2.1 2.797-.113 3.941z" fill="#000"/><path d="M231.539 144.257l-7.199 5.626-5.311 4.154a4.645 4.645 0 01-1.693.408c-.896.047-1.813-.127-2.515-.528l-5.639-3.258s-.007 0-.007-.007c-.013-.006-.02-.013-.034-.02-1.98-1.15-2.448-3.826-1.137-5.706a2.95 2.95 0 01.167-.227 7.51 7.51 0 014.536-2.877l2.857-.575c4.629-.937 8.429-1.398 8.863-1.097l7.071 4.094c.014 0 .034.006.041.013z" fill="#37474F"/><path d="M227.517 147.401l.402-.314-6.349-3.666 5.552-1.719a29.02 29.02 0 00-.562-.322l-5.552 1.72-3.786-2.188c-.234.047-.475.087-.716.134l11.011 6.355z" fill="#624BFF"/><path d="M217.849 153.877a7.027 7.027 0 012.541-4.986h0l.002-.002a6.74 6.74 0 011.881-1.115h0l.003-.002 2.368-.936h.001c1.777-.706 3.396-1.278 4.628-1.651.617-.186 1.129-.32 1.512-.397.109-.022.205-.039.287-.05v.093l-6.617 4.78v.001l-5.024 3.626a.476.476 0 00-.061.045l-.565.3a3.885 3.885 0 01-.956.294z" fill="#212B36" stroke="#212B36"/><path d="M232.178 254.637c-6.944-7.165-11.018-36.319-4.248-41.998h34.452c6.77 5.679 2.696 34.827-4.241 41.991-.06.067-.127.134-.187.194-.08.081-.161.161-.241.234a7.171 7.171 0 01-.629.562c-.053.047-.114.087-.167.134-.167.134-.341.268-.522.401a9.754 9.754 0 01-.896.582c-5.713 3.332-14.972 3.332-20.678 0a8.978 8.978 0 01-.903-.582c-.174-.12-.328-.247-.489-.374a5.333 5.333 0 00-.207-.161 11.628 11.628 0 01-.876-.816c-.061-.06-.121-.114-.168-.167z" fill="#624BFF"/><path d="M232.178 254.637c-6.944-7.165-11.018-36.319-4.248-41.998h34.452c6.77 5.679 2.696 34.827-4.241 41.991-.06.067-.127.134-.187.194-.08.081-.161.161-.241.234a7.171 7.171 0 01-.629.562c-.053.047-.114.087-.167.134-.167.134-.341.268-.522.401a9.754 9.754 0 01-.896.582c-5.713 3.332-14.972 3.332-20.678 0a8.978 8.978 0 01-.903-.582c-.174-.12-.328-.247-.489-.374a5.333 5.333 0 00-.207-.161 11.628 11.628 0 01-.876-.816c-.061-.06-.121-.114-.168-.167z" fill="#7F1D1D"/><path d="M259.386 210.344c7.861 4.59 7.861 12.029 0 16.624-7.86 4.59-20.604 4.59-28.471 0-7.861-4.589-7.861-12.028 0-16.624 7.867-4.589 20.611-4.589 28.471 0z" fill="#624BFF"/><path d="M259.386 210.344c7.861 4.59 7.861 12.029 0 16.624-7.86 4.59-20.604 4.59-28.471 0-7.861-4.589-7.861-12.028 0-16.624 7.867-4.589 20.611-4.589 28.471 0z" fill="#FFE4E6"/><path d="M255.606 212.552c5.774 3.372 5.774 8.837 0 12.209-5.773 3.371-15.132 3.371-20.905 0-5.773-3.372-5.773-8.837 0-12.209 5.773-3.365 15.132-3.365 20.905 0z" fill="#624BFF"/><path d="M255.606 212.552c5.774 3.372 5.774 8.837 0 12.209-5.773 3.371-15.132 3.371-20.905 0-5.773-3.372-5.773-8.837 0-12.209 5.773-3.365 15.132-3.365 20.905 0z" fill="#000" opacity=".3"/><path d="M234.701 218.345c5.773-3.371 15.132-3.371 20.905 0 1.606.937 2.743 2.034 3.459 3.205-.716 1.17-1.853 2.268-3.459 3.204-5.773 3.372-15.132 3.372-20.905 0-1.606-.936-2.743-2.034-3.459-3.204.716-1.164 1.853-2.268 3.459-3.205z" fill="#DFE5EC"/><path d="M242.335 203.635c-.388-.783-.709-1.599-.876-2.516-.388-2.1.14-4.502 1.833-5.8.675-.515 1.559-.896 1.839-1.692.161-.442.101-.923.021-1.385-.315-1.793-.924-3.639-.422-5.385.462-1.619 1.82-2.857 3.338-3.579 1.519-.723 3.211-.997 4.87-1.271.883-.147 1.793-.301 2.576-.736.963-.535 1.264-1.492 1.86-2.328.662-.917 1.518-1.773 2.361-2.522 1.753-1.565 3.954-2.857 6.382-2.75 5.064.221 4.924 4.583 3.459 7.894-1.465 3.305-1.847 4.382 1.318 7.827 3.164 3.446 3.17 7.687-.603 10.068-3.779 2.375-6.234 2.69-4.743 7.265 1.338 4.088 2.161 7.573-1.612 11.941-2.441 2.824-5.78 4.837-9.954 4.663-1.184-.047-3.786-.595-4.884-1.137-1.15-.569-.374-1.465-.762-2.596-.836-2.435-1.666-4.87-2.502-7.305-.642-1.886-1.137-3.98-1.987-5.766-.475-1.01-1.044-1.927-1.512-2.89z" fill="#624BFF"/><path d="M242.335 203.635c-.388-.783-.709-1.599-.876-2.516-.388-2.1.14-4.502 1.833-5.8.675-.515 1.559-.896 1.839-1.692.161-.442.101-.923.021-1.385-.315-1.793-.924-3.639-.422-5.385.462-1.619 1.82-2.857 3.338-3.579 1.519-.723 3.211-.997 4.87-1.271.883-.147 1.793-.301 2.576-.736.963-.535 1.264-1.492 1.86-2.328.662-.917 1.518-1.773 2.361-2.522 1.753-1.565 3.954-2.857 6.382-2.75 5.064.221 4.924 4.583 3.459 7.894-1.465 3.305-1.847 4.382 1.318 7.827 3.164 3.446 3.17 7.687-.603 10.068-3.779 2.375-6.234 2.69-4.743 7.265 1.338 4.088 2.161 7.573-1.612 11.941-2.441 2.824-5.78 4.837-9.954 4.663-1.184-.047-3.786-.595-4.884-1.137-1.15-.569-.374-1.465-.762-2.596-.836-2.435-1.666-4.87-2.502-7.305-.642-1.886-1.137-3.98-1.987-5.766-.475-1.01-1.044-1.927-1.512-2.89z" fill="#28A745"/><path opacity=".7" d="M249.225 222.165a.369.369 0 00.247-.361c-.214-25.033 13.58-39.978 13.721-40.125a.386.386 0 00-.013-.535.366.366 0 00-.529.013c-.14.147-14.142 15.3-13.928 40.647 0 .207.167.375.375.375.047.006.087 0 .127-.014z" fill="#fff"/><path opacity=".7" d="M253.239 198.878a.232.232 0 00.073-.033c4.489-2.823 12.503-4.93 12.577-4.957a.376.376 0 00.268-.462.382.382 0 00-.455-.274c-.335.087-8.202 2.161-12.784 5.044a.384.384 0 00-.121.522c.094.16.281.221.442.16zm1.386-3.431c.006 0 .013-.007.02-.007a.375.375 0 00.2-.488c-1.572-3.881-4.033-6.844-4.141-6.964a.372.372 0 10-.568.481c.027.027 2.495 2.997 4.02 6.763a.374.374 0 00.469.215z" fill="#fff"/><path d="M245.706 224.874s-4.683 1.773-10.991.409c-6.309-1.365-10.162-7.252-10.162-7.252s6.824-2.73 10.797-2.997c0 0-6.174-1.05-11.948.254 0 0-3.652-1.358-2.956-7.526 0 0 3.438-2.529 11.345-1.538 0 0-3.96-2.83-10.911-3.666-.548.006.194-8.028.857-11.607.662-3.579 1.973-3.024 4.816-2.716 2.843.308 11.246 2.221 12.309 4.281 1.064 2.061.027 7.312.027 7.312s2.308-2.876 2.321-6.877c0 0 3.165 1.157 4.85 2.649 1.693 1.492 2.536 2.703 3.024 3.787-.395 2.816-1.719 7.117-3.579 9.519 0 0 4.188-2.703 5.145-7.686 0 0 3.351 4.281 3.318 9.8-.034 6.308-2.837 10.985-8.262 13.854z" fill="#624BFF"/><path d="M245.706 224.874s-4.683 1.773-10.991.409c-6.309-1.365-10.162-7.252-10.162-7.252s6.824-2.73 10.797-2.997c0 0-6.174-1.05-11.948.254 0 0-3.652-1.358-2.956-7.526 0 0 3.438-2.529 11.345-1.538 0 0-3.96-2.83-10.911-3.666-.548.006.194-8.028.857-11.607.662-3.579 1.973-3.024 4.816-2.716 2.843.308 11.246 2.221 12.309 4.281 1.064 2.061.027 7.312.027 7.312s2.308-2.876 2.321-6.877c0 0 3.165 1.157 4.85 2.649 1.693 1.492 2.536 2.703 3.024 3.787-.395 2.816-1.719 7.117-3.579 9.519 0 0 4.188-2.703 5.145-7.686 0 0 3.351 4.281 3.318 9.8-.034 6.308-2.837 10.985-8.262 13.854z" fill="#19954A"/><path opacity=".7" d="M246.534 224.312a.357.357 0 01-.227-.307c-.957-11.948-14.316-30.606-20.23-34.352a.366.366 0 01-.113-.502.359.359 0 01.495-.113c6.007 3.806 19.594 22.771 20.557 34.906a.36.36 0 01-.328.388c-.047.014-.1 0-.154-.02z" fill="#fff" fill-opacity=".6"/><path d="M125.673 216.847c-.027-.134-2.148-7.887-2.148-7.887s.696.716 5.185-.468c2.281-.602 4.877-2.047 4.877-2.047l1.277 5.672c1.191 2.181 5.152 1.178 9.493.683.729-.08 1.479-.208 2.228-.335l.047-.006c2.341-.127 4.696 1.277 2.261 3.278-2.435 2-6.449 2.756-10.155 3.425-4.456.796-12.269 2.107-13.065-2.315z" fill="#FFA8A7"/><path d="M133.628 228.691c-2.592.633-4.855.897-7.214-.615-.19-.323-.399-.831-.552-1.306a5.73 5.73 0 01-.163-.602l.092-.034c.243-.089.594-.209 1.038-.355.889-.294 2.138-.69 3.629-1.154a1382.06 1382.06 0 0110.844-3.308 3910.158 3910.158 0 0114.311-4.281l.893-.265a4.721 4.721 0 01.13 1.719c-.009.09-.101.35-.366.765a9.39 9.39 0 01-1.113 1.384 14.532 14.532 0 01-4.232 3.035c-1.824.867-3.881 1.336-5.78 1.667-.648.112-1.268.207-1.855.298-.276.042-.545.083-.805.125-.803.127-1.533.256-2.113.423-1.007.29-1.975.708-2.938 1.124l-.358.154c-1.092.47-2.203.925-3.447 1.225l-.001.001zm-8.156-2.431c-.01.006-.013.007-.002.002l.002-.002zm30.896-9.873s0 0 0 0h0z" fill="#212B36" stroke="#212B36"/><path d="M135.547 212.867c1.659 1.15 5.098.348 8.81-.074 3.499-.401 7.446-1.632 9.821-.803 2.381.823 4.368 3.626 1.15 7.219-.929 1.037-2.896 2.869-4.475 3.431-4 1.432-7.586 1.546-10.155 2.181-3.345.823-5.178 2.308-8.268 2.669-4.008.462-6.543-.561-7.232-1.632-.696-1.07-1.338-9.693.381-9.513 0 0 .723 2.79 7.265.081 2.857-1.191 2.81-2.93 2.703-3.559z" fill="#624BFF"/><path opacity=".4" d="M135.547 212.867c1.659 1.15 5.098.348 8.81-.074 3.499-.401 7.446-1.632 9.821-.803 2.381.823 4.368 3.626 1.15 7.219-.929 1.037-2.896 2.869-4.475 3.431-4 1.432-7.586 1.546-10.155 2.181-3.345.823-5.178 2.308-8.268 2.669-4.008.462-6.543-.561-7.232-1.632-.696-1.07-1.338-9.693.381-9.513 0 0 .723 2.79 7.265.081 2.857-1.191 2.81-2.93 2.703-3.559z" fill="#000"/><path d="M146.653 217.496s-.375-3.646-3.064-4.609c0 0-.87-.402-1.485.194 0 0 2.495.361 3.318 4.636 0 0 .127.281.675.18.174-.026.582-.1.556-.401zm-6.844-4.128s-.007-.12.628-.24c.455-.087.736.08.736.08s2.007.87 2.382 4.676c0 0-.014.462-.616.589-.602.127-.715-.375-.715-.375s-.415-4.007-2.415-4.73zm-2.155.081s.114-.228.582-.228c.596 0 .736.235.736.235s1.432 1.465 1.445 4.649c0 0 .06.542-.689.595-.749.054-.642-.555-.642-.555s-.261-4.061-1.432-4.696z" fill="#FAFAFA"/><path d="M122.904 164.112c3.278 9.854 11.974 43.791 11.974 43.791s-5.659 5.084-11.8 2.769l-14.631-42.258 14.457-4.302z" fill="#37474F"/><path d="M148.182 227.805c-.669-.997-3.184-7.894-3.184-7.894s2.629 1.498 7.138.428c2.295-.548 4.442-3.037 4.442-3.037l1.927 6.636c1.137 2.214 4.823 1.479 9.171 1.091a39.32 39.32 0 002.235-.281l.046-.007c2.342-.074 4.663 1.391 2.175 3.331-2.482 1.94-6.516 2.596-10.236 3.171-4.475.696-11.212.281-13.714-3.438z" fill="#FFA8A7"/><path d="M164.012 237.971h0c-1.086.283-2.135.706-3.181 1.128l-.384.154c-1.185.476-2.393.937-3.74 1.228l-.001.001c-2.8.608-5.255.843-7.766-.857-.197-.356-.411-.913-.563-1.43a6.01 6.01 0 01-.167-.691 36.727 36.727 0 011.255-.401c.961-.293 2.312-.686 3.925-1.145 3.224-.919 7.482-2.1 11.728-3.268 4.245-1.167 8.476-2.319 11.646-3.18 1.585-.431 2.905-.788 3.828-1.038l1.002-.271c.016.057.031.121.046.19.086.395.153.981.064 1.714-.013.106-.122.388-.418.827a10.23 10.23 0 01-1.235 1.462 15.674 15.674 0 01-4.637 3.156c-1.987.885-4.211 1.335-6.26 1.64-.701.105-1.373.191-2.008.272l-.858.112c-.866.115-1.651.234-2.276.397zm-16.02-.383c-.011.007-.014.007-.002.002l.002-.002z" fill="#212B36" stroke="#212B36"/><path d="M159.207 223.436c.268.181.542.368.823.509.294.154.582.147.91.187.729.087 1.458.094 2.187.054 1.84-.094 3.66-.368 5.493-.529 3.766-.334 8.034-1.552 10.569-.602 2.536.95 4.844 4.001 1.298 7.767-1.023 1.09-3.137 2.93-4.756 3.606-4.208 1.759-8.576 1.431-11.353 2.047-3.612.796-5.619 2.341-8.95 2.642-4.315.395-7.005-.776-7.72-1.947-.402-.648.046-4.033-.495-6.656-.469-2.261-.342-3.8.468-3.699.127.294.428.555.629.796.261.321.588.568.956.756.509.261 1.064.401 1.619.542.984.247 1.994.488 3.004.414.288-.02.589-.073.816-.26.294-.241.395-.643.475-1.017.074-.335.14-.663.214-.997.04-.181.08-.368.181-.522.12-.18.321-.301.515-.408.609-.341 1.257-.669 1.645-1.251.302-.455.395-1.01.482-1.545.014-.094.034-.194.107-.254.121-.101.301-.014.435.066.154.094.301.201.448.301z" fill="#624BFF"/><path opacity=".4" d="M159.207 223.436c.268.181.542.368.823.509.294.154.582.147.91.187.729.087 1.458.094 2.187.054 1.84-.094 3.66-.368 5.493-.529 3.766-.334 8.034-1.552 10.569-.602 2.536.95 4.844 4.001 1.298 7.767-1.023 1.09-3.137 2.93-4.756 3.606-4.208 1.759-8.576 1.431-11.353 2.047-3.612.796-5.619 2.341-8.95 2.642-4.315.395-7.005-.776-7.72-1.947-.402-.648.046-4.033-.495-6.656-.469-2.261-.342-3.8.468-3.699.127.294.428.555.629.796.261.321.588.568.956.756.509.261 1.064.401 1.619.542.984.247 1.994.488 3.004.414.288-.02.589-.073.816-.26.294-.241.395-.643.475-1.017.074-.335.14-.663.214-.997.04-.181.08-.368.181-.522.12-.18.321-.301.515-.408.609-.341 1.257-.669 1.645-1.251.302-.455.395-1.01.482-1.545.014-.094.034-.194.107-.254.121-.101.301-.014.435.066.154.094.301.201.448.301z" fill="#000"/><path d="M170.967 228.762s-.308-3.921-3.171-5.024c0 0-.923-.449-1.599.167 0 0 2.669.455 3.439 5.064 0 0 .134.308.716.214.2-.033.635-.1.615-.421zm-7.238-4.616s0-.128.682-.241c.495-.081.789.107.789.107s2.134.983 2.435 5.084c0 0-.026.495-.682.609-.649.12-.763-.422-.763-.422s-.334-4.301-2.461-5.137zm-2.315.026s.127-.241.636-.227c.642.02.782.267.782.267s1.499 1.613 1.432 5.024c0 0 .047.582-.756.623-.81.04-.676-.609-.676-.609s-.18-4.355-1.418-5.078z" fill="#FAFAFA"/><path d="M145.976 175.745c2.582 7.941 9.171 30.546 12.188 42.172 0 0-5.412 4.864-12.376 4.442l-16.784-43.523 6.683-4.134 10.289 1.043zM90.713 284.413a1.09 1.09 0 001.09-1.091v-69.967a1.091 1.091 0 00-2.18 0v69.967a1.09 1.09 0 001.09 1.091zm-43.29-25.468c.435 0 .843-.261 1.01-.689l21.454-54.307a1.085 1.085 0 00-.615-1.411 1.088 1.088 0 00-1.412.615L46.406 257.46a1.086 1.086 0 001.017 1.485z" fill="#212B36"/><path d="M49.998 252.423c.288 0 .576-.114.79-.341l39.924-42.246 39.851 42.065a1.087 1.087 0 101.578-1.499l-40.64-42.901a1.099 1.099 0 00-.789-.341c-.301 0-.582.121-.79.341L49.21 250.583a1.089 1.089 0 00.79 1.84z" fill="#212B36"/><path d="M134.001 258.945c.134 0 .268-.026.402-.073.562-.221.836-.85.615-1.412l-21.454-54.307a1.087 1.087 0 00-1.411-.615 1.085 1.085 0 00-.616 1.411l21.454 54.307c.167.428.575.689 1.01.689z" fill="#212B36"/><path d="M134.523 189.366c.782-4.389-2.797-7.814-9.52-12.356-6.73-4.543-15.326-9.038-19.494-10.951-5.626-2.583-11.385-2.348-18.59 1.358-10.008 5.144-40.132 23.407-40.132 23.407s45.035 25.428 53.698 24.284c8.664-1.138 30.325-15.226 32.037-20.183 1.72-4.951 2.001-5.559 2.001-5.559z" fill="#624BFF"/><path d="M134.523 189.366c.782-4.389-2.797-7.814-9.52-12.356-6.73-4.543-15.326-9.038-19.494-10.951-5.626-2.583-11.385-2.348-18.59 1.358-10.008 5.144-40.132 23.407-40.132 23.407s45.035 25.428 53.698 24.284c8.664-1.138 30.325-15.226 32.037-20.183 1.72-4.951 2.001-5.559 2.001-5.559z" fill="#000" opacity=".4"/><path d="M96.139 209.762c6.462 5.854 13.225.817 23.915-6.121 12.102-7.853 14.47-14.276 14.47-14.276s0 4.817-.903 7.072c-.903 2.254-2.856 4.816-11.586 10.83-8.724 6.021-15.046 9.025-20.912 10.142l-4.63-.642" fill="#624BFF"/><path opacity=".5" d="M120.053 203.641c12.102-7.853 14.47-14.276 14.47-14.276s0 4.817-.903 7.072c-.903 2.254-2.857 4.816-11.587 10.83-8.723 6.021-15.045 9.025-20.912 10.142l-4.629-.642-.361-7.005c6.475 5.854 13.232.817 23.922-6.121z" fill="#000"/><path d="M49.11 250.423l-3.312 7.639a.705.705 0 00-.034.201c-.006.047-.006.094-.006.14.02.161.207.375.421.509.482.308 1.285.348 1.793.087.187-.101.308-.221.368-.348 0-.007 0-.007.007-.013l.026-.107 3.078-7.165-2.342-.943zm83.408.321l2.836 7.485c.02.067.027.128.027.194a.5.5 0 010 .134c-.027.154-.221.348-.428.475-.475.274-1.251.274-1.726 0-.174-.1-.288-.227-.335-.354 0-.007 0-.007-.007-.014l-.02-.1-2.629-7.018 2.282-.802zm-43.063 27.167v6.194c0 .188.12.368.368.515.488.281 1.284.281 1.773 0 .247-.14.368-.327.368-.515v-6.194c-.837-.422-1.673-.422-2.509 0z" fill="#161C24"/><path d="M64.824 163.129c2.562 2.99 25.903-3.727 32.09-4.569 9.975-1.358 18.096-2.349 21.475-1.285 3.385 1.064 4.823 2.79 5.86 6.844 1.224 4.783 1.86 7.218 1.86 7.218s-16.571 6.362-29.636 7.894c-13.065 1.525-31.649-16.102-31.649-16.102z" fill="#37474F"/><path d="M60.475 167.51c-2.589 9.861-4.91 21.327 1.077 27.602 4.034 4.228 24.29 15.212 37.362 10.884 12.878-4.261 39.537-24.056 42.212-26.049 2.683-2.001 5.111-3.352 4.851-4.202-3.6-11.934-8.851-12.871-18.598-10.723-11.914 2.622-38.078 13.299-38.078 13.299L60.475 167.51z" fill="#212B36"/><path d="M119.674 104.119l-8.991 10.168-14.517-6.89 10.148-14.042 13.36 10.764z" fill="#FFA8A7"/><path d="M130.824 84.812s3.68 5.312 3.285 5.854c-.395.542-2.997 1.077-2.997 1.077l-.288-6.93z" fill="#F28F8F"/><path d="M130.791 87.923a4 4 0 100-8.001 4 4 0 000 8.001z" fill="#212B36" stroke="#212B36" stroke-width="1.207" stroke-miterlimit="10"/><path d="M120.603 70.115c7.232 1.351 9.379 4.469 10.322 15.888.984 11.928-.154 15.714-1.686 17.36-1.036 1.11-6.917 1.438-9.907.689-3.74-.937-12.209-3.726-16.283-9.64-4.79-6.964-6.221-16.517-1.358-20.558 6.851-5.706 15.975-4.294 18.912-3.739z" fill="#FFA8A7"/><path d="M119.672 104.119c3.111.702 7.848.281 9.252-.529-.133.034-2.361.616-5.231-.194-2.964-.829-4.797-2.114-4.797-2.114l.776 2.837z" fill="#F28F8F"/><path d="M131.994 74.367l-.004.003c-.011.007-.024.015-.037.025-1.921 1.318-4.283 1.885-6.683 2.257l-.469.072.048.472c.181 1.81-.394 3.63-1.002 5.494v.001c-.206.636-.667 1.896-1.252 2.717-.303.425-.565.626-.754.669-.108.025-.329.028-.676-.439h0l-.029-.039c-.572-.769-1.174-1.58-1.934-2.136-.805-.591-1.776-.893-3.045-.675h0c-2.115.363-3.28 1.921-3.57 3.725-.286 1.781.265 3.837 1.568 5.367h0c1.291 1.515 2.56 2.009 3.554 2.086.366.028.685-.002.943-.05l-.003.176c-.01.523-.051 1.258-.174 2.104-.243 1.673-.803 3.737-2.045 5.448a7.407 7.407 0 01-.581.282 10.8 10.8 0 01-1.923.621c-1.651.372-3.99.522-6.733-.381-1.703-.563-3.835-1.942-5.793-3.642-1.956-1.698-3.68-3.666-4.594-5.36h0c-2.599-4.807-3.881-9.474-3.752-13.258.128-3.772 1.647-6.606 4.608-7.937l.256-.115.035-.278c.55-4.347 3.893-6.42 7.969-7.452h0c2.536-.644 5.123-.261 7.813.137l.698.102c2.899.42 5.909.754 8.829-.498l8.732 10.502zm0 0c1.903-1.323 3.255-3.518 3.056-5.725-.073-.789-.356-1.518-.882-1.965-.567-.477-1.411-.616-2.238-.484-.835.14-1.628.515-2.474.92l-1.508.725.863-1.433c.482-.798.425-1.865.163-2.942l-.001-.004c-.138-.595-.332-1.05-.67-1.275m3.691 12.183l-3.691-12.183m0 0c-.38-.246-.963-.19-1.624.046-.564.205-1.107.477-1.671.77l-.228.12a21.7 21.7 0 01-1.518.745l5.041-1.68z" fill="#212B36" stroke="#212B36"/><path d="M97.13 72.367l-3.379-1.892a2.001 2.001 0 012.425-.365 2.01 2.01 0 01.954 2.257z" fill="#212B36" stroke="#212B36"/><path d="M120.764 85.943l13.981-2.616" stroke="#212B36" stroke-width="1.027" stroke-miterlimit="10"/><path d="M150.003 110.059c-.374-.629-1.211-.749-1.906-.997-1.285-.448-2.288-1.471-3.526-2.04-1.378-.629-2.977-.649-4.455-.301a10.27 10.27 0 00-1.485.475c-.924.368-1.807.843-2.656 1.344-3.546 2.101-6.208 6.837-9.687 9.012-1.298.809-2.509 1.545-3.706 2.281l8.322 7.419c1.713-1.392 3.352-2.676 4.101-3.124 2.047-1.218 4.114-1.245 6.415-1.579 1.599-.234 3.151-.703 4.69-1.178.542-.167 1.15-.381 1.385-.903.294-.655-.221-1.451-.89-1.712-.716-.281-1.666-.208-2.435-.335-.602-.093-2.208.261-2.562-.341-.188-.314.046-.709.274-.997 1.445-1.799 3.271-3.726 5.579-4.268.716-.167 1.465-.341 2.034-.809.562-.455.883-1.311.508-1.947z" fill="#FFA8A7"/><path d="M100.231 101.764c-8.837-4.823-16.884-1.726-19.781 4.475-2.622 5.613-8.141 27.321-8.141 27.321 2.655 4.971 27.922-31.796 27.922-31.796z" fill="#624BFF"/><path d="M98.908 103.503l1.325-1.746c-9.975-4.743-18.912 1.485-26.78 13.728-8.482 13.192-12.93 32.13-12.97 52.119 0 0 1.692 8.984 13.044 13.473 12.042 4.77 28.84 2.75 34.071-9.733 0 0 .107-12.47 3.9-18.604 2.455-3.974 8.175-12.805 12.43-19.133 3.706-5.512 6.582-18.056-1.158-22.645-2.268-1.344-3.204-1.739-6.295-3.211-7.037 2.328-18.47-1.451-17.567-4.248z" fill="#624BFF"/><path opacity=".75" d="M98.942 103.55l1.291-1.786c-9.975-4.743-18.912 1.485-26.78 13.727-8.482 13.192-12.93 32.131-12.97 52.12 0 0 1.692 8.984 13.044 13.473 12.042 4.77 28.84 2.749 34.071-9.734 0 0 .107-12.469 3.9-18.604 2.455-3.974 8.175-12.804 12.43-19.132 3.706-5.513 6.582-18.056-1.158-22.645-2.268-1.345-3.204-1.739-6.295-3.211-7.037 2.321-18.443-1.412-17.533-4.208z" fill="#fff"/><path opacity=".1" d="M127.151 125.62c.509-2.402.683-4.931.308-7.266a39.047 39.047 0 01-7.533 11.507c-4.06 4.275-9.071 7.606-12.844 12.142-3.987 4.803-6.857 10.616-10.195 15.861-1.338 2.107-3.17 6.168-5.66 6.328-3.037.201-5.94-3.505-7.592-6.054-2.643-4.074-4.91-9.158-8.195-12.73-2.87-3.124-7.312-7.125-11.219-5.312a90.347 90.347 0 00-.83 3.151 86.67 86.67 0 00-.729 3.231c-.006.04-.02.08-.026.127a90.264 90.264 0 00-.623 3.265 1.46 1.46 0 00-.026.174 105.338 105.338 0 00-1.498 17.567s1.692 8.984 13.044 13.473c12.042 4.77 28.84 2.749 34.071-9.734 0 0 .107-12.469 3.9-18.604.381-.615.85-1.364 1.371-2.187 0 0 0-.007.007-.007.027-.047.06-.094.087-.14.435-.683.903-1.425 1.412-2.215.033-.047.06-.093.093-.147l.04-.06a897.482 897.482 0 013.553-5.499l.575-.876c1.217-1.86 2.448-3.74 3.632-5.513.007-.006.007-.013.014-.02.401-.602.789-1.177 1.171-1.752l.488-.73v-.006a11.7 11.7 0 00.395-.629l.12-.201c.094-.16.187-.328.281-.495a35.78 35.78 0 00.421-.816c.027-.054.054-.1.074-.154.127-.261.247-.528.368-.809.007-.014.007-.02.013-.034.007-.013.014-.033.02-.047.107-.247.208-.501.315-.762.027-.06.047-.121.073-.188.094-.247.181-.495.275-.742l.02-.06c.006-.027.02-.054.026-.081.161-.468.308-.943.442-1.431v-.014c.134-.488.254-.983.368-1.485v-.013c-.013.013-.013 0-.007-.013z" fill="#624BFF"/><path d="M173.438 137.761c-.622.77-1.338 1.472-2.074 2.141-3.05 2.763-6.616 4.087-10.763 6.783-3.352 2.175-8.516 5.345-12.871 8.061-4.897 3.051-10.798 5.533-14.015 6.476-4.048 1.191-6.309 1.238-8.704-5.245-1.17-3.177-2.1-6.435-3.117-9.673a1399.33 1399.33 0 01-4.442-14.456s-5.379-13.266 6.656-19.929c5.238 2.997 7.232 4.208 8.877 10.483 1.967 7.512 5.152 22.33 5.152 22.33 4.254-1.472 8.409-3.291 12.442-5.298 1.526-.763 3.405-1.285 4.496-2.643.742-.923 1.345-1.946 1.913-2.977.515-.923.883-1.926 1.445-2.816 1.05-1.639 2.562-3.017 3.954-4.355.274-.261.582-.542.956-.569.402-.026.77.248.97.596.442.769.034 1.532-.194 2.321-.26.903-.515 1.8-.776 2.703 3.071-1.82 5.68-4.215 7.68-7.198.181-.275.361-.549.609-.77.247-.214.569-.368.896-.328.81.101 1.606 1.399 1.646 2.141.04.756-.127 1.532.06 2.268.181.702.656 1.271.87 1.96a11.4 11.4 0 01.462 2.168c.167 1.625-.409 3.157-1.225 4.542-.274.455-.575.876-.903 1.284z" fill="#FFA8A7"/><path d="M123.386 111.364c4.589 1.853 7.887 3.947 9.981 10.944 2.1 7.038 4.361 18.223 4.361 18.223s.041 2.348-5.525 5.633c-5.566 3.284-10.777 1.451-10.777 1.451l-4.208-13.513c.006.007-7.453-18.069 6.168-22.738zM96.5 216.767c-3.68-.188-6.564-2.89-15.32-6.536-16.163-6.737-28.284-12.122-32.9-20.591-4.616-8.469-7.888-32.9-6.737-43.483.154-1.405.428-2.556.79-3.506l-1.138-.167 2.944-2.508v.006c3.017-2.468 7.934-.267 11.64 1.746 10.583 5.76 18.858 11.353 25.4 31.556 4.924 15.199 8.169 29.06 14.959 36.472" fill="#624BFF"/><path opacity=".3" d="M42.34 142.651l-1.137-.167 2.944-2.508v.006c3.017-2.468 7.934-.267 11.64 1.746 10.583 5.76 18.858 11.353 25.4 31.556 4.924 15.199 8.169 29.06 14.959 36.472l.36 7.004c-3.678-.187-6.562-2.89-15.319-6.536-16.162-6.736-28.284-12.122-32.9-20.591-4.615-8.469-7.887-32.9-6.736-43.483.147-1.391.421-2.549.79-3.499z" fill="#000"/><path d="M52.715 144.337c10.583 5.76 18.859 11.353 25.401 31.556 6.543 20.203 10.122 38.051 23.013 41.516 0 0-5.827 2.315-23.689-5.238-5.686-2.402-12.583-6.783-17.112-9.332-8.877-4.984-14.262-9.065-15.112-10.59-4.69-8.422-7.887-32.9-6.736-43.483 1.15-10.583 8.937-7.312 14.235-4.429zm59.472-89.602l-2.924-5.492 2.355-6.79v-4.154l-7.198 4.154v4.154l3.091 5.359a.46.46 0 00.207.187l4.469 2.582z" fill="#624BFF"/><path opacity=".2" d="M112.187 54.735l-2.924-5.492 2.355-6.79v-4.154l-7.198 4.154v4.154l3.091 5.359a.46.46 0 00.207.187l4.469 2.582z" fill="#000"/><path d="M129.372 5.265c0-1.378-.963-3.05-2.16-3.74l-1.76-1.017c-1.191-.689-3.124-.689-4.315 0l-26.94 15.58c-1.19.69-2.16 2.362-2.16 3.74v29.643c0 1.378.963 3.05 2.16 3.739l1.76 1.017c1.191.689 3.124.689 4.315 0l8.663-5.004 3.091 5.345a.462.462 0 00.836-.08l3.265-9.42 11.091-6.421c1.191-.69 2.154-2.362 2.154-3.74V5.265z" fill="#624BFF"/><path opacity=".2" d="M92.043 49.477c0 1.378.963 3.05 2.16 3.74l1.76 1.017c1.077.622 2.756.675 3.947.173-1.017.382-1.786-.187-1.786-1.418V23.347c0-.689.24-1.452.629-2.127l-6.075-3.506c-.388.676-.628 1.439-.628 2.128v29.635h-.007z" fill="#000"/><path opacity=".5" d="M129.306 4.656c-.254-.916-1.084-1.21-2.08-.635l-26.947 15.587c-.595.34-1.137.923-1.518 1.612l-6.068-3.506c.395-.682.924-1.27 1.519-1.612L121.15.515c1.198-.682 3.131-.682 4.315 0l1.76 1.017c1.01.589 1.866 1.893 2.08 3.124z" fill="#fff"/><path d="M102.078 34.98c0-.24.04-.448.114-.615a4.57 4.57 0 01.314-.575l5.86-9.473c.041-.053.074-.087.094-.114.027-.02.047-.04.067-.046.087-.054.161-.047.221.006.06.054.087.154.087.288v3.652c0 .301-.054.556-.168.763a5.941 5.941 0 01-.301.502l-3.017 4.61 3.017 1.39c.087.027.188.074.301.141.114.074.168.254.168.555v2.596a.869.869 0 01-.087.388.581.581 0 01-.221.26.22.22 0 01-.161.027l-5.86-2.702a.785.785 0 01-.314-.214c-.074-.087-.114-.248-.114-.488v-.95zm12.771-14.63c.047-.194.121-.388.221-.588.1-.201.241-.355.428-.462l1.96-1.13c.087-.054.161-.048.228.013.06.06.093.16.093.294a.93.93 0 01-.027.22l-4.95 21.1c-.04.174-.107.361-.207.569a1.106 1.106 0 01-.442.481l-1.92 1.111c-.087.053-.16.047-.227-.013s-.094-.161-.094-.295c0-.06.007-.134.034-.22l4.903-21.08zm10.764 3.412c0 .24-.04.448-.107.616a4.66 4.66 0 01-.314.575l-5.86 9.466c-.041.053-.074.087-.094.113-.027.02-.047.04-.067.047-.087.054-.161.047-.221-.006-.06-.054-.087-.154-.087-.288v-3.646c0-.301.054-.549.168-.75.113-.2.214-.36.301-.488l2.562-3.96-2.562-.977a1.056 1.056 0 01-.301-.153c-.114-.08-.168-.268-.168-.569v-3.653c0-.133.027-.267.087-.388a.58.58 0 01.221-.26.22.22 0 01.161-.027l5.86 2.702a.786.786 0 01.314.214c.074.087.107.248.107.489v.943z" fill="#fff"/><path d="M47.652 1.992l.002-.001c.153-.09.385-.148.647-.149.26 0 .496.057.655.145l.002.001 3.556 2.019h0c.153.087.32.256.449.478.13.223.194.45.194.626v20.123c0 .179-.065.41-.195.633-.13.223-.297.395-.452.486 0 0 0 0 0 0L16.463 47.115l-.001.001c-.156.088-.39.147-.651.148a1.346 1.346 0 01-.647-.142s0 0 0 0l-3.559-2.02-.003-.002a1.308 1.308 0 01-.452-.477 1.306 1.306 0 01-.195-.625V23.876c0-.18.066-.41.195-.634.13-.223.297-.395.452-.486 0 0 0 0 0 0l36.05-20.764z" fill="#212B36" stroke="#212B36"/><path d="M53.643 4.95c-.073-.448-.434-.608-.883-.354L16.71 25.367a1.84 1.84 0 00-.63.67l-5.338-3.071c.16-.268.375-.502.616-.636L47.402 1.56c.495-.288 1.298-.288 1.8-.007l3.558 2.02c.442.254.823.843.883 1.378z" fill="#212B36"/><path d="M52.762 4.596L16.71 25.367c-.495.288-.896.977-.896 1.552v20.123c0 .569.4.803.896.515l36.05-20.765c.496-.287.897-.976.897-1.552V5.11c0-.568-.401-.795-.896-.514z" fill="#37474F"/><path d="M24.724 30.525c-.007.16-.013.375-.02.649-.007.274-.007.555-.007.843 0 .288 0 .575.007.85.007.274.007.488.02.635.014.26.047.502.1.722.054.215.14.389.255.509.113.12.26.187.434.2.174.014.395-.06.656-.207a2.39 2.39 0 00.642-.515c.168-.194.308-.388.415-.582.107-.2.187-.395.248-.595.06-.2.1-.375.133-.535.04-.215.08-.368.128-.475a.605.605 0 01.267-.268l1.505-.87c.067-.04.127-.033.18.014.054.047.075.127.075.234A7.113 7.113 0 0129.474 33a8.517 8.517 0 01-.763 1.82 8.66 8.66 0 01-1.137 1.585c-.435.482-.903.87-1.412 1.158-.555.32-1.043.475-1.478.475-.435-.007-.803-.134-1.11-.395-.308-.26-.542-.636-.71-1.124-.167-.488-.26-1.05-.28-1.692-.014-.475-.027-.99-.027-1.546 0-.555.006-1.09.026-1.605a9.273 9.273 0 01.275-2.014 9.446 9.446 0 01.709-1.94 8.12 8.12 0 011.11-1.679c.435-.508.93-.916 1.485-1.238.509-.294.977-.448 1.412-.468.435-.02.81.074 1.137.274.321.201.576.515.763.944.18.428.28.936.288 1.532a.801.801 0 01-.074.32.44.44 0 01-.18.221l-1.506.87c-.134.074-.22.087-.267.04-.047-.047-.087-.16-.128-.328a2.438 2.438 0 00-.133-.387.714.714 0 00-.248-.308.723.723 0 00-.415-.107c-.167.006-.381.08-.642.227-.26.154-.482.335-.655.549a3.16 3.16 0 00-.435.702 3.632 3.632 0 00-.255.803 6.948 6.948 0 00-.1.836zm9.794-10.55c.489-.28.944-.435 1.352-.455.408-.02.762.06 1.063.228.301.167.535.415.703.729.167.314.254.662.267 1.037a.8.8 0 01-.073.321.53.53 0 01-.168.214l-1.505.87c-.107.06-.194.087-.26.08a.392.392 0 01-.201-.094c-.027-.02-.06-.06-.107-.113a.512.512 0 00-.215-.134.8.8 0 00-.347-.034c-.14.014-.308.08-.509.194a3.641 3.641 0 00-.421.288 2.19 2.19 0 00-.355.348 1.685 1.685 0 00-.254.421c-.067.154-.1.322-.1.502 0 .174.033.301.107.381.073.074.194.114.368.114s.401-.033.682-.1.636-.16 1.057-.274c.421-.114.79-.161 1.104-.141.314.02.575.12.79.301.213.18.367.442.474.79.1.347.154.796.154 1.35a5.86 5.86 0 01-.268 1.767 6.984 6.984 0 01-.742 1.645 7.514 7.514 0 01-1.13 1.425 6.89 6.89 0 01-1.426 1.084c-.521.301-.996.468-1.425.509-.428.033-.802-.034-1.11-.201a1.77 1.77 0 01-.73-.756 2.583 2.583 0 01-.273-1.17c0-.108.026-.215.073-.322a.478.478 0 01.167-.214l1.506-.87a.566.566 0 01.254-.087.36.36 0 01.18.08c.034.027.08.081.14.148a.754.754 0 00.636.254c.16-.007.355-.08.582-.214.409-.234.75-.502 1.017-.79.274-.294.408-.615.408-.97 0-.173-.046-.294-.147-.354-.1-.06-.247-.08-.448-.067a4.38 4.38 0 00-.763.147 26.66 26.66 0 01-1.097.281c-.79.194-1.364.094-1.732-.3-.368-.402-.549-1.105-.549-2.121 0-.509.074-1.037.227-1.586a7.433 7.433 0 011.68-3.037c.421-.455.87-.816 1.364-1.104zm8.335-4.81c.489-.28.944-.434 1.352-.454.408-.02.762.06 1.063.227.301.167.535.415.703.73.167.314.254.662.267 1.036a.801.801 0 01-.073.321.53.53 0 01-.167.214l-1.506.87c-.107.06-.194.087-.26.08a.391.391 0 01-.201-.093c-.02-.02-.06-.06-.107-.114a.512.512 0 00-.214-.134c-.094-.033-.208-.047-.348-.033-.14.013-.308.08-.509.194-.147.087-.287.18-.421.287a1.924 1.924 0 00-.609.77c-.067.153-.1.32-.1.501 0 .174.033.301.107.382.073.073.194.113.368.113s.401-.033.682-.1.636-.16 1.057-.274c.422-.114.79-.16 1.104-.14.314.02.575.12.79.3.213.18.367.442.474.79.107.347.154.796.154 1.35a5.86 5.86 0 01-.268 1.767 6.986 6.986 0 01-.742 1.646 7.514 7.514 0 01-1.13 1.425 7.06 7.06 0 01-1.419 1.083c-.522.301-.997.469-1.425.509-.428.033-.803-.034-1.11-.2a1.733 1.733 0 01-.73-.757 2.584 2.584 0 01-.274-1.17c0-.108.027-.215.074-.322a.478.478 0 01.167-.214l1.505-.87a.566.566 0 01.255-.086.36.36 0 01.18.08c.034.027.08.08.14.147.06.074.148.134.248.187a.777.777 0 00.388.067c.16-.006.355-.08.582-.214.408-.234.75-.502 1.017-.79.274-.293.408-.615.408-.97 0-.173-.047-.294-.147-.354-.1-.06-.248-.08-.448-.067a4.466 4.466 0 00-.763.147 29.18 29.18 0 01-1.097.282c-.79.194-1.365.093-1.733-.302-.36-.4-.548-1.103-.548-2.12 0-.509.073-1.037.227-1.586a7.433 7.433 0 011.68-3.037 5.563 5.563 0 011.357-1.104z" fill="#F0F0F0"/><path d="M11.605 86.926l-.003-.001a1.309 1.309 0 01-.452-.478 1.306 1.306 0 01-.195-.625V65.7c0-.18.066-.41.195-.634.13-.223.297-.395.452-.486 0 0 0 0 0 0L47.65 43.81h.001a1.37 1.37 0 01.65-.147c.262 0 .497.057.653.147h.002l3.559 2.021h0c.153.087.32.256.449.478.13.223.194.45.194.626v20.123c0 .179-.065.41-.195.633-.13.223-.297.395-.452.486 0 0 0 0 0 0L16.463 88.94h-.001c-.156.088-.39.147-.651.149a1.346 1.346 0 01-.647-.143s0 0 0 0l-3.559-2.02z" fill="#212B36" stroke="#212B36"/><path d="M53.644 46.768c-.073-.449-.434-.61-.883-.355L16.717 67.185a1.84 1.84 0 00-.629.669l-5.338-3.07c.16-.269.375-.503.616-.636l36.05-20.772c.495-.288 1.291-.288 1.793-.007l3.56 2.02c.434.255.815.85.875 1.379z" fill="#212B36"/><path d="M52.762 46.42L16.71 67.185c-.495.287-.896.976-.896 1.552v20.122c0 .569.4.803.896.515L52.76 68.61c.496-.288.897-.977.897-1.552V46.935c0-.575-.401-.803-.896-.515z" fill="#37474F"/><path d="M24.898 67.526c.087-.047.16-.04.22.013.06.06.094.154.094.281v11.446a.92.92 0 01-.093.388.568.568 0 01-.221.268l-1.505.87c-.087.046-.161.046-.221-.014s-.094-.154-.094-.281v-4.342l-2.555 1.479v4.341a.926.926 0 01-.094.389.568.568 0 01-.22.267l-1.506.87c-.087.047-.16.047-.22-.007-.06-.053-.094-.154-.094-.294V71.754c0-.128.033-.261.093-.388a.567.567 0 01.221-.268l1.505-.87c.087-.046.16-.04.221.014.06.06.094.154.094.28v4.269l2.555-1.479v-4.268c0-.127.034-.26.094-.388a.567.567 0 01.22-.267l1.506-.863zm8.415-4.857c.087-.047.16-.04.22.013.06.06.094.154.094.281v1.88a.92.92 0 01-.093.388.568.568 0 01-.221.268l-2.027 1.17v9.092c0 .127-.034.26-.094.388a.568.568 0 01-.22.267l-1.506.87c-.087.047-.16.047-.22-.013s-.094-.154-.094-.281V67.9l-2.027 1.171c-.087.047-.16.047-.22-.013-.061-.06-.095-.154-.095-.281v-1.88c0-.127.027-.261.094-.388a.567.567 0 01.221-.268l6.188-3.572zm5.285 6.228a.848.848 0 01-.154-.2l-1.083-2.302v5.867c0 .127-.034.26-.094.388a.568.568 0 01-.22.268l-1.506.87c-.087.046-.16.046-.22-.014-.061-.06-.094-.154-.094-.281V62.04c0-.127.033-.26.093-.388a.567.567 0 01.221-.267l1.338-.77c.154-.087.268-.087.348-.007.08.088.127.154.147.195l1.866 3.833 1.867-5.987c.02-.074.073-.194.147-.368a.84.84 0 01.348-.395l1.338-.77c.087-.046.16-.04.22.014.06.06.094.154.094.28v11.447c0 .127-.033.26-.093.388a.568.568 0 01-.221.268l-1.505.87c-.087.046-.16.046-.221-.014-.06-.06-.094-.154-.094-.281V64.22l-1.084 3.545c-.04.114-.087.248-.153.382a.678.678 0 01-.268.308l-.736.428c-.12.073-.214.073-.28.013zm12.476-6.91c.087-.047.16-.04.22.013.06.06.094.154.094.281v1.88c0 .127-.033.26-.093.388a.567.567 0 01-.221.267l-5.332 3.078c-.087.046-.16.046-.22-.014s-.094-.154-.094-.28V56.152c0-.127.033-.26.093-.388a.568.568 0 01.221-.267l1.505-.87c.087-.047.16-.04.221.013.06.06.094.154.094.281v9.092l3.512-2.027z" fill="#F0F0F0"/><path d="M47.652 85.633h.002c.154-.09.388-.15.648-.152.26-.001.495.056.651.146l.002.001 3.559 2.02h0c.153.087.32.257.449.479.13.222.194.45.194.625v20.123c0 .179-.065.41-.195.633a1.35 1.35 0 01-.452.486v.001l-36.047 20.762-.001.001c-.156.088-.39.147-.651.148a1.36 1.36 0 01-.647-.142s0 0 0 0l-3.559-2.021-.003-.001a1.304 1.304 0 01-.452-.478 1.305 1.305 0 01-.195-.624v-20.123c0-.179.066-.41.195-.633a1.35 1.35 0 01.452-.486v-.001l36.05-20.764z" fill="#212B36" stroke="#212B36"/><path d="M53.644 88.592c-.073-.448-.434-.61-.883-.355L16.717 109.01a1.838 1.838 0 00-.629.669l-5.338-3.071c.16-.268.375-.502.616-.635L47.415 85.2c.495-.288 1.291-.288 1.793-.007l3.56 2.02c.434.255.815.844.875 1.379z" fill="#212B36"/><path d="M52.762 88.237L16.71 109.002c-.495.288-.896.977-.896 1.552v20.123c0 .568.4.802.896.515l36.05-20.765c.496-.288.897-.977.897-1.552V88.752c0-.568-.401-.802-.896-.515z" fill="#37474F"/><path d="M25.427 113.759c-.006.16-.013.374-.02.648-.006.275-.006.556-.006.843 0 .288 0 .569.006.85.007.274.007.488.02.635.014.261.054.502.108.723.053.214.14.388.254.508a.64.64 0 00.435.201c.174.013.394-.06.655-.207a2.52 2.52 0 00.642-.515c.168-.194.308-.388.415-.582.107-.201.188-.395.248-.596a6.1 6.1 0 00.133-.535c.04-.214.08-.368.128-.475a.609.609 0 01.267-.268l1.505-.869c.067-.04.128-.034.181.013.047.047.074.127.074.234a7.119 7.119 0 01-.288 1.867 8.517 8.517 0 01-.763 1.819 8.946 8.946 0 01-1.13 1.586 5.7 5.7 0 01-1.412 1.157c-.555.321-1.043.475-1.478.475-.435-.007-.803-.134-1.11-.395-.308-.261-.543-.635-.71-1.124-.167-.488-.26-1.05-.28-1.692-.014-.475-.028-.99-.028-1.545 0-.556.007-1.091.027-1.606a9.268 9.268 0 01.274-2.013 9.414 9.414 0 01.71-1.94 8.134 8.134 0 011.11-1.68 5.68 5.68 0 011.485-1.237c.509-.295.977-.448 1.412-.468.435-.021.81.073 1.13.274.321.201.576.515.763.943.18.428.28.937.288 1.532a.8.8 0 01-.074.321.44.44 0 01-.18.221l-1.506.87c-.134.073-.22.086-.267.04-.047-.047-.087-.161-.128-.328a2.673 2.673 0 00-.133-.388.716.716 0 00-.248-.308.727.727 0 00-.415-.107c-.167.007-.38.08-.642.228a2.39 2.39 0 00-.655.548 3.144 3.144 0 00-.435.703c-.114.254-.2.521-.254.802a5.848 5.848 0 00-.108.837zm10.571-2.362v2.923a.918.918 0 01-.094.388.57.57 0 01-.22.268l-1.453.836c-.087.047-.16.047-.22-.013s-.094-.154-.094-.281v-2.924l-1.786 1.031c-.087.046-.154.046-.22-.014-.061-.06-.095-.154-.095-.281v-1.793c0-.127.034-.26.094-.388a.567.567 0 01.22-.267l1.787-1.03v-2.924c0-.127.027-.261.094-.388.06-.127.133-.221.22-.267l1.452-.837c.087-.046.154-.046.22.014.061.06.095.154.095.281v2.923l1.772-1.023c.087-.047.16-.04.221.013.06.06.094.154.094.281v1.786a.918.918 0 01-.094.388.57.57 0 01-.22.268l-1.773 1.03zm7.632-4.408v2.923a.918.918 0 01-.093.388.57.57 0 01-.221.268l-1.452.836c-.087.047-.16.047-.22-.014-.06-.06-.094-.154-.094-.281v-2.923l-1.786 1.03c-.087.047-.16.047-.221-.013-.06-.06-.094-.154-.094-.281v-1.793c0-.127.027-.261.094-.388a.57.57 0 01.22-.268l1.787-1.03v-2.923a.92.92 0 01.093-.388.57.57 0 01.221-.268l1.452-.836c.087-.047.16-.047.22.013.06.061.094.154.094.281v2.924l1.773-1.024c.087-.047.16-.04.22.014.061.06.095.153.095.281v1.792a.825.825 0 01-.094.388.566.566 0 01-.22.268l-1.774 1.024z" fill="#F0F0F0"/></g><defs><clipPath id="clip0_1589_20810"><path fill="#fff" d="M0 0h300v308.824H0z"/></clipPath></defs></svg>