<svg width="64" height="64" viewBox="0 0 64 64" fill="none" xmlns="http://www.w3.org/2000/svg"><g clip-path="url(#clip0_1817_19453)"><path d="M32 64c17.673 0 32-14.327 32-32C64 14.327 49.673 0 32 0 14.327 0 0 14.327 0 32c0 17.673 14.327 32 32 32z" fill="#DED6FF"/><path d="M38.494 16v5.986L16 36.066V30.08L38.494 16zm0 11.932v5.985L16 47.998v-5.986l22.494-14.08z" fill="#3730A3"/><path d="M48 16v5.986l-22.496 14.08V30.08L48 16zm0 11.932v5.985L25.504 47.998v-5.986L48 27.932z" fill="#624BFF"/></g><defs><clipPath id="clip0_1817_19453"><path fill="#fff" d="M0 0h64v64H0z"/></clipPath></defs></svg>