<svg width="64" height="64" viewBox="0 0 64 64" fill="none" xmlns="http://www.w3.org/2000/svg"><g clip-path="url(#clip0_1817_19443)"><path d="M32 64c17.673 0 32-14.327 32-32C64 14.327 49.673 0 32 0 14.327 0 0 14.327 0 32c0 17.673 14.327 32 32 32z" fill="#DCFCE7"/><path d="M47.883 27.246l-4.404-6.903a.742.742 0 00-.623-.343H32a.739.739 0 100 1.478h10.45l3.88 6.08-7.613 8.143-15.276-15.48a.738.738 0 00-.52-.221c-.022 0-.043.005-.066.007-.021-.002-.043-.007-.066-.007h-2.083a.74.74 0 00-.64.37l-3.967 6.907a.737.737 0 00.103.875l15.32 16.261a.75.75 0 00.524.233c.019.002.035.002.054.002a.683.683 0 00.502-.237L47.8 28.15a.739.739 0 00.082-.903zm-25.277-5.768L37.709 36.78l-5.65 6.045-14.405-15.288 3.479-6.06h1.473z" fill="#28A745"/></g><defs><clipPath id="clip0_1817_19443"><path fill="#fff" d="M0 0h64v64H0z"/></clipPath></defs></svg>