<svg width="64" height="64" viewBox="0 0 64 64" fill="none" xmlns="http://www.w3.org/2000/svg"><g clip-path="url(#clip0_1817_19433)"><path d="M32 64c17.673 0 32-14.327 32-32C64 14.327 49.673 0 32 0 14.327 0 0 14.327 0 32c0 17.673 14.327 32 32 32z" fill="#FFE4E6"/><path d="M27.8 32.305c0 3.449 1.735 6.5 4.375 8.329a10.244 10.244 0 004.34-8.378 10.24 10.24 0 00-4.275-8.328 10.127 10.127 0 00-4.44 8.377z" fill="#DC3545"/><path d="M26.387 32.305c0-3.736 1.787-7.064 4.551-9.174A10.2 10.2 0 0026.258 22C20.592 22 16 26.592 16 32.258c0 5.667 4.592 10.258 10.258 10.258a10.2 10.2 0 004.608-1.094c-2.723-2.113-4.479-5.414-4.479-9.117z" fill="#DC3545"/><path d="M37.928 42.377c-5.555 0-10.072-4.519-10.072-10.072 0-5.555 4.519-10.072 10.072-10.072 5.555 0 10.072 4.52 10.072 10.072 0 5.553-4.517 10.072-10.072 10.072zm0-18.733c-4.776 0-8.661 3.885-8.661 8.66s3.885 8.658 8.66 8.658c4.777 0 8.662-3.885 8.662-8.659 0-4.774-3.885-8.659-8.661-8.659z" fill="#DC3545"/></g><defs><clipPath id="clip0_1817_19433"><path fill="#fff" d="M0 0h64v64H0z"/></clipPath></defs></svg>