<svg width="64" height="64" viewBox="0 0 64 64" fill="none" xmlns="http://www.w3.org/2000/svg"><g clip-path="url(#clip0_1817_19439)"><path d="M32 64c17.673 0 32-14.327 32-32C64 14.327 49.673 0 32 0 14.327 0 0 14.327 0 32c0 17.673 14.327 32 32 32z" fill="#CFFAFE"/><path d="M31.998 11C23.164 11 16 18.164 16 26.998c0 8.838 7.164 15.999 15.998 15.999v9.008s15.999-5.696 15.999-25.01C48 18.164 40.837 11 31.998 11zm-5.255 15.998a5.254 5.254 0 015.255-5.255 5.254 5.254 0 015.256 5.255 5.256 5.256 0 01-10.511 0z" fill="#0EA5E9"/></g><defs><clipPath id="clip0_1817_19439"><path fill="#fff" d="M0 0h64v64H0z"/></clipPath></defs></svg>