<svg width="64" height="64" viewBox="0 0 64 64" fill="none" xmlns="http://www.w3.org/2000/svg"><g clip-path="url(#clip0_1817_19426)"><path d="M32 64c17.673 0 32-14.327 32-32C64 14.327 49.673 0 32 0 14.327 0 0 14.327 0 32c0 17.673 14.327 32 32 32z" fill="#FFEDD5"/><path d="M34.181 26.257a3.082 3.082 0 10-4.755-3.87c-.145.147-12.412 15.266-12.526 15.44a3.082 3.082 0 104.755 3.87c.146-.148 12.412-15.266 12.526-15.44zm7.098 7.174a3.082 3.082 0 10-4.753-3.871c-.148.148-6.59 8.09-6.706 8.265a3.082 3.082 0 104.753 3.871c.148-.148 6.59-8.09 6.706-8.265zm6.641-8.646a3.082 3.082 0 10-6-1.407 3.082 3.082 0 006 1.407zm-27.7 2.161a3.082 3.082 0 10-2.275-5.728 3.082 3.082 0 002.275 5.728z" fill="#F59E0B"/></g><defs><clipPath id="clip0_1817_19426"><path fill="#fff" d="M0 0h64v64H0z"/></clipPath></defs></svg>