<svg width="64" height="64" viewBox="0 0 64 64" fill="none" xmlns="http://www.w3.org/2000/svg"><g clip-path="url(#clip0_1817_19447)"><path d="M32 64c17.673 0 32-14.327 32-32C64 14.327 49.673 0 32 0 14.327 0 0 14.327 0 32c0 17.673 14.327 32 32 32z" fill="#EDE9FE"/><path d="M32 15c-8.837 0-16 7.163-16 16h32c0-8.837-7.166-16-16-16zm14.248 17.852C46.248 40.71 39.856 47.1 32 47.1c-7.858 0-14.248-6.393-14.248-14.248H16c0 8.822 7.177 16 16 16s16-7.178 16-16h-1.752z" fill="#624BFF"/><path d="M32 44.844c6.614 0 11.996-5.381 11.996-11.995h-1.752c0 5.65-4.597 10.244-10.244 10.244-5.65 0-10.244-4.598-10.244-10.244h-1.748C20.005 39.466 25.386 44.844 32 44.844z" fill="#624BFF"/></g><defs><clipPath id="clip0_1817_19447"><path fill="#fff" d="M0 0h64v64H0z"/></clipPath></defs></svg>