<svg width="49" height="50" viewBox="0 0 49 50" fill="none" xmlns="http://www.w3.org/2000/svg">
<path fill-rule="evenodd" clip-rule="evenodd" d="M22.75 0.74585H26.25V16.266L32.0553 1.876L35.3003 3.18896L29.3449 17.9519L40.5867 6.69303L43.0614 9.17171L32.2866 19.9627L46.2501 13.853L47.6513 17.0649L32.8763 23.5298H49V27H0V23.53H16.1239L1.34873 17.0646L2.75013 13.8528L16.7137 19.9629L5.9388 9.17171L8.4133 6.69327L19.6551 17.9519L13.6997 3.18896L16.9447 1.876L22.75 16.266V0.74585Z" fill="#F2ECFE"/>
<path fill-rule="evenodd" clip-rule="evenodd" d="M26.25 49.2542H22.75L22.75 33.734L16.9447 48.124L13.6997 46.811L19.6551 32.0481L8.4133 43.307L5.93855 40.8283L16.7134 30.0373L2.74988 36.147L1.34873 32.9351L16.1237 26.4702L-9.53674e-07 26.4702V23L49 23V26.47L32.8761 26.47L47.6513 32.9354L46.2499 36.1472L32.2863 30.0371L43.0612 40.8283L40.5867 43.3067L29.3449 32.0481L35.3003 46.811L32.0553 48.124L26.25 33.734L26.25 49.2542Z" fill="#F2ECFE"/>
</svg>
