<svg width="62" height="61" viewBox="0 0 62 61" fill="none" xmlns="http://www.w3.org/2000/svg">
<path opacity="0.5" fill-rule="evenodd" clip-rule="evenodd" d="M56.3422 35.6579C59.5247 35.6579 62 33.1364 62 30.1564H0C0 33.251 2.59316 35.6579 5.65779 35.6579H10.019L6.24715 37.8356C3.65399 39.3256 2.71103 42.6494 4.24335 45.2855C5.77566 47.8071 9.19392 48.724 11.9049 47.234L15.6768 45.0563L13.4373 48.724C11.7871 51.3601 12.73 54.6839 15.4411 56.1739C18.1521 57.7785 21.5703 56.8616 23.1027 54.2255L25.3422 50.5578V54.7985C25.3422 57.8931 27.9354 60.3 31 60.3C34.1825 60.3 36.6578 57.7785 36.6578 54.7985V50.5578L38.8973 54.2255C40.4297 56.747 43.8479 57.6639 46.5589 56.1739C49.1521 54.6839 50.0951 51.3601 48.5627 48.724L46.3232 45.0563L50.0951 47.234C52.8061 48.8386 56.2243 47.9217 57.7567 45.2855C59.4068 42.6494 58.4639 39.3256 55.7529 37.8356L51.981 35.6579H56.3422Z" fill="#76D466"/>
<path opacity="0.5" fill-rule="evenodd" clip-rule="evenodd" d="M5.65779 24.6421C2.47529 24.6421 0 27.1637 0 30.1436L62 30.1436C62 27.0491 59.4068 24.6421 56.3422 24.6421H51.981L55.7529 22.4645C58.346 20.9745 59.289 17.6507 57.7567 15.0145C56.2243 12.493 52.8061 11.5761 50.0951 13.0661L46.3232 15.2437L48.5627 11.5761C50.2129 8.93994 49.27 5.61612 46.5589 4.12613C43.8479 2.52152 40.4297 3.43844 38.8973 6.07458L36.6578 9.74224V5.5015C36.6578 2.40691 34.0646 0 31 0C27.8175 0 25.3422 2.52152 25.3422 5.5015V9.74224L23.1027 6.07458C21.5703 3.55305 18.1521 2.63614 15.4411 4.12613C12.8479 5.61612 11.9049 8.93994 13.4373 11.5761L15.6768 15.2437L11.9049 13.0661C9.19392 11.4615 5.77566 12.3784 4.24334 15.0145C2.59315 17.6507 3.53612 20.9745 6.24715 22.4645L10.019 24.6421H5.65779Z" fill="#76D466"/>
</svg>
