<svg width="40" height="34" viewBox="0 0 40 34" fill="none" xmlns="http://www.w3.org/2000/svg">
<path d="M10 0.5L0 10.5L5 13.5951L10 10.5L12.8235 5.5L10 0.5Z" fill="#FF2820"/>
<path d="M10 10.5H0V23.5L5 26.2457L10 23.5V10.5Z" fill="#0084FF"/>
<path d="M0 23.5V30.1666C0 32 1.5 33.5 3.33336 33.5H10L12.8235 28.192L10 23.5H0Z" fill="#0066DD"/>
<path d="M37.9343 4.05047L31.7495 8.94977V9L29.7324 16.7008L31.7495 24.494L37.9068 29.4495C38.7329 30.1427 39.9995 29.5605 39.9995 28.4791V5.02094C39.9995 3.93953 38.7604 3.35727 37.9343 4.05047Z" fill="#00AD3C"/>
<path d="M31.75 8.94977V3.79508C31.75 1.98281 30.2819 0.5 28.4875 0.5H21.9625H10V10.5H22.25V17L28.8316 16.2668L31.75 8.94977Z" fill="#FFBA00"/>
<path d="M22.25 23.5H10V33.5H21.9625H28.4875C30.2819 33.5 31.75 32.0194 31.75 30.2097V24.5L28.4849 17.7921L22.25 17V23.5Z" fill="#00AD3C"/>
<path d="M22.25 17L31.75 24.5V8.94977L22.25 17Z" fill="#00831E"/>
</svg>
