<svg width="40" height="41" viewBox="0 0 40 41" fill="none" xmlns="http://www.w3.org/2000/svg">
<path d="M20 40.3044C31.0457 40.3044 40 31.3501 40 20.3044C40 9.25875 31.0457 0.304443 20 0.304443C8.9543 0.304443 0 9.25875 0 20.3044C0 31.3501 8.9543 40.3044 20 40.3044Z" fill="#FDDD4C"/>
<path d="M12.2808 20.8633C12.0474 20.8512 11.831 20.8721 11.6518 20.9081C10.1536 21.2103 9.30731 22.4849 9.47387 24.141C9.6245 25.6393 11.1404 26.9028 12.5438 26.9404C12.689 26.9438 12.833 26.9343 12.9742 26.9103C14.4928 26.6513 14.8903 25.0023 14.64 23.3826C14.3574 21.5539 13.1204 20.9092 12.2808 20.8633ZM13.7689 25.196C13.713 25.3257 13.4923 25.503 13.1765 25.491C12.8516 25.466 12.49 25.2299 12.4411 24.6421C12.417 24.3517 12.5266 23.9981 12.594 23.8133C12.7245 23.4559 12.6068 23.0813 12.3011 22.8811C12.1215 22.7635 11.9069 22.7235 11.6971 22.7685C11.491 22.8126 11.3154 22.9338 11.2027 23.1099C11.1093 23.256 11.0522 23.4381 11.0215 23.5359C11.0133 23.5621 11.0068 23.5828 11.0018 23.5961C10.9331 23.7811 10.8232 23.8352 10.749 23.8251C10.7139 23.8203 10.6655 23.7968 10.6346 23.7121C10.5502 23.4806 10.6184 22.8255 11.0548 22.3439C11.3314 22.0387 11.7651 21.8825 12.1864 21.9359C12.6252 21.9917 12.9901 22.257 13.2139 22.6831C13.5112 23.2492 13.2464 23.8434 13.0882 24.1983C13.0711 24.2367 13.0553 24.2721 13.0419 24.3038C12.9427 24.5394 12.9375 24.7452 13.0274 24.8831C13.0964 24.9892 13.2193 25.0512 13.3644 25.0539C13.4321 25.0551 13.4939 25.0407 13.5484 25.028C13.6265 25.0099 13.7071 24.991 13.7561 25.0526C13.774 25.0728 13.8018 25.1194 13.7689 25.196Z" fill="#1D1D1D"/>
<path d="M33.3954 23.7287C33.219 23.5122 33.0063 23.3375 32.7763 23.2141C32.7572 23.1506 32.7368 23.0836 32.7152 23.0144C32.6903 22.9348 32.6653 22.8598 32.641 22.7905C32.9998 22.032 32.9716 21.3725 32.9096 21.0085C32.8145 20.3931 32.5517 19.8771 32.0834 19.3855C31.5122 18.7859 30.5614 18.401 29.8043 18.1735C29.7951 17.8135 29.7838 17.4056 29.7727 17.1514C29.7578 16.8135 29.7271 16.1131 29.5072 15.4059C29.3444 14.8246 29.1045 14.291 28.8074 13.8397C29.9542 12.4628 30.5763 11.0406 30.5743 9.77173C30.5712 7.71556 28.9706 6.38697 26.4966 6.38697C25.3219 6.38697 23.9825 6.68447 22.6209 7.2483C22.6186 7.24923 22.5438 7.2808 22.44 7.3247C22.0261 6.91861 21.4804 6.38408 21.444 6.35236C20.8213 5.80931 20.0485 5.53392 19.1468 5.53392C18.0734 5.53392 16.8401 5.93173 15.481 6.71634C14.309 7.39298 13.0493 8.36064 11.8382 9.5147C9.36893 11.8677 7.37814 14.685 6.51283 17.051C6.14135 18.0667 5.98174 18.9885 6.03853 19.7905C6.10736 20.7643 6.50252 21.582 7.17994 22.154L7.60135 22.511C7.46783 23.0895 7.43252 23.7019 7.49666 24.3398C7.61822 25.5491 8.23072 26.6985 9.22143 27.5762C10.018 28.282 10.9945 28.7406 11.9774 28.8819C12.8595 30.6425 14.2067 32.1265 15.9017 33.1974C17.7305 34.3528 19.9192 34.9998 22.2314 35.0685C22.3788 35.0728 22.528 35.0751 22.6748 35.0751H22.6753C25.0624 35.0751 27.2978 34.4881 29.1391 33.378C31.0351 32.2348 32.4872 30.5524 33.3384 28.5126C33.3414 28.5052 33.3444 28.4979 33.3473 28.4905C33.4942 28.1124 33.9738 26.7818 33.9738 25.5317C33.974 24.6281 33.6594 24.0524 33.3954 23.7287ZM32.4417 28.1384C30.8074 32.0549 26.9069 34.2352 22.2605 34.0971C17.9288 33.9685 14.2345 31.6827 12.6177 27.9567C11.6399 27.9574 10.6324 27.5277 9.86611 26.8488C9.05892 26.1337 8.56088 25.2081 8.46377 24.2426C8.38822 23.4909 8.48072 22.7918 8.71627 22.1817L7.80822 21.4124C3.65322 17.9042 16.6488 3.45923 20.8053 7.08462C20.8262 7.10291 22.2192 8.4697 22.2226 8.47306C22.2281 8.47033 22.9911 8.14673 22.995 8.14517C26.6406 6.63556 29.5988 7.36447 29.6025 9.77322C29.6044 11.0258 28.8063 12.4859 27.5276 13.8113C27.991 14.2413 28.3621 14.9134 28.5752 15.6814C28.7539 16.249 28.7856 16.8251 28.8018 17.1942C28.8241 17.7046 28.8486 18.8938 28.8511 18.9151C28.8836 18.9249 29.2526 19.0263 29.3646 19.0577C30.3431 19.3324 31.0393 19.6985 31.3798 20.0558C31.7203 20.4132 31.8891 20.7589 31.9504 21.1647C32.0078 21.4919 32 22.0699 31.5685 22.7161C31.5685 22.7161 31.6799 22.9589 31.7874 23.3039C31.8951 23.6489 31.9733 23.9352 31.9853 23.9777C32.381 23.9777 33.0021 24.4331 33.0021 25.5318C33.0023 26.625 32.5486 27.8634 32.4417 28.1384Z" fill="#1D1D1D"/>
<path d="M31.7885 24.8728C31.5791 24.7439 31.3286 24.7888 31.3286 24.7888C31.3286 24.7888 31.2143 24.0063 30.8906 23.2955C29.9312 24.0528 28.6958 24.5849 27.7552 24.8549C26.6698 25.1665 25.201 25.4059 23.5624 25.3082C22.6532 25.2349 22.0517 24.9693 21.8255 25.7045C23.9023 26.4649 26.1007 26.1394 26.1007 26.1394C26.1432 26.1351 26.1812 26.166 26.1856 26.2085C26.1891 26.2431 26.168 26.278 26.1376 26.2909C26.1376 26.2909 24.4489 27.0749 21.767 26.2455C21.8415 26.8745 22.4546 27.1565 22.7475 27.2704C23.1161 27.4138 23.5199 27.4803 23.5199 27.4803C26.8431 28.0518 29.95 26.1517 30.6496 25.6731C30.702 25.6373 30.7367 25.6722 30.6946 25.7357C30.6542 25.7967 30.6517 25.8003 30.6261 25.8333C29.77 26.9377 27.4684 28.2164 24.4741 28.216C23.1681 28.2157 21.8628 27.7556 21.3835 27.0487C20.64 25.9517 21.3467 24.3506 22.5857 24.5174C22.5871 24.5177 23.0096 24.5655 23.1284 24.5788C24.6773 24.7513 26.919 24.5341 28.7668 23.6764C30.4573 22.8918 31.0958 22.0283 30.9999 21.3292C30.9739 21.1409 30.8897 20.9435 30.7086 20.7577C30.4049 20.4603 29.9231 20.2288 29.1104 20.0007C28.842 19.9253 28.6598 19.8772 28.4635 19.8126C28.1146 19.6978 27.9421 19.6052 27.9031 18.949C27.886 18.662 27.836 17.6624 27.8179 17.2493C27.786 16.5255 27.699 15.5361 27.0851 15.1276C26.9252 15.0212 26.7472 14.9698 26.5603 14.9599C26.3771 14.9513 26.2854 14.9841 26.2487 14.9903C25.8982 15.0497 25.6912 15.2363 25.4328 15.4516C24.6671 16.0896 24.0204 16.1942 23.3015 16.1631C22.8719 16.1452 22.4166 16.0782 21.8947 16.0474C21.7931 16.0413 21.6913 16.0351 21.5896 16.0298C20.3853 15.9681 19.0938 17.0083 18.8792 18.4851C18.5803 20.5409 20.0691 21.6031 20.4989 22.2265C20.5538 22.301 20.6171 22.4063 20.6171 22.506C20.6171 22.6252 20.5399 22.7199 20.4641 22.8003C20.464 22.8005 20.4643 22.8009 20.4642 22.801C19.2356 24.0642 18.8426 26.0712 19.3056 27.744C19.3634 27.953 19.4367 28.1528 19.5234 28.3435C20.6097 30.882 23.9795 32.0642 27.2716 30.9889C27.7126 30.8449 28.1302 30.6667 28.5224 30.4606C29.2607 30.0989 29.9061 29.6014 30.4377 29.0292C31.311 28.1164 31.8306 27.1243 32.0324 25.9018C32.1314 25.2477 31.9863 24.9946 31.7885 24.8728ZM27.3558 20.6706C27.3512 20.941 27.1876 21.1577 26.9903 21.1543C26.793 21.151 26.6367 20.9289 26.6414 20.6585C26.646 20.3879 26.8096 20.1713 27.0068 20.1746C27.2042 20.178 27.3604 20.4 27.3558 20.6706ZM26.4513 17.4715C26.8351 17.4096 27.0208 17.8071 27.158 18.4638C27.2503 18.9057 27.2327 19.3115 27.13 19.5469C26.9527 19.5218 26.7597 19.5228 26.5583 19.5469C26.4052 19.3513 26.2678 19.0354 26.1906 18.666C26.0533 18.0092 26.0674 17.5334 26.4513 17.4715ZM25.1635 21.0021C25.2506 20.825 25.5179 20.7782 25.7608 20.8975C26.0036 21.0168 26.1299 21.2571 26.043 21.4342C25.956 21.6113 25.6885 21.6581 25.4457 21.5388C25.2028 21.4195 25.0765 21.1792 25.1635 21.0021ZM23.6587 20.8033C23.6192 20.8649 23.5343 20.8538 23.3546 20.8336C23.0292 20.7965 22.7008 20.7749 22.2031 20.9531C22.2031 20.9531 22.0221 21.0257 21.9414 21.0257C21.9181 21.0257 21.8989 21.0178 21.8825 21.0034C21.8706 20.9932 21.8555 20.9731 21.8552 20.9382C21.8546 20.8648 21.9214 20.7604 22.0296 20.6659C22.1561 20.5562 22.3535 20.4383 22.711 20.3818C23.2036 20.3234 23.5647 20.5531 23.6485 20.689C23.6846 20.7473 23.6703 20.7856 23.6587 20.8033ZM20.9114 20.1255C20.8468 20.1164 20.8194 20.0889 20.8114 20.0523C20.7864 19.9391 20.9606 19.7526 21.1443 19.618C21.7008 19.2181 22.4221 19.1315 23.027 19.3919C23.3228 19.5179 23.6016 19.7423 23.7371 19.9635C23.8026 20.0706 23.8153 20.1536 23.7729 20.1972C23.7068 20.267 23.5381 20.1871 23.2635 20.0667C22.9889 19.9462 22.6323 19.8116 22.2018 19.8379C21.5922 19.8753 21.0628 20.1428 20.9114 20.1255Z" fill="#1D1D1D"/>
<path d="M25.0959 12.6737C25.1485 12.6858 25.1821 12.5946 25.1349 12.5681C24.4392 12.178 23.3717 11.9129 22.6146 11.9076C22.5772 11.9074 22.5563 11.8642 22.5785 11.8342C22.7095 11.6581 22.8889 11.4841 23.0528 11.3583C23.0897 11.33 23.0673 11.2706 23.021 11.2735C21.9426 11.3398 20.7132 11.856 20.0064 12.3378C19.9716 12.3615 19.9265 12.3304 19.9351 12.2891C19.9902 12.0237 20.1638 11.674 20.254 11.5106C20.2753 11.4721 20.2336 11.4294 20.1943 11.4495C19.0584 12.0306 17.7901 13.0656 16.76 14.256C16.7236 14.298 16.7777 14.3574 16.8226 14.3247C17.7124 13.6775 18.9321 13.0757 20.53 12.686C22.32 12.2494 24.0432 12.4324 25.0959 12.6737Z" fill="#1D1D1D"/>
<path d="M21.2482 8.98384C21.2482 8.98384 20.117 7.67228 19.7755 7.57556C17.6746 7.00775 13.1362 10.1377 10.2385 14.2728C9.066 15.946 7.38756 18.9088 8.19014 20.4327C8.28905 20.6217 8.84873 21.1069 9.1492 21.3575C9.65186 20.6273 10.4739 20.0987 11.4066 19.9174C12.5941 16.7306 14.5764 13.7939 17.2005 11.7733C19.1481 10.1491 21.2482 8.98384 21.2482 8.98384Z" fill="#1D1D1D"/>
</svg>
