<svg width="40" height="39" viewBox="0 0 40 39" fill="none" xmlns="http://www.w3.org/2000/svg">
<path d="M38.75 33.0552H21.25C20.56 33.0552 20 32.4952 20 31.8052C20 31.1152 20 7.49524 20 6.80524C20 6.11524 20.56 5.55524 21.25 5.55524H38.75C39.44 5.55524 40 6.11524 40 6.80524V31.8052C40 32.4952 39.44 33.0552 38.75 33.0552Z" fill="#ECEFF1"/>
<path d="M26.25 13.0552H21.25C20.56 13.0552 20 12.4952 20 11.8052C20 11.1152 20.56 10.5552 21.25 10.5552H26.25C26.94 10.5552 27.5 11.1152 27.5 11.8052C27.5 12.4952 26.94 13.0552 26.25 13.0552Z" fill="#388E3C"/>
<path d="M26.25 18.0552H21.25C20.56 18.0552 20 17.4952 20 16.8052C20 16.1152 20.56 15.5552 21.25 15.5552H26.25C26.94 15.5552 27.5 16.1152 27.5 16.8052C27.5 17.4952 26.94 18.0552 26.25 18.0552Z" fill="#388E3C"/>
<path d="M26.25 23.0552H21.25C20.56 23.0552 20 22.4952 20 21.8052C20 21.1152 20.56 20.5552 21.25 20.5552H26.25C26.94 20.5552 27.5 21.1152 27.5 21.8052C27.5 22.4952 26.94 23.0552 26.25 23.0552Z" fill="#388E3C"/>
<path d="M26.25 28.0552H21.25C20.56 28.0552 20 27.4952 20 26.8052C20 26.1152 20.56 25.5552 21.25 25.5552H26.25C26.94 25.5552 27.5 26.1152 27.5 26.8052C27.5 27.4952 26.94 28.0552 26.25 28.0552Z" fill="#388E3C"/>
<path d="M33.75 13.0552H31.25C30.56 13.0552 30 12.4952 30 11.8052C30 11.1152 30.56 10.5552 31.25 10.5552H33.75C34.44 10.5552 35 11.1152 35 11.8052C35 12.4952 34.44 13.0552 33.75 13.0552Z" fill="#388E3C"/>
<path d="M33.75 18.0552H31.25C30.56 18.0552 30 17.4952 30 16.8052C30 16.1152 30.56 15.5552 31.25 15.5552H33.75C34.44 15.5552 35 16.1152 35 16.8052C35 17.4952 34.44 18.0552 33.75 18.0552Z" fill="#388E3C"/>
<path d="M33.75 23.0552H31.25C30.56 23.0552 30 22.4952 30 21.8052C30 21.1152 30.56 20.5552 31.25 20.5552H33.75C34.44 20.5552 35 21.1152 35 21.8052C35 22.4952 34.44 23.0552 33.75 23.0552Z" fill="#388E3C"/>
<path d="M33.75 28.0552H31.25C30.56 28.0552 30 27.4952 30 26.8052C30 26.1152 30.56 25.5552 31.25 25.5552H33.75C34.44 25.5552 35 26.1152 35 26.8052C35 27.4952 34.44 28.0552 33.75 28.0552Z" fill="#388E3C"/>
<path d="M22.0475 0.842743C21.7625 0.605243 21.38 0.502743 21.02 0.577743L1.02 4.32774C0.4275 4.43774 0 4.95274 0 5.55524V33.0552C0 33.6552 0.4275 34.1727 1.02 34.2827L21.02 38.0327C21.095 38.0477 21.1725 38.0552 21.25 38.0552C21.54 38.0552 21.8225 37.9552 22.0475 37.7677C22.335 37.5302 22.5 37.1752 22.5 36.8052V1.80524C22.5 1.43274 22.335 1.08024 22.0475 0.842743Z" fill="#2E7D32"/>
<path d="M17.1913 23.4827L13.2388 18.9652L17.2363 13.8252C17.6613 13.2802 17.5613 12.4952 17.0188 12.0702C16.4763 11.6452 15.6913 11.7452 15.2638 12.2877L11.5613 17.0477L8.44129 13.4827C7.98379 12.9577 7.19379 12.9102 6.67879 13.3652C6.15879 13.8202 6.10629 14.6102 6.56129 15.1277L9.99879 19.0577L6.51379 23.5377C6.08879 24.0827 6.18879 24.8677 6.73129 25.2927C6.96129 25.4702 7.23379 25.5552 7.50129 25.5552C7.87379 25.5552 8.24129 25.3902 8.48879 25.0727L11.6763 20.9727L15.3113 25.1252C15.5588 25.4102 15.9038 25.5552 16.2513 25.5552C16.5438 25.5552 16.8363 25.4527 17.0738 25.2452C17.5938 24.7902 17.6463 24.0002 17.1913 23.4827Z" fill="#FAFAFA"/>
</svg>
