<svg width="40" height="40" viewBox="0 0 40 40" fill="none" xmlns="http://www.w3.org/2000/svg">
<path d="M14.642 21.1719C12.3344 21.1719 10.457 23.0493 10.457 25.3569V35.815C10.457 38.1226 12.3344 40 14.642 40C16.9497 40.0001 18.827 38.1227 18.827 35.8151V25.3569C18.827 23.0493 16.9497 21.1719 14.642 21.1719Z" fill="#FF4340"/>
<path d="M8.11486 21.1719H4.06329C1.82922 21.1719 0.0117188 22.9895 0.0117188 25.2235C0.0117188 27.4575 1.8293 29.275 4.06329 29.275C6.29728 29.275 8.11486 27.4575 8.11486 25.2235V21.1719Z" fill="#FF4340"/>
<path d="M0 14.6431C0 16.9508 1.87735 18.8281 4.18501 18.8281H14.6431C16.9508 18.8281 18.8282 16.9508 18.8282 14.6431C18.8282 12.3355 16.9508 10.4581 14.6432 10.4581H4.18501C1.87735 10.4581 0 12.3355 0 14.6431Z" fill="#36C6FF"/>
<path d="M14.7762 8.11431H18.8278V4.06274C18.8278 1.82867 17.0102 0.0111694 14.7762 0.0111694C12.5421 0.0111694 10.7246 1.82875 10.7246 4.06274C10.7246 6.29673 12.5421 8.11431 14.7762 8.11431Z" fill="#36C6FF"/>
<path d="M25.3569 18.8282C27.6645 18.8282 29.5419 16.9508 29.5419 14.6432V4.18501C29.542 1.87735 27.6645 0 25.3569 0C23.0492 0 21.1719 1.87735 21.1719 4.18501V14.6431C21.1719 16.9508 23.0492 18.8282 25.3569 18.8282Z" fill="#0DC46E"/>
<path d="M31.8867 18.8282H35.9383C38.1724 18.8282 39.9899 17.0106 39.9899 14.7766C39.9899 12.5425 38.1723 10.725 35.9383 10.725C33.7043 10.725 31.8867 12.5426 31.8867 14.7766V18.8282Z" fill="#0DC46E"/>
<path d="M40 25.3569C40 23.0493 38.1227 21.1719 35.815 21.1719H25.3569C23.0492 21.1719 21.1719 23.0493 21.1719 25.3569C21.1719 27.6646 23.0492 29.5419 25.3569 29.5419H35.815C38.1227 29.542 40 27.6646 40 25.3569Z" fill="#FDCB02"/>
<path d="M25.2234 31.8857H21.1719V35.9373C21.1719 38.1714 22.9895 39.9889 25.2234 39.9889C27.4575 39.9889 29.275 38.1713 29.275 35.9373C29.275 33.7033 27.4575 31.8857 25.2234 31.8857Z" fill="#FDCB02"/>
</svg>
