<svg width="40" height="46" viewBox="0 0 40 46" fill="none" xmlns="http://www.w3.org/2000/svg">
<path d="M13.5314 23.4918C9.92417 23.4918 7.00991 26.406 7.06322 29.9778C7.09876 32.2701 8.36042 34.2603 10.2174 35.3709C9.58654 34.4025 9.21337 33.2563 9.1956 32.0213C9.14229 28.4496 12.0566 25.5353 15.6638 25.5353C16.3746 25.5353 17.0588 25.6508 17.6985 25.8552V18.7028C17.0321 18.6051 16.348 18.5518 15.6638 18.5518C15.6283 18.5518 15.6016 18.5518 15.5661 18.5518V23.8116C14.9264 23.6073 14.2422 23.4918 13.5314 23.4918Z" fill="#F00044"/>
<path d="M29.124 2.04355H29.0707H27.2227C27.7558 4.71791 29.2573 7.04576 31.3541 8.62728C29.977 6.80587 29.1418 4.53133 29.124 2.04355Z" fill="#F00044"/>
<path d="M40 12.9276C39.2981 12.9276 38.6229 12.8565 37.9565 12.7321V17.8587C35.5398 17.8587 33.1942 17.3878 30.9907 16.446C29.5691 15.8418 28.2453 15.0689 27.028 14.1359L27.0636 29.9422C27.0458 33.4962 25.642 36.828 23.1009 39.3425C21.0307 41.386 18.4097 42.6921 15.5665 43.1097C14.9001 43.2074 14.216 43.2607 13.5318 43.2607C10.4932 43.2607 7.59669 42.2745 5.24219 40.4531C5.50874 40.773 5.79305 41.0839 6.10403 41.386C8.66289 43.9093 12.0569 45.3043 15.6731 45.3043C16.3572 45.3043 17.0414 45.251 17.7077 45.1532C20.5509 44.7356 23.172 43.4296 25.2422 41.386C27.7833 38.8716 29.1871 35.5397 29.2048 31.9858L29.0716 16.1795C30.2799 17.1124 31.6038 17.8943 33.0342 18.4896C35.2466 19.4225 37.5922 19.9023 40 19.9023" fill="#F00044"/>
<path d="M6.07733 22.4878C8.60954 19.9733 11.9769 18.5784 15.5664 18.5517V16.6593C14.9001 16.5615 14.2159 16.5082 13.5318 16.5082C9.90674 16.5082 6.50381 17.9031 3.94495 20.4442C1.43051 22.9409 -0.00884404 26.3527 4.08924e-05 29.8978C4.08924e-05 33.4695 1.41274 36.8192 3.96272 39.3514C4.37143 39.7512 4.78902 40.1244 5.23326 40.462C3.22527 38.0719 2.13242 35.0866 2.12354 31.9413C2.13242 28.3962 3.5629 24.9844 6.07733 22.4878Z" fill="#08FFF9"/>
<path d="M37.9559 12.7321V10.8307H37.9381C35.4681 10.8307 33.1936 10.0133 31.3633 8.62726C32.9537 10.7241 35.2815 12.2168 37.9559 12.7321Z" fill="#08FFF9"/>
<path d="M15.299 38.3118C16.143 38.3562 16.9516 38.2407 17.6979 38.0009C20.2745 37.1568 22.1315 34.7578 22.1315 31.9324L22.1404 21.3594V2.04353H27.2226C27.0893 1.37716 27.0182 0.70191 27.0093 0H20.008V19.307L19.9991 29.88C19.9991 32.7054 18.1422 35.1044 15.5655 35.9484C14.8192 36.1972 14.0107 36.3127 13.1666 36.2594C12.0915 36.1972 11.0875 35.8773 10.2168 35.362C11.3096 37.0502 13.1755 38.1963 15.299 38.3118Z" fill="#08FFF9"/>
<path d="M15.5669 43.1097C18.41 42.6921 21.0311 41.386 23.1013 39.3425C25.6424 36.828 27.0462 33.4962 27.064 29.9422L27.0284 14.1359C28.2368 15.0688 29.5606 15.8507 30.9911 16.446C33.2035 17.3789 35.5491 17.8587 37.9569 17.8587V12.7321C35.2825 12.2168 32.9547 10.7241 31.3643 8.62725C29.2674 7.04573 27.757 4.71788 27.2328 2.04352H22.1417V21.3505L22.1328 31.9235C22.1328 34.7489 20.2759 37.1479 17.6993 37.9919C16.9529 38.2407 16.1444 38.3562 15.3003 38.3029C13.1679 38.1874 11.311 37.0413 10.2181 35.362C8.36119 34.2603 7.09953 32.2612 7.06399 29.9689C7.01068 26.3971 9.92494 23.4829 13.5322 23.4829C14.243 23.4829 14.9272 23.5984 15.5669 23.8027V18.5428C11.9774 18.5695 8.60997 19.9644 6.07776 22.4789C3.56333 24.9755 2.12397 28.3873 2.13285 31.9235C2.13285 35.0688 3.2257 38.0541 5.24258 40.4442C7.60597 42.2656 10.4936 43.2518 13.5322 43.2518C14.2164 43.2607 14.9005 43.2074 15.5669 43.1097Z" fill="black"/>
</svg>
