<svg width="40" height="41" viewBox="0 0 40 41" fill="none" xmlns="http://www.w3.org/2000/svg">
<path fill-rule="evenodd" clip-rule="evenodd" d="M35.2515 0.360046H4.75484C3.49492 0.360046 2.28641 0.860125 1.39492 1.75044C0.503437 2.64075 0.00171875 3.84856 0 5.10848C0 5.10848 0 35.5332 0 35.5602C0 36.8088 0.505781 38.0511 1.38586 38.9348C2.27227 39.825 3.49867 40.3343 4.75492 40.3343C4.75492 40.3343 35.2461 40.3343 35.2515 40.3343C36.506 40.3343 37.7322 39.8215 38.6162 38.9326C39.4882 38.0559 40.0049 36.7933 39.9999 35.5602V5.10848C39.9981 3.84966 39.4973 2.64286 38.6073 1.7527C37.7171 0.862546 36.5103 0.361765 35.2515 0.360046ZM17.2509 29.152C17.2513 29.5736 17.0778 29.9805 16.7787 30.2761C16.4783 30.573 16.0703 30.7384 15.6488 30.7348H8.9843C8.56563 30.7332 8.16469 30.5657 7.86922 30.269C7.57375 29.9723 7.40789 29.5707 7.40789 29.152V9.31872C7.40789 8.90005 7.57375 8.49841 7.86922 8.20177C8.16469 7.90512 8.56563 7.73762 8.9843 7.73591H15.6488C16.068 7.73762 16.4697 7.90489 16.7662 8.20137C17.0626 8.49786 17.2298 8.8995 17.2316 9.31872C17.2316 9.31872 17.2509 29.1512 17.2509 29.152ZM32.6305 20.046C32.6315 20.4686 32.4602 20.8756 32.1602 21.1721C31.8562 21.4724 31.453 21.6288 31.0284 21.6288H24.3639C23.9447 21.6272 23.543 21.4598 23.2466 21.1633C22.9501 20.8669 22.7827 20.4654 22.7811 20.046V9.31872C22.7827 8.89942 22.9501 8.49786 23.2466 8.20137C23.543 7.90489 23.9447 7.73762 24.3639 7.73591H31.0284C31.447 7.73762 31.8481 7.90512 32.1435 8.20177C32.439 8.49841 32.6048 8.90005 32.6048 9.31872C32.6048 9.31872 32.6304 20.0355 32.6305 20.046Z" fill="url(#paint0_linear_476_3268)"/>
<defs>
<linearGradient id="paint0_linear_476_3268" x1="20" y1="40.3344" x2="20" y2="0.36007" gradientUnits="userSpaceOnUse">
<stop stop-color="#0052CC"/>
<stop offset="1" stop-color="#2684FF"/>
</linearGradient>
</defs>
</svg>
