<svg width="40" height="33" viewBox="0 0 40 33" fill="none" xmlns="http://www.w3.org/2000/svg">
<path d="M40 4.15219C38.5125 4.80469 36.9275 5.23719 35.275 5.44719C36.975 4.43219 38.2725 2.83719 38.8825 0.914687C37.2975 1.85969 35.5475 2.52719 33.6825 2.89969C32.1775 1.29719 30.0325 0.304688 27.6925 0.304688C23.1525 0.304688 19.4975 3.98969 19.4975 8.50719C19.4975 9.15719 19.5525 9.78219 19.6875 10.3772C12.87 10.0447 6.8375 6.77719 2.785 1.79969C2.0775 3.02719 1.6625 4.43219 1.6625 5.94469C1.6625 8.78469 3.125 11.3022 5.305 12.7597C3.9875 12.7347 2.695 12.3522 1.6 11.7497C1.6 11.7747 1.6 11.8072 1.6 11.8397C1.6 15.8247 4.4425 19.1347 8.17 19.8972C7.5025 20.0797 6.775 20.1672 6.02 20.1672C5.495 20.1672 4.965 20.1372 4.4675 20.0272C5.53 23.2747 8.545 25.6622 12.13 25.7397C9.34 27.9222 5.7975 29.2372 1.9625 29.2372C1.29 29.2372 0.645 29.2072 0 29.1247C3.6325 31.4672 7.9375 32.8047 12.58 32.8047C27.67 32.8047 35.92 20.3047 35.92 9.46969C35.92 9.10719 35.9075 8.75719 35.89 8.40969C37.5175 7.25469 38.885 5.81219 40 4.15219Z" fill="#03A9F4"/>
</svg>
