<svg width="17" height="20" viewBox="0 0 17 20" fill="none" xmlns="http://www.w3.org/2000/svg">
<path d="M10.6251 19.2858C10.6251 19.4752 10.5505 19.6569 10.4176 19.7908C10.2848 19.9248 10.1046 20 9.91675 20H7.08325C6.89538 20 6.7152 19.9248 6.58236 19.7908C6.44951 19.6569 6.37488 19.4752 6.37488 19.2858C6.37488 19.0963 6.44951 18.9147 6.58236 18.7807C6.7152 18.6468 6.89538 18.5715 7.08325 18.5715H9.91675C10.1046 18.5715 10.2848 18.6468 10.4176 18.7807C10.5505 18.9147 10.6251 19.0963 10.6251 19.2858ZM8.5 9.28631C8.71016 9.28631 8.91559 9.22348 9.09033 9.10575C9.26506 8.98803 9.40126 8.82071 9.48168 8.62494C9.5621 8.42917 9.58314 8.21375 9.54214 8.00593C9.50115 7.7981 9.39995 7.6072 9.25134 7.45737C9.10274 7.30754 8.91341 7.2055 8.7073 7.16416C8.50118 7.12282 8.28753 7.14404 8.09338 7.22513C7.89922 7.30622 7.73327 7.44354 7.61651 7.61972C7.49976 7.79591 7.43744 8.00305 7.43744 8.21494C7.43744 8.49909 7.54939 8.77159 7.74866 8.97252C7.94793 9.17344 8.21819 9.28631 8.5 9.28631ZM16.9668 13.1995L15.8724 18.1662C15.8205 18.402 15.7101 18.6208 15.5515 18.8019C15.393 18.983 15.1914 19.1207 14.9658 19.2019C14.7401 19.2832 14.4977 19.3054 14.2612 19.2665C14.0248 19.2276 13.8019 19.1289 13.6136 18.9795L11.2016 17.143H5.80021L3.38643 18.9795C3.19808 19.1289 2.97524 19.2276 2.73875 19.2665C2.50227 19.3054 2.25987 19.2832 2.03421 19.2019C1.80856 19.1207 1.60703 18.983 1.44848 18.8019C1.28992 18.6208 1.17952 18.402 1.1276 18.1662L0.0331625 13.1995C-0.0132613 12.9863 -0.0109158 12.7653 0.0400214 12.5533C0.0909587 12.3412 0.189149 12.1436 0.327138 11.9754L2.85603 8.91669C2.94091 7.79259 3.19685 6.68836 3.61488 5.64276C4.75713 2.75542 6.80256 0.943918 7.63224 0.299311C7.88058 0.10529 8.18584 0 8.5 0C8.81417 0 9.11942 0.10529 9.36776 0.299311C10.1948 0.943918 12.2429 2.75542 13.3851 5.64276C13.8031 6.68836 14.0591 7.79259 14.144 8.91669L16.6729 11.9754C16.8109 12.1436 16.909 12.3412 16.96 12.5533C17.0109 12.7653 17.0133 12.9863 16.9668 13.1995ZM5.97022 15.7145H11.0298C12.8999 12.3629 13.2496 9.15418 12.0693 6.1722C11.028 3.5402 9.07467 1.87601 8.5 1.42961C7.92356 1.87601 5.97022 3.5402 4.92891 6.1722C3.75035 9.15418 4.10011 12.3629 5.97022 15.7145ZM4.64202 16.2368C3.68867 14.4899 3.11016 12.773 2.9065 11.0862L1.41626 12.8897L2.5107 17.8573L2.52664 17.8457L4.64202 16.2368ZM15.5837 12.8897L14.0935 11.0862C13.8916 12.7695 13.3143 14.4863 12.3615 16.2368L14.4734 17.8439L14.4893 17.8555L15.5837 12.8897Z" fill="#795DED"/>
</svg>
