<svg width="17" height="17" viewBox="0 0 17 17" fill="none" xmlns="http://www.w3.org/2000/svg">
<path opacity="0.2" d="M7.55586 3.14868L2.85895 4.91002C2.75559 4.9488 2.66424 5.01408 2.59407 5.09931C2.5239 5.18454 2.47737 5.28672 2.45915 5.39561L0.630127 16.3705L11.605 14.5415C11.7139 14.5233 11.8161 14.4768 11.9013 14.4066C11.9866 14.3364 12.0519 14.2451 12.0906 14.1417L13.852 9.4448L7.55586 3.14868ZM7.24105 11.3336C6.92974 11.3336 6.62541 11.2413 6.36657 11.0684C6.10772 10.8954 5.90597 10.6496 5.78684 10.362C5.6677 10.0743 5.63653 9.75786 5.69726 9.45253C5.758 9.14719 5.90791 8.86673 6.12804 8.6466C6.34817 8.42647 6.62864 8.27655 6.93397 8.21582C7.2393 8.15509 7.55579 8.18626 7.8434 8.30539C8.13102 8.42453 8.37685 8.62627 8.54981 8.88512C8.72276 9.14397 8.81508 9.44829 8.81508 9.7596C8.81508 10.1771 8.64924 10.5774 8.35406 10.8726C8.05887 11.1678 7.65851 11.3336 7.24105 11.3336Z" fill="#9C84F4"/>
<path d="M17 6.66504C17.0005 6.49961 16.9681 6.33573 16.9048 6.18292C16.8414 6.03012 16.7483 5.89143 16.6309 5.77492L11.2256 0.36892C11.1087 0.25196 10.9699 0.15918 10.8171 0.0958802C10.6643 0.0325803 10.5005 0 10.3351 0C10.1698 0 10.006 0.0325803 9.85319 0.0958802C9.7004 0.15918 9.56157 0.25196 9.44463 0.36892L7.20715 2.6064L2.64247 4.31973C2.43501 4.3971 2.25152 4.52761 2.11036 4.69818C1.9692 4.86876 1.87533 5.07343 1.83814 5.2917L0.00911805 16.2666C-0.0059745 16.3568 -0.00122863 16.4493 0.0230255 16.5374C0.0472797 16.6256 0.0904597 16.7075 0.149561 16.7773C0.208662 16.8471 0.282265 16.9032 0.365248 16.9417C0.448232 16.9802 0.538602 17.0001 0.630072 17.0001C0.664875 17 0.699612 16.9971 0.733958 16.9915L11.7081 15.1624C11.9261 15.1261 12.1307 15.0329 12.3013 14.8924C12.4719 14.7519 12.6025 14.569 12.6801 14.362L14.3934 9.79735L16.6309 7.55594C16.7484 7.43931 16.8415 7.30049 16.9049 7.14755C16.9682 6.9946 17.0006 6.83059 17 6.66504ZM11.5011 13.9205L2.46539 15.4261L6.19348 11.698C6.65911 11.9496 7.19977 12.0253 7.7166 11.9111C8.23342 11.7969 8.69188 11.5005 9.00816 11.0761C9.32444 10.6517 9.47739 10.1277 9.43906 9.59978C9.40073 9.07188 9.17368 8.57542 8.79942 8.20115C8.42515 7.82689 7.92869 7.59984 7.40079 7.56151C6.87289 7.52318 6.34883 7.67614 5.92443 7.99241C5.50003 8.30869 5.20364 8.76715 5.08946 9.28397C4.97527 9.8008 5.05092 10.3415 5.30258 10.8071L1.57449 14.5368L3.08005 5.49868L7.3984 3.87979L13.12 9.60217L11.5011 13.9205ZM6.29658 9.75958C6.29658 9.57279 6.35197 9.3902 6.45574 9.23489C6.55951 9.07958 6.70701 8.95853 6.87958 8.88705C7.05215 8.81557 7.24204 8.79687 7.42524 8.83331C7.60844 8.86975 7.77672 8.95969 7.9088 9.09177C8.04088 9.22385 8.13082 9.39213 8.16726 9.57533C8.20371 9.75853 8.185 9.94842 8.11352 10.121C8.04204 10.2936 7.92099 10.4411 7.76568 10.5448C7.61038 10.6486 7.42778 10.704 7.24099 10.704C6.99052 10.704 6.7503 10.6045 6.57319 10.4274C6.39608 10.2503 6.29658 10.0101 6.29658 9.75958ZM13.8519 8.55387L8.44591 3.14865L10.3347 1.25982L15.7408 6.66504L13.8519 8.55387Z" fill="#795DED"/>
</svg>
