<svg width="13" height="18" viewBox="0 0 13 18" fill="none" xmlns="http://www.w3.org/2000/svg">
<path opacity="0.2" d="M11.8935 8.58911C11.8935 9.11181 11.7385 9.62277 11.4481 10.0574C11.1577 10.492 10.745 10.8307 10.2621 11.0307C9.77918 11.2308 9.2478 11.2831 8.73514 11.1811C8.22249 11.0792 7.75159 10.8275 7.38199 10.4579C7.01238 10.0883 6.76068 9.61735 6.65871 9.1047C6.55673 8.59205 6.60907 8.06067 6.8091 7.57776C7.00913 7.09485 7.34786 6.6821 7.78247 6.3917C8.21707 6.10131 8.72803 5.94631 9.25073 5.94631C9.95164 5.94631 10.6239 6.22475 11.1195 6.72037C11.6151 7.21599 11.8935 7.8882 11.8935 8.58911ZM3.30442 5.94631H6.60793V0.660706H3.30442C2.60351 0.660706 1.9313 0.939143 1.43568 1.43476C0.940058 1.93039 0.661621 2.60259 0.661621 3.30351C0.661621 4.00442 0.940058 4.67663 1.43568 5.17225C1.9313 5.66787 2.60351 5.94631 3.30442 5.94631ZM0.661621 14.2051C0.661621 14.9936 0.974863 15.7498 1.53244 16.3074C2.09001 16.865 2.84625 17.1782 3.63477 17.1782C4.4233 17.1782 5.17954 16.865 5.73711 16.3074C6.29468 15.7498 6.60793 14.9936 6.60793 14.2051V11.2319H3.63477C2.84625 11.2319 2.09001 11.5452 1.53244 12.1027C0.974863 12.6603 0.661621 13.4165 0.661621 14.2051Z" fill="#9C84F4"/>
<path d="M11.2329 5.94631C11.7876 5.5303 12.1973 4.95031 12.404 4.2885C12.6108 3.62669 12.604 2.91661 12.3848 2.25884C12.1655 1.60108 11.7449 1.02897 11.1824 0.623562C10.6199 0.218155 9.94413 0 9.25078 0H3.30448C2.61113 0 1.93536 0.218155 1.37288 0.623562C0.810412 1.02897 0.389755 1.60108 0.170499 2.25884C-0.0487567 2.91661 -0.0554951 3.62669 0.151239 4.2885C0.357972 4.95031 0.767697 5.5303 1.32238 5.94631C0.902402 6.26105 0.56346 6.67132 0.333624 7.14314C0.103789 7.61496 -0.0103256 8.13475 0.000733633 8.65945C0.0117928 9.18416 0.147707 9.69868 0.397219 10.1604C0.64673 10.6221 1.00266 11.0177 1.43552 11.3145C0.943163 11.6888 0.554499 12.1826 0.306328 12.7492C0.0581573 13.3157 -0.0413059 13.9362 0.0173564 14.5519C0.0760188 15.1676 0.290865 15.7582 0.641552 16.2676C0.992239 16.7771 1.46716 17.1886 2.02135 17.4632C2.57553 17.7379 3.19065 17.8665 3.80844 17.8369C4.42623 17.8074 5.02626 17.6206 5.5517 17.2944C6.07715 16.9681 6.51063 16.5131 6.81109 15.9725C7.11155 15.4319 7.26905 14.8236 7.26868 14.2051V11.2319C7.61574 11.4922 8.01067 11.6816 8.43092 11.7893C8.85117 11.8969 9.28851 11.9208 9.71797 11.8594C10.1474 11.7981 10.5606 11.6527 10.9339 11.4317C11.3072 11.2107 11.6333 10.9183 11.8936 10.5712C12.1539 10.2242 12.3433 9.82923 12.4509 9.40898C12.5586 8.98873 12.5824 8.55139 12.5211 8.12192C12.4597 7.69246 12.3144 7.27929 12.0934 6.906C11.8723 6.5327 11.5799 6.2066 11.2329 5.94631ZM11.2329 3.3035C11.2329 3.82919 11.0241 4.33335 10.6523 4.70506C10.2806 5.07678 9.77647 5.28561 9.25078 5.28561H7.26868V1.3214H9.25078C9.77647 1.3214 10.2806 1.53023 10.6523 1.90195C11.0241 2.27366 11.2329 2.77782 11.2329 3.3035ZM1.32238 3.3035C1.32238 2.77782 1.5312 2.27366 1.90292 1.90195C2.27464 1.53023 2.77879 1.3214 3.30448 1.3214H5.94728V5.28561H3.30448C2.77879 5.28561 2.27464 5.07678 1.90292 4.70506C1.5312 4.33335 1.32238 3.82919 1.32238 3.3035ZM3.30448 10.5712C2.77879 10.5712 2.27464 10.3624 1.90292 9.99067C1.5312 9.61895 1.32238 9.1148 1.32238 8.58911C1.32238 8.06342 1.5312 7.55927 1.90292 7.18755C2.27464 6.81583 2.77879 6.60701 3.30448 6.60701H5.94728V10.5712H3.30448ZM5.94728 14.2051C5.94728 14.6624 5.81166 15.1095 5.55756 15.4898C5.30347 15.8701 4.94231 16.1665 4.51977 16.3415C4.09722 16.5165 3.63226 16.5623 3.18369 16.4731C2.73512 16.3839 2.32308 16.1636 1.99968 15.8402C1.67628 15.5168 1.45603 15.1048 1.36681 14.6562C1.27758 14.2076 1.32338 13.7427 1.4984 13.3201C1.67342 12.8976 1.96982 12.5364 2.3501 12.2823C2.73038 12.0282 3.17747 11.8926 3.63483 11.8926H5.94728V14.2051ZM9.25078 10.5712C8.85876 10.5712 8.47554 10.455 8.14959 10.2372C7.82363 10.0194 7.56958 9.70981 7.41956 9.34763C7.26954 8.98545 7.23029 8.58691 7.30677 8.20242C7.38325 7.81793 7.57202 7.46475 7.84923 7.18755C8.12643 6.91035 8.4796 6.72157 8.86409 6.64509C9.24858 6.56861 9.64712 6.60787 10.0093 6.75789C10.3715 6.90791 10.681 7.16196 10.8988 7.48791C11.1166 7.81387 11.2329 8.19709 11.2329 8.58911C11.2329 9.1148 11.0241 9.61895 10.6523 9.99067C10.2806 10.3624 9.77647 10.5712 9.25078 10.5712Z" fill="#795DED"/>
</svg>
