<svg width="122" height="31" viewBox="0 0 122 31" fill="none" xmlns="http://www.w3.org/2000/svg"><path fill-rule="evenodd" clip-rule="evenodd" d="M1.703 7.795h11.292c1.205 0 2.83.72 4.135 2.114a7.617 7.617 0 012.055 5.73c-.208 3.528-2.542 5.736-4.59 6.946-1.084.64-2.402.834-3.808.834h-3.98a.773.773 0 100 1.547h3.98c1.518 0 3.162-.203 4.595-1.049 2.271-1.342 5.097-3.934 5.347-8.187a9.164 9.164 0 00-2.47-6.878C16.74 7.23 14.73 6.248 12.995 6.248H1.549c-.768 0-1.392.624-1.392 1.393v19.49a.773.773 0 101.547 0V7.796z" fill="#624BFF"/><path fill-rule="evenodd" clip-rule="evenodd" d="M0 3.773C0 3.346.346 3 .773 3h11.459c1.86.028 4.645.645 7.048 2.413 2.435 1.79 4.435 4.734 4.696 9.3.243 4.251-1.364 7.326-3.58 9.441-2.194 2.093-4.96 3.23-7.075 3.712-.697.158-1.393.194-2.048.194H3.867a.773.773 0 01-.773-.774V9.961a.773.773 0 111.547 0v16.552h6.632c.606 0 1.17-.034 1.705-.156 1.92-.436 4.41-1.47 6.35-3.322 1.916-1.83 3.318-4.474 3.103-8.234-.234-4.098-1.998-6.62-4.067-8.142-2.099-1.544-4.554-2.087-6.15-2.112H.775A.773.773 0 010 3.773z" fill="#624BFF"/><path fill-rule="evenodd" clip-rule="evenodd" d="M6.188 10.425c0-.598.484-1.083 1.082-1.083h4.533l.046.006a6.478 6.478 0 013.374 1.5c1.11.966 1.947 2.439 1.947 4.527 0 3.607-2.663 5.392-4.356 6.049-.638.247-1.297.294-1.873.294h-3.67a1.083 1.083 0 01-1.083-1.083v-10.21zm1.546.464v9.282h3.207c.508 0 .94-.045 1.313-.19 1.425-.552 3.37-1.928 3.37-4.606 0-1.624-.632-2.678-1.417-3.361a4.939 4.939 0 00-2.5-1.125H7.734z" fill="#624BFF"/><path d="M39.347 25h-6.703V6.09h6.758c1.902 0 3.54.38 4.912 1.137 1.373.75 2.428 1.83 3.167 3.24.745 1.41 1.117 3.096 1.117 5.06 0 1.97-.372 3.662-1.117 5.078a7.677 7.677 0 01-3.186 3.26C42.917 24.62 41.267 25 39.347 25zm-2.706-3.425h2.54c1.181 0 2.175-.21 2.982-.628.812-.425 1.422-1.08 1.828-1.967.412-.892.618-2.043.618-3.453 0-1.397-.206-2.54-.618-3.425-.407-.887-1.013-1.54-1.82-1.958-.806-.418-1.8-.628-2.981-.628h-2.55v12.059zm17.849 3.693c-.905 0-1.712-.157-2.42-.471a3.895 3.895 0 01-1.68-1.413c-.406-.628-.61-1.41-.61-2.345 0-.788.145-1.45.435-1.985.29-.535.683-.966 1.182-1.293a5.731 5.731 0 011.699-.738c.64-.166 1.31-.283 2.012-.351a50.44 50.44 0 001.995-.24c.504-.08.87-.197 1.098-.351.228-.154.342-.382.342-.683v-.056c0-.584-.185-1.037-.554-1.357-.363-.32-.88-.48-1.551-.48-.708 0-1.271.157-1.69.47a2.166 2.166 0 00-.83 1.164l-3.639-.295a4.943 4.943 0 011.09-2.235c.542-.634 1.24-1.12 2.096-1.458.861-.345 1.859-.518 2.991-.518.788 0 1.542.093 2.262.278.727.184 1.37.47 1.93.858a4.173 4.173 0 011.339 1.496c.326.603.49 1.326.49 2.17V25h-3.731v-1.967h-.11a4.003 4.003 0 01-.915 1.173 4.23 4.23 0 01-1.375.785c-.536.184-1.155.277-1.856.277zm1.126-2.715c.579 0 1.09-.114 1.533-.341a2.716 2.716 0 001.043-.942c.252-.394.379-.84.379-1.339v-1.505c-.123.08-.293.154-.508.222a9.25 9.25 0 01-.711.175c-.265.05-.53.096-.794.139l-.72.101a4.862 4.862 0 00-1.21.323 1.933 1.933 0 00-.803.6c-.19.247-.286.555-.286.924 0 .535.194.945.581 1.228.394.277.893.415 1.496.415zm20.671-7.69l-3.6.22a1.861 1.861 0 00-.397-.83 2.108 2.108 0 00-.804-.6c-.326-.154-.717-.231-1.172-.231-.61 0-1.124.13-1.542.388-.419.252-.628.59-.628 1.015 0 .339.135.625.406.859.271.234.736.422 1.394.563l2.567.517c1.379.283 2.407.739 3.084 1.367s1.016 1.452 1.016 2.474c0 .93-.274 1.745-.822 2.447-.542.702-1.287 1.25-2.235 1.643-.941.388-2.028.582-3.259.582-1.877 0-3.373-.39-4.487-1.173-1.108-.787-1.757-1.858-1.948-3.213l3.868-.203c.117.573.4 1.01.85 1.311.45.296 1.025.444 1.726.444.69 0 1.244-.133 1.662-.398.425-.27.64-.618.647-1.043a1.085 1.085 0 00-.453-.877c-.295-.234-.75-.412-1.366-.535l-2.456-.49c-1.385-.277-2.416-.757-3.093-1.44-.671-.683-1.007-1.554-1.007-2.613 0-.911.247-1.696.739-2.354.499-.66 1.197-1.167 2.096-1.524.905-.357 1.963-.536 3.176-.536 1.791 0 3.2.38 4.229 1.136 1.034.757 1.637 1.788 1.81 3.093zm5.694 1.938V25h-3.934V6.09h3.823v7.23h.166c.32-.837.837-1.492 1.551-1.966.714-.48 1.61-.72 2.687-.72.985 0 1.843.215 2.576.646.739.425 1.31 1.037 1.717 1.837.413.794.616 1.745.61 2.853V25h-3.934v-8.328c.006-.874-.215-1.554-.664-2.04-.444-.487-1.065-.73-1.865-.73-.536 0-1.01.114-1.422.342-.407.227-.727.56-.96.997-.228.43-.345.95-.351 1.56zm27.982-10.71h3.998v12.28c0 1.379-.329 2.585-.988 3.62-.653 1.033-1.567 1.84-2.742 2.418-1.176.573-2.545.859-4.109.859-1.57 0-2.942-.287-4.118-.859-1.175-.578-2.09-1.385-2.742-2.419-.653-1.034-.979-2.24-.979-3.62V6.09h3.998v11.94c0 .72.157 1.36.471 1.92.32.56.769 1 1.348 1.32.579.32 1.253.48 2.022.48.776 0 1.45-.16 2.022-.48a3.369 3.369 0 001.339-1.32c.32-.56.48-1.2.48-1.92V6.09zm10.245 0V25h-3.998V6.09h3.998z" fill="#454F5B"/></svg>