<svg width="116" height="31" viewBox="0 0 116 31" fill="none" xmlns="http://www.w3.org/2000/svg"><path fill-rule="evenodd" clip-rule="evenodd" d="M1.843 7.195h12.234c1.304 0 3.065.78 4.478 2.29a8.252 8.252 0 012.227 6.208c-.225 3.822-2.753 6.214-4.973 7.525-1.174.693-2.601.903-4.124.903H7.373a.838.838 0 000 1.676h4.31c1.644 0 3.425-.22 4.978-1.137 2.46-1.453 5.521-4.261 5.792-8.869a9.927 9.927 0 00-2.675-7.45c-1.645-1.758-3.823-2.821-5.702-2.821h-12.4c-.833 0-1.508.675-1.508 1.508v21.115a.838.838 0 001.675 0V7.195z" fill="#F1F5F9"/><path fill-rule="evenodd" clip-rule="evenodd" d="M0 2.838C0 2.375.375 2 .838 2H13.25c2.015.03 5.033.699 7.636 2.614 2.637 1.94 4.804 5.128 5.087 10.074.263 4.606-1.478 7.937-3.88 10.229-2.375 2.267-5.372 3.5-7.663 4.02-.755.172-1.508.211-2.219.211H4.19a.838.838 0 01-.838-.838V9.541a.838.838 0 111.675 0v17.931h7.185c.657 0 1.269-.037 1.847-.168 2.08-.473 4.777-1.593 6.879-3.6 2.076-1.981 3.595-4.846 3.363-8.92-.254-4.439-2.165-7.171-4.407-8.82-2.273-1.672-4.933-2.261-6.661-2.288H.838A.838.838 0 010 2.838z" fill="#F1F5F9"/><path fill-rule="evenodd" clip-rule="evenodd" d="M6.703 10.044c0-.648.525-1.173 1.173-1.173h4.91l.051.006c1.056.128 2.479.601 3.654 1.624 1.203 1.048 2.11 2.644 2.11 4.906 0 3.907-2.885 5.84-4.72 6.552-.69.269-1.404.319-2.028.319H7.876a1.173 1.173 0 01-1.173-1.173v-11.06zm1.676.503v10.055h3.474c.55 0 1.02-.048 1.422-.205 1.544-.6 3.65-2.089 3.65-4.99 0-1.76-.684-2.901-1.534-3.642-.86-.748-1.924-1.114-2.708-1.218H8.38z" fill="#F1F5F9"/><path d="M38.347 25h-6.704V6.09h6.759c1.902 0 3.54.38 4.912 1.137 1.373.75 2.428 1.83 3.167 3.24.745 1.41 1.117 3.096 1.117 5.06 0 1.97-.372 3.662-1.117 5.078a7.677 7.677 0 01-3.186 3.26C41.917 24.62 40.267 25 38.347 25zm-2.706-3.425h2.54c1.181 0 2.175-.21 2.982-.628.812-.425 1.422-1.08 1.828-1.967.412-.892.618-2.043.618-3.453 0-1.397-.206-2.54-.618-3.425-.407-.887-1.013-1.54-1.82-1.958-.806-.418-1.8-.628-2.981-.628h-2.55v12.059zm17.849 3.693c-.905 0-1.712-.157-2.42-.471a3.895 3.895 0 01-1.68-1.413c-.406-.628-.61-1.41-.61-2.345 0-.788.145-1.45.435-1.985.29-.535.683-.966 1.182-1.293a5.731 5.731 0 011.699-.738c.64-.166 1.31-.283 2.012-.351a50.44 50.44 0 001.995-.24c.504-.08.87-.197 1.098-.351.228-.154.342-.382.342-.683v-.056c0-.584-.185-1.037-.554-1.357-.363-.32-.88-.48-1.551-.48-.708 0-1.271.157-1.69.47a2.166 2.166 0 00-.83 1.164l-3.639-.295a4.943 4.943 0 011.09-2.235c.542-.634 1.24-1.12 2.096-1.458.861-.345 1.859-.518 2.991-.518.788 0 1.542.093 2.262.278.727.184 1.37.47 1.93.858a4.173 4.173 0 011.339 1.496c.326.603.49 1.326.49 2.17V25h-3.731v-1.967h-.11a4.003 4.003 0 01-.915 1.173 4.23 4.23 0 01-1.375.785c-.536.184-1.155.277-1.856.277zm1.126-2.715c.579 0 1.09-.114 1.533-.341a2.716 2.716 0 001.043-.942c.252-.394.379-.84.379-1.339v-1.505c-.123.08-.293.154-.508.222a9.25 9.25 0 01-.711.175c-.265.05-.53.096-.794.139l-.72.101a4.862 4.862 0 00-1.21.323 1.933 1.933 0 00-.803.6c-.19.247-.286.555-.286.924 0 .535.194.945.581 1.228.394.277.893.415 1.496.415zm20.671-7.69l-3.6.22a1.861 1.861 0 00-.397-.83 2.108 2.108 0 00-.804-.6c-.326-.154-.717-.231-1.172-.231-.61 0-1.124.13-1.542.388-.419.252-.628.59-.628 1.015 0 .339.135.625.406.859.271.234.736.422 1.394.563l2.567.517c1.379.283 2.407.739 3.084 1.367s1.016 1.452 1.016 2.474c0 .93-.274 1.745-.822 2.447-.542.702-1.287 1.25-2.235 1.643-.941.388-2.028.582-3.259.582-1.877 0-3.373-.39-4.487-1.173-1.108-.787-1.757-1.858-1.948-3.213l3.868-.203c.117.573.4 1.01.85 1.311.45.296 1.025.444 1.726.444.69 0 1.244-.133 1.662-.398.425-.27.64-.618.647-1.043a1.085 1.085 0 00-.453-.877c-.295-.234-.75-.412-1.366-.535l-2.456-.49c-1.385-.277-2.416-.757-3.093-1.44-.671-.683-1.007-1.554-1.007-2.613 0-.911.247-1.696.739-2.354.499-.66 1.197-1.167 2.096-1.524.905-.357 1.963-.536 3.176-.536 1.791 0 3.2.38 4.229 1.136 1.034.757 1.637 1.788 1.81 3.093zm5.694 1.938V25h-3.934V6.09h3.823v7.23h.166c.32-.837.837-1.492 1.551-1.966.714-.48 1.61-.72 2.687-.72.985 0 1.843.215 2.576.646.739.425 1.31 1.037 1.717 1.837.413.794.616 1.745.61 2.853V25h-3.934v-8.328c.006-.874-.215-1.554-.664-2.04-.444-.487-1.065-.73-1.865-.73-.536 0-1.01.114-1.422.342-.407.227-.727.56-.96.997-.228.43-.345.95-.351 1.56zm23.004-10.71h3.998v12.28c0 1.379-.329 2.585-.988 3.62-.652 1.033-1.566 1.84-2.742 2.418-1.175.573-2.545.859-4.108.859-1.57 0-2.943-.287-4.118-.859-1.176-.578-2.09-1.385-2.743-2.419-.652-1.034-.978-2.24-.978-3.62V6.09h3.998v11.94c0 .72.157 1.36.47 1.92.32.56.77 1 1.349 1.32.578.32 1.252.48 2.022.48.775 0 1.449-.16 2.022-.48a3.373 3.373 0 001.338-1.32c.32-.56.48-1.2.48-1.92V6.09zm10.245 0V25h-3.997V6.09h3.997z" fill="#F1F5F9"/></svg>