<svg width="84" height="33" viewBox="0 0 84 33" fill="none" xmlns="http://www.w3.org/2000/svg"><path d="M2.08 26h5.33c6.162 0 9.516-3.146 9.516-8.918 0-5.876-3.458-9.204-9.49-9.204H2.08V26zm3.666-3.38V11.232h1.612c3.848 0 5.876 1.508 5.876 5.694 0 4.316-2.054 5.694-6.188 5.694h-1.3zm17.62-9.724c-2.288 0-4.42.832-5.98 2.6l2.548 2.132c1.04-1.17 2.132-1.664 3.276-1.664 1.456 0 2.314.754 2.314 1.924v.286h-3.38c-1.3 0-2.34.182-3.172.598-1.17.598-1.846 1.69-1.846 3.198 0 2.522 2.002 4.316 4.784 4.316 1.3 0 2.73-.468 3.64-1.768L25.81 26h3.224v-8.112c0-3.068-2.158-4.992-5.668-4.992zm-.884 10.478c-1.196 0-1.846-.572-1.846-1.352 0-.39.156-.702.468-.91.312-.234.806-.338 1.534-.338h2.886c-.026 1.482-1.404 2.6-3.042 2.6zm12.515 2.912c2.418 0 5.122-1.326 5.122-4.42 0-4.758-6.5-3.562-6.5-5.382 0-.494.494-.91 1.352-.91 1.352 0 1.95.936 2.34 1.638l2.704-1.508c-.988-1.716-2.678-2.808-4.966-2.808-2.392 0-4.758 1.196-4.758 3.874 0 4.654 6.37 3.484 6.37 5.46 0 .52-.468 1.17-1.742 1.17-1.742 0-2.236-1.222-2.548-2.028L29.59 22.62c.598 1.898 2.652 3.666 5.408 3.666zm13.661-13.39c-1.638 0-2.912.52-3.744 1.612v-6.63h-3.536V26h3.536v-4.888c0-3.484.572-5.148 2.626-5.148 1.508 0 2.236.806 2.236 2.522V26h3.51v-8.398c0-2.964-1.716-4.706-4.628-4.706zm18.964 13.546c4.654 0 7.072-2.366 7.072-7.124V7.878h-3.666v11.18c0 2.73-.754 3.926-3.406 3.926s-3.38-1.17-3.38-3.952V7.878h-3.666v11.57c0 4.68 2.392 6.994 7.046 6.994zM77.42 26h3.666V7.878H77.42V26z" fill="#624BFF"/></svg>