<svg width="16" height="16" viewBox="0 0 16 16" fill="none" xmlns="http://www.w3.org/2000/svg">
<g clip-path="url(#clip0_2909_4691)">
<path d="M14.5695 4.57518C12.4562 1.10313 9.27265 3.51868 9.27265 3.51868C9.06618 3.67472 8.68547 3.80302 8.42679 3.80361L7.57407 3.80421C7.31539 3.80451 6.93468 3.67621 6.72851 3.52017C6.72851 3.52017 3.54468 1.10403 1.43108 4.57608C-0.681927 8.04693 0.1696 11.8269 0.1696 11.8269C0.318781 12.7524 0.810483 13.37 1.73839 13.2924C2.66361 13.2152 4.67189 10.7999 4.67189 10.7999C4.83778 10.6009 5.18538 10.4383 5.44346 10.4383L10.5556 10.4374C10.814 10.4374 11.1613 10.6 11.3269 10.799C11.3269 10.799 13.3355 13.2143 14.2622 13.2915C15.1889 13.3691 15.6818 12.7509 15.8301 11.826C15.8301 11.826 16.6828 8.04663 14.5695 4.57518ZM6.07897 7.40127H4.98279V8.45778C4.98279 8.45778 4.75066 8.635 4.39143 8.63053C4.0328 8.62516 3.87049 8.43719 3.87049 8.43719V7.40157H2.83517C2.83517 7.40157 2.70598 7.2691 2.67137 6.92031C2.63736 6.57153 2.81429 6.28957 2.81429 6.28957H3.91077V5.19339C3.91077 5.19339 4.13633 5.07255 4.46065 5.0818C4.78527 5.09194 5.02307 5.21398 5.02307 5.21398L5.01859 6.28927H6.05391C6.05391 6.28927 6.23472 6.5214 6.24964 6.80186C6.26455 7.08262 6.07897 7.40127 6.07897 7.40127ZM11.107 8.60546C10.6269 8.60546 10.2399 8.21729 10.2399 7.73783C10.2399 7.25746 10.6269 6.87019 11.107 6.87019C11.585 6.87019 11.9749 7.25746 11.9749 7.73783C11.9749 8.21759 11.585 8.60546 11.107 8.60546ZM11.107 6.21826C10.6269 6.21826 10.2399 5.83039 10.2399 5.35092C10.2399 4.87056 10.6269 4.48329 11.107 4.48329C11.585 4.48329 11.9749 4.87056 11.9749 5.35092C11.9749 5.83069 11.585 6.21826 11.107 6.21826ZM13.2677 7.49973C12.7877 7.49973 12.4007 7.11186 12.4007 6.63209C12.4007 6.15203 12.7877 5.76445 13.2677 5.76445C13.7457 5.76445 14.1357 6.15203 14.1357 6.63209C14.1357 7.11186 13.7457 7.49973 13.2677 7.49973Z" fill="#795DED"/>
</g>
<defs>
<clipPath id="clip0_2909_4691">
<rect width="16" height="16" fill="white"/>
</clipPath>
</defs>
</svg>
