<svg width="16" height="16" viewBox="0 0 16 16" fill="none" xmlns="http://www.w3.org/2000/svg">
<path d="M2.28544 4.82571L9.02577 11.82C9.18173 11.9819 9.36861 12.1107 9.57533 12.1989C9.78204 12.287 10.0044 12.3328 10.2291 12.3334H14.6011C14.5404 12.121 14.4381 11.9227 14.3002 11.7502C14.1622 11.5777 13.9913 11.4343 13.7974 11.3284L12.2151 10.4667C11.8842 10.2859 11.602 10.0275 11.393 9.71359C11.184 9.39971 11.0543 9.03977 11.0151 8.66471C11.0094 8.66471 11.0044 8.66804 10.9984 8.66804H9.6661C9.5777 8.66804 9.49291 8.63292 9.4304 8.57041C9.36789 8.5079 9.33277 8.42311 9.33277 8.33471C9.33277 8.2463 9.36789 8.16152 9.4304 8.09901C9.49291 8.03649 9.5777 8.00137 9.6661 8.00137H10.9994V7.33337H9.6661C9.5777 7.33337 9.49291 7.29826 9.4304 7.23574C9.36789 7.17323 9.33277 7.08845 9.33277 7.00004C9.33277 6.91164 9.36789 6.82685 9.4304 6.76434C9.49291 6.70183 9.5777 6.66671 9.6661 6.66671H10.9994V6.00004H9.6661C9.5777 6.00004 9.49291 5.96492 9.4304 5.90241C9.36789 5.8399 9.33277 5.75511 9.33277 5.66671C9.33277 5.5783 9.36789 5.49352 9.4304 5.43101C9.49291 5.36849 9.5777 5.33337 9.6661 5.33337H10.9994V4.66671C10.9994 4.40149 10.8941 4.14714 10.7065 3.9596C10.519 3.77206 10.2647 3.66671 9.99944 3.66671H7.99944C7.73422 3.66671 7.47987 3.56135 7.29233 3.37381C7.10479 3.18628 6.99944 2.93192 6.99944 2.66671V2.33337C6.99944 2.06816 6.89408 1.8138 6.70654 1.62627C6.51901 1.43873 6.26465 1.33337 5.99944 1.33337H5.95577C5.81869 1.3336 5.68311 1.3619 5.55739 1.41653C5.43166 1.47117 5.31846 1.55098 5.22477 1.65104L2.27344 4.81304L2.28544 4.82571Z" fill="#795DED"/>
<path d="M8.54558 12.2821L1.83658 5.32007C1.52983 5.76188 1.38515 6.2961 1.427 6.83233C1.46885 7.36856 1.69467 7.87386 2.06624 8.26274L6.91191 13.3294C7.31709 13.7512 7.8031 14.087 8.34093 14.3167C8.87877 14.5465 9.45739 14.6655 10.0422 14.6667H12.9996C13.4414 14.6662 13.8651 14.4904 14.1775 14.178C14.4899 13.8655 14.6657 13.4419 14.6662 13.0001H10.2292C9.9148 12.9994 9.60371 12.9355 9.31446 12.8121C9.02522 12.6888 8.76374 12.5085 8.54558 12.2821Z" fill="#795DED"/>
</svg>
