<svg width="16" height="16" viewBox="0 0 16 16" fill="none" xmlns="http://www.w3.org/2000/svg">
<g clip-path="url(#clip0_2909_4683)">
<path d="M8.00077 2.38628C8.69383 2.38628 9.29246 1.94438 9.50751 1.29431C9.09723 1.40725 8.57428 1.47541 8.00077 1.47541C7.42731 1.47541 6.90437 1.40725 6.49414 1.29431C6.70908 1.94433 7.30766 2.38628 8.00077 2.38628Z" fill="#795DED"/>
<path d="M15.9801 3.18565C15.9472 3.09328 15.8787 3.01732 15.7895 2.97596L12.739 1.56776C12.0901 1.34795 11.4291 1.17432 10.7616 1.04741C10.7381 1.04281 10.7147 1.04059 10.6916 1.04059C10.5264 1.04059 10.3784 1.15466 10.3416 1.32196C10.0979 2.39503 9.14797 3.19842 7.99997 3.19842C6.85202 3.19842 5.90207 2.39508 5.65838 1.32196C5.62113 1.15466 5.47344 1.04059 5.30831 1.04059C5.28524 1.04059 5.26186 1.04281 5.23836 1.04741C4.57091 1.17432 3.90985 1.34795 3.25995 1.56776L0.210578 2.9759C0.120812 3.01727 0.0518369 3.09323 0.0204894 3.18559C-0.0119409 3.27904 -0.0060937 3.3799 0.0396011 3.46804L1.36388 6.08153C1.42588 6.20556 1.55197 6.28001 1.68537 6.28001C1.71981 6.28001 1.75473 6.27502 1.78916 6.26468L3.26 5.82874V14.5979C3.26 14.797 3.42248 14.9595 3.62215 14.9595H12.378C12.5771 14.9595 12.7391 14.797 12.7391 14.5979V5.82885L14.2109 6.26479C14.2454 6.27513 14.2802 6.28011 14.3146 6.28011C14.4478 6.28011 14.5734 6.20567 14.6362 6.08163L15.961 3.46815C16.0056 3.37996 16.012 3.27909 15.9801 3.18565Z" fill="#795DED"/>
</g>
<defs>
<clipPath id="clip0_2909_4683">
<rect width="16" height="16" fill="white"/>
</clipPath>
</defs>
</svg>
