<svg width="16" height="16" viewBox="0 0 16 16" fill="none" xmlns="http://www.w3.org/2000/svg">
<path d="M10.622 2.37506L10.5195 1.83506C10.4245 1.35006 10.0045 1.00006 9.50945 1.00006H6.48945C5.99445 1.00006 5.57445 1.35006 5.47945 1.83506L5.37695 2.37506H10.622Z" fill="#795DED"/>
<path d="M5.37695 13.6251L5.47945 14.1651C5.57445 14.6501 5.99445 15.0001 6.48945 15.0001H9.50945C10.0045 15.0001 10.4245 14.6501 10.5195 14.1651L10.622 13.6251H5.37695Z" fill="#795DED"/>
<path d="M10.83 3.12506H5.17C4.0405 3.12506 3.125 4.04056 3.125 5.17006V10.8301C3.125 11.9596 4.0405 12.8751 5.17 12.8751H10.83C11.9595 12.8751 12.875 11.9596 12.875 10.8301V5.17006C12.875 4.04056 11.9595 3.12506 10.83 3.12506ZM9.8875 9.45556C9.799 9.57006 9.666 9.63056 9.5315 9.63056C9.4355 9.63056 9.3385 9.59956 9.2565 9.53656L7.725 8.35206C7.615 8.26656 7.5505 8.13506 7.5505 7.99606V5.29456C7.5505 5.04606 7.752 4.84456 8.0005 4.84456C8.249 4.84456 8.4505 5.04606 8.4505 5.29456V7.77556L9.8075 8.82506C10.0035 8.97606 10.0395 9.25906 9.8875 9.45556Z" fill="#795DED"/>
</svg>
